<svg width="1024" height="1024" viewBox="0 0 1024 1024" fill="none" xmlns="http://www.w3.org/2000/svg">
<g clip-path="url(#clip0_602_1099)">
<path d="M989.29 221.57V231.101C986.058 237.496 982.066 238.628 975.379 239.41C965.945 240.513 947.386 239.106 937.039 238.754C935.778 238.711 934.891 238.172 933.785 237.773C932.136 258.731 932.798 280.081 932.796 301.192C932.795 315.398 933.006 329.896 932.796 344.003C932.681 351.735 934.251 370.936 932.415 376.976C930.922 381.89 924.544 384.068 920.014 384.429L858.497 386.45C858.83 439.597 857.442 492.52 857.142 545.674C856.25 549.359 853.818 552.31 851.306 555.011L784.106 599.407C782.017 608.889 786.258 619.715 783.228 629.494C781.595 630.226 780.817 629.86 780.522 628.166C782.179 616.382 779.206 611.76 771.602 614.3L770.542 613.795C770.82 607.184 770.658 600.662 770.055 594.229L768.511 591.34C764.747 557.672 755.553 526.765 745.283 494.717C744.624 492.662 744.337 490.595 744.65 488.436C744.177 487.054 744.79 485.638 746.487 484.188C747.201 479.871 748.784 477.792 751.237 477.952L753.429 479.85C767.896 513.552 777.532 548.651 782.335 585.144C804.176 571.609 825.141 557.759 845.231 543.594C845.593 487.309 846.163 430.813 846.94 374.107C865.505 373.054 884.104 372.725 902.736 373.121C909.597 371.82 917.597 371.663 924.366 372.635L922.485 371.969V227.509L924.366 226.336C925.351 225.494 926.472 224.982 927.742 224.829C930.393 226.586 977.744 230.752 979.275 227.172C978.209 223.638 978.097 220.818 978.94 218.711C976.42 217.605 974.397 215.211 972.87 211.528C940.083 171.746 903.645 131.7 867.594 94.3732C864.546 91.2162 855.35 81.8311 851.039 81.8851C848.237 83.3331 845.393 84.7822 842.506 86.2311L842.356 88.3571C801.376 118.33 768.285 163.09 743.182 207.637L740.887 208.227C741.439 209.255 741.439 209.89 740.887 210.133C741.289 210.384 741.646 210.661 741.843 211.026C743.24 213.618 753.291 214.511 756.868 214.766C773.87 215.979 790.829 217.164 807.901 216.76C809.549 217.049 811.045 217.705 812.397 218.711C813.717 216.677 827.641 217.197 828.062 219.687C830.954 244.71 834.578 269.985 838.893 294.146C839.346 296.115 838.041 296.704 834.979 295.911L832.748 297.132C812.498 296.541 792.231 296.777 771.945 297.839C758.748 327.58 736.056 354.924 710.86 375.332C710.252 375.824 709.477 376.111 708.668 376.38C707.834 376.658 706.959 376.809 706.073 376.924C705.649 379.843 699.13 385.323 695.722 385.502C694.644 389.866 690.753 385.593 692.879 381.797C690.592 379.698 689.971 377.756 691.018 375.971C721.86 352.753 749.887 326.33 764.093 289.162C784.315 285.694 805.023 286.509 825.566 286.374L818.038 230.153C801.338 228.504 784.429 228.741 767.711 227.281C759.37 226.552 743.033 225.886 736.136 222.093C725.861 216.442 731.691 207.4 735.691 199.628C754.79 162.524 792.595 117.229 823.193 89.0651C828.04 84.6031 841.988 71.9741 847.736 71.0421C857.071 69.5291 862.961 74.4741 869.348 80.4871C895.065 104.697 918.382 136.643 942.701 162.492C946.443 166.469 950.878 168.597 954.022 171.992C956.857 175.055 958.418 179.588 961.084 182.948C971.133 195.617 985.284 204.859 989.29 221.57Z" fill="#060800"/>
<path d="M166.924 549.434L168.798 552.718C167.398 569.462 166.685 586.223 166.66 602.999L165.042 606.62C168.026 611.382 171.125 621.642 168.806 626.634L170.137 627.115C174.706 680.382 205.563 739.805 249.374 770.972C274.77 799.408 311.038 817.381 345.757 833.832L348.522 836.315L352.62 835.889L375.629 843.967L378.631 846.799C379.435 847.168 379.886 847.766 379.924 848.632C377.122 852.44 376.097 854.928 375.809 859.189C371.789 858.102 363.541 855.724 360.076 857.067C296.723 891.312 236.575 931.854 173.859 966.764C164.143 972.172 153.052 961.655 145.363 955.847C113.901 932.079 78.6563 900.736 49.2963 873.975C45.2353 870.274 30.2813 857.415 28.7573 853.796C26.5113 848.459 27.2573 843.404 31.2043 839.154C84.0633 802.61 137.309 766.626 189.428 728.994C173.912 699.37 160.863 667.587 155.14 634.282C148.718 596.911 151.632 554.987 163.16 518.935C166.195 518.467 166.615 520.925 166.991 523.431C167.188 532.083 167.166 540.75 166.924 549.434Z" fill="#040600"/>
<path d="M691.018 375.971C691.279 376.165 694.589 381.078 694.659 381.398C694.968 382.797 693.448 384.761 693.971 385.354C694.329 385.76 695.594 385.355 695.723 385.502L697.739 385.935C713.757 409.46 729.134 433.581 743.871 458.298C748.107 464.658 750.562 471.209 751.237 477.952C748.079 481.444 750.216 485.318 744.651 488.436C743.845 489.599 743.218 488.963 742.769 486.53C740.368 484.135 737.472 478.731 737.123 475.093C736.313 474.537 735.527 473.955 734.826 473.282C734.156 472.639 733.523 471.984 733.088 471.217C717.618 443.976 703.379 419.872 684.361 394.994C649.586 349.504 593.849 314.553 538.191 301.848L532.943 298.77C532.003 299.076 531.058 299.347 530.095 299.493C529.175 299.633 528.268 299.735 527.394 299.614C503.771 296.35 485.229 293.832 461.094 294.267C440.197 294.643 416.438 296.776 397.745 305.47L394.628 304.489L391.916 307.159C334.146 321.153 276.868 357.495 241.38 405.847C240.466 408.531 239.171 410.327 237.494 411.235L237.473 413.194C234.397 415.25 231.975 418.237 229.69 421.198C215.304 439.844 195.741 469.524 186.984 491.621C179.805 509.733 175.252 525.2 170.017 543.817C169.431 545.901 168.183 547.71 166.924 549.434C166.882 544.511 165.406 540.959 165.058 536.551C164.636 531.198 166.791 522.822 163.161 518.935C184.047 453.617 229.195 385.895 284.244 345.649C399.076 261.697 536.949 254.511 651.401 343.188C664.984 353.712 677.614 366.045 691.018 375.971Z" fill="#1C0C00"/>
<path d="M770.055 594.229C770.069 594.382 770.933 595.258 771.037 596.53C771.475 601.906 770.627 607.845 771.005 613.291C773.732 610.894 775.61 610.975 778.774 612.569C784.368 615.388 781.842 621.832 782.249 627.186C782.343 628.415 783.224 629.368 783.228 629.493C783.945 651.99 775.918 688.878 766.748 709.539C765.449 712.466 761.844 716.521 761.07 719.038C758.886 726.138 760.345 731.201 754.475 738.09C752.706 740.167 749.936 741.013 748.538 743.514C746.393 747.351 746.329 753.116 743.557 757.53C740.324 762.677 733.795 765.678 730.544 770.082C726.169 776.008 726.349 780.729 719.183 786.214C713.275 790.735 713.258 790.216 707.958 795.812C682.956 822.21 651.888 838.629 618.554 852.027C536.476 885.018 459.411 881.803 375.809 859.189C371.68 854.04 377.087 851.481 378.632 846.799L382.044 846.4C405.707 851.808 429.294 856.296 452.805 859.863L469.56 859.157C541.315 868.057 622.374 840.488 680.002 796.701C686.569 788.753 693.66 783.961 702.547 779.423C706.81 771.588 712.573 765.46 719.838 761.041C742.186 728.368 763.498 691.47 766.743 650.38C766.987 641.307 768.091 632.439 770.055 623.775C767.388 614.138 767.286 603.85 770.055 594.229Z" fill="#1D0E01"/>
<path d="M978.94 218.711C980.204 221.61 978.297 221.859 975.629 221.5C954.314 215.903 932.839 211.439 911.206 208.109L912.588 354.763C912.694 357.405 910.252 358.952 907.937 359.468C883.101 357.11 858.344 355.528 833.667 354.722C828.69 354.795 826.124 357.567 826.336 362.461L827.888 394.161C827.523 404.412 827.07 406.895 817.097 410.594L790.854 416.418L796.601 430.57C797.816 434.287 797.838 438.241 794.239 440.453C783.719 441.975 780.136 446.554 783.491 454.192L789.73 467.355C796.977 480.662 789.27 489.872 778.532 476.185L735.288 411.793C726.519 421.22 723.28 410.624 725.768 401.911C724.438 396.214 721.365 391.102 716.55 386.575L717.364 384.549L718.022 382.449C720.543 379.596 731.85 370.169 734.962 374.642L744.692 382.948C756.132 385.901 742.032 371.511 739.294 368.783C738.096 367.129 737.997 365.315 739.515 363.826C755.984 345.531 772.399 326.707 778.205 301.979L780.277 301.074L846.656 301.19C847.173 300.029 847.986 299.222 849.093 298.771C850.275 297.567 851.211 296.296 851.9 294.96C849.527 262.711 846.579 228.202 839.957 195.896C839.896 195.594 834.895 196.283 833.91 196.442C829.839 197.099 825.541 197.825 821.245 198.62C801.471 203.299 781.585 206.502 761.587 208.227C760.119 211.821 748.377 213.408 744.55 212.8C743.589 212.648 742.631 212.449 741.713 212.115C741.068 211.879 740.902 210.96 740.887 210.133C741.005 209.542 740.719 208.649 740.887 208.227C743.146 208.131 744.569 207.836 746.43 206.378C749.973 203.601 754.253 199.345 757.205 195.909C765.838 185.862 774.373 175.77 782.466 165.256C789.485 153.825 801.576 149.027 792.275 163.849C789.939 166.956 794.71 168.494 796.102 166.524C800.536 160.25 848.177 92.5839 846.639 88.1549C844.89 88.1669 843.438 88.1109 842.506 86.2309C850.983 75.0069 855.737 80.924 863.702 88.1119C876.959 100.077 891.677 117.569 904.15 131.013C921.547 149.765 939.158 168.859 955.901 188.199C963.159 196.583 975.022 208.647 978.94 218.711Z" fill="#ACE208"/>
<path d="M978.94 218.711C980.011 221.463 982.48 226.234 980.409 229.257C979.434 230.679 956.729 230.354 953.074 230.139C943.782 229.594 933.681 227.367 924.367 226.336V372.635C924.367 375.015 911.283 373.876 908.802 374.026C906.577 374.16 904.514 374.982 902.294 375.057C884.292 375.67 866.151 374.524 848.147 375.013C847.842 407.573 848.556 440.182 848.191 472.749C848.165 475.001 847.201 477.09 847.172 479.342C846.898 500.887 847.62 522.456 847.017 543.996C846.348 546.307 838.812 550.643 836.41 552.313C818.642 564.664 799.792 575.502 781.816 587.539C780.41 586.586 780.453 585.048 780.072 583.606C777.541 574.029 776.603 562.203 774.469 552.111C768.837 525.475 762.112 502.825 751.237 477.952C735.615 442.222 717.78 420.72 696.975 389.45C695.975 387.947 695.859 385.657 695.722 385.502C697.977 382.677 700.96 380.128 703.72 377.841C704.541 377.161 705.806 377.149 706.073 376.924C708.977 375.265 717.7 381.148 717.364 384.549C720.734 388.968 727.442 395.424 727.653 401.299C727.776 404.729 725.28 409.33 728.212 413.113C730.84 416.504 733.402 407.928 736.206 409.77L780.014 475.013C782.124 477.422 786.253 483.001 789.878 480.399C794.258 477.254 782.953 458.732 781.561 454.385C775.835 436.508 793.28 443.479 795.3 436.275C796.759 431.072 788.336 418.421 788.924 415.59C789.565 412.505 820.304 411.491 824.522 403.98C828.333 397.194 823.468 369.965 824.607 360.224C826.013 348.208 842.383 354.72 850.543 353.058L908.118 357.625L910.718 355.95L909.307 206.316C912.095 203.49 965.847 217.813 974.202 219.238C975.643 219.484 978.025 220.499 978.94 218.711Z" fill="#71BD00"/>
<path d="M842.506 86.2309C844.417 85.8719 847.048 86.4749 849.095 86.2349C850.866 88.0129 839.8 105.045 838.01 107.887C825.291 128.073 810.947 147.34 797.855 167.285C796.2 170.085 790.736 169.852 789.956 166.578C789 162.569 794.858 158.906 794.053 154.858C779.976 169.724 768.632 187.63 753.963 201.934C751.493 204.342 743.253 213.684 740.886 208.227C743.88 200.713 751.89 188.765 756.495 181.625C772.759 156.406 795.402 127.279 817.088 106.709C820.524 103.45 839.58 86.7809 842.506 86.2309Z" fill="#C8F503"/>
<path d="M834.979 295.911C838 294.164 847.151 294.713 849.093 298.77L849.131 303.1L779.401 302.979C774.735 328.051 756.171 347.722 740.014 366.094C739.63 368.326 755.45 379.517 749.851 384.559C744.01 389.819 735.167 374.559 731.053 374.965C728.153 375.252 721.446 384.32 717.364 384.549L706.073 376.924C726.301 359.864 746.31 339.666 760.096 316.798C764.095 310.165 767.284 303.164 770.98 296.371C792.164 293.361 813.746 295.491 834.979 295.911Z" fill="#C9F505"/>
<path d="M744.65 488.436C757.807 521.193 766.751 559.002 770.055 594.229C769.996 604.065 770.135 613.94 770.055 623.775C768.773 631.011 768.696 631.179 764.807 624.965C759.16 615.942 749.537 622.298 747.821 630.902C745.408 646.853 741.821 662.507 737.059 677.864L734.3 680.008C731.601 679.037 730.399 673.473 730.77 670.717C739.351 658.549 741.112 643.473 742.507 628.691C743.625 627.964 744.357 626.973 744.65 625.681C741.492 624.476 743.411 620.125 744.866 617.764C748.756 614.822 750.763 610.288 750.085 605.43C748.265 598.708 747.383 594.568 752.944 589.477C756.151 583.382 750.334 563.628 748.236 556.745C744.189 543.466 742.346 541.232 728.243 539.171L727.713 537.044L728.955 535.234C749.383 533.896 749.097 519.092 734.381 508.788L734.3 507.498L735.15 505.263C743.442 503.37 742.943 499.129 741.138 491.888L742.768 490.342C741.821 488.4 741.821 487.129 742.768 486.53C743.17 487.162 744.441 487.915 744.65 488.436Z" fill="#FDE2A1"/>
<path d="M849.093 298.77L834.979 295.911C837.726 296.452 836.981 294.433 836.844 292.626C836.372 286.397 834.195 279.615 833.246 273.362C830.574 255.746 828.581 237.983 826.354 220.299C825.488 217.652 815.398 218.746 812.397 218.71C810.494 218.529 810.136 217.763 811.092 216.095C812.326 213.942 829.884 213.806 831.396 217.87L841.918 284.363C842.699 289.055 846.53 290.247 846.307 284.613C845.371 260.918 840.912 236.883 836.279 213.856C835.483 208.268 831.415 207.975 826.768 208.167C805.161 209.061 782.843 210.386 761.703 211.737C759.573 210.558 759.33 209.21 761.587 208.226C784.437 204.173 807.182 198.983 830.057 195.139C832.36 194.752 840.252 193.325 841.634 194.341C845.004 213.593 847.799 233.196 849.917 252.663C851.308 265.449 853.626 280.996 853.842 293.584C853.901 297.032 852.733 298.967 849.093 298.77Z" fill="#75C300"/>
<path d="M761.587 208.227C760.903 211.884 766.713 209.207 768.605 209.14C787.814 208.452 806.864 207.039 825.997 206.286C837.562 205.831 837.241 209.235 839.384 219.491C843.021 236.903 847.539 266.516 848.178 284.04C848.51 293.164 840.648 291.717 839.944 283.734L829.787 218.728C828.135 215.984 818.884 216.688 815.648 216.804C813.836 216.869 811.872 215.831 812.397 218.711C792.257 218.47 769.813 218.875 749.936 215.74C747.982 215.432 742.1 214.43 740.891 213.466C738.719 211.733 740.762 210.759 740.887 210.133C747.093 212.431 755.273 209.347 761.587 208.227Z" fill="#91D101"/>
<path d="M120.819 921.14C97.067 900.823 69.416 879.856 47.427 858.236C49.161 854.714 57.181 849.503 60.656 853.651C72.786 865.126 86.406 873.82 66.251 851.421C65.431 850.308 65.568 849.424 65.886 848.209C66.399 846.254 86.583 832.773 89.067 832.602C90.93 832.474 92.562 833.459 94.021 834.538C98.802 841.21 125.944 859.78 110.001 838.785L100.325 829.358C99.156 827.938 99.476 826.351 100.758 825.185L146.476 794.692C153.827 798.803 160.755 804.092 167.26 810.556C185.761 827.021 187.207 812.653 172.171 800.775L158.218 788.633C156.823 787.449 156.616 786.031 157.388 784.405C160.704 781.307 177.482 765.468 174.154 760.842C171.643 759.914 169.86 758.702 168.806 757.208C170.068 756.284 171.288 755.28 172.57 754.349C174.334 753.195 175.713 752.987 176.707 753.724C192.394 772.869 210.879 789.83 230.019 805.695C232.055 810.661 229.736 814.884 224.618 816.023C204.593 816.983 205.311 823.664 226.771 836.066C239.868 848.329 233.074 854.529 206.387 854.666C198.033 856.441 200.74 861.857 214.509 870.915C221.961 876.833 220.781 884.16 213.341 889.166L190.062 904.926C178.947 911.979 173.606 922.109 169.526 933.976C163.248 943.118 158.006 939.625 153.802 923.496C150.786 908.938 126.387 906.246 123.246 921.6L120.819 921.14Z" fill="#AFE309"/>
<path d="M172.57 754.349C175.654 752.109 193.61 737.742 195.528 738.212C231.929 789.788 285.745 828.661 344.628 849.779L344.777 852.811L167.231 958.137C149.614 948.788 135.818 933.97 120.819 921.14C123.508 919.701 122.927 916.328 124.559 913.968C128.048 908.923 140.984 908.874 146.224 911.133C157.612 916.045 156.709 935.637 162.883 937.238C167.737 938.498 170.7 924.585 172.735 920.831C181.975 903.792 200.435 897.661 213.887 886.268C229.637 872.929 192.028 865.821 200.707 854.801C204.245 850.309 229.787 854.108 231.72 847.074C234.187 838.095 209.082 830.86 208.251 822.518C206.957 809.525 231.96 820.533 228.568 806.758C214.181 794.964 200.363 782.739 187.6 769.147C183.922 765.23 180.404 760.438 176.561 756.502C175.294 755.204 175.151 753.815 172.57 754.349Z" fill="#74C101"/>
<path d="M734.3 680.008C741.147 661.133 742.042 650.131 745.837 631.173C748.737 616.684 764.485 613.532 768.184 628.535L770.055 623.776C769.645 673.959 758.467 705.167 731.453 746.224C728.451 750.787 726.491 756.277 722.984 760.519C719.405 764.848 714.173 766.457 711.314 769.666C709.046 772.212 707.475 777.304 704.657 780.079C701.009 783.67 694.427 785.431 691.084 788.251C687.122 791.592 684.182 796.017 679.082 799.921C627.612 839.321 547.242 866.447 482.565 863.04C478.371 862.819 473.634 861.22 469.473 861.061C459.585 860.684 452.286 863.132 441.629 860.664C420.85 855.851 399.274 852.461 378.632 846.799C367.864 843.846 358.926 840.451 348.522 836.315C344.841 834.142 344.662 830.704 347.986 825.999C349.43 818.081 350.862 813.745 359.813 816.3L362.854 815.286C372.498 817.733 382.065 820.357 391.553 823.16C400.04 828.009 408.88 831.121 418.073 832.497L420.032 834.409L422.095 833.877C428.233 838.779 438.144 839.336 444.888 835.515C447.692 829.34 450.777 827.703 454.143 830.603C461.219 842.295 469.941 844.139 482.285 838.824L484.015 840.128C498.079 841.532 511.711 840.295 524.913 836.417C533.85 828.867 542.47 827.239 550.775 831.534C559.641 833.505 595.247 819.007 605.634 814.557C622.468 807.345 639.359 799.845 655.384 790.79C667.494 783.947 674.627 779.131 678.215 764.985C679.102 763.086 680.23 761.364 681.613 759.794C683.992 757.093 690.61 751.943 693.84 752.443L695.752 751.721C718.535 768.039 722.801 745.446 709.898 729.593L710.777 727.663C710.428 726.228 710.448 724.806 710.865 723.399C719.46 710.264 726.379 696.437 731.625 681.917L734.3 680.008Z" fill="#EAD291"/>
<path d="M171.629 625.681C181.246 622.766 187.519 624.354 190.447 630.446C191.553 631.348 192.586 632.383 193.136 633.731C194.704 637.577 202.434 661.579 202.246 663.468C202.171 664.225 201.972 664.97 201.738 665.711C213.056 688.565 225.605 709.407 241.834 729.002C242.69 730.036 245.649 731.541 246.903 730.521C248.879 728.488 252.086 730.642 251.607 733.38C252.379 736.053 254.893 737.802 259.15 738.628C263.891 741.404 271.173 749.883 262.073 751.379C289.136 779.009 323.256 798.875 358.173 813.679L359.813 816.299C349.839 816.936 351.93 819.752 349.766 826.614C349.271 828.181 346.852 832.434 346.889 832.991C346.964 834.095 350.531 835.543 348.522 836.314C320.382 825.128 293.745 810.279 269.187 792.297C259.684 785.338 256.677 780.204 249.273 773.392C245.524 769.942 239.002 766.415 234.657 762.463C203.648 734.26 176.475 682.474 169.246 640.964C168.26 635.301 169.447 630.627 168.806 626.634C168.375 623.225 170.58 622.533 171.629 625.681Z" fill="#ECD599"/>
<path d="M196.093 532.278L196.224 533.737C189.844 540.206 172.046 559.485 191.275 560.795C195.353 560.358 198.527 561.018 200.798 562.777C200.947 565.643 198.339 567.709 192.974 568.975C186.956 572.528 189.553 587.093 191.099 592.812L189.507 594.229C188.204 604.707 189.804 616.934 191.83 627.828L190.447 630.447L185.08 626.831C181.677 625.153 174.584 628.172 172.224 627.649C171.281 627.44 171.712 625.74 171.629 625.681L170.046 624.645C170.123 617.508 169.634 612.291 165.043 606.619C163.169 585.326 167.097 569.179 166.924 549.434C171.885 524.25 180.227 499.762 191.839 476.978C196.651 467.536 229.902 411.995 237.494 411.235C252.268 401.695 252.635 415.935 248.009 427.055C246.857 429.825 234.865 451.621 233.708 452.499C229.011 456.063 227.905 449.95 227.888 446.082C223.083 452.918 219.104 460.377 215.949 468.46C208.899 475.906 204.489 484.078 202.721 492.975L200.798 494.631C201.528 494.722 202.611 494.938 202.679 495.473C202.904 497.232 203 513.177 202.679 514.241L200.798 515.599L201.931 516.324C199.197 521.317 197.252 526.635 196.093 532.278Z" fill="#FDE4A5"/>
<path d="M47.4272 858.236C44.7702 855.623 36.6132 850.039 38.4592 845.882C70.2242 821.241 105.944 801.833 138.993 778.953C149.067 771.979 158.914 764.452 168.806 757.208C182.913 757.549 173.716 769.91 168.781 775.768C167.257 777.577 158.293 785.488 158.461 786.261C164.458 792.119 184.509 806.498 184.537 815.056C184.548 818.286 181.922 820.42 178.782 820.107C171.987 819.429 149.127 796.051 146.871 796.408L101.077 827.26C103.688 831.209 121.885 844.273 116.118 849.19C108.465 855.715 94.8962 834.23 89.2882 834.446C87.7792 834.504 67.4992 847.973 67.2292 849.285C68.5652 853.156 83.5972 863.805 76.5842 867.35C75.2392 868.03 74.5422 867.29 73.4642 866.675C70.4442 864.952 58.5962 853.815 57.1762 853.562C55.9502 853.343 49.9252 858.561 47.4272 858.236Z" fill="#CBF704"/>
<path d="M171.629 625.681C171.319 625.463 169.952 625.816 169.284 625.69L168.806 626.634C167.694 619.707 165.769 614.877 165.043 606.619C172.854 609.497 171.669 618.724 171.629 625.681Z" fill="#C1B199"/>
<path d="M737.123 475.093C738.9 480.039 740.782 485.122 742.769 490.343C744.597 500.522 746.543 504.065 734.3 507.498L733.173 508.15C728.751 506.562 724.422 505.074 720.186 503.686C718.139 504.191 717.198 503.873 717.364 502.733C713.512 502.756 710.754 501.938 709.091 500.281C691.648 490.557 707.703 482.992 720.08 482.549C715.569 464.837 708.257 447.997 698.143 432.029C692.583 442.136 682.727 430.18 679.727 423.626L677.511 422.746C674.288 416.6 669.859 411.156 664.224 406.414C647.345 380.65 625.022 367.229 596.868 357.999C591.759 359.427 588.441 357.578 588.457 352.144L585.746 352.335C574.53 342.225 561.999 337.933 547.56 342.681C536.823 342.852 528.503 339.173 518.969 334.647L517.888 332.129L514.906 332.951C497.451 324.953 475.918 316.275 457.669 325.458L456.694 327.333C451.82 329.334 447.126 331.25 442.614 333.082L442.078 335.891C435.451 341.155 429.587 347.607 426.308 355.548L423.796 356.91C422.192 356.619 420.534 355.604 418.823 353.865C415.922 353.84 413.503 353.266 411.564 352.144L411.256 349.951C417.394 345.665 412.05 335.941 405.071 339.366L403.096 337.848C402.197 339.328 400.382 340.123 398.783 340.784C380.541 348.331 361.502 355.077 342.878 361.548C337.946 362.976 332.983 362.873 328.041 361.822C327.763 364.286 327.54 365.473 326.154 367.56C324.633 369.85 306.521 384.828 304.07 385.769C292.977 387.004 291.812 387.672 293.949 398.933C287.355 412.024 279.513 424.472 270.422 436.277L266.662 438.876C268.413 441.126 266.235 444 263.839 444.594C263.402 446.404 262.228 448.048 260.319 449.524L253.504 459.494C250.5 463.92 244.922 467.484 241.591 461.754C241.173 461.916 240.86 462.19 240.612 462.575C239.898 463.686 235.191 486.748 235.321 488.442C235.413 489.628 235.531 490.348 236.734 490.777C250.88 492.263 266.952 497.691 268.544 514.17C271.069 516.859 269.619 525.13 268.13 528.417L268.544 533.232C270.653 536.162 271.27 541.672 271.367 545.622L273.906 547.017C282.12 566.571 304.158 571.839 323.137 574.001L324.999 576.121C328.489 576.141 331.939 576.458 335.349 577.074C337.252 574.287 341.865 574.392 343.818 577.074C348.881 576.402 349.002 580.804 345.658 583.683L326.139 584.831C318.096 591.89 300.404 596.017 296.658 583.026L293.887 581.734C303.653 601.372 288.421 616.251 269.51 603.871C264.679 600.709 248.725 583.995 246.706 578.919C245.46 575.786 245.535 572.021 247.274 569.118C245.999 567.849 220.772 586.7 222.076 593.479C213.622 599.782 210.967 594.71 214.111 578.263C212.691 577.531 210.181 578.498 209.492 579.899C207.423 584.104 215.344 609.885 219.729 612.205C230.812 611.598 232.895 613.616 238.037 622.584C239.811 625.678 244.528 634.179 241.257 636.166C244.533 641.939 241.363 651.466 236.99 656.164C236.577 656.781 236.386 657.463 236.506 658.21C237.028 661.449 244.232 668.039 246.91 670.216L246.903 672.383C248.575 672.919 249.393 672.214 249.355 670.269C254.131 664.566 256.033 675.97 256.22 679.509C259.714 682.524 262.253 685.868 263.839 689.539L266.559 689.775C272.679 698.93 280.182 705.797 289.071 710.378C290.954 709.58 292.58 709.305 293.949 709.554L295.528 707.999C299.72 710.306 303.797 711.992 307.76 713.056C302.253 704.112 299.928 695.137 300.785 686.132C302.6 679.692 313.415 673.951 318.413 678.102C324.034 673.672 337.359 676.296 338.706 684.481C338.379 692.506 344.485 717.612 352.114 699.268C356.335 694.093 366.461 682.634 373.399 683.045C377.323 683.278 378.493 686.142 376.75 689.539L376.964 692.577C371.131 700.309 363.541 706.419 355.552 711.526C352.255 725.268 347.097 729.356 340.075 723.79C335.784 713.919 334.184 717.155 335.275 733.498C335.228 738.063 331.783 745.499 326.881 743.865C326.247 744.745 325.524 745.741 324.501 745.982C309.095 749.613 279.532 735.645 267.051 726.313C250.184 713.702 225.166 689.353 226.275 666.869C219.368 653.714 211.329 641.119 202.159 629.084C195.983 619.135 188.524 605.898 189.506 594.23C187.624 586.617 184.507 572.044 192.364 567.102C195.118 565.37 198.728 565.688 200.797 562.778L201.69 560.784C209.462 559.771 217.032 557.318 224.401 554.539C233.513 553.563 251.975 542.36 254.942 533.102C258.129 523.157 253.234 519.728 245.021 517.029L242.435 518.879C229.877 518.416 218.384 522.794 207.611 528.969L204.561 528.466C201.454 531.36 198.631 532.631 196.093 532.279C191.381 527.478 200.797 517.747 200.797 515.599V494.631C200.797 480.728 208.764 477.241 214.729 466.807C216.797 463.188 224.327 442.76 228.54 443.645C231.034 444.17 228.819 454.459 232.338 451.289C236.312 441.667 248.425 427.703 248.584 417.434C248.759 406.167 245.865 410.016 239.57 412.031C238.428 412.396 237.604 411.225 237.493 411.236C237.459 407.799 239.676 405.045 241.432 402.358C262.216 370.55 310.462 337.86 344.122 321.477C362.212 312.672 375.803 309.376 394.627 304.489L397.837 304.577C401.557 307.689 407.219 307.665 411.923 307.511C449.849 301.291 488.92 299.536 528.162 301.193C529.689 300.263 531.283 299.455 532.943 298.771C587.183 309.84 627.358 335.026 667.508 372.622C678.639 383.045 685.819 393.883 694.742 406.034C711.529 428.895 724.571 449.493 737.123 475.093Z" fill="#FDF4C8"/>
<path d="M532.943 298.771L531.067 303.068C502.411 303.453 474.778 301.294 446.041 304.625C433.821 306.041 409.22 312.663 398.673 307.542C397.134 306.794 396.112 305.301 394.627 304.49C398.844 303.395 404.854 299.93 409.906 298.521C420.903 295.456 436.335 294.124 447.91 293.174C478.376 290.672 503.201 292.702 532.943 298.771Z" fill="#FCE09A"/>
<path d="M742.768 486.53C742.993 487.647 742.562 489.193 742.768 490.342C740.783 486.962 738.818 482.864 737.243 479.258C736.712 478.041 735.203 475.981 737.122 475.093C738.943 478.806 741.882 482.128 742.768 486.53Z" fill="#FDEBBF"/>
<path d="M679.727 423.626C683.679 425.745 689.321 435.657 694.156 434.016C695.952 433.406 695.914 429.404 698.927 430.36C701.407 431.148 715.726 462.129 717.542 466.811C718.957 470.456 723.42 480.61 721.609 483.683C719.299 487.602 707.276 482.658 703.952 490.611C701.844 495.658 707.161 496.579 710.362 498.903C711.208 499.517 711.455 501.324 711.903 501.581C713.3 502.383 716.323 500.859 717.364 502.733C716.578 505.353 713.417 505.42 712.659 502.733C699.553 501.762 690.166 516.136 700.427 525.607L702.646 525.307C707.663 528.646 713.083 531.19 718.904 532.94L719.246 534.185C720.794 531.612 727.372 534.406 727.714 537.044C733.058 538.68 741.344 538.87 745.065 543.773C749.272 549.317 756.863 580.174 755.889 587.012C755.275 591.331 750.814 594.261 750.518 595.765C749.626 600.291 754.736 606.283 750.17 614.593C747.072 620.231 745.408 616.293 744.651 625.682C742.64 633.809 735.672 628.534 734.632 622.342C730.306 615.741 722.17 619.591 717.69 624.279C709.442 626.114 700.724 626.255 691.538 624.701C684.318 624.41 636.195 633.221 633.76 638.388C634.7 640.737 634.654 642.537 633.622 643.79L632.545 645.609C626.825 645.288 613.975 644.818 610.246 649.764C605.438 656.142 609.196 664.05 614.935 668.248L614.803 670.477C609.007 675.61 601.243 666.096 602.597 659.034C601.343 658.994 601.021 657.725 601.631 655.227L600.045 652.742C601.189 635.52 593.445 618.805 584.919 604.284C576.766 590.398 567.247 577.053 556.8 564.507C552.063 558.237 552.387 557.708 559.737 558.526C576.052 562.588 593.09 566.343 609.146 567.165L614.803 566.59L616.388 564.657C633.643 563.835 652.294 562.396 668.532 555.912C678.386 551.976 683.525 546.622 686.964 536.571L689.136 536.091C688.738 532.144 689.365 528.967 691.018 526.56C688.318 524.505 688.343 516.242 691.018 514.17C690.84 512.232 690.275 510.346 688.623 509.149C685.264 484.164 669.356 461.036 644.717 454.078C636.459 452.871 628.584 450.576 621.094 447.193L620.449 444.594C622.083 442.845 623.297 440.954 624.091 438.921C618.827 438.302 609.804 437.051 614.803 430.298C615.869 429.705 617.509 430.312 619.724 432.119C641.267 429.869 660.129 431.545 678.358 444.603C679.775 444.106 680.522 442.558 680.766 441.128L678.179 425.341L679.727 423.626Z" fill="#FDEBBF"/>
<path d="M633.621 643.79C632.161 640.152 630.206 637.971 634.23 635.346C637.537 633.189 658.441 627.916 663.503 626.881C670.729 625.403 683.398 623.256 690.557 622.836C698.26 622.384 706.569 624.914 714.016 623.721C719.06 622.912 719.953 616.905 728.197 617.023C738.204 617.167 736.243 625.444 738.986 627.121C740.851 628.262 743.761 628.087 744.65 625.681C743.671 637.816 742.152 650.715 737.85 662.16C736.828 664.881 732.761 670.333 732.571 671.145C732.044 673.395 734.597 677.366 734.3 680.007C732.286 685.56 730.752 690.833 728.207 696.233C723.092 707.085 716.139 716.958 710.777 727.662C708.558 729.153 703.194 724.458 703.249 721.944C701.178 718.786 699.365 715.193 697.811 711.166C684.87 686.68 663.308 653.185 635.49 645.953L633.621 643.79Z" fill="#FDE5A6"/>
<path d="M712.659 502.732L712.104 504.993C703.561 506.297 700.646 509.311 703.359 514.033C708.387 508.797 715.812 509.666 722.383 511.125C750.404 521.899 732.071 508.201 718.229 506.588C716.341 503.907 717.506 503.208 720.186 503.685C724.7 504.444 730.233 505.378 734.3 507.497C738.983 509.937 748.35 519.322 747.294 524.889C745.697 533.312 735.493 537.952 727.714 537.043C724.781 536.701 722.02 534.96 719.245 534.184C714.068 527.458 707.23 522.228 698.73 518.494C702.224 523.139 702.79 525.51 700.427 525.606C692.509 522.498 693.389 509.502 699.527 505.156C703.533 502.319 708.054 502.727 712.659 502.732Z" fill="#4A2E14"/>
<path d="M524.475 671.43C525.037 675.389 514.086 679.675 511.302 677.149L508.779 676.095C486.816 637.341 484.711 720.979 485.907 733.342C485.614 734.791 484.976 736.071 484.015 737.193C482.422 736.965 481.295 735.796 480.635 733.686C470.605 735.293 472.809 740.837 476.333 747.894C479.942 751.31 481.786 754.757 478.812 759.438L472.226 770.584C467.538 779.092 478.086 785.474 485.199 786.671L485.897 788.66C488.221 790.096 490.652 796.945 488.72 799.144C486.908 800.342 484.451 800.624 481.35 799.99C455.546 804.023 430.002 793.906 407.325 782.519C399.364 778.293 380.189 779.885 380.514 791.52C384.501 792.67 381.585 797.528 378.592 798.992C357.282 806.341 369.665 821.541 386.166 813.272C395.147 805.059 397.281 808.504 402.766 817.363L405.573 818.624C414.493 819.297 421.335 825.341 420.033 834.409C407.006 834.778 397.995 827.055 386.365 823.24C378.082 820.523 367.959 819.142 359.814 816.3C347.806 812.112 331.881 803.7 320.603 797.402C298.12 784.847 276.829 769.947 259.143 751C258.053 748.344 264.569 750.603 264.752 748.165C264.854 746.811 260.144 739.872 258.679 739.001C256.331 737.607 254.434 740.155 251.112 736.256C249.623 734.508 249.152 734.662 251.608 733.381L253.927 732.617C263.816 738.698 274.206 744.234 285.057 748.479C298.298 753.658 316.522 760.048 324.916 744.642L326.881 743.865C327.742 742.716 330.47 741.336 331.592 739.579C336.214 732.34 330.146 720.638 334.82 717.109C339.66 713.454 339.659 721.831 342.603 723.671C350.642 728.695 351.202 713.912 354.145 710.273C355.597 708.478 359.598 706.915 361.616 705.185C367.239 700.361 372.789 695.75 376.75 689.539C377.1 683.722 379.446 673.921 386.16 672.383C388.769 671.229 395.76 676.174 395.569 679.055L397.179 680.531C394.586 686.348 395.829 691.825 400.908 696.962L399.332 699.07C397.818 700.094 395.734 700.197 393.081 699.38C387.536 700.639 382.407 703.713 377.691 708.601C376.772 712.525 374.555 716.205 371.041 719.638C368.265 724.894 364.836 728.84 360.755 731.475C353.586 744.042 348.386 757.413 345.154 771.588C341.051 795.539 354.549 801.714 370.729 784.555C389.596 764.545 403.245 732.497 402.771 704.81L404.037 702.882C404.259 702.074 404.835 701.064 405.485 701.204C412.27 702.671 432.438 707.546 434.571 714.599C435.753 718.506 433.763 720.912 429.865 720.92C416.015 718.777 412.488 721.876 424.194 732.097C427.059 736.685 427.074 742.088 424.24 748.306C423.924 751.735 426 754.622 429.027 755.872C440.828 758.362 448.803 760.931 456.735 771.113C465.403 774.63 465.992 762.072 461.983 756.651L453.551 741.82C452.057 738.731 450.918 735.29 453.61 732.631C468.514 725.653 467.717 719.48 454.225 710.952C452.07 708.332 452.639 705.372 455.914 704.179C463.85 704.202 469.491 702.032 472.837 697.67C474.628 690.541 475.621 683.14 475.818 675.465C479.292 670.833 478.927 667.114 474.721 664.308L474.606 661.899L474.113 659.29C480.819 644.938 484.879 629.573 486.293 613.194C491.687 607.074 491.78 615.345 491.764 620.038C496.686 638.488 510.173 656.456 524.331 669.03L524.475 671.43Z" fill="#FDE5A6"/>
<path d="M693.841 752.443C691.023 755.672 686.279 757.771 683.501 760.555C678.306 765.762 677.971 773.566 673.924 779.447C666.131 790.773 615.295 812.818 600.66 818.653C590.425 822.733 559.854 834.904 550.407 833.397C547.902 832.998 546.127 830.981 543.688 830.632C536.673 829.631 531.387 835.898 525.115 838.393C514.868 842.471 501.07 842.753 490.1 842.07C487.957 841.936 485.599 841.821 484.015 840.128L484.184 837.874C489.298 834.67 490.022 828.079 486.917 823.133L487.779 821.066C486.251 817.557 492.331 811.602 495.306 814.394L497.558 814.271C502.341 819.925 510.452 818.769 516.728 816.674C533.631 808.444 551.805 802.444 570.016 797.06C584.178 792.52 597.387 785.412 608.991 776.029L612.922 775.317L615.002 774.793C629.233 789.664 639.187 777.48 633.862 760.498L635.504 759.115C644.236 755.877 663.289 747.222 667.441 738.594C667.556 735.542 668.515 733.805 670.318 733.381C672.215 733.329 674.201 734.262 676.276 736.18C685.661 736.971 694.976 742.228 693.841 752.443Z" fill="#FDE5A6"/>
<path d="M487.779 821.065C492.56 827.344 491.428 836.551 484.015 840.127C479.133 842.482 469.847 844.617 464.775 842.932C457.784 840.608 456.385 835.11 451.484 830.63C449.517 830.173 447.405 835.969 446.082 836.964C439.922 841.598 424.978 840.623 420.033 834.408C418.065 831.936 417.321 826.158 414.89 823.892C411.5 820.732 405.369 821.77 401.274 818.621C398.177 816.24 397.815 811.355 395.885 810.707C391.773 809.328 390.668 813.031 387.765 814.59C380.765 818.351 366.339 820.163 365.493 809.031C364.769 799.5 378.691 799.468 380.337 794.637C380.72 793.513 380.32 792.295 380.514 791.519C379.944 781.699 390.719 789.045 394.734 792.913C396.991 794.572 399.861 794.578 402.542 794.301C412.572 791.843 423.794 790.55 429.966 801.09C432.075 811.751 437.487 813.719 447.341 814.285C457.781 813.694 468.193 813.679 478.576 814.24C481.99 814.897 489.664 816.84 487.779 821.065Z" fill="#E1CA9F"/>
<path d="M703.25 721.944C705.396 722.508 709.348 725.934 710.777 727.663C718.525 737.03 726.678 760.23 706.576 759.156C703.347 758.983 695.761 754.851 693.841 752.443C691.719 749.782 691.518 745.341 687.714 741.97C681.819 736.745 676.019 741.667 670.318 733.381C669.101 733.299 668.084 732.81 667.137 732.064C663.191 728.955 652.254 707.411 649.245 701.425C647.38 697.714 639.523 681.07 640.654 678.187C640.91 677.534 642.159 677.702 643.031 678.102L646.514 678.043C660.528 689.967 673.657 703.01 685.901 717.171C688.738 719.908 699.455 729.083 701.237 722.416L703.25 721.944Z" fill="#DECDA6"/>
<path d="M189.506 594.229C191.691 603.063 195.468 613.521 199.695 621.555C204.416 630.528 228.195 660.828 228.174 667.131C228.145 675.751 227.084 674.43 231.358 682.886C241.565 703.082 264.776 725.657 285.144 735.15C297.571 740.942 313.297 745.405 326.881 743.865C326.697 744.11 327.027 745.973 325.994 747.215C322.018 751.994 317.59 755.42 311.255 756.145C295.714 757.925 264.923 742.093 251.607 733.381C250.103 732.396 248.064 731.392 246.902 730.521C245.623 731.422 244.518 731.048 243.434 730.049C228.289 709.782 213.444 688.305 201.738 665.711C197.53 654.376 192.972 642.284 190.447 630.447C188.345 620.594 186.454 607.413 187.674 597.563C187.894 595.782 186.47 593.697 189.506 594.229Z" fill="#DDCCA6"/>
<path d="M246.903 730.522C247.361 734.766 241.16 731.309 240.277 730.086C223.255 709.379 211.144 691.05 201.739 665.712L239.932 722.811C242.099 725.788 243.913 728.28 246.903 730.522Z" fill="#FCE9BC"/>
<path d="M200.798 562.777C196.506 563.079 185.342 563.213 182.474 559.893C175.819 552.189 189.871 536.514 196.093 532.278C198.865 530.392 202.034 529.851 204.562 528.466L205.095 530.589C204.23 531.175 194.323 541.145 195.19 540.756C202.487 537.483 209.643 533.933 216.799 530.363C228.212 524.329 255.026 520.834 237.188 540.616C218.306 556.726 227.528 553.877 241.451 542.975C247.842 537.969 255.786 531.417 250.278 522.708C242.977 520.666 241.223 518.773 245.021 517.029C254.639 517.371 259.1 522.447 257.035 532.538C253.915 547.778 214.527 561.811 200.798 562.777Z" fill="#482C13"/>
<path d="M501.893 349.284L504.575 349.994C512.657 364.208 520.381 380.419 522.067 396.95C523.103 407.119 522.393 415.676 520.711 425.531L521.97 430.376L519.528 463.508C532.881 455.038 547.646 449.197 562.908 445.375C570.734 443.415 597.188 438.088 603.226 440.532C603.986 440.839 604.697 441.269 605.394 441.734C609.794 442 614.185 442.317 618.567 442.687C620.939 441.662 621.448 442.243 620.449 444.593C629.734 450.429 636.206 449.549 646.062 452.484C672.771 460.439 689.216 486.806 691.018 514.169C688.282 511.788 685.459 510.834 682.55 511.31L680.442 509.326C665.306 433.543 565.975 453.993 517.81 484.839L513.184 485.576C515.023 488.11 504.663 493.92 503.323 493.797C500.87 493.574 499.434 491.294 499.098 489.001C500.832 472.935 502.916 456.913 505.35 440.934C507.783 422.791 507.812 404.77 502.514 387.351L503.775 384.548L501.28 382.223C497.491 366.958 492.905 350.65 481.537 339.394C473.813 331.746 463.942 333.466 454.61 337.003L452.024 335.941L449.978 338.697C427.784 351.291 432.957 388.227 436.127 409.988C441.748 439.204 448.925 467.808 457.657 495.803C457.775 501.897 448.621 499.741 449.201 495.107L444.246 494.452C399.754 468.484 338.513 464.659 296.154 495.417C293.502 499.115 290.572 501.553 287.363 502.732C284.111 504.766 279.644 511.672 278.894 517.028C279.577 518.882 279.273 521.185 277.985 523.937C287.649 553.542 317.815 563.317 346.588 561.33C378.705 559.112 410.501 548.408 440.691 537.779C456.371 533.394 446.719 548.016 441.279 553.813C427.57 570.029 413.681 586.624 403.181 605.622C393.965 622.872 386.186 653.466 403.634 667.261L404.037 669.523C402.575 672.711 410.741 672.422 412.505 670.476L413.849 668.618C421.365 668.767 428.958 668.607 436.435 667.8L437.91 669.523C440.433 671.506 443.004 669.973 445.64 668.373C451.643 664.73 460.411 658.223 462.374 651.414L462.488 647.996C470.65 635.798 473.705 621.127 475.306 606.679C476.316 593.198 477.588 579.818 479.123 566.538C485.552 543.225 493.542 569.988 495.279 579.362L502.971 610.852C507.222 626.54 514.37 641.522 527.114 651.913L528.239 655.227C537.662 666.029 566.75 676.683 575.285 661.898L575.231 659.382C582.372 652.388 581.665 641.759 579.809 632.384C572.403 594.966 546.252 564.685 518.894 540.364C515.715 537.249 516.059 533.074 521.198 533.739C549.023 541.474 576.942 548.777 605.548 552.055L608.217 554.199C610.187 557.547 606.138 563.668 602.186 564.638C606.637 564.116 610.843 564.767 614.804 566.589C611.343 568.17 605.85 567.765 602.057 567.588C585.89 566.832 570.007 563.768 554.585 558.974C562.56 568.204 570.164 578.031 576.994 588.209C588.959 606.04 605.104 632.735 601.631 655.227C603.519 659.443 601.721 662.011 598.896 665.717C585.796 682.907 548.816 687.668 531.203 675.833C527.142 675.477 524.9 674.009 524.475 671.429C512.661 663.803 496.144 638.831 491.052 625.701C489.571 621.883 489.659 616.412 489.652 612.338C487.829 612.726 487.995 614.248 487.773 615.667C485.66 629.168 482.774 650.882 474.606 661.898C474.934 667.319 467.436 672.323 462.963 675.281C448.724 684.699 429.813 688.366 413.051 686.127C409.41 685.641 397.577 683.459 396.146 680.73C395.875 680.213 395.707 679.642 395.569 679.054C393.374 677.981 387.931 674.129 386.16 672.382C381.005 672.816 378.148 664.307 376.992 659.772C375.715 654.763 375.479 642.256 375.945 636.94L377.691 635.212C376.684 629.224 378.063 624.281 380.314 618.677C388.068 600.077 397.911 582.607 409.843 566.267C393.411 569.61 376.841 573.238 360.134 577.153C354.807 578.258 347.65 579.573 343.818 577.073C341.027 577.229 338.151 577.059 335.35 577.073C331.949 576.449 328.499 576.132 325 576.12C303.673 573.904 279.123 568.138 271.367 545.621C271.002 542.268 267.532 518.865 269.305 532.665L268.544 533.231C266.889 528.135 267.458 519.382 268.544 514.169C266.678 503.76 275.913 491.965 283.215 484.939C318.654 450.84 390.955 447.606 433.276 470.12C431.977 467.036 431.64 463.928 432.265 460.796L429.705 458.48C423.674 434.557 417.694 409.583 417.929 384.701C417.98 379.343 418.807 360.773 422.149 357.931C422.637 357.517 423.205 357.199 423.796 356.909C427.099 347.046 434.661 339.039 442.615 333.081C449.502 330.109 456.716 327.25 464.256 324.504C467.439 320.918 474.886 323.505 479.09 325.146C483.802 326.984 487.945 329.98 491.638 333.421C495.705 337.21 502.362 343.926 501.893 349.284Z" fill="#C3A053"/>
<path d="M241.257 636.165C241.32 632.782 235.094 620.208 232.8 617.569C227.915 611.949 223.517 615.285 219.369 614.089C213.675 612.446 205.931 585.364 207.587 579.654C208.57 576.266 214.308 574.972 215.711 577.216C216.969 579.228 213.648 590.808 214.912 594.233C221.814 595.623 220.803 589.693 223.531 585.328C227.564 578.876 240.401 571.878 246.824 566.987C252.658 562.544 259.596 552.437 261.952 567.537C256.638 567.701 255.442 563.458 250.626 567.983C247.116 571.281 247.159 575.071 248.879 579.363C250.006 582.173 266.853 599.539 269.957 601.852C282.477 611.18 297.225 606.586 294.805 589.071C294.24 584.981 291.49 582.828 291.131 578.984C291.898 578.202 297.333 580.988 298.027 581.757C299.074 582.918 298.499 584.437 299.143 585.595C301.454 589.757 312.216 590.082 316.28 588.733C319.431 587.688 322.61 583.753 325.666 582.991C329.518 582.031 344.36 582.538 345.14 581.941C345.896 581.362 347.002 576.335 343.817 577.073C346.32 576.933 350.827 576.428 353.686 576.109C374.291 573.81 393.982 566.216 414.387 562.787C399.597 585.509 382.88 607.796 377.691 635.212C375.82 633.138 373.606 631.284 371.048 629.65C365.14 613.061 345.79 613.794 333.333 622.546C323.353 629.558 323.316 644.958 336.061 647.544C344.461 645.621 368.937 641.467 360.345 657.962C358.688 661.143 352.559 663.783 349.058 663.618C336.656 660.531 327.993 666.245 321.659 676.777L318.413 678.101C306.146 678.876 299.396 683.99 302.874 697.185C304.546 703.529 309.736 708.725 309.94 715.267C303.905 715.983 299.576 710.758 293.949 709.553L293.015 707.507C295.523 695.926 292.618 684.39 284.299 672.899L271.766 653.912C272.569 653.171 272.696 652.337 272.307 651.414L270.201 651.631L264.474 641.736C257.118 646.784 243.994 645.512 241.257 636.165Z" fill="#FDE6A6"/>
<path d="M411.564 352.144L411.725 353.425C403.04 359.714 394.212 366.779 386.447 374.618C370.231 390.989 369.946 401.045 385.775 418.239C401.163 432.282 416.08 446.735 430.526 461.599L432.264 460.797C432.762 462.671 436.62 473.364 436.019 474.14C420.217 464.824 401.135 459.647 382.853 457.95C344.577 454.396 277.937 469.102 268.544 514.17C263.88 504.571 258.693 497.427 247.898 494.576C244.389 493.649 236.429 494.096 234.233 491.238C231.875 488.167 235.442 479.254 236.275 475.288C237.115 471.286 236.91 462.24 240.299 460.299C243.815 458.285 243.006 462.059 244.66 462.627C251.79 465.075 256.95 445.701 263.839 444.594L265.078 444.964C267.68 451.653 276.295 451.152 281.743 448.685C291.282 438.611 296.039 437.595 303.428 449.827C318.287 447.284 333.209 444.237 348.194 440.688L351.037 438.52C351.796 431.978 352.362 430.114 358.872 433.157C359.77 431.348 361.785 430.192 364.919 429.69C360.672 424.421 359.12 421.117 363.59 415.064C364.28 412.275 363.956 406.104 362.435 403.678C350.289 393.302 358.24 380.843 365.872 370.563C376.019 356.897 388.789 346.776 403.096 337.848C407.633 336.953 411.299 335.1 414.255 340.36C417.351 345.869 416.154 348.546 411.564 352.144Z" fill="#FBEBC4"/>
<path d="M403.096 337.847C403.13 339.903 401.902 340.436 400.596 341.509C395.606 345.605 389.27 349.163 384.267 353.562C376.009 360.821 357.675 380.173 358.002 391.545C358.244 399.968 364.188 400.413 365.261 405.241C365.736 407.375 365.816 413.354 365.419 415.483C364.974 417.866 362.308 419.352 362.605 422.162C363.089 426.733 373.814 431.38 358.873 433.156C357.439 432.709 356.01 432.548 354.584 432.673C340.983 406.374 307.177 399.675 287.083 422.569C283.738 426.38 282.196 429.357 282.512 434.539C280.73 438.88 269.961 441.335 266.662 438.875C271.114 430.465 291.758 404.412 292.13 398.349C292.359 394.616 289.783 391.264 292.005 387.814C294.489 383.959 299.894 385.253 303.32 384.033C305.194 383.366 324.861 366.82 325.451 365.47C326.259 363.624 325.749 359.972 325.944 359.764C326.255 359.434 333.031 360.814 334.89 360.791C350.554 360.598 383.633 341.682 403.096 337.847Z" fill="#FDE4A4"/>
<path d="M318.413 678.101C324.042 670.198 328.907 662.049 339.697 661.042C346.022 660.452 349.59 663.778 356.001 659.467C359.562 657.072 360.583 654.64 359.397 650.377C357.546 643.721 340.86 649.768 335.965 649.444C326.594 648.826 322.497 638.318 325.097 630.061C329.269 616.813 353.82 610.547 364.454 617.645C369.506 621.018 370.183 626.303 373.026 628.997C375.709 631.54 377.063 628.733 377.691 635.212C379.011 648.836 374.735 661.118 386.159 672.382C386.219 675.174 383.14 675.237 382.141 677.368C380.246 681.411 379.669 684.961 376.75 689.538C377.19 687.082 375.489 685.24 373.235 684.93C368.294 684.253 357.799 695.265 354.628 699.058C350.452 704.054 350.399 711.437 343.799 706.23C334.78 699.113 339.698 685.58 334.926 680.913C331.52 677.582 322.916 677.817 318.413 678.101Z" fill="#FAEBC1"/>
<path d="M423.796 356.909C413.968 386.265 424.44 431.359 432.264 460.796C432.397 462.654 432.808 464.594 430.06 463.507C427.289 462.411 409.5 442.744 405.473 438.85C390.764 424.627 360.293 405.468 377.3 381.77C381.853 375.426 404.76 354.238 411.564 352.144C416.322 350.679 422.253 351.329 423.796 356.909Z" fill="#FDF7D5"/>
<path d="M588.457 352.144C589.539 354.813 589.539 356.719 588.457 357.863L586.557 358.748C581.49 356.196 579.517 357.962 579.462 363.55L577.692 364.723C570.336 363.754 545.35 361.075 548.449 375.303L556.693 393.325C558.662 398.015 556.067 402.449 551.049 399.892C548.825 397.679 541.47 393.984 540.625 398.975C542.022 410.624 536.58 412.661 527.139 415.857L523.498 417.822C523.951 420.512 523.742 424.92 520.711 425.532C520.563 413.907 521.476 402.657 519.332 391.188C516.962 378.508 508.893 360.069 501.892 349.285C500.336 340.59 510.291 333.684 517.888 332.129C528.269 336.391 536.841 341.801 548.459 340.698C551.372 340.422 554.032 339.088 556.945 338.809C569.221 337.636 579.411 344.384 588.457 352.144Z" fill="#FAE2B8"/>
<path d="M679.727 423.626C680.379 426.291 682.8 439.285 682.634 441.272C682.46 443.371 680.66 446.419 678.343 446.475C676.076 446.53 665.942 439.275 662.487 437.753C656.073 434.928 648.645 433.485 641.659 433.117C636.555 432.849 620.293 434.964 617.617 433.64C616.544 433.109 615.896 431.068 614.803 430.298C612.329 428.195 612.085 424.749 614.072 419.96C618.153 411.034 619.08 403.043 618.541 393.274C621.228 383.816 631.472 387.975 636.274 393.434L653.005 409.872C657.653 413.447 649.578 395.98 644.948 396.658C637.068 393.883 631.533 389.815 626.4 383.154C615.36 375.96 603.196 370.641 589.908 367.196L588.458 364.534C585.535 363.642 586.306 361.361 588.458 359.769C586.668 359.476 586.777 358.726 588.458 357.863C588.356 356.189 586.335 353.32 588.458 352.144C589.495 353.034 590.816 355.886 592.245 356.466C593.699 357.056 595.36 355.772 597.143 356.121C603.106 357.288 631.797 370.928 637.328 374.6C646.915 380.965 657.374 395.583 665.13 404.577C670.285 410.556 677.722 415.427 679.727 423.626Z" fill="#FBE09B"/>
<path d="M358.872 433.157C357.499 433.32 355.259 432.72 354.111 433.57C351.908 435.199 355.848 439.4 348.792 442.485L304.717 452.085C299.053 451.881 298.86 443.141 294.396 442.681C288.913 442.116 286.37 448.41 282.375 450.503C276.459 453.602 263.443 453.026 263.839 444.594C263.955 442.114 265.651 440.784 266.662 438.876C269.055 438.133 278.53 436.539 279.882 435.588C281.388 434.529 280.507 430.963 280.99 429.085C282.495 423.23 290.288 416.158 295.337 413.119C316.284 400.513 337.985 407.187 352.697 425.592C354.837 428.269 354.541 431.882 358.872 433.157Z" fill="#EFE0B1"/>
<path d="M293.949 709.553C291.037 713.641 287.884 712.525 284.225 710.347C276.147 705.537 269.895 696.322 263.84 689.538C260.82 685.539 261.168 683.985 264.644 680.685C273.798 677.767 272.75 670.925 261.5 660.159L261.958 658.086C265.11 654.722 267.45 652.315 272.308 651.414C280.505 662.943 304.117 695.277 293.949 709.553Z" fill="#ECD7A7"/>
<path d="M245.021 517.029C243.191 519.833 244.377 518.462 246.168 519.188C248.399 520.092 252.492 520.644 253.306 523.409C254.797 528.475 253.237 534.65 249.77 538.519C246.687 541.959 230.485 553.699 226.508 554.063C223.737 554.316 224.303 551.363 225.031 549.68C226.174 547.039 250.32 529.996 237.941 527.545C232.75 526.516 224.965 529.395 219.91 531.146C214.399 533.056 197.972 542.622 194.696 542.794C192.146 542.928 193.237 540.584 193.762 538.971L204.561 528.466C218.89 520.614 227.896 516.42 245.021 517.029Z" fill="#6B441E"/>
<path d="M272.308 651.415C272.609 654.828 269.354 653.696 267.65 654.799C266.079 655.815 265.989 659.324 261.958 658.087C261.585 658.784 261.031 659.449 260.293 659.426C251.07 659.139 246.36 659.712 250.525 670.772C249.366 672.271 248.159 672.808 246.903 672.383C243.74 671.053 235.101 661.64 234.66 658.484C234.128 654.674 237.763 653.493 239.128 649.734C240.041 647.22 241.208 638.827 241.258 636.166C246.221 640.489 250.515 643.841 257.503 642.607C259.763 642.208 263.468 639.564 265.108 640.051C266.327 640.414 270.969 649.532 272.308 651.415Z" fill="#EBD6A2"/>
<path d="M517.888 332.129C515.889 335.982 511.054 336.145 508.087 338.88C505.472 341.291 503.563 346.123 501.892 349.285C492.664 335.069 482.042 324.014 464.255 324.504C461.017 326.511 458.821 326.828 457.669 325.457C457.504 322.485 462.823 321.342 464.947 320.916C486.007 316.695 499.604 324.622 517.888 332.129Z" fill="#FCE09D"/>
<path d="M261.957 658.087C263.644 659.007 271.118 668.963 272.056 671.2C277.39 683.921 260.663 677.429 263.839 689.539C261.547 686.971 256.055 683.347 254.549 680.363C253.012 677.316 254.498 668.28 250.39 671.47C248.664 672.811 250.94 674.081 246.902 672.383C251.089 672.556 246.476 666.277 246.878 663.379C247.681 657.586 257.576 655.699 261.957 658.087Z" fill="#FDE6A6"/>
<path d="M717.364 502.732C718.969 502.894 719.744 503.611 720.187 503.685L717.846 504.634C722.852 505.029 739.123 509.667 739.007 515.652C738.989 516.59 738.308 517.77 737.532 517.943C736.575 518.155 722.727 512.674 718.766 512.272C716.46 512.038 710.597 511.863 708.617 512.457C706.889 512.974 702.739 519.82 700.594 512.531C698.415 505.126 708.401 504.685 712.659 502.732C714.185 502.734 715.886 502.583 717.364 502.732Z" fill="#6E4722"/>
<path d="M464.256 324.504C459.761 328.635 452.494 330.596 446.715 332.948C445.511 333.438 443.534 335.08 442.615 333.082C448.549 328.637 450.023 326.992 457.67 325.457C460.127 324.964 461.613 324.577 464.256 324.504Z" fill="#9B7C39"/>
<path d="M271.367 545.622C269.587 540.456 268.728 539.134 268.544 533.232C268.505 531.969 267.79 527.658 269.475 527.518C268.981 533.5 274.251 540.095 271.367 545.622Z" fill="#8C6D2C"/>
<path d="M335.349 577.074C331.217 577.094 328.529 576.488 324.999 576.121C328.259 576.566 332.802 575.006 335.349 577.074Z" fill="#FDE6A6"/>
<path d="M588.457 357.862C588.495 358.493 588.44 359.135 588.457 359.768L587.633 362.441C576.054 362.172 587.054 373.388 587.053 370.231C583.109 367.111 585.047 359.964 588.457 364.534C601.203 370.05 615.86 372.093 627.046 381.202C629.724 383.382 633.545 388.903 635.925 390.317C641.762 393.784 646.504 393.697 652.436 400.278C655.029 403.155 659.306 413.773 653.066 412.052C649.383 411.037 632.945 389.87 626.774 389.575C616.933 389.104 621.244 398.811 620.371 405.915C619.347 414.242 613.723 420.991 614.803 430.297C615.808 438.955 619.132 435.648 623.388 436.509C628.755 437.596 624.975 444.756 620.448 444.593C619.397 443.932 618.871 442.881 618.566 442.687L605.394 441.734C574.349 442.577 542.872 449.82 516.956 467.467C518.458 453.593 518.699 439.327 520.711 425.532C521.066 423.093 522.187 420.271 521.858 417.152C524.864 413.285 535.715 411.658 537.555 408.759C540.892 403.498 534.133 392.103 547.333 395.238C549.627 395.782 554.138 401.652 555.442 397.278C556.483 393.786 547.186 380.262 546.489 375.039C545.112 364.728 555.714 362.117 563.648 361.809C566.109 361.714 577.253 363.563 578.105 362.628C578.627 362.055 576.642 356.876 581.437 355.97C584.077 355.472 586.477 356.023 588.457 357.862Z" fill="#F8EACC"/>
<path d="M601.63 655.227C600.853 658.218 603.936 656.704 604.349 657.19C604.744 657.654 604.305 661.489 604.674 663.106C606.039 669.089 609.473 669.755 614.803 670.476C615.331 667.803 621.252 667.502 621.389 670.476C623 671.677 623.774 674.124 623.712 677.819C631.289 692.235 640.403 705.862 651.053 718.702C661.694 733.146 651.941 739.492 640.12 746.585C637.987 749.381 635.82 751.016 633.621 751.489L631.272 750.287C624.409 731.627 614.262 710.541 596.614 700.451C578.517 690.105 580.941 708.262 585.147 719.994L583.752 721.943C582.598 724.267 580.866 723.368 579.09 721.897C573.873 714.551 567.183 708.798 560.19 703.253C558.962 700.709 559.95 698.095 563.155 695.411C562.784 692.08 559.619 692.562 558.046 695.398L555.453 695.826L548.003 688.757C542.631 690.135 538.551 687.219 535.765 680.007L534.572 680.657C527.771 675.342 521.447 678.689 515.049 683.035L513.183 681.914C510.484 682.392 509.023 678.689 511.301 677.148C515.84 675.557 520.68 674.595 524.474 671.43C536.621 679.271 552.973 681.97 567.026 679.744C579.721 677.733 599.354 669.965 601.63 655.227Z" fill="#FDE5A6"/>
<path d="M633.622 643.79C659.4 646.269 680.764 679.447 693.291 700.103C696.376 705.19 704.18 716.332 703.25 721.944C701.038 735.3 683.248 717.45 679.702 713.867C667.112 701.143 659.023 687.663 643.031 678.101L640.548 678.844C635.121 675.51 629.134 673.367 622.83 672.605L621.39 670.477C619.334 670.2 616.858 670.755 614.804 670.477C607.618 665.697 603.008 656.482 608.747 648.616C612.852 642.988 627.154 643.168 633.622 643.79Z" fill="#FDF3C6"/>
<path d="M682.549 511.31C682.748 509.779 681.391 507.728 684.49 508.859C688.582 510.353 690.082 509.689 691.017 514.169C691.266 517.948 691.227 522.761 691.017 526.559C689.418 529.189 688.791 532.366 689.135 536.09C687.618 540.543 684.472 547.095 681.171 550.421C668.821 562.864 631.799 566.406 614.803 566.589C609.171 566.65 603.503 566.549 597.871 566.584C597.662 563.133 602.365 563.144 604.169 561.531C605.966 559.924 606.582 556.057 608.216 554.199C609.216 551.555 611.969 551.473 612.921 554.199C629.176 558.257 647.18 553.161 662.564 547.084C669.724 544.256 675.285 541.68 678.785 534.184C677.911 530.64 678.339 526.592 680.069 522.041C680.012 517.734 680.838 514.157 682.549 511.31Z" fill="#BC9649"/>
<path d="M719.246 534.185C712.887 532.406 704.594 531.098 700.428 525.607C702.451 525.149 698.684 522.855 697.737 521.187C696.699 519.359 695.917 515.716 698.912 516.156C699.991 516.315 716.144 526.927 717.317 528.035C719.092 529.711 719.382 531.879 719.246 534.185Z" fill="#734C27"/>
<path d="M691.018 526.56C690.769 531.07 690.552 531.936 689.136 536.091C688.885 532.8 686.022 526.935 691.018 526.56Z" fill="#C3A053"/>
<path d="M585.635 728.615L588.004 729.371C591.508 737.384 595.342 745.307 599.614 752.93L598.808 755.302C598.702 756.456 597.983 757.526 596.651 758.511C595.675 771.92 586.388 782.274 573.723 785.753C561.572 787.173 550.51 790.419 540.538 795.49C536.738 802.883 529.832 808.449 524.148 799.246C523.648 793.648 522.671 788.129 515.813 789.062C507.455 793.516 496.7 795.241 490.293 786.773C488.822 788.186 487.357 788.815 485.897 788.66C479.208 788.177 469.223 782.366 469.06 774.859C468.936 769.094 478.446 758.928 478.466 754.822C478.482 751.775 475.709 750.876 474.418 748.344C469.14 737.99 470.387 732.984 482.59 731.459C482.625 733.396 483.702 735.51 484.015 737.193L486.14 738.462C485.751 763.647 508.649 781.22 521.34 751.716L523.534 750.536C524.469 747.019 527.418 746.964 532.38 750.373C541.356 744.545 552.515 749.258 550.853 760.552C551.606 765.524 573.213 758.365 569.221 749.948C568.012 737.309 567.5 725.276 584.044 726.603L585.635 728.615Z" fill="#FBEAC1"/>
<path d="M404.036 702.882C401.991 704.725 398.255 701.524 399.331 699.07C399.269 694.357 394.561 693.758 393.867 688.807C393.374 685.296 394.966 682.354 395.568 679.055C419.877 690.938 458.038 684.243 474.605 661.899C477.146 663.556 480.464 666.624 480.24 669.93C480.093 672.096 478.052 673.892 477.636 675.929C475.988 684.004 478.788 699.919 469.229 703.632C466.212 704.804 455.517 704.884 454.858 707.208C453.719 711.22 465.103 714.315 466.119 719.585C468.51 731.985 454.786 730.745 453.867 735.784C453.11 739.937 462.114 752.048 464.154 756.835C466.205 761.65 467.981 766.075 464.664 770.497C457.264 780.362 451.711 766.808 445.147 762.744C438.566 758.67 427.801 760.367 423.774 753.902C419.698 747.359 425.612 742.602 424.56 736.959C423.412 730.796 413.557 728.162 415.476 721.664C417.813 713.75 435.509 723.941 432.81 715.232C430.99 709.36 410.121 703.858 404.036 702.882Z" fill="#FAEBC1"/>
<path d="M612.921 775.317C604.621 782.056 596.012 788.085 586.282 792.653C565.546 802.388 543.981 805.088 524.186 815.531C515.74 819.987 501.689 824.015 495.306 814.394C490.744 814.079 489.139 803.428 488.719 799.144C487.723 796.555 485.386 791.174 485.897 788.66C486.139 787.465 488.774 784.819 490.132 784.816C492.163 784.811 493.98 788.493 495.896 789.492C498.632 790.92 503.968 791.008 507.012 790.509C512.329 789.638 515.704 784.271 522.125 788.665C528.199 792.82 522.48 800.264 529.868 801.831C535.921 803.116 535.681 797.266 539.5 793.873C552.743 782.108 583.947 792.457 593.625 764.826C595.236 760.228 593.033 756.182 598.807 755.302L600.995 755.276C604.87 761.469 609.032 767.569 613.628 773.236L612.921 775.317Z" fill="#E1C89B"/>
<path d="M511.302 677.148C511.909 678.593 512.641 680.448 513.184 681.913L515.518 682.823C519.062 693.081 522.152 703.598 524.181 714.279L522.593 716.225L524.659 717.398C525.863 727.952 526.345 738.71 525.562 749.316C524.65 749.407 523.942 749.772 523.534 750.536C522.69 757.146 512.279 769.113 506.012 769.559C499.948 769.99 491.312 763.019 488.553 757.854C484.74 750.716 485.39 744.586 484.015 737.193C484.1 717.996 483.543 697.613 488.073 678.876C492.94 658.751 503.474 658.501 511.302 677.148Z" fill="#432911"/>
<path d="M399.332 699.069C399.94 699.362 403.886 702.617 404.037 702.881C405.133 704.809 405.046 708.607 404.871 710.862C402.985 735.181 384.2 780.249 363.126 793.445C353.826 799.269 344.157 795.782 342.873 784.373C340.791 765.865 351.236 746.29 360.754 731.474C363.014 730.5 363.876 731.697 363.106 734.019C359.947 737.81 348.066 767.153 349.458 768.517C349.96 769.009 354.275 760.465 354.916 759.14C358.32 750.27 375.305 709.138 388.027 715.975C391.243 717.703 390.972 721.089 389.925 724.259C387.874 725.317 375.106 771.53 377.669 771.227C380.152 770.934 392.353 743.417 393.822 738.955C398.003 726.255 407.76 688.469 382.494 708.663C380.641 710.137 379.145 710.796 377.691 708.6C383.3 702.547 389.742 694.443 399.332 699.069Z" fill="#482C13"/>
<path d="M488.72 799.144C488.775 799.288 490 799.753 490.385 800.756C491.98 804.905 492.932 810.815 495.306 814.393C492.131 815.031 489.74 818.561 487.779 821.065C478.159 808.429 443.415 823.189 432.23 811.093C428.093 806.619 430.688 802.108 424.675 797.778C414.13 790.185 406.841 797.855 397.2 796.054C392.349 795.149 388.968 789.051 384.692 788.679C381.53 788.404 381.063 789.325 380.514 791.519C378.018 788.719 380.292 783.815 382.849 781.97C384.771 780.584 397.29 777.971 399.787 778.154C406.04 778.614 423.364 788.538 431.093 791.276C442.341 795.261 457.578 798.948 469.475 799.18C475.35 799.294 482.307 796.632 488.72 799.144Z" fill="#EEDBA7"/>
<path d="M377.691 708.6C381.716 708.552 384.558 703.167 388.302 701.723C394.168 699.46 400.856 702.449 401.278 709.096C401.737 716.327 398.09 732.481 395.593 739.6C393.731 744.906 382.56 770.184 379.16 772.515C378.017 773.298 377.237 773.647 375.814 773.407C374.123 771.647 379.741 748.458 380.781 744.612C382.78 737.216 387.018 728.72 388.581 721.931C389.693 717.099 385.757 716.511 382.145 718.36C370.118 724.516 362.325 747.855 356.857 759.455C356.408 760.406 348.418 777.224 347.577 771.024C347.433 769.216 347.6 767.49 347.995 765.727C349.696 758.146 356.331 742.075 360.2 735.204C360.718 734.282 362.744 732.096 360.754 731.474C366.155 723.067 370.934 715.892 377.691 708.6Z" fill="#6D4720"/>
<path d="M633.622 751.489C636.647 751.571 638.114 757.578 635.504 759.114C636.889 765.955 639.163 776.854 632.644 781.469C625.589 786.465 617.779 780.82 612.922 775.316C608.977 770.846 601.913 760.55 598.808 755.301C594.661 748.291 588.795 736.174 585.635 728.615C582.563 728.036 581.119 723.624 583.753 721.943C582.072 716.117 578.24 704.078 581.439 699.107C588.558 688.044 607.52 705.515 612.943 711.914C621.006 721.427 630.043 739.478 633.622 751.489Z" fill="#482D13"/>
<path d="M643.031 678.101C641.341 678.741 642.914 681.052 643.267 682.144C648.627 698.758 660.385 718.945 670.318 733.38C669.984 735.715 669.646 738.625 668.635 740.734C666.331 745.541 645.423 758.342 640.028 759.48C638.351 759.834 637.045 760.361 635.504 759.114C635.13 757.27 634.145 753.246 633.622 751.489C640.27 737.904 662.842 740.468 649.836 720.292C643.22 710.028 623.493 687.852 621.472 676.575C621.123 674.626 621.484 672.46 621.39 670.476C630.552 671.71 634.774 673.164 643.031 678.101Z" fill="#FCECC0"/>
<path d="M682.55 511.31C683.212 519.021 681.201 526.954 678.786 534.184C672.419 546.052 653.169 551.447 640.57 553.896C631.511 555.656 621.768 556.735 612.922 554.199C611.363 554.128 609.769 554.317 608.217 554.199C591.021 552.896 566.829 547.442 549.702 543.419C539.3 540.975 529.261 537.401 518.834 535.142C516.536 537.469 527.233 545.082 528.734 546.549C554.158 571.412 580.778 604.858 582.842 642.323C583.266 650.027 581.237 656.845 575.285 661.899C575.559 664.182 573.027 665.663 571.11 666.724C559.3 673.255 536.483 664.987 528.239 655.227C500.426 634.099 500.368 601.171 490.851 570.626C489.616 566.664 488.659 561.578 485.323 559.016C481.801 558.391 480.649 568.761 480.373 571.001C477.122 597.365 479.126 629.081 462.374 651.415C461.94 657.521 443.753 671.867 438.751 670.665C438.401 670.581 438.143 670.108 437.91 669.523C431.639 670.467 419.005 670.765 412.505 670.476C410.963 672.836 404.034 672.73 404.037 669.523C395.641 666.255 392.491 655.279 391.82 647.111C389.329 616.801 406.948 594.404 423.822 571.858C428.13 566.103 445.678 546.876 447.085 542.048C447.473 540.719 447.367 539.352 447.315 538.001C437.089 540.259 427.315 544.854 417.207 548.001C389.556 556.609 342.843 569.247 315.177 560.813C301.028 556.499 280.383 541.736 276.495 526.576C275.274 521.818 277.191 520.641 278.895 517.029C279.65 511.77 283.303 505.913 287.363 502.732C294.692 492.598 301.313 487.95 312.783 483.209C359.712 463.811 406.15 469.705 449.201 495.107C449.453 497.133 449.52 499.416 449.405 501.958C451.61 503.845 453.737 505.692 455.788 507.498L454.522 509.628C435.466 510.727 431.717 514.901 443.275 522.15C453.431 525.437 458.132 530.733 457.377 538.038C450.487 554.372 451.971 560.195 461.83 555.507C468.977 551.462 476.192 547.546 483.474 543.76C489.83 545.84 496.003 548.936 501.993 553.048C508.354 555.63 514.161 554.751 511.479 546.334C507.106 537.444 507.206 530.664 511.778 525.991C519.659 521.446 524.984 515.782 527.754 508.998C522.284 506.294 515.888 504.967 508.567 505.018L508.479 502.732C508.673 501.05 509.765 500.413 511.758 500.822L511.707 498.27C514.747 493.762 515.24 489.531 513.184 485.576C548.57 462.034 593.081 450.075 635.717 458.197C659.674 462.762 680.438 486.701 682.55 511.31Z" fill="#FDEDC0"/>
<path d="M503.774 384.549L502.996 386.603C498.523 386.933 495.065 389.001 491.542 391.221L489.119 387.837C487.689 377.702 485.141 367.693 482.329 358.048C480.35 351.261 475.748 343.646 468.136 344.871C481.773 364.433 484.841 387.504 485.242 411.43C485.759 432.047 485.892 452.429 485.64 472.578L484.015 474.14C479.13 477.342 472.278 480.537 466.137 478.905L464.368 477.17L461.659 461.125C451.66 424.289 446.9 386.34 451.975 348.123C448.698 347.857 446.098 349.612 443.796 351.808L441.673 351.191C437.908 350.249 440.595 345.789 442.962 343.932C446.491 341.802 449.471 339.201 452.023 335.941C469.219 329.303 478.905 330.271 489.485 346.126C496.871 357.195 500.719 371.669 503.774 384.549Z" fill="#FDECC1"/>
<path d="M452.024 335.941C452.396 342.537 443.735 344.092 442.158 347.428C441.429 348.969 441.921 350.102 441.674 351.191L442.85 354.833C439.435 374.741 442.312 395.027 446.033 414.708C450.793 437.161 455.786 460.01 460.656 482.078C460.656 482.078 462.483 481.02 466.138 478.905C468.768 476.522 472.132 477.56 474.85 476.769C477.433 476.017 479.862 472.713 484.015 474.139C486.517 474.099 489.235 475.315 492.169 477.788C496.617 476.677 492.761 403.576 490.093 394.399L491.543 391.22C490.895 386.577 500.533 385.051 503.775 384.549C505.506 391.847 507.903 400.486 508.464 407.915C510.495 434.787 503.103 462.162 500.949 488.89C500.982 489.992 502.395 491.97 503.292 492.041C503.879 492.089 511.778 486.512 513.184 485.576C520.926 488.94 513.245 496.919 513.436 499.409C513.52 500.508 515.883 501.408 516.006 502.723L508.479 502.732C504.387 507.431 494.37 506.413 490.951 500.321L482.533 487.04C480.362 484.165 476.37 483.203 474.753 486.974L469.221 502.073C467.62 507.568 459.959 511.922 455.788 507.498C449.265 507.085 444.001 501.249 449.201 495.107C451.159 496.263 456.57 500.26 455.741 495.64C454.1 486.499 448.987 473.731 446.447 464.063C438.141 432.447 429.986 402.009 432.226 368.784C433.216 354.104 437.735 341.457 452.024 335.941Z" fill="#FDF2CA"/>
<path d="M575.284 661.899C578.072 663.785 573.182 667.659 571.849 668.427C560.548 674.937 540.396 667.399 531.05 659.528C530.612 659.159 526.582 655.975 528.238 655.227C540.32 664.406 562.128 673.069 575.284 661.899Z" fill="#A17F35"/>
<path d="M437.91 669.524C446.059 668.297 457.484 657.934 462.374 651.415C464.373 652.529 462.675 654.905 461.848 656.132C458.809 660.643 446.221 671.679 440.962 672.227C438.679 672.465 437.985 671.798 437.91 669.524Z" fill="#9A7833"/>
<path d="M287.362 502.732C284.489 506.704 280.994 512.576 278.894 517.028C277.021 513.342 282.281 506.87 284.518 504.142C284.829 503.762 287.03 500.848 287.362 502.732Z" fill="#84682C"/>
<path d="M404.036 669.524C406.985 670.672 409.523 670.345 412.504 670.477C412.64 674.191 407.792 673.708 405.471 673.309C403.712 673.007 399.606 669.492 404.036 669.524Z" fill="#906B26"/>
<path d="M618.567 442.688C614.404 442.174 608.99 443.868 605.394 441.735C609.041 441.636 615.928 441.007 618.567 442.688Z" fill="#FDEBBF"/>
<path d="M588.457 364.534C588.353 364.693 586.272 363.834 586.536 365.957C586.796 368.048 592.366 371.39 587.017 372.212C582.872 372.848 581.133 369.533 580.874 366.01C580.336 358.686 583.471 363.431 588.457 359.769C588.483 360.73 588.626 364.275 588.457 364.534Z" fill="#FAE2B8"/>
<path d="M535.766 680.008C537.772 681.677 541.886 686.974 542.353 687.213C543.724 687.914 545.995 686.202 548.25 686.831C550.5 687.458 554.608 692.228 556.007 694.302C557.598 694.692 558.812 688.578 563.608 692.313C568.09 695.804 561.474 699.205 561.234 700.626C560.738 703.566 572.676 711.312 574.81 713.371C577.857 716.31 578.73 721.26 583.753 721.944C584.434 724.305 584.56 726.045 585.635 728.616C562.756 726.718 573.772 743.91 570.387 755.584C568.635 761.627 550.889 767.723 549.086 761.267C548.693 759.858 549.57 758.343 549.382 757.062C548.974 754.282 545.363 750.305 542.599 749.742C538.192 748.845 534.917 752.093 532.309 752.251C530.324 752.372 526.607 747.778 523.534 750.537C524.613 742.083 523.895 724.804 522.593 716.226C524.601 711.084 533.558 716.26 537.252 718.421L551.268 727.962C568.159 737.956 575.831 714.95 559.794 707.341C545.068 703.406 538.672 696.803 534.609 681.95L535.766 680.008Z" fill="#FDE8AD"/>
<path d="M535.766 680.008C538.679 685.694 540.372 694.604 545.158 698.61C550.778 703.315 559.984 703.336 565.88 709.346C570.88 714.443 572.727 723.116 567.333 728.663C553.565 742.822 537.823 712.876 522.593 716.226C521.18 706.914 516.499 690.871 513.184 681.914C516.639 680.008 521.095 676.63 524.921 676.179C531.004 675.462 531.606 676.547 535.766 680.008Z" fill="#FBEAC1"/>
<path d="M599.477 672.514C601.145 672.043 601.752 672.474 603.092 673.285C605.757 674.896 619.83 691.562 622.169 694.944C624.256 697.962 629.029 705.741 624.205 708.186C619.647 710.496 611.791 696.054 609.65 693.329C604.72 687.054 594.954 686.175 596.95 675.749C597.227 674.303 598.018 672.926 599.477 672.514Z" fill="#FDF1C3"/>
<path d="M612.921 554.199C624.972 554.748 634.246 553.971 645.853 550.862C657.658 547.701 670.258 543.288 678.786 534.184C677.399 538.334 677.343 541.29 673.097 544.148C666.543 548.56 641.119 556.306 633.144 557.048C628.332 557.496 622.034 556.671 617.116 556.149C615.413 555.968 613.606 556.48 612.921 554.199Z" fill="#9D7A35"/>
<path d="M492.985 670.506C497.71 668.965 496.386 681.315 496.286 684.335C495.83 698.207 493.977 712.304 493.386 726.193C493.156 731.601 494.277 739.464 493.418 744.335C493.181 745.684 492.651 746.859 491.085 746.72C488.848 746.2 487.286 735.146 486.959 732.782C484.62 715.896 485.965 695.455 489.939 678.859C490.383 677.004 491.393 671.025 492.985 670.506Z" fill="#69441F"/>
<path d="M502.838 671.435C505.462 670.995 507.147 672.896 508.258 674.989C512.9 683.73 522.76 726.57 521.707 735.801C521.315 739.244 519.279 740.707 517.052 737.563C515.701 735.656 514.017 728.062 513.252 725.211C508.605 707.9 506.436 689.053 502.838 671.435Z" fill="#6A441F"/>
<path d="M630.794 758.163C629.499 758.238 628.247 758.295 627.031 757.687C623.98 756.161 612.141 724.103 604.965 717.136C603.375 715.592 596.284 709.514 595.195 713.038C592.338 722.283 605.436 741.414 605.43 751.051C605.429 752.636 605.335 753.369 603.982 754.329C602.169 754.289 596.032 742.935 594.875 740.699C590.812 732.845 584.558 718.644 583.763 710.024C581.409 684.514 605.945 706.508 612.9 714.816C622.161 725.877 629.531 743.853 630.794 758.163Z" fill="#6C441E"/>
<path d="M508.479 502.732C508.605 502.737 509.54 503.672 510.756 503.724C520.353 504.136 537.93 503.788 525.408 517.497C522.562 520.612 511.165 527.833 510.112 530.63C507.733 536.953 521.397 555.23 507.995 556.164C498.879 556.8 489.147 545.321 483.618 545.635C479.289 545.88 450.672 570.131 451.137 552.883C451.3 546.875 457.431 538.496 455.378 532.224C453.659 526.974 434.517 523.83 434.988 514.645C435.12 512.063 435.753 511.75 437.912 510.836C442.982 508.688 450.31 508.451 455.787 507.497C458.955 506.946 462.361 508.081 465.233 505.152C469.184 501.121 471.237 485.201 475.56 483.214C485.243 478.765 489.48 499.26 495.896 502.607C500.611 505.066 503.794 502.539 508.479 502.732Z" fill="#E64802"/>
<path d="M534.82 528.469C533.219 512.117 558.544 521.506 568.361 522.612C594.429 525.546 641.276 529.918 664.032 515.904C667.263 513.914 672.577 506.788 675.568 509.316C679.725 512.829 673.403 525.094 669.704 528.32C654.786 541.331 612.627 539.964 593.647 537.982C573.893 535.918 554.674 529.517 534.82 528.469Z" fill="#EAC86C"/>
<path d="M290.19 514.165C289.039 513.005 294.324 505.824 295.35 504.629C321.842 473.757 395.656 481.543 429.929 494.138C432.199 494.973 438.317 496.794 438.776 499.532C439.242 502.31 433.3 504.719 430.86 504.719C418.299 504.723 397.826 496.911 383.686 495.231C356.109 491.953 332.991 494.143 307.725 505.727C305.244 506.864 291.495 515.48 290.19 514.165Z" fill="#E8C56B"/>
<path d="M422.606 523.933C431.745 522.481 439.593 528.217 429.445 532.759C419.735 537.104 399.021 541.194 388.062 543.261C365.664 547.485 301.56 556.545 286.956 536.025C285.212 533.575 282.723 529.415 287.384 529.812C294.513 530.419 304.569 533.923 312.43 535.002C338.047 538.515 369.46 538.588 394.64 532.768C403.616 530.693 414.745 525.182 422.606 523.933Z" fill="#E9C66B"/>
<path d="M593.914 468.706C617.947 466.815 644.047 469.812 663.668 485.164C667.81 488.404 669.504 492.503 662.548 491.093C652.583 489.074 639.306 480.917 628.167 478.235C601.069 471.708 563.165 480.656 537.945 492.073C532.629 494.48 532.206 497.95 524.904 497.065C519.107 496.362 521.929 492.789 525.105 490.504C540.13 479.699 575.512 470.154 593.914 468.706Z" fill="#E7C569"/>
<path d="M446.11 561.989C449.77 560.882 453.833 564.191 452.835 567.815C438.122 586.51 426.461 607.574 418.134 629.953C415.652 636.623 413.869 646.551 411.102 652.376C408.793 657.237 405.535 654.071 404.455 650.513C399.41 633.892 421.588 593.532 431.297 579.43C433.443 576.312 443.486 562.782 446.11 561.989Z" fill="#E7C66D"/>
<path d="M522.138 551.341C524.441 550.781 529.839 557.083 531.544 558.951C548.056 577.04 570.31 619.582 570.608 644.306C570.711 652.759 563.726 658.201 556.558 653.657C562.421 616.75 540.601 583.929 521.437 554.884C520.378 553.727 520.814 551.663 522.138 551.341Z" fill="#E7C46A"/>
<path d="M544.229 650.457C531.409 647.509 522.788 633.441 516.785 622.51C510.737 611.496 504.947 598.087 500.936 586.144C498.604 579.202 495.573 572.131 496.251 564.681C500.747 564.153 503.587 567.221 505.84 570.693C512.704 581.272 518.517 602.807 524.608 615.539C529.989 626.789 537.191 635.899 542.969 646.501C543.687 647.819 544.609 648.711 544.229 650.457Z" fill="#E8C66C"/>
<path d="M429.447 659.035C429.121 657.21 429.578 656.255 430.359 654.726C433.36 648.85 441.733 639.776 445.829 633.226C453.473 621 460.653 606.549 465.215 592.818C467.703 585.333 469.008 574.704 471.824 568.06C474.417 561.94 475.871 565.688 475.537 570.857C475.243 575.402 473.408 582.066 472.45 586.804C466.67 615.401 458.096 646.24 429.447 659.035Z" fill="#E6C56C"/>
<path d="M491.543 391.221C494.889 414.006 497.578 450.081 495.293 472.696C495.134 474.266 494.394 479.421 492.895 479.846C491.352 480.283 484.316 475.163 484.016 474.14C483.073 470.928 484.244 459.987 484.054 455.515C482.856 427.196 486.176 383.16 473.833 358.17C472.546 355.565 464.238 344.543 466.138 342.618C479.527 341.685 482.817 352.425 485.822 363.181C488.302 372.06 490.206 382.114 491.543 391.221Z" fill="#E8C66C"/>
<path d="M441.673 351.191C445.505 347.596 448.269 345.495 453.909 346.422C450.954 371.774 451.149 397.634 455.119 422.873C457.48 437.88 462.303 452.494 464.746 467.448C465.265 470.628 466.652 475.977 466.137 478.905C465.366 483.284 460.114 487.178 457.916 481.038C452.203 442.228 432.924 389.791 441.673 351.191Z" fill="#E8C66D"/>
<path d="M461.438 546.574C459.918 540.974 466.49 532.432 464.595 527.76C463.206 524.335 445.045 522.663 447.382 515.7C448.755 511.611 467.067 514.888 471.379 511.377C474.88 508.527 474.465 487.393 482.134 496.539C485.358 500.384 486.396 510.585 491.271 512.07C496.488 513.661 513.99 506.354 516.524 511.306C519.643 517.402 500.504 520.901 499.215 525.33C498.099 529.166 507.122 546.597 502.343 547.531C496.774 546.116 487.67 536.04 482.606 536.035C475.924 536.028 468.936 547.451 461.438 546.574Z" fill="#EC8401"/>
</g>
<defs>
<clipPath id="clip0_602_1099">
<rect width="1024" height="1024" fill="white"/>
</clipPath>
</defs>
</svg>
