<svg width="1024" height="1024" viewBox="0 0 1024 1024" fill="none" xmlns="http://www.w3.org/2000/svg">
<g clip-path="url(#clip0_576_726)">
<path d="M788 651C804.934 658.535 822.12 665.473 838.671 673.829C842.362 675.692 846.973 679.851 850.288 681.212C855.606 683.396 860.187 682.026 863.875 688.625C868.964 697.732 874.625 703.057 879.805 711.695C894.991 737.016 897.024 769.478 890.324 797.824C886.65 813.368 878.636 825.171 874.559 840.059C871.922 849.683 867.531 847.273 861.468 850.968C858.409 852.832 855.907 857.821 853.54 860.04C818.93 892.498 772.93 902.294 726.459 900.041C659.433 896.792 567.357 854.092 504.982 888.482C496.454 893.184 495.954 895.527 490.038 901.538C484.22 907.45 479.477 905.756 472.965 907.465C468.989 908.509 462.122 912.975 457.245 914.745C435.355 922.693 405.012 924.652 383.982 913.518C344.998 892.878 347.661 833.783 379.021 807.491C370.794 797.458 362.894 788.186 359.061 775.439C341.446 716.864 397.916 676.35 451.263 697.237C461.799 701.362 476.288 711.17 484.495 719.005C487.548 721.921 490.952 727.224 493.918 730.361C496.092 732.66 495.969 729.576 496.974 728.524C518.028 706.496 536.786 682.872 563.692 667.192L593 652C596.1 652.504 599.326 661.041 598 664L594.754 667.125C568.626 676.037 547.061 694.115 528.319 713.898L498.948 747.654C496.103 751.07 493.787 751.852 492 750L489.807 749.352C469.888 716.574 424.198 692.018 388.809 717.809L383 720C383.331 722.348 381.887 724.685 378.669 727.011C377.205 730.601 375.316 732.597 373 733L373.434 737.151C367.152 754.818 371.624 774.797 383.815 788.866L384 792C384.478 791.671 385.01 791.453 385.595 791.393C387.088 791.238 402.835 803.87 402.454 805.721C402.316 806.39 401.923 807.007 401.457 807.609C373.539 824.503 356.801 865.122 381.988 891.192C413.351 923.654 466.112 895.385 496.6 875.679C536.199 853.912 584.013 857.724 626.95 866.962L685.397 879.805C715.837 885.859 747.52 888.206 777.886 880.317L783 881L786.41 877.897C815.289 869.348 841.442 853.017 858.051 827.446L862 825C867.17 821.642 871.5 809.954 873.898 803.452C879.315 788.761 881.847 773.489 880 758C877.188 757.6 876.329 753.316 879 752L876.713 748.692C875.043 718.079 858.204 693.435 829.45 682.213L827 679C823.827 681.029 816.941 678.673 816 675C802.651 672.76 788.053 666.044 778 657C776.7 654.014 785.393 649.376 788 651Z" fill="#841E01"/>
<path d="M245 399L241.146 402.042C215.211 408.815 193.008 424.091 174.912 443.525L137.283 486.29C135.044 489.086 132.949 489.656 131 488L128.906 487.817C109.391 457.052 65.944 431.674 32.369 457.78L28 459C28.223 461.407 26.948 463.858 24.178 466.352C22.943 469.593 21.217 471.476 19 472L20.076 474.85C14.625 491.816 19.682 510.534 30.966 523.974L31 527L33.645 526.822C38.134 529.38 52.611 538.333 46.626 543.477C19.292 559.761 6.196 606.668 36.007 626.824C69.37 649.383 111.344 624.43 140.044 605.547C176.94 584.33 222.162 587.916 262.584 596.187L314.938 607.186C342.985 612.531 372.107 614.52 400.035 607.277L405 608L406.735 606.208C421.759 600.83 435.968 593.645 450 586L451.583 582.376C462.767 574.063 471.76 563.305 479.439 551.745L483 550C483.533 550.103 484.071 550.191 484.529 550.012C490.695 547.601 499.897 517.523 500.645 510.065L502 509.5L500.667 509.2C500.974 503.675 501.418 498.275 502 493C501.611 496.316 501.326 499.675 501.145 503.08L500 503C497.022 501.534 497.536 491.093 498.074 487.591C499.654 486.674 499.963 484.81 499 482L497.034 479.327C496.452 452.124 475.45 430.199 451.581 419.815L450 417C448.604 419.547 441.459 418.163 442 415C439.66 416.169 437.888 415.46 437 413C426.273 409.952 415.821 405.304 405.646 399.056C402.15 401.208 399.935 401.189 399 399C397.063 396.89 399.912 394.423 401.825 392.909C403.09 391.909 412.835 387.503 414 389C425.493 399.3 440.539 400.795 453.983 406.517C462.686 410.221 468.131 414.418 477.563 417.937C485.844 421.026 483.633 425.066 486.968 430.532C488.105 432.395 491.435 434.445 492.978 436.522C518.575 470.956 519.622 504.402 504.173 543.673C503.029 546.582 500.163 550.323 499.465 552.965C497.966 558.634 499.902 564.247 494.349 568.849C491.492 571.218 487.781 571.186 485.467 572.967C482.753 575.054 477.241 584.182 473.994 587.494C446.225 615.817 401.567 629.229 362.51 627.99C296.134 625.884 217.538 585.772 153.643 615.143C141.969 620.51 141.534 622.739 133.534 631.034C128.16 636.607 123.027 635.269 117.005 637.505C112.09 639.33 107.279 642.86 102.261 644.761C68.573 657.519 18.465 652.271 7.28 612.22C-0.0780022 585.874 8.089 560.199 26.038 540.501C18.374 531.738 11.186 523.333 7.541 511.959C-11.902 451.292 46.987 414.136 99.877 441.623C113.525 448.717 123.107 459.079 134.47 469.001C162.35 432.594 195.853 400.181 241 387C243.947 386.625 247.253 397.113 245 399Z" fill="#881E01"/>
<path d="M718 144C712.779 147.386 706.712 149.799 699.799 151.238C694.933 153.781 690.333 155.368 686 156L685.134 158.611C679.852 160.286 675.299 162.889 671.477 166.42L669 167C665.433 171.4 660.94 175.263 655.52 178.589C639.426 194.02 624.21 210.329 609.873 227.515C606.971 231.287 603.68 233.449 600 234L597.169 232.989C578.288 200.985 531.414 175.463 498.05 201.68L494 203C494.101 205.54 492.832 208.194 490.193 210.962C489.071 214.726 487.34 217.072 485 218L486.102 221.12C481.082 238.283 486.168 256.39 497.747 269.731L498 273L500.997 273.238C502.662 274.282 514.442 284.628 514.398 285.542C514.367 286.187 513.906 286.811 513.323 287.43C447.721 337.893 505.29 409.298 576.184 375.251C608.663 354.102 642.924 340.137 682.87 343.896C717.918 347.911 752.635 354.125 787.019 362.537C816.394 368.069 846.962 370.295 876.129 362.32C877.686 363.092 879.307 363.332 881 363L884.171 359.91C913.219 351.132 938.987 334.194 954.268 307.456L958 305L957.461 301.86C963.449 292.211 966.199 281.798 967.533 270.656L970 269C970.613 275.152 971.428 262.73 971.317 260.205C971.299 259.785 970.728 259.389 970 259C969.474 258.375 968.983 257.731 968.614 257.024C966.272 252.545 968.248 236.153 970 231L967.784 227.677C966.438 199.122 948.01 177.799 922.231 167.158L920 164C916.254 165.599 911.522 163.839 910 160C899.954 158.464 890.517 154.489 881.689 148.077C877.738 147.011 874.842 145.319 873 143C867.566 139.25 880.397 134.978 884 136C898.491 144.131 914.159 149.938 929.021 157.479C932.915 159.454 937.816 163.786 941.288 165.212C946.606 167.396 951.189 166.025 954.875 172.625C960.008 181.816 966.125 187.46 971.172 196.328C987.555 225.117 988.711 267.862 977.023 298.523C974.752 304.481 968.628 313.074 967.253 317.753C965.641 323.238 967.464 329.503 960.714 333.214C951.521 338.268 954.339 336.737 947.033 343.533C907.363 380.433 858.88 386.094 806.642 379.858C751.71 373.3 651.47 338.004 604.037 376.537C598.563 380.984 599.615 385.399 589.82 388.32C563.627 396.134 543.276 403.825 515.238 395.262C466.03 380.233 458.177 320.534 492.899 286.361C489.182 280.017 484.241 275.58 480.481 269.019C462.807 238.177 468.811 197.295 503.33 181.83C541.033 164.938 577.896 186.857 602.5 214.982C629.19 183.995 657.412 153.078 696.755 138.255C701.291 136.545 706.142 135.799 710.648 134.152C712.484 133.48 714.143 133.86 714 131C717.461 131.97 719.859 140.979 718 144Z" fill="#891E01"/>
<path d="M788 651C786.829 652.278 780.317 655.429 778 657C778.358 660.378 774.021 663.621 771 662L769.231 665.43C757.273 672.351 744.779 678.218 731.749 683.03C730.64 682.054 729.398 681.674 728 682C726.182 684.749 722.659 686.18 717.431 686.291C712.505 688.011 708.695 687.914 706 686C693.433 690.466 674.563 689.779 661.507 686.411C655.476 683.735 653.951 683.927 656.935 686.989C656.585 714.634 657.338 741.808 659.193 768.511L657 770C657.932 772.445 657.599 773.445 656 773C658.753 775.871 654.189 779.711 651.58 781.523C644.86 786.189 635.077 785.348 628 782C626.827 783.712 625.906 783.129 626 781C616.055 775.015 615.643 766.36 615.834 755.896C615.894 752.612 616.638 741.382 617.596 738.908C619.36 738.522 620.162 736.886 620 734C619.093 730.606 618.6 727.153 618.527 723.642L620.469 678.291C616.029 678.239 598.932 670.917 597.376 666.521L598 664C596.313 661.461 593.677 654.931 593 652C592.296 648.949 592.253 644.235 592.004 640.995C580.776 640.854 547.416 645.253 540.774 634.726C537.74 629.918 538.538 623.993 542.495 619.995C547.747 614.688 564.127 606.089 571.328 601.828C603.131 583.006 636.217 566.141 668.323 547.823C696.897 540.622 727.228 541.539 756.541 542.959C772.954 543.754 795.617 544.464 811.398 547.102C821.34 548.763 827.31 553.167 824.787 564.292C822.273 575.373 792.349 592.607 783.161 599.593C787.08 610.867 796.612 641.601 788 651Z" fill="#010C1F"/>
<path d="M241 387C240.246 384.242 240.292 376.56 238.544 376.253C225.226 376.95 199.402 381.329 187.636 374.864C180.33 370.849 180.195 360.792 185.499 354.999C191.656 348.275 210.159 338.301 218.699 333.199C246.781 316.422 276.214 301.806 304.014 284.514C327.919 274.446 392.888 279.373 420.492 282.008C426.595 282.59 441.269 283.767 445.922 286.578C451.112 289.714 451.943 295.685 450.77 301.275C448.319 312.95 421.063 330.472 410.932 336.66C413.352 348.41 423.303 379.648 414 389C413.782 389.219 409.285 391.985 408.746 392.25C402.307 395.428 404.638 391.975 399 399C400.299 400.462 399.717 401.005 398 400C397.738 400.836 397.403 400.817 397 400C393.304 405.254 387.13 409.179 381 411C380.911 413.897 364.808 420.422 363.821 420.227L361 419C341.511 427.835 317.418 426.014 296.495 422.719C293.913 419.623 293.445 420.735 295.093 426.054C293.778 450.847 295.63 475.186 297.834 499.366C297.823 502.226 297.376 508.418 294 508C296.216 514.725 284.066 519.551 278.189 519.433C254.07 518.949 254.187 495.771 256.882 477.939C258.35 477.968 258.806 477.222 259 476C258.053 473.266 257.525 470.455 257.426 467.565L260.074 413.788L247.731 405.87C245.933 404.162 242.921 401.075 245 399C244.052 397.076 241.664 389.429 241 387Z" fill="#010C21"/>
<path d="M714 131C713.626 129.585 713.505 123.126 712.421 122.941C697.739 122.063 671.343 127.876 658.299 121.201C651.306 117.622 649.791 108.369 655.086 102.586C659.354 97.9261 671.841 90.8331 677.699 87.1991C709.202 67.6581 743.003 51.6331 774.461 31.9611C811.723 24.1861 853.534 26.5151 891.49 30.0101C903.968 31.1581 927.83 30.9411 920.739 50.2411C916.995 60.4331 893.648 75.4471 884.315 81.8481C883.335 82.5211 882.158 82.8031 881.023 83.0641C881.874 88.2491 884.21 93.0601 885.324 98.1761C887.381 107.624 891.422 128.836 884 136C881.282 138.623 875.938 139.211 873.979 140.52C872.906 141.237 873.156 142.874 873 143C874.282 145.903 869.228 149.152 867 147L865.841 150.093C855.817 156.436 845.286 162.028 834.127 166.107L831 165C829.665 167.645 826.665 169.03 821.999 169.156C816.941 170.947 812.942 170.896 810 169C794.925 174.464 777.523 171.483 762.664 167.453C764.214 168.52 763.595 170.616 761.583 170.946C761.642 177.004 761.447 183.022 761 189C761.867 190.549 762.735 192.195 762.86 193.997C763.359 201.18 764.947 229.199 763.3 233.498C762.966 234.37 762.502 235.192 762 236L763 246C765.811 246.566 765.502 249.247 763 250C766.146 250.847 765.159 256.631 762 257C764.519 263.731 754.435 270.135 747.974 270.561C739.74 271.104 727.958 264.195 725.197 256.241C723.762 252.108 724.587 230.498 726.198 226.915C728.335 225.859 729.269 223.221 729 219C725.806 217.533 727.136 207.375 730 205.5C726.724 203.852 726.867 191.438 730 189.5C726.787 184.907 728.045 173.773 731 169C733.753 159.688 729.733 157.044 722.665 152.7C718.161 149.744 716.607 146.844 718 144C716.717 141.042 714.893 134.376 714 131Z" fill="#010C21"/>
<path d="M537 771L537.688 773.354C519.142 797.739 525.731 824.219 560.166 816.991C564.773 816.973 567.515 818.882 570.882 821.694C572.333 822.905 584.53 835.568 584.872 836.533C585.031 836.981 585.037 837.483 585 838L587.923 837.289C602.941 845.231 620.859 840.219 630.108 826.143C637.462 813.429 645.339 802.672 657.135 793.973C663.409 788.166 665.263 779.467 656.149 775.281L656 773C656.141 772.648 656.976 770.156 657 770C660.049 771.83 663.494 771.99 667.335 770.48C675.187 775.557 683.241 775.414 692.165 773.473C692.879 773.494 693.528 773.591 693.95 773.953C694.357 774.301 696.667 783.193 696 784C692.748 791.322 689.122 807.318 701.5 807.159L703 809C702.343 813.221 689.882 813.012 689 809C688.016 809.431 687.082 809.411 686.196 808.939C676.865 833.589 666.024 822.309 670.938 801.904C662.936 807.729 665.82 830.824 678.878 824.86L681 826L683.223 826.253C687.575 837.148 696.66 842.694 710.477 842.89C711.968 840.941 713.476 840.311 715 841L716.635 842.724C716.823 847.605 717.804 852.386 719.578 857.066L718 859C716.417 860.363 716.417 860.363 718 859C720.152 857.77 722.729 858.906 725.733 862.407C734.787 867.28 747.576 854.739 739.989 846.657C740.054 857.263 730.199 866.435 722.892 855.563L718.109 841.392C716.997 842.097 716.127 841.812 715 841C712.339 838.505 717.944 825.741 720.551 824.513C727.773 824.174 735.076 825.69 742.46 829.06C746.55 828.194 750.393 826.441 753.99 823.8L756 825L757.91 826.253C756.276 837.278 769.004 843.959 772.237 830.84L774 829C777.043 828.335 778.628 825.937 778.756 821.806L781 821L782.923 822.351C780.66 839.835 796.425 850.912 802.099 828.81L804 827L806.511 826.48C813.722 833.023 816.749 831.07 819.729 822.825C827.416 817.134 836.519 836.633 826.456 840.585C815.666 845.093 807.927 850.217 801.373 860.357C796.717 864.437 791.277 867.504 785.053 869.558C779.176 871.729 778.492 875.543 783 881C694.269 906.524 617.446 845.811 528.183 865.683C481.84 876 456.461 917.449 403.99 905.51C365.72 896.803 357.472 851.694 380.977 823.477C386.608 816.716 394.325 811.171 400.991 805.486L384 792C382.397 787.709 389.529 787.116 392.808 787.208L402.436 788.006C405.008 786.917 407.196 786.582 409 787C410.232 786.372 411.865 786.282 413.9 786.73C413.722 783.323 414.756 782.08 417 783L418.853 784.623C418.019 791.115 421.305 793.117 427.334 792.193L429 794C434.108 800.282 446.269 802.568 454.052 799.777L456 801C457.946 800.861 460.085 801.599 462.418 803.215C466.274 803.205 468.802 804.134 470 806C479.658 804.162 488.937 801.42 497.837 797.773L500 798L502.229 797.478C510.034 805.992 521.352 797.941 515 788C513.939 786.324 514.506 784.621 516.701 782.89C517.645 778.069 519.411 775.439 522 775L522.052 772.679C527.175 771.45 531.78 769.789 536 767C538.593 765.719 538.927 767.052 537 771Z" fill="#FD7200"/>
<path d="M598 664C603.098 671.674 614.085 674.018 622.063 677.612C621.918 696.448 620.976 715.177 620 734C620.103 740.39 618.036 741.625 613.798 737.705C593.832 728.605 552.797 755.367 540.052 770.49L537 771C535.773 769.759 537.675 768.955 536 767C533.672 769.677 531.657 766.647 533.144 763.693C546.968 750.917 528.347 760.269 526.737 767.438L519.262 771.907C521.243 772.28 522.156 773.311 522 775C521.285 775.583 519.388 782.113 518.412 783.91C517.628 785.354 515.899 786.29 515 788C517.901 789.688 514.649 796.853 511.925 797.802C504.234 800.481 501.304 790.804 499.797 785.041C496.026 784.253 496.419 787.888 500.974 795.947L500 798C499.346 799.662 497.787 800.146 496.36 800.857C489.609 804.22 477.095 806.271 470 806C469.752 805.238 469.671 804.351 470.243 803.892C471.196 803.126 483.208 793.146 477.964 794.897C462.933 805.548 461.556 802.399 456.656 787.047C454.79 781.203 454.153 797.14 456.971 798.866L456 801C448.774 805.399 434.802 801.935 428.501 796.998C425.954 795.002 427.146 795.329 429 794L429.528 791.834C432.709 790.694 436.207 789.173 438.047 786.188C421.538 794.079 417.048 789.216 424.809 772.874C421.859 775.015 419.972 778.174 419.15 782.35L417 783C415.139 783.899 416.816 787.025 415.412 788.103C413.312 789.715 410.679 788.628 409 787L406.754 787.481C406.754 787.481 402.175 775.398 393.017 751.232L394 749C393.982 740.483 406.786 735.218 414.581 734.371C436.516 731.987 457.224 748.883 472.554 762.194L475 762L476.825 760.856C480.494 763.814 488.096 753.752 489.936 750.528L492 750C495.478 748.923 498.598 745.137 501.026 742.526C509.497 733.42 516.982 723.051 525.486 713.986C545.659 692.483 569.286 672.503 598 664Z" fill="#FD8100"/>
<path d="M862 760L864.007 761.574C864.913 770.472 864.685 792.394 860.771 800.027C853.965 807.709 846.507 818.446 862.863 817.515L865 819C866.849 820.515 864.236 825.076 862 825C843.276 855.18 816.611 871.331 783 881C779.486 880.738 777.551 876.535 777.974 873.558C778.724 868.272 791.872 865.122 795.957 862.457C802.123 858.434 805.508 849.844 812.662 845.162C816.641 842.559 827.518 839.584 828.806 835.284C830.108 830.937 825.228 821.581 821.117 824.133C820.844 824.301 819.545 828.612 818.459 829.959C813.862 835.665 808.102 830.366 804 827L802.041 828.411C790.518 849.428 785.049 832.076 784.104 817.44C783.168 818.687 782.133 819.874 781 821L778.908 829.912C777.05 830.732 775.366 829.256 774 829C761.75 841.261 759.459 831.944 760.902 818.279C760.013 819.365 759.154 818.911 758 818C751.957 828.236 741.865 825.754 738 816C735.667 814.396 736.189 812.349 739 812C739.701 804.324 740.952 804.293 748.724 804.44L757.429 804.928C767.984 809.95 795.171 803.212 795.462 789.624L797 788L797.61 785.445C808.954 778.617 817.092 766.875 820.681 754.23L823 753L825.297 753.845C826.859 758.961 828.884 760.921 834.287 759.333C842.594 755.163 857.194 749.094 862 760Z" fill="#FD8600"/>
<path d="M492 750C492.267 753.755 481.806 763.551 478.314 763.81C476.985 763.908 476.009 762.631 475 762C473.529 762.998 471.917 762.575 470.164 760.729C448.24 737.852 420.353 718.189 386.712 721.616L383 720C409.971 695.899 445.485 703.256 471.47 725.03C476.01 728.833 491.625 744.724 492 750Z" fill="#FDA414"/>
<path d="M394 749C396.136 752.053 400.511 763.386 402.036 767.464C404.039 772.82 405.099 783.216 409 787C402.828 794.428 391.35 784.888 384 792C369.333 776.999 363.993 752.299 373 733C375.123 733.676 377.245 735.221 379.366 737.635L393.356 745.574C394.703 746.297 394.626 747.589 394 749Z" fill="#E75500"/>
<path d="M475 762C474.202 764.133 473.067 764.396 471.034 763.504C467.729 762.054 460.711 754.335 456.914 751.586C438.719 738.415 409.898 726.041 394 749C390.444 743.916 375.076 740.867 373 733C376.273 725.987 377.334 725.063 383 720C410.947 716.485 433.691 726.443 454.896 743.604C461.242 748.739 469.152 758.34 475 762Z" fill="#F96600"/>
<path d="M816 675C819.77 676.599 823.494 677.562 827 679L828.659 680.41C829.161 686.193 832.836 690.607 836.645 694.718L836 697C838.02 700.544 838.848 702 836.056 705.528C833.918 708.229 824.402 712.17 821 713L818.341 711.234C806.26 678.499 762.298 668.104 734.083 686.271L731 686C729.253 685.624 728.253 684.291 728 682C742.804 678.163 758.075 670.019 771 662C785.752 667.881 800.752 672.214 816 675Z" fill="#FD8E01"/>
<path d="M879 752C878.907 757.564 863.822 756.852 863 752L860.914 749.175C860.249 730.309 849.408 714.894 837.187 701.369L836 697C831.539 691.969 826.021 686.366 827 679C861.831 693.289 876.261 714.751 879 752Z" fill="#FDC43E"/>
<path d="M879 752C879.104 753.416 879.959 755.246 880 758C881.859 776.027 877.773 803.306 866.978 818.18C866.621 818.672 865.867 818.877 865 819C859.483 820.908 850.87 819.536 850.985 812.516C851.089 806.13 856.93 803.918 859.187 798.687C863.183 789.425 861.998 770.475 862 760C859.456 757.954 859.868 752.835 863 752C868.4 753.753 873.87 754.885 879 752Z" fill="#FDAB17"/>
<path d="M816 675C811.49 677.53 804.749 674.731 800.001 673.499C792.192 671.474 781.765 668.232 774.367 665.137C772.648 664.418 770.824 664.955 771 662C773.41 660.505 775.656 658.589 778 657C790.477 663.635 803.023 669.496 816 675Z" fill="#FCBB39"/>
<path d="M880 758C881.481 763.568 881.462 771.711 881.039 777.538C880.014 791.632 873.052 812.903 865.229 824.696C864.113 826.377 863.276 827.123 862 825C862.947 823.474 863.984 820.815 865 819C876.742 798.018 880.363 782.372 880 758Z" fill="#841E01"/>
<path d="M72 529C78.822 533.907 88.911 538.072 97.133 534.891L99 536C101.241 536.092 103.72 536.811 106.436 538.156C109.697 537.536 112.218 537.818 114 539C122.827 538.973 131.583 536.164 139 532C140.837 531.257 143.258 532.215 146.263 534.875C149.93 534.127 152.508 534.502 154 536C157.482 537.37 161.085 538.051 164.81 538.043L166 540L168.249 540.248C171.679 546.874 178.664 551.217 186.21 551.033C195.816 548.407 203.672 549.793 209.78 555.191C215.381 563.101 222.367 568.268 230.738 570.692L232 573C238.504 572.528 244.924 571.731 251.261 570.609C260.829 565.282 268.469 557.245 274.182 546.5L277 546L279.128 546.051C283.117 553.402 288.292 560.323 294.796 565.63C296.749 561.774 299.779 560.916 303.653 560.174L305 558C305.072 555.165 311.442 555.291 312 558C315.151 563.096 339.961 582.47 343.853 579.862C343.38 575.216 344.429 572.929 347 573L348.557 574.934C347.589 583.055 353.539 598.604 363.986 594.165C369.581 591.787 374.645 583.627 369.998 578.448C369.06 584.926 367.008 595.267 358.034 591.283C355.66 590.228 352.4 587.034 355 585C357.323 580.993 359.163 576.579 360.522 571.758C364.06 566.386 366.348 567.842 370.275 571.764C376.782 574.064 391.33 578.758 381.709 566.875C380.828 563.857 381.181 556.912 385 557L386.295 557.515C385.549 568.085 395.184 578.436 399.543 564.49L402 564C401.329 561.33 405.772 559.549 408 560L410.166 561.45C411.728 572.993 418.723 579.884 426.66 567.819L429 568L430.143 566.208C437.958 565.665 441.374 563.271 444.591 556.487C453.188 550.636 460.955 568.642 449.54 571.59C444.762 572.858 440.083 574.281 435.502 575.859C428.79 587.301 423.329 593.914 410.081 597.542C405.512 599.376 404.485 601.528 407 604C408.716 605.173 408.049 606.507 405 608C323.591 631.472 253.493 577.382 170.99 595.49C128.234 604.873 108.838 640.961 60.516 636.984C10.236 632.846 4.35502 577.745 38.474 546.974C41.515 544.232 49.14 541.314 45.508 537.991C41.177 534.028 36.079 532.389 31 527C29.415 523.244 34.724 522.683 37.95 522.609C43.627 523.225 48.021 523.507 53 521C54.504 520.055 56.092 520.395 57.766 522.022C58.292 519.882 59.37 518.875 61 519L62.841 520.557C62.149 526.016 65.375 527.924 70.44 527.185L72 529Z" fill="#FD7000"/>
<path d="M259 476C258.374 481.016 256.325 480.358 254.215 476.401C244.471 468.68 233.743 472.232 223.24 476.297L221 475L219.765 477.621C195.697 488.069 163.818 508.338 167.555 538.198L166 540C162.472 540.191 157.721 539.888 154.666 538.026C153.697 537.436 154.09 536.058 154 536L153.29 533.968C154.755 531.465 155.401 528.391 155.036 525.502C154.295 533.171 148.224 535.956 142.946 529.575C137.598 517.012 135.663 516.134 140.111 529.964L139 532C138.68 535.959 132.243 537.54 129.006 538.506C125.638 539.509 116.157 542.622 114 539L114.105 536.763C116.591 536.302 123.326 528.357 118.252 530.41C105.454 541.49 101.252 534.028 97.337 520.728C96.1239 525.09 98.144 530.032 100.062 534.026L99 536C93.4019 540.72 79.27 536.346 73.8179 532.657C72.06 531.467 71.524 531.611 72 529L72.214 526.915C75.07 526.027 78.141 524.833 80.0079 522.378C65.675 529.086 60.7489 522.327 68.7489 509.101C65.888 509.633 64.057 512.727 63.255 518.382L61 519C60.613 520.228 59.3609 524.934 58.506 524.975C57.093 523.768 54.048 522.328 53 521L50.6759 521.174C47.028 510.799 43.1889 500.5 39.158 490.274L40 488C37.563 483.839 43.792 478.522 47.352 476.282C65.91 464.61 93.483 483.337 108.193 494.367C109.097 494.524 110.032 494.735 111 495C113.297 494.744 115.98 496.046 119.047 498.904C122.943 496.26 126.615 492.924 128.893 488.699L131 488C134.024 487.355 136.498 484.19 138.514 482.015C159.051 459.846 173.169 438.211 198.52 420.02C212.581 409.93 228.099 403.009 245 399C245.397 399.807 248.369 403.728 249.092 404.411C252.025 407.177 261.473 410.677 262.004 413.496C261.662 434.364 259.975 455.182 259 476Z" fill="#FD8100"/>
<path d="M484 547C486.586 548.282 485.912 550.382 483 550C473.475 564.517 464.252 575.969 450 586C436.732 593.772 422.992 600.121 408.782 605.045L407 604C405.105 604.191 403.763 604.5 403.497 602.075C402.818 595.88 418.383 592.945 422.505 590.005C427.613 586.36 430.608 577.477 434.279 574.287C438.136 570.936 458.539 571.558 452.404 561.09C446.19 550.487 444.642 562.602 441.383 564.883C439.752 566.024 431.321 568.996 429 568C427.491 567.166 427.066 565.373 427.725 562.621C416.623 582.501 411.279 564.808 411.344 551.855C409.661 551.974 409.186 554.204 409.918 558.544L408 560C407.065 562.667 402.326 563.676 402 564L400.368 563.655C389.29 573.667 388.387 562.074 388.889 552.416C387.887 554.265 386.59 555.126 385 555C382.768 560.917 374.407 562.923 368.707 561.29C366.145 560.556 361.409 556.494 364 554C363.267 551.327 365.984 545.742 369 546C367.806 531.057 384.4 534.992 392.705 540.665C405.485 539.451 416.905 533.955 424 523L424.576 520.39C434.767 513.848 441.6 502.888 444.67 491.312L447 490L449.375 490.407C451.148 494.08 453.215 495.844 457.414 494.657C491.59 475.458 488.537 508.889 483.605 531.365C479.53 535.629 469.406 548.964 482.207 545.402L484 547Z" fill="#FD8400"/>
<path d="M454 429L456.825 429.498C473.207 446.091 484.767 461.928 486.871 485.697C487.275 486.164 499.226 487.248 497.026 483.217L499 482C501.284 488.409 499.4 496.251 500 503C501.815 517.534 494.871 533.795 486.88 546.167L484 547L476.568 548.945C468.589 538.908 481.797 535.017 482.936 527.436C483.903 521 484.631 506.844 484.047 500.453C483.471 494.13 479.961 490.772 473.499 490.921C463.81 491.146 453.331 505.201 447 490C444.702 489.203 445.264 473.887 445.818 473.21C446.377 472.527 447.141 472.164 448 472C449.836 458.64 451.134 445.119 451.593 431.324L454 429Z" fill="#FDA513"/>
<path d="M131 488C131.37 491.32 122.158 500.15 119.253 500.855C117.078 501.383 113.062 496.754 111 495C108.765 494.938 106.635 493.932 104.612 491.982C85.022 474.966 61.417 454.735 33.845 461.484C30.601 462.308 28.652 461.48 28 459C51.637 436.219 86.252 443.789 109.47 463.03C113.82 466.634 130.47 483.248 131 488Z" fill="#FDA415"/>
<path d="M40 488C46.452 496.432 48.034 514.71 53 521C49.844 529.686 36.825 520.793 31 527C17.8 512.993 11.65 490.239 19 472L21.384 471.771C27.798 476.385 34.175 481.04 40.515 485.737L40 488Z" fill="#EB5700"/>
<path d="M111 495C109.89 497.057 107.882 495.783 106.424 495.075C100.055 491.984 91.877 484.964 85.034 481.466C70.045 473.803 48.209 469.246 40 488C35.456 482.061 23.802 478.562 19 472C21.288 466.322 23.611 463.23 28 459C32.171 460.924 38.298 458.028 42.5 458C71.184 457.808 91.086 478.06 111 495Z" fill="#FC6A01"/>
<path d="M499 482C498.954 483.229 499.346 486.344 498.89 486.891C497.965 487.998 487.265 488.786 485.475 487.026C484.221 485.794 482.388 471.858 481.281 468.219C475.06 447.758 464.343 443.771 454 429C449.775 430.286 445.19 418.154 450 417C476.166 427.328 500.123 452.169 499 482Z" fill="#FDC33D"/>
<path d="M437 413C438.667 413.668 440.337 414.332 442 415C445.693 416.294 439.949 431.425 438.747 432.333C437.031 433.629 436.801 433.801 435 432L431.88 431.527C413.73 413.709 382.965 412.142 362.129 426.141L359 426C356.729 427.857 355.017 425.06 357 423C356.669 421.526 358.002 420.193 361 419C367.526 417.188 374.57 413.424 381 411C387.236 409.051 393.087 405.349 397 400C397.265 399.954 397.964 399.96 398 400C409.406 406.326 423.857 409.888 437 413Z" fill="#FD8D02"/>
<path d="M450 417C449.237 421.933 451.347 425.212 454 429C452.096 438.94 453.438 449.252 451.878 459.378C451.168 463.981 448.533 468.911 448 472L445.706 470.084C444.825 457.24 441.192 445.535 434.807 434.971L435 432C437.398 432.527 437.081 430.79 437.823 429.374C440.516 424.233 440.808 420.525 442 415C444.347 415.942 447.634 416.066 450 417Z" fill="#FC7601"/>
<path d="M437 413C434.727 415.016 429.71 413.161 426.99 412.511C421.461 411.19 404.145 406.149 400.026 403.46C398.075 402.186 398.367 400.398 398 400C398.29 399.634 398.711 399.36 399 399C401.464 399.446 403.493 397.16 405.574 397.003C407.34 396.869 431.679 410.867 437 413Z" fill="#FCB730"/>
<path d="M500 503C500.044 502.656 501.336 501.534 501.04 500.579L501.01 493.005L502 493V509.5C502 515.679 493.553 542.005 489.834 547.334C489.22 548.215 483.396 555.68 483 550C483.641 549.023 483.639 547.576 484 547C495.588 528.514 497.14 525.223 500 503Z" fill="#881E01"/>
<path d="M450 586C436.297 595.644 421.166 603.339 405 608C405.69 607.1 406.363 604.525 407 604C408.007 603.171 417.315 600.615 419.969 599.469C430.065 595.109 439.666 589.51 450 586Z" fill="#E63100"/>
<path d="M816 235C819.441 235.883 823.474 243.721 822 247C819.627 249.543 825.21 254.985 826 253L828.995 253.551C843.663 270.75 868.633 279.233 890.011 270.202L893 271C894.822 271.462 894.867 272.035 894.547 273.592C892.919 281.517 870.028 293.699 862.318 291.773C855.165 286.741 846.307 285.615 838 288C838.647 290.26 834.918 291.751 833 292C829.957 290.787 826.849 290.278 823.676 290.473L822 289C821.216 289.33 820.484 289.304 819.815 288.834L816.034 273.955C813.718 279.776 803.098 295.737 798.586 283.981C797.574 281.345 797.578 271.581 801 271C807.388 263.766 805.478 247.586 802.135 266.922L800 268C795.629 274.204 793.777 283.224 798.826 289.881L798 292C799.868 294.372 794.891 297.191 793 295C791.875 294.811 791.039 294.437 790.489 293.876C782.497 316.234 771.242 304.821 776.239 286.761C769.597 292.89 769.847 312.805 783.071 308.646L785 310L787.101 310.141C802.017 325.674 811.011 324.618 814.084 306.973C817.016 304.414 821.226 304.434 826.715 307.034L835.488 306.225C842.525 310.105 846.517 309.168 853.444 306.272L855 308L856.31 308.468C857 316.405 860.946 326.388 868.802 317.77L871 318C872.745 316.168 878.255 316.168 880 318L882.354 318.347C886.264 326.151 894.75 322.987 897.724 316.27L900 316L901.409 314.505C909.748 315.418 912.156 312.694 914.644 305.41C922.011 299.609 930.749 318.247 922.319 322.223L906.314 332.072C899.793 342.252 893.408 348.356 881.824 352.224C876.233 354.206 875.959 357.798 881 363C792.523 389.946 708.685 322.955 620.482 353.982C599.001 361.538 581.998 378.191 560.002 383.502C529.829 390.788 492.516 381.823 484.468 348.032C478.035 321.02 491.743 300.472 512.982 285.499C507.025 281.77 502.745 278.054 498 273C496.23 268.865 502.335 267.813 505.926 268.008C510.862 268.699 515.553 268.696 520 268C522.292 267.024 524.626 268.358 527 272C530.277 272.756 535.287 273.952 538 276L540.242 276.037C546.856 281.674 555.442 283.662 566 282C568 281.71 570.197 282.481 572.589 284.313C575.928 284.417 578.731 284.979 581 286C589.536 286.037 597.727 283.862 605.575 279.476L608 280C609.843 279.5 612.027 280.109 614.552 281.826C617.572 281.715 620.054 282.106 622 283C624.169 283.811 626.362 285.006 628.581 286.584C631.629 286.905 634.102 287.71 636 289L638.309 289.686C643.981 303.841 656.866 302.736 669.507 300.676L674.611 301.613C677.318 303.016 685.396 311.01 684 314L686.885 313.997C699.989 328.806 723.997 329.998 735.888 313.218C742.852 300.127 751.794 289.019 762.713 279.894C767.767 275.348 770.894 269.088 765.515 263.432L766 261C764.79 253.295 776.052 255.604 780.807 258.486C786.903 260.04 797.148 257.352 797.587 249.969C797.206 243.309 798.747 237.892 802.209 233.718C806.879 234.303 811.476 234.73 816 235Z" fill="#FD7200"/>
<path d="M686 156C689.49 154.089 692.709 156.064 695.659 161.925L715.374 154.986C725.629 151.746 734.879 157.519 731 169C731.175 175.86 730 183.063 730 189.5V205.5C730 208.697 729.238 215.056 729 219C729.142 222.862 728.363 225.913 726.663 228.152C719.368 220.217 709.341 219.237 696.58 225.215C696.046 223.698 695.235 223.539 694 224L692.374 226.733C667.184 236.771 637.041 257.316 637.635 287.15L636 289C632.328 290.932 622.596 287.581 622 283C623.662 273.305 623.641 271.375 621.935 277.208C614.415 286.61 608.579 272.167 606.217 265.996C603.955 264.318 606.286 277.02 608.787 277.793L608 280C602.42 285.423 592.298 287.046 584.758 287.356C583.114 287.424 581.873 288.726 581 286L580.892 283.87C583.79 283.54 590.487 274.356 585.355 276.499C579.96 281.524 573.963 285.53 568.737 277.726C563.429 259.093 561.625 267.984 566.993 279.966L566 282C565.3 284.288 563.418 283.946 561.554 284.058C554.288 284.495 541.221 283.737 538 276L538.395 273.797C550.462 267.584 549.479 266.741 537.299 271.558C532.489 272.38 530.425 268.816 531.083 264.347C539.955 244.077 526.19 261.423 528.524 270.285L527 272L526.512 272.976C524.845 271.718 521.125 269.496 520 268L517.644 268.084C513.687 256.37 509.518 244.745 505.135 233.211L506 231C504.701 225.397 515.446 219.66 520.477 218.136C537.421 213.001 566.394 230.037 578.182 242.288L582 244C583.047 243.034 584.512 243.02 586.395 243.957C588.44 242.77 590.308 242.45 592 243C598.201 246.96 612.291 239.76 615.473 233.437C618.47 219.033 626.437 210.078 638.277 202.19C645.339 192.816 653.91 185.978 663.991 181.678C665.404 178.067 666.189 174.281 666.345 170.32L669 167C670.668 161.489 681.215 158.416 686 156Z" fill="#FD8100"/>
<path d="M958 305C940.106 336.948 915.424 352.516 881 363C877.665 364.193 874.858 357.763 875.158 355.729C875.906 350.669 890.307 347.35 894.922 343.422C898.94 340.004 900.899 334.558 904.511 331.011C908 327.583 922.553 320.636 923.346 318.751C924.751 315.414 922.765 309.706 920.069 307.432C914.123 302.416 916.283 312.193 911.391 314.891C909.367 316.007 902.185 317.632 900 316C898.677 315.184 898.172 313.511 898.485 310.981C893.898 318.291 887.555 326.784 883.519 313.388C881.427 288.514 878.26 303.736 881.54 316.32L880 318C876.896 319.216 874.104 319.216 871 318C869.528 317.443 869.172 315.998 869.931 313.664C859.825 322.706 858.362 310.169 858.91 301.818C857.938 304.698 856.634 306.759 855 308C851.164 308.581 847.494 311.166 843.536 311.047C840.131 310.944 837.573 308.497 835.276 308.203C833.01 307.912 829.755 309.291 826.503 309.018C823.39 308.757 819.542 306.268 816.67 306.937C814.849 307.361 812.758 320.687 809.008 322.502C802.079 325.855 792.668 317.357 787.296 313.294C785.905 312.241 785.432 311.803 785 310C785.922 307.28 787.384 304.582 789.388 301.906C789.977 298.881 791.181 296.579 793 295L798 292C803.862 291.419 807.798 289.943 811.804 285.075L814.812 284.951C817.751 293.858 826.74 311.084 836.466 298.129C837.402 294.789 837.914 291.413 838 288C838.152 287.91 837.422 286.158 839.897 285.435C844.011 284.234 852.91 285.024 857.011 286.489C859.304 287.308 860.904 289.776 863.54 289.963C867.944 290.276 877.459 286.281 881.338 283.838C885.107 281.463 893.247 275.611 893 271L893.525 268.432C904.089 261.608 911.371 250.248 914.687 238.236L917 237L919.333 237.659C920.966 242.028 922.777 243.816 927.491 242.436C940.156 235.691 957.311 232.867 953.032 252.926C954.31 266.688 951.604 278.018 947.925 290.542L948.319 291.854C953.609 294.244 958.047 299.161 958 305Z" fill="#FD7F00"/>
<path d="M931 183C932.096 182.843 933.112 183.04 934.094 183.53C935.479 184.221 942.167 193.174 943.689 195.328C952.614 207.959 955.176 220.27 957.36 234.905C961.383 235.97 965.597 234.669 970 231C970.438 240.281 969.679 249.707 970 259C972.209 261.053 971.145 266.214 970 269C968.647 273.848 968.477 278.822 967.283 283.783C965.386 291.66 961.88 298.073 958 305C955.114 303.448 955.035 299.759 953.014 297.486C948.756 292.698 944.37 295.849 946.448 285.938C947.034 283.146 949.267 280.643 949.783 278.283C951.376 270.995 950.889 261.069 951.006 253.512C951.082 248.586 954.262 242.013 946.837 239.671C935.364 236.053 922.623 255.112 917 237C915.319 234.744 914.982 231.565 915.988 227.463C915.342 223.186 916.013 220.032 918 218C919.983 211.134 921.716 204.292 923.042 197.259C922.16 190.612 924.273 184.746 931 183Z" fill="#FDA20D"/>
<path d="M600 234C601.629 236.742 595.137 244.527 592 243C588.334 245.966 586.015 247.335 582 244L580.643 243.832C556.221 220.816 530.308 200.8 495.41 205.007L494 203C526.899 170.409 581.753 199.218 600 234Z" fill="#FDA113"/>
<path d="M910 160C913.274 161.424 916.692 162.598 920 164L922.005 165.962C923.834 171.546 927.021 176.427 931.563 180.606L931 183C930.625 186.579 926.555 186.364 925.447 189.947C924.546 192.859 925.421 195.686 924.899 198.399C923.738 204.432 922.358 213.764 918 218L915.838 215.412C913.543 174.915 874.285 148.341 837.416 169.354L834 169C831.726 169.165 830.556 167.051 831 165C842.927 161.477 856.488 153.677 867 147L869.186 146.957C881.743 153.037 896.251 157.739 910 160Z" fill="#FD8B01"/>
<path d="M506 231C512.57 239.283 514.618 260.844 520 268C514.512 274.934 503.808 265.653 498 273C484.103 258.198 478.181 237.595 485 218C485.282 217.121 485.93 216.107 486.704 216.255C488.601 216.618 503.901 226.703 506.262 228.62L506 231Z" fill="#EB5800"/>
<path d="M582 244C578.097 246.083 573.758 239.612 570.919 237.581C561.055 230.524 539.526 218.913 527.504 219.01C519.057 219.078 510.874 224.409 506 231C505.073 229.831 492.477 222.175 489.488 220.006C488.061 218.97 486.851 218.085 485 218C487.22 211.622 489.011 207.942 494 203L517.377 203.123C535.328 206.049 550.655 215.744 564.472 227.028C570.888 232.267 576.274 239.244 582 244Z" fill="#FC6901"/>
<path d="M970 231C968.645 236.709 968.204 233.965 965.072 235.53C964.072 236.03 963.406 237.564 962.311 237.845C961.393 238.081 956.359 237.087 955.889 236.4C954.492 234.358 953.495 222.732 952.509 218.991C948.164 202.509 941.444 195.153 931 183C926.06 177.252 920.283 172.314 920 164C950.451 176.903 968.36 196.215 970 231Z" fill="#FDC13F"/>
<path d="M669 167C667.834 170.852 667.987 180.084 665.482 182.982C663.88 184.833 659.66 185.33 657.293 186.793C649.529 191.592 645.767 197.901 639.647 203.647C632.923 209.96 627.943 210.493 622.61 220.11C616.128 231.797 620.72 237.739 605.988 243.488C602.881 244.7 590.627 249.758 592 243C594.409 241.051 597.596 236.364 600 234C603.431 230.626 607.189 227.552 610.514 224.014C629.113 204.226 644.67 180.33 669 167Z" fill="#FB6700"/>
<path d="M718 144C721.169 151.307 729.771 154.136 731.495 157.005C732.521 158.712 732.593 167.005 731 169C730.949 167.006 731.454 161.142 730.837 160.156C730.61 159.794 723.688 156.23 723.267 156.154C715.52 154.752 700.983 163.914 694.569 164.042C693.959 164.054 690.606 155.6 686 156C686.268 155.865 686.9 154.431 688.252 153.796C697.691 149.361 707.833 146.295 718 144Z" fill="#FB6900"/>
<path d="M910 160C905.961 162.392 899.333 159.669 895.002 158.498C888.026 156.612 876.802 153.13 870.46 150.038C868.894 149.275 867.642 148.823 867 147C868.909 145.788 871.287 144.382 873 143C882.005 144.303 890.106 151.281 898.305 155.195C902.119 157.015 906.142 158.323 910 160Z" fill="#FBB831"/>
<path d="M970 259C970.006 258.868 970.954 257.865 971.041 256.579C971.299 252.756 970.77 248.828 971.01 245.005C972.471 244.826 972.804 247.623 972.909 248.589C973.777 256.633 972.067 264.142 970.99 271.995C969.309 272.26 970.053 270.112 970 269C969.847 265.809 969.846 262.19 970 259Z" fill="#891E01"/>
<path d="M706 686L705.628 688.504C692.04 696.344 691.744 715.261 710.856 712.345L713 714L714.52 716.781C708.257 762.94 748.016 802.886 794.216 787.028L797 788C802.62 801.301 773.514 809.287 764.471 809.106C761.372 809.044 760.261 807.268 758.452 807.049C755.232 806.66 742.98 805.684 740.995 807.497C739.695 808.684 740.395 810.876 739 812L737.126 810.421C736.818 802.469 734.793 809.268 733.827 812.937C723.086 826.573 714.149 798.206 714.456 789.859L712.609 791.382C701.228 814.038 691.835 804.02 696 784C693.776 780.821 692.094 779.637 692.995 775C685.836 776.905 680.272 777.568 672.983 775.517C671.053 774.974 668.046 772.338 666.499 772.363C663.392 772.413 660.361 776.93 657 770C658.467 760.303 655.203 743.904 654.959 733.541C654.562 716.719 655.333 699.82 655.007 683.004C671.73 686.923 688.915 687.94 706 686Z" fill="#FD7D01"/>
<path d="M624 584C625.577 585.16 627.109 585.324 628.596 584.493C651.4 568.375 669.042 557.604 697.947 555.906C710.075 555.194 724.577 554.81 736.492 556.913C738.734 557.309 755.341 563.054 755.792 563.982C756.689 565.828 756.653 566.228 755.653 568.168C740.611 572.049 725.425 575.368 710.098 578.127C708.165 579.64 706.466 579.931 705 579C700.661 571.711 691.615 570.693 683.963 573.388C663.325 580.659 693.268 587.825 700.731 581.233L703 582C704.607 583.836 703.937 586.296 700.99 589.379C693.824 594.646 696.4 595.639 708.717 592.356C725.836 586.397 743.388 582.09 761.371 579.434C766.102 578.246 769.978 578.768 773 581C770.378 583.733 767.705 586.5 764.505 588.562L711.955 621.774L703.564 620.202C662.797 621.724 620.771 624.046 579.838 626.368C573.921 626.27 558.75 625.415 570.121 618.671C586.927 612.78 603.868 607.287 620.946 602.194C613.446 605.198 597.76 610.124 590.681 604.639L590 602C601.164 595.712 612.883 590.248 624 584Z" fill="#1D42A8"/>
<path d="M626 781C626.632 781.379 627.342 781.662 628 782C632.31 783.954 637.019 784.902 642.127 784.844C646.932 785.471 649.783 787.542 646.969 792.383C636.706 800.045 628.18 809.574 621.391 820.969C616.059 827.723 608.725 831.94 599.975 830.997C596.886 830.664 590.667 829.809 592 826C589.197 827.778 587.836 824.36 587.084 821.894C585.049 815.218 589.215 806.931 592.689 801.329C577.924 813.199 550.14 807.825 566.446 785.326C553.146 798.324 539.847 788.547 551.902 772.88C564.147 756.965 612.122 724.957 614.231 764.466C616.2 771.063 620.202 777.12 626 781Z" fill="#FB7A03"/>
<path d="M773 607L770.178 610.413C751.907 622.053 740.814 642.348 748 664C719.64 677.251 687.086 680.162 656.581 673.116L655.995 636.997L715.274 634.775C734.422 625.533 752.228 613.812 770.502 603.018C771.763 604.066 772.395 605.544 773 607Z" fill="#011E6F"/>
<path d="M537 771C548.666 756.688 571.476 741.949 589.219 736.719C598.864 733.875 611.043 731.183 618.99 739L620 734C619.178 749.852 612.796 769.367 626 781C622.5 778.904 619.248 777.525 616.565 773.934C606.315 760.211 616.414 741.459 590.47 748.97C578.644 752.394 555.349 767.564 550.511 779.004C546.105 789.423 553.684 792.376 561.915 786.416C570.481 780.213 577.032 768.953 589.995 769.01L575.522 779.022C569.736 784.207 557.404 795.538 566.471 803.028C572.782 808.241 580.957 804.973 587.512 802.012C589.435 801.144 599.415 794.484 600 795.01C593.886 801.635 583.044 818.406 592 826C592.398 828.041 590.824 830.002 587.279 831.882C587.987 836.363 587.227 838.402 585 838C576.227 833.069 574.939 827.958 568.391 822.109C559.64 814.294 546.714 824.489 534.661 816.839C518.152 806.361 527.077 783.174 537 771Z" fill="#A32001"/>
<path d="M590 602C605.172 610.934 619.035 597.498 633.995 597.495C613.929 611.022 587.878 611.014 567.005 622.505C568.039 623.281 570.313 623.731 571.616 623.881C588.002 625.777 616.706 621.763 634.391 620.898C646.919 620.285 659.732 620.429 672.541 620.041C684.959 619.666 699.889 615.563 711.502 619.991C731.625 606.418 752.32 593.68 773 581L773.167 578.567C786.409 572.622 798.02 565.1 808 556C811.596 556.21 818.541 554.435 816.838 560.299C816.194 562.518 801.759 575.215 798.92 577.42C773.983 596.792 741.656 610.982 714.276 626.776C668.353 627.605 622.437 631.971 576.541 633.041C571.937 633.149 549.378 634.232 548.075 630.373C547.677 629.192 547.989 628.09 548.499 627.007C550.042 623.73 584.088 605.33 590 602Z" fill="#011E6F"/>
<path d="M808 556C809.378 557.855 809.036 558.476 807.532 560.012C801.301 566.373 781.609 575.721 773 581C763.19 580.631 753.395 582.41 743.792 584.292C732.745 586.457 706.898 596.464 698.493 596.088C689.053 595.665 697.474 590.801 699.97 587.475C701.384 585.59 702.171 583.134 703 582C700.748 580.112 702.271 577.946 705 579C711.456 572.688 729.558 573.379 738.186 570.686L755.995 566.01C749.948 565.262 745.36 560.946 739.048 559.452C725.223 556.181 685.637 556.935 672.309 561.809C665.653 564.244 654.779 570.222 648.329 573.829C644.028 576.234 631.068 586.085 628.259 586.809C625.748 587.456 624.066 586.934 624 584C636.216 577.135 664.872 556.215 676.582 554.082C713.886 547.289 769.249 553.737 808 556Z" fill="#587DDA"/>
<path d="M642.747 765.755C642.202 766.35 638.325 767.947 637.42 767.993C631.054 768.316 629.395 762.785 628.958 757.542C626.882 732.617 630.761 700.866 631.99 675.49C632.471 665.549 631.243 653.193 633.018 643.519C634.243 636.845 646.039 634.402 647.046 645.454C648.636 662.89 645.339 683.807 644.959 701.459C644.576 719.223 646.438 739.186 645.036 756.536C644.869 758.606 643.954 764.437 642.747 765.755Z" fill="#FDDE84"/>
<path d="M656 773C658.241 773.849 663.161 777.562 663.793 779.703C667.661 792.806 652.194 799.15 645.03 807.53C635.626 818.53 631.776 833.319 617.353 839.853C606.181 844.913 595.468 843.883 585 838C586.67 835.958 584.141 834.017 585.495 831.022C586.557 828.674 590.403 827.895 592 826C595.927 829.33 602.192 829.557 607.059 828.557C619.137 826.076 625.993 809.385 633.488 800.988C636.155 797.999 644.664 792.328 645.518 791.018C646.008 790.266 646.332 788.522 645.997 788.014C645.553 787.343 633.31 785.256 630.401 784.056C628.758 783.377 628.283 782.146 628 782C637.9 784.181 651.56 784.079 656 773Z" fill="#B92301"/>
<path d="M773 607C773.118 607.284 772.886 607.712 773 608C772.62 617.813 772.995 630.154 780.496 637.358L781 640C778.082 648.534 756.371 660.089 748 664C745.551 664.486 745.782 662.916 745.319 661.228C741.782 648.333 744.75 633.895 753.022 623.522C757.573 617.814 766.077 609.277 773 607Z" fill="#1D43A9"/>
<path d="M728 682C730.61 681.388 730.47 683.954 731 686L730.926 688.601C723.588 694.969 718.048 703.488 715.33 712.833L713 714C689.514 718.739 688.167 695.403 706 686C712.269 685.288 721.932 683.573 728 682Z" fill="#FDA00B"/>
<path d="M624.005 638.995L622.996 667.002C609.218 666.123 601.265 653.899 602.941 640.579C603.282 638.592 621.36 638.975 624.005 638.995Z" fill="#001451"/>
<path d="M781 640C775.802 636.858 774.386 633.154 772.874 627.626C771.367 622.119 769.028 612.749 773 608C775.471 614.221 778.561 621.941 780.13 628.371C781.18 632.68 782.451 635.758 781 640Z" fill="#4F75D3"/>
<path d="M361 419C360.33 420.243 358.13 422.512 357 423L356.519 425.34C351.097 426.737 345.571 427.534 339.941 427.733C324.156 431.474 324.414 450.675 342.979 449.888L344 452L345.575 454.648C339.108 495.953 378.083 541.766 420.832 522.324L424 523C425.458 530.142 409.476 539.11 404.035 540.535C402.867 540.84 393.072 542.642 392.486 542.62C390.932 542.56 387.124 539.101 384.057 538.443C381.437 537.881 377.083 537.548 374.524 538.03C370.181 538.848 370.488 542.889 369 546C367.437 545.407 366.563 543.523 366.378 540.349C357.58 565.283 346.189 536.017 345.679 524.139C343.781 528.013 334.377 543.385 329.399 536.965C328.858 536.266 329.331 535.256 330 534.5C326.736 533.035 326.874 520.786 330 519C322.52 524.988 324.429 547.682 337.708 539.03C342.864 534.119 345.529 532.901 347.046 540.726C349.405 546.925 355.023 553.87 362.376 552.407L364 554C369.263 563.922 377.725 559.572 385 555C387.557 555.698 387.515 556.141 385 557C384.051 558.252 383.036 564.365 383.237 565.386C383.538 566.918 389.312 572.364 386.037 575.504C383.398 578.033 372.839 575.152 369.757 573.742C366.196 572.114 365.65 567.041 362.252 572.754C359.909 576.695 360.294 585.389 355 585C354.118 585.321 353.345 585.197 352.698 584.555C352.331 578.089 350.431 574.238 347 573C344.273 576.943 348.788 582.542 341.617 581.96C336.273 581.526 317.156 566.773 313.08 562.414C311.837 561.085 310.617 559.89 312 558C312.383 556.296 313.459 554.814 315.229 553.555C320.533 546.863 322.655 533.271 315.096 550.013C312.965 553.933 305.021 554.437 307 549.5C303.995 550.13 304.599 535.126 305 534.411C305.425 533.654 306.203 533.257 307 533C300.412 538.275 298.56 549.488 304.982 555.808L305 558C307.467 563.22 301.539 562.074 299.038 563.537C297.468 564.456 296.335 567.883 295.515 567.954C291.767 568.282 278.182 550.565 277 546L275.895 544.059C280.098 537.209 285.763 531.387 292.889 526.591C298.534 521.747 298.165 515.854 293.538 510.56L294 508C294.576 506.828 295.768 501.865 295.811 500.509C296.14 490.137 293.281 476.375 292.959 465.541C292.509 450.395 293.373 435.148 293.005 420.004C314.619 424.478 339.582 424.946 361 419Z" fill="#FD7B00"/>
<path d="M263 320C264.278 320.796 265.502 321.118 266.673 320.966C284.485 307.479 302.106 295.854 325.094 292.703C343.494 290.18 367.49 290.351 383.758 299.793C388.069 299.825 389.306 301.31 387.468 304.247C373.482 308.217 359.325 311.676 344.998 314.622C342.777 316.337 340.777 316.797 339 316L336.993 315.095C330.527 298.809 294.054 318.336 326.465 320.094C330.107 319.348 333.285 319.317 336 320C338.005 320.452 337.856 321.098 337.204 322.713C334.399 325.529 332.588 328.099 331.772 330.425C350.285 325.199 369.06 320.47 388.096 316.239C393.388 314.753 398.022 315.006 402 317C401.465 317.964 400.899 318.904 400.225 319.758C399.561 320.599 398.891 321.406 398.066 321.984C380.102 334.576 362.528 346.788 344.557 357.907L339.785 356.017C298.894 358.117 256.337 359.925 214.391 360.905C203.962 361.147 205.99 355.289 213.144 352.705C224.21 348.603 235.508 345.15 247.039 342.345C241.917 343.858 234.567 342.474 233 337C242.926 331.232 253.102 325.774 263 320Z" fill="#1D42A9"/>
<path d="M375 401C349.551 413.523 321.55 415.749 294 409V373C299.9 373.874 305.903 372.189 311.459 371.959C320.005 371.605 329.081 372.591 337.542 372.042C352.387 371.079 364.478 362.18 376.915 354.415C379.746 352.648 398.512 338.646 399.991 339.998C400.058 341.705 400.512 343.38 401 345C399.849 346.958 399.319 346.74 398 345L396.933 347.79C381.339 359.909 371.621 377.748 376.413 398.188L375 401Z" fill="#011E71"/>
<path d="M233 337C235.834 337.66 238.796 340.958 241.339 340.961C251.259 340.969 263.083 333.157 273 332.01C275.088 333.578 256.589 341.229 255.247 341.747C243.673 346.218 219.624 350.62 210.74 356.24C209.5 357.025 208.622 357.166 209.005 358.995C228.856 358.737 248.696 357.786 268.539 357.039C281.526 356.55 294.325 356.457 307.541 356.041C316.869 355.748 330.767 352.847 339.553 353.943C341.792 354.222 343.289 355.971 344.501 355.989C346.441 356.017 372.102 336.859 376.479 333.979C384.964 328.395 393.669 322.435 402 317L403.276 313.829C415.258 308.342 425.499 301.399 434 293C436.186 293.266 443.278 292.058 442.855 296.33C442.212 302.822 414.728 322.573 408.31 326.81C388.482 339.899 366.577 351.307 346.272 363.772C307.638 363.167 269.025 366.859 230.541 368.041C218.286 368.418 205.923 367.82 193.664 367.836C191.389 367.058 189.89 362.481 192.473 360.974C204.82 353.332 217.146 345.451 229.694 338.148C230.892 337.451 232.343 337.382 233 337Z" fill="#011D6F"/>
<path d="M434 293C436.074 295.713 433.688 296.884 431.909 298.415C423.304 305.818 411.504 310.801 402 317C391.78 317.367 380.977 319.143 370.988 321.488C364.716 322.961 332.057 334.931 329.005 331.995C328.607 327.718 333.04 325.299 335.049 322.508C335.722 321.574 335.8 320.245 336 320C334.238 317.556 336.141 314.723 339 316C345.852 309.782 360.221 309.463 369.034 307.534L387.995 302.01C382.656 303.126 379.561 299.279 374.986 297.514C364.472 293.458 344.89 293.265 333.458 293.958C311.705 295.277 301.751 300.278 283.692 311.192C280.815 312.931 268.316 322.553 267.301 322.845C264.856 323.547 263.002 322.833 263 320C284.098 307.692 302.271 290.492 327.458 288.958C358.839 287.047 402.667 289.183 434 293Z" fill="#5478D7"/>
<path d="M221 475C232.824 470.58 244.399 465.961 255.568 474.944C257.336 476.365 256.605 480.38 259 476C258.319 490.534 253.157 510.396 271.029 516.469C279.398 519.314 289.958 516.229 294 508C307.738 523.615 290.616 529.577 281.953 538.453C279.606 540.857 278.635 543.739 277 546C263.916 564.092 258.234 578.158 232 573L231.965 570.737C239.45 567.918 240.413 565.645 234.853 563.918C229.702 567.439 224 561.165 229 558L231.321 557.041C242.025 561.434 248.108 558.636 255.319 550.17C261.98 539.97 268.668 531.206 278.021 523.415C257.946 519.965 248.768 508.069 244.402 489.246C240.549 483.964 234.62 483.078 226.614 486.587L225 485C224.265 484.791 223.842 484.288 223.408 483.716C221.962 481.814 217.986 476.098 221 475Z" fill="#BF2501"/>
<path d="M276.723 374.203C281.843 373.06 285.729 376.301 285.828 381.474C286.095 395.49 284.137 410.433 283.959 424.458C283.69 445.677 286.296 473.283 283.999 493.499C282.521 506.511 269.96 503.495 268.953 492.547C267.713 479.066 269.733 464.898 270.041 451.541C270.564 428.891 269.413 402.714 271.982 380.481C272.345 377.343 273.348 374.956 276.723 374.203Z" fill="#FCDD88"/>
<path d="M398 345L399.356 345.557C399.587 356.787 402.468 366.935 408 376C406.606 383.353 381.97 397.57 375 401C372.505 391.041 372.706 379.678 376.51 370.01C379.2 363.172 391.358 347.425 398 345Z" fill="#1C40A6"/>
<path d="M248.999 375.005C252.925 375.936 258.411 374.088 261.743 374.196C265.787 374.326 263 379.821 262.955 382.459C262.903 385.593 264.023 400.497 261.479 401.003C254.074 402.476 248.408 380.409 248.999 375.005Z" fill="#00124B"/>
<path d="M401 345C403.206 352.323 409.279 369.254 408 376C398.458 370.944 398.379 354.573 398 345C399.171 344.573 399.745 343.994 401 345Z" fill="#486DCF"/>
<path d="M381 411C383.373 409.44 395.691 400.228 397 400C397.208 404.663 389.716 409.264 386.016 410.543C384.168 411.181 381.846 410.681 381 411Z" fill="#F34700"/>
<path d="M732 68.0001C733.566 68.7781 734.95 68.8751 736.154 68.2911C762.354 47.5971 786.5 38.7061 819.915 39.7731C831.854 40.1541 843.952 40.6161 853.963 47.7351C857.731 47.7291 858.933 49.2081 857.57 52.1731L810.642 63.6571L809 62.0001C804.21 57.3061 799.307 55.4221 792.245 56.5701C768.747 60.3881 793.871 73.8311 804.727 65.1901L807 66.0001C809.387 66.6941 808.673 68.3341 807.393 70.0291C798.167 78.7941 798.483 79.8891 810.546 76.6001C822.555 72.3111 863.306 59.4241 871.194 63.6741C871.845 64.0251 872.432 64.4951 873 65.0001C870.053 68.0331 867.053 71.0871 863.523 73.4481L815.879 104.66C771.888 104.816 727.821 105.894 683.679 107.893C673.893 107.811 676.336 101.904 683.244 99.6791C694.019 95.6731 705.036 92.3801 716.293 89.8001C711.249 90.1741 701.891 90.0561 700 85.0001C710.357 79.0701 721.964 73.7841 732 68.0001Z" fill="#1E44A9"/>
<path d="M847 148C820.883 160.672 791.276 163.565 763.098 155.904C762.016 143.828 764.622 131.856 762.996 120.001C781.753 119.037 800.59 119.458 819.278 117.778C832.717 110.408 845.849 102.411 858.915 94.415C861.46 92.858 867.699 87.672 869.517 87.012C871.3 86.363 871.559 89.708 872 91C872.08 93.475 871.988 93.547 870 92L868.589 95.196C852.612 106.536 841.086 126.063 848.079 145.764L847 148Z" fill="#011F70"/>
<path d="M810 169L809.578 171.379C796.396 177.51 791.625 197.586 811.126 197.084L813 199L814.733 200.808C813.645 211.524 814.755 222.529 817.452 232.939L816 235C813.063 239.2 803.596 235.044 802.963 235.43C798.699 238.03 801.079 249.762 798.303 254.72C796.113 258.63 787.882 261.288 783.533 261.048C776.417 260.656 772.252 253.53 766 261C763.102 263.821 760.483 260.805 762 257C762.625 255.033 762.82 252.122 763 250L764.732 247.651C763.286 223.079 765.502 197.395 768.669 172.414L764.015 172.602L763.964 187.225C763.77 189.099 762.882 189.572 761 189C761.407 181.365 759.984 173.408 762.022 165.996C777.637 169.626 794.017 170.863 810 169Z" fill="#FD7F00"/>
<path d="M700 85.0001C705.083 86.6501 709.057 88.4041 714.495 87.9841C724.006 87.2501 732.582 80.6621 742 80.0101C744.343 81.7391 725.303 88.9791 723.962 89.4621C711.338 94.0071 693.364 96.7021 681.993 102.493C680.437 103.286 678.621 103.747 679.005 105.995C693.149 105.675 707.4 105.601 721.541 105.041C752.742 103.806 784.176 100.952 815.297 102.82C834.251 89.8021 853.647 77.3931 873 65.0001L872.548 63.7071C882.528 57.0741 892.717 50.3731 903.114 43.6031C904.272 43.0881 904.567 41.8871 904 40.0001C908.39 40.2421 917.119 39.2041 913.488 46.9831C911.538 51.1591 892.202 65.4141 887.316 68.8161C865.142 84.2591 839.722 97.2251 816.275 110.775C776.621 110.795 737.163 113.893 697.541 115.041C689.792 115.266 670.172 116.273 663.723 114.777C660.565 114.044 659.007 112.174 660.495 109.01C661.805 106.222 694.514 88.1411 700 85.0001Z" fill="#011C6E"/>
<path d="M904 40C904.704 41.227 907.79 40.366 906.991 42.486C905.651 46.047 878.227 61.653 873 65C858.223 64.904 843.235 68.7 829.002 72.502C822.019 74.367 805.891 81.813 799.657 79.837C794.848 78.313 804.628 70.549 806.047 68.507C806.73 67.525 806.671 66.614 807 66C805.068 63.926 806.491 62.151 809 62L857.995 50.01C852.657 51.092 849.55 46.84 845.296 45.204C835.435 41.414 813.37 41.357 802.51 42.01C778.414 43.457 765.889 51.214 746.084 63.584C742.314 65.939 733.381 75.452 732 68C745.896 59.992 769.19 41.206 783.76 38.26C791.576 36.679 805.234 36.132 813.459 35.959C842.899 35.339 874.396 38.366 904 40Z" fill="#587DDA"/>
<path d="M762 257C761.607 259.979 765.025 259.997 766 261C779.186 274.557 759.247 283.813 752.021 292.521C741.651 305.02 737.156 324.285 717.415 326.916C701.985 328.972 694.187 323.921 684 314C681.719 311.247 685.206 309.662 688.027 309.116C691.496 308.871 694.82 308.166 698 307L700.179 306.832C707.882 316.061 720.256 311.719 726.466 302.857C732.733 292.092 740.478 282.867 749.702 275.181C728.951 271.624 718.149 258.194 714.876 238.277C712.292 233.628 707.159 232.979 699.478 236.329L697 235L695.375 233.606C695.279 229.332 694.821 226.13 694 224C702.008 221.142 714.905 217.044 722.914 221.586C725.49 223.047 725.9 225.658 727.99 226.995L729 219C728.378 229.313 724.446 248.296 727.508 256.991C732.939 272.417 756.945 272.92 762 257Z" fill="#B82401"/>
<path d="M745.692 121.197C759.43 116.989 754.204 136.657 754.01 143.51C753.17 173.205 752.471 202.904 750.959 232.459C750.711 237.296 751.789 244.101 750.974 248.474C749.723 255.189 738.866 254.662 737.21 247.29C735.86 241.275 736.764 224.56 736.959 217.459C737.203 208.555 738.597 198.431 738.99 189.49C739.854 169.822 739.195 145.585 742.054 126.554C742.348 124.598 743.719 121.801 745.692 121.197Z" fill="#FDDD87"/>
<path d="M879 124C875.999 132.049 854.968 144.134 847 148C842.149 139.775 843.91 125.569 847.511 117.011C851.115 108.445 861.781 96.403 870 92L871.304 92.808C870.832 103.607 873.228 113.017 878.494 121.038L879 124Z" fill="#1B41A7"/>
<path d="M831 165C832.734 165.759 833.931 167.025 834 169L833.67 171.577C824.844 177.898 818.212 187.339 815.306 197.803L813 199C788.641 200.746 793.082 175.973 810 169C816.169 168.281 825.106 166.741 831 165Z" fill="#FDA110"/>
<path d="M761 189C761.005 188.868 761.972 187.868 762.041 186.579C762.173 184.067 761.448 171.549 762.01 171.01C762.35 170.684 770.66 169.408 770.898 171.577C768.385 193.519 765.586 215.396 765.959 237.542C766.018 241.06 769.782 250.637 763 250C763.111 248.689 762.969 247.322 763 246L762 236C761.859 220.33 760.343 204.737 761 189Z" fill="#FB9A05"/>
<path d="M733 146C726.098 146.466 721.464 122.553 722.995 120.995C725.474 121.388 732.214 119.995 733.579 121.989C734.18 122.704 733 123.249 733 123.5V146Z" fill="#001146"/>
<path d="M872 91C874.461 98.209 879.149 111.659 879.766 118.811C879.995 121.459 879.878 121.645 879 124C869.738 116.814 869.713 102.814 870 92C870.58 91.689 871.083 90.93 872 91Z" fill="#4C70D0"/>
<path d="M763 246C761.164 243.695 762.028 239.143 762 236C763.76 238.25 763.072 242.93 763 246Z" fill="#FD7F00"/>
<path d="M703 809C706.193 801.372 714.054 797.439 715.841 808.894C717.924 817.507 729.358 823.18 735.763 815.911L738 816C740.26 816.214 746.131 822.94 746.682 823.027C749.621 823.495 754.595 819.495 758 818C761.048 818.944 758.791 825.126 756 825C751.849 827.072 747.335 830.925 742.458 831.054C737.784 831.178 723.097 821.588 719.543 828.044C718.827 829.345 718.919 831.252 718.201 832.701C716.561 836.007 715.93 839.028 715 841C714.885 841.244 711.685 845.004 711.417 845.028C710.493 845.11 694.853 841.77 693.264 841.236C687.871 839.424 682.79 831.233 681 826L680.802 823.739C684.79 820.378 686.347 815.025 686.928 810.002L689 809C692.563 809.955 699.572 810.237 703 809Z" fill="#FD7D01"/>
<path d="M696 784C696.356 784.509 697.802 784.431 698.036 786.517C698.386 789.644 693.522 804.338 702.284 801.857C708.333 800.144 709.768 786.18 715.402 788.074C717.389 788.742 717.953 798.969 718.703 801.797C719.883 806.24 722.255 813.463 727.593 813.995C735.027 814.735 731.66 804.855 735.487 804.934C739.869 805.023 739.296 808.354 739 812C738.928 812.887 738.366 815.248 738 816C735.175 821.81 727.987 822.064 722.599 819.902C715.831 817.186 713.637 809.331 711.988 803.003C707.866 804.038 707.428 807.403 703 809C689.648 811.025 689.328 796.577 692.672 787.175C693.33 785.325 693.552 783.889 696 784Z" fill="#DE3501"/>
<path d="M389.632 854.068C395.903 852.253 394.474 866.685 395.208 869.293C396.024 872.194 399.933 874.186 402.59 872.086C406.661 868.868 403.775 853.605 409.352 855.132C417.443 857.347 413.735 889.448 393.611 879.888C384.254 875.443 384.991 855.411 389.632 854.068Z" fill="#D42F01"/>
<path d="M426.514 868.004C431.295 867.009 426.645 881.678 431.477 886.018C436.813 890.81 443.596 885.495 443.967 879.376C444.106 877.083 441.006 867.522 447.566 871.936C456.049 877.644 448.468 894.553 438.411 895.905C421.572 898.171 416.533 878.682 426.514 868.004Z" fill="#DB3201"/>
<path d="M715 841C715.126 840.647 717.097 839.586 717.668 839.141C722.461 838.483 721.981 856.044 727.69 857.804C736.549 860.535 737.634 850.588 738.004 843.996C749.205 845.521 743.936 862.19 735.031 864.529C723.812 867.476 724.537 862.434 718 859C719.565 866.07 717.211 873.317 710.376 876.869C695.488 884.606 690.921 855.436 697.533 854.013C702.489 852.945 699.563 869.694 705.65 870.837C707.296 871.147 709.963 868.767 711.01 867.51C714.228 863.647 713.027 856.388 718 859C716.961 854.307 713.323 845.709 715 841Z" fill="#DF3500"/>
<path d="M483.995 852.005C483.487 870.785 454.848 877.613 459.454 852.948C459.952 850.279 466.432 833.081 470.536 838.981C472.154 841.307 463.571 857.481 467.929 860.566C473.597 864.579 478.45 851.278 483.995 852.005Z" fill="#DB3301"/>
<path d="M490.652 816.138C492.033 815.773 493.602 816.224 493.89 817.581C494.533 820.613 489.722 833.101 496.708 834.888C502.629 836.404 505.749 822.311 507.408 820.911C511.57 817.397 512.29 822.638 511.767 826.255C510.802 832.931 504.831 841.88 497.454 842.052C482.571 842.398 484.186 817.844 490.652 816.138Z" fill="#DC3401"/>
<path d="M689 809C688.75 814.776 686.186 823.02 681 826C666.454 834.358 661.059 814 666.805 803.305C668.104 800.888 671.791 797.822 672.913 801.652C673.711 804.373 668.919 819.804 674.641 820.854C680.513 821.932 683.341 808.577 684.94 807.438C687.532 805.59 688.763 808.936 689 809Z" fill="#DA3201"/>
<path d="M421.995 811.005C422.605 814.672 419.062 828.538 421.931 830.569C427.156 833.901 433.048 824.578 435.531 824.016C439.069 823.215 437.037 828.629 436.049 830.552C432.084 838.268 419.901 843.764 415.129 834.372C412.306 828.817 413.517 811.373 421.995 811.005Z" fill="#DB3301"/>
<path d="M538.995 835.005C539.942 835.903 533.352 847.886 539.705 849.806C549.387 852.732 550.506 837.46 552.513 837.003C558.04 835.745 558.204 854.736 545.254 856.766C533.918 858.544 528.152 850.762 531.446 839.946C532.182 837.53 537.059 833.168 538.995 835.005Z" fill="#DF3500"/>
<path d="M804 827C805.274 836.454 794.021 849.035 785.457 840.043C781.169 835.542 780.561 826.922 781 821C781.102 819.618 780.598 817.36 781.926 816.43C790.123 810.69 784.539 833.824 791.704 835.866C798.348 837.759 798.81 822.741 804 827Z" fill="#E33B01"/>
<path d="M456 801C452.47 796.331 452.894 789.536 452.997 783.996C460.403 782.093 458.024 789.498 460.799 794.701C466.912 806.161 473.105 792.126 478.466 792.948C486.286 794.146 473.857 805.622 470 806C464.518 805.79 459.723 805.924 456 801Z" fill="#D93300"/>
<path d="M429 794C419.455 795.367 415.854 792.762 417 783C417.384 779.728 421.279 769.84 425.481 771.001C430.374 772.353 419.449 784.389 423.938 787.57C428.064 790.492 438.996 780.724 440.003 785.521C440.781 789.228 432.074 793.56 429 794Z" fill="#E33D01"/>
<path d="M515 788C521.923 788.844 518.707 799.624 514.369 801.866C508.898 804.694 503.744 802.35 500 798C497.859 795.513 493.471 785.289 496.067 783.071C496.562 782.649 500.253 782.879 501.062 783.442C502.295 784.299 503.627 794.594 507.697 795.831C514.06 797.765 513.067 791.676 515 788Z" fill="#DF3801"/>
<path d="M774 829C775.692 835.991 767.695 842.644 761.445 839.048C756.42 836.157 755.487 830.315 756 825C756.23 822.614 757.718 820.399 758 818C759.106 817.514 761.656 813.882 762.849 817.653C763.627 820.111 759.933 837.123 767.551 832.05C770.988 829.761 768.628 827.995 774 829Z" fill="#E13901"/>
<path d="M522 775C509.845 771.865 523.173 767.922 525.318 766.066C526.359 765.165 526.209 763.229 527.433 761.956C537.443 751.548 548.096 753.583 534.004 765.505C533.779 766.012 535.415 766.317 536 767C535.543 773.164 524.49 772.967 522 775Z" fill="#FB5301"/>
<path d="M665.635 842.111C673.16 839.588 680.684 858.732 672.292 860.888C666.145 862.467 660.877 843.706 665.635 842.111Z" fill="#DF3300"/>
<path d="M448.71 823.187C457.565 820.557 454.01 836.609 450.58 839.074C439.985 846.69 440.297 825.686 448.71 823.187Z" fill="#DF3501"/>
<path d="M655.995 842.997C656.414 843.403 655.647 851.584 656.015 853.484C656.448 855.721 662.329 859.963 656.288 861.803C644.899 865.272 646.172 841.64 655.995 842.997Z" fill="#DD2E00"/>
<path d="M750.691 862.105C756.902 860.544 758.452 878.069 752.5 878.028C746.69 877.987 746.241 863.223 750.691 862.105Z" fill="#E23A01"/>
<path d="M575.995 677.005C577.089 682.831 569.805 695.792 575.406 700.087C581.593 704.829 589.952 692.859 591.995 695.005C593.915 707.934 570.026 713.726 567.213 701.29C565.894 695.461 567.961 677.239 575.995 677.005Z" fill="#EC4101"/>
<path d="M549.995 708.005C552.606 710.688 540.881 728 556.272 724.77C558.544 724.293 564.923 718.452 565.999 722.517C567.836 729.454 545.635 737.855 542.211 726.296C540.88 721.8 543.435 707.393 549.995 708.005Z" fill="#EE4601"/>
<path d="M593.005 720.995C596.078 721.895 597.054 715.053 598.499 715.02C604.042 719.371 600.137 727.83 593.468 728.078C582.775 728.477 585.201 710.146 590.522 709.01C594.862 708.084 592.164 720.034 593.005 720.995Z" fill="#DB3500"/>
<path d="M607.995 683C608.805 683.804 606.363 704.312 600.691 702.896C592.461 700.84 603.062 678.106 607.995 683Z" fill="#E84102"/>
<path d="M517.717 745.149C519.575 744.879 520.908 745.352 520.96 747.413C520.975 748.007 518.877 758.549 518.547 759.043C517.838 760.105 516.683 760.143 515.542 760.034C509.249 759.432 511.584 746.039 517.717 745.149Z" fill="#F14600"/>
<path d="M821 713L823.434 714.364C826.145 726.461 826.859 739.115 825.299 751.422L823 753C820.484 765.969 809.083 782.303 797 788C782.723 794.731 760.259 793.192 746.321 786.179C721.561 773.719 707.408 740.912 713 714C715.07 704.04 722.888 692.033 731 686C759.742 664.625 810.471 676.515 821 713Z" fill="#01121B"/>
<path d="M863 752C863.026 754.798 862 757.182 862 760C858.096 756.93 853.492 755.445 848.485 755.968C840.301 756.822 827.266 770.654 823 753C825.107 742.142 824.076 723.657 821 713C826.143 705.583 838.219 708.317 836 697C850.511 713.362 862.782 728.194 863 752Z" fill="#FD9F0A"/>
<path d="M221 475C221.277 478.718 226.967 481.517 225 485L224.315 487.368C215.561 490.366 188.644 508.837 189.895 518.335C190.551 523.317 197.308 521.115 199.649 518.23C204.15 513.278 208.559 508.789 214.54 505.465C218.435 503.299 229.783 497.427 228.394 505.149C197.007 520.569 192.055 553.088 234.22 527.79C236.349 527.567 238.345 529.196 237.411 531.062C231.846 537.186 228.642 543.982 227.8 551.448C228.918 553.987 229.319 556.171 229 558C228.415 567.46 235.518 560.708 235.982 561.008C236.071 561.065 235.721 562.333 236.689 563.008C239.195 564.754 242.773 564.072 239.734 568.747L232 573C227.703 572.155 223.718 571.008 220.064 568.436C213.803 564.03 207.311 552.13 199.501 551.908C192.946 551.722 187.844 554.216 180.186 552.314C174.464 550.893 167.916 545.546 166 540C164.301 535.082 165.141 527.994 166.501 523.001C172.477 501.06 200.834 482.539 221 475Z" fill="#A32001"/>
<path d="M35.6291 586.063C41.7451 584.305 39.4471 596.78 40.4511 600.049C42.5541 606.896 48.1111 603.603 49.5301 598.029C50.5541 594.003 48.1711 586.456 53.4571 586.965C58.4621 587.447 57.4061 597.458 56.5701 601.068C52.9421 616.738 30.9491 613.874 31.9871 595.535C32.1041 593.46 33.5801 586.652 35.6291 586.063Z" fill="#DB3500"/>
<path d="M71 599V614.5C71 617.473 78.204 617.61 80.94 615.439C86.488 611.036 82.121 603.863 83.005 603.005C83.497 602.527 87.431 602.904 88.526 603.975C89.937 605.357 90.088 608.576 90.084 610.501C90.042 628.919 61.674 630.9 64.002 608.493C64.387 604.781 66.136 598.395 71 599Z" fill="#DE3701"/>
<path d="M355 585C357.797 591.282 364.03 591.948 366.482 585.982C367.097 584.488 367.409 571.457 372.03 577.464C379.774 587.53 360.765 607.718 349.807 589.693C347.568 586.01 345.456 576.697 347 573C347.415 572.007 350.26 571.467 351.505 572.997C352.9 574.711 353.643 581.953 355 585Z" fill="#E03900"/>
<path d="M305 558C301.931 557.205 299.039 550.629 298.995 547.516C298.936 543.283 300.896 531.022 307 533V549.5C307 550.105 308.635 550.995 309.515 551.073C315.801 551.636 315.043 538.15 321.995 539.005C322.853 544.818 318.211 556.822 312 558C310.902 558.208 305.95 558.246 305 558Z" fill="#DF3801"/>
<path d="M130.591 550.085C138.105 547.766 128.76 565.937 135.712 567.862C143.053 569.895 144.593 554.631 147.52 554.007C149.707 553.541 150.986 557.621 150.937 559.38C150.748 566.089 144.196 575.487 136.741 574.792C123.23 573.533 125.763 551.575 130.591 550.085Z" fill="#DD3601"/>
<path d="M111.995 571.005C113.118 576.35 105.565 587.223 108.918 591.58C112.458 596.18 119.721 586.322 122.514 584.009C125.327 582.847 123.615 588.729 123.219 589.72C117.187 604.804 96.4507 603.663 102.527 582.027C103.741 577.703 106.502 569.705 111.995 571.005Z" fill="#DD3400"/>
<path d="M176.995 568.005C178.735 569.694 169.523 583.526 181.408 581.971C188.933 580.987 187.254 570.488 189.515 570.005C194.722 568.893 194.514 583.055 186.696 587.197C175.327 593.219 164.464 582.945 170.804 571.304C172.336 568.492 173.602 567.576 176.995 568.005Z" fill="#DD3400"/>
<path d="M80.9951 558.005C82.9671 559.944 73.8662 575.172 64.2552 571.237C55.5971 567.692 58.4112 550.191 64.5141 545.004C70.8262 543.657 61.3142 561.061 66.9912 564.558C71.3702 567.256 78.7781 555.825 80.9951 558.005Z" fill="#DD3601"/>
<path d="M408 560C407.855 558.081 407.622 552.124 408.441 550.94C409.168 549.889 412.364 549.57 412.946 550.053C414.642 551.457 412.513 565.149 417.45 569.068C421.734 572.469 425.221 560.481 427.514 560.004C430.837 559.313 429.655 566.344 429 568C428.666 568.844 422.791 575.131 421.985 575.476C412.507 579.536 408.537 567.102 408 560Z" fill="#E13A01"/>
<path d="M334 596C336.626 595.646 336.831 596.11 335 598C340.503 603.129 344.794 588.001 346.5 588.02C346.65 588.021 348.267 589.559 348.478 590.016C352.368 598.442 339.264 612.25 330.456 603.044C326.319 598.72 325.452 588.994 328.509 584.009C332.738 582.676 332.356 592.428 334 596Z" fill="#E03A01"/>
<path d="M114 539C108.382 541.082 102.981 540.839 99 536C96.051 532.416 91.779 516.86 98.467 519.032C100.771 519.78 101.306 532.375 106.724 533.853C111.941 535.275 118.408 524.5 121.559 528.944C124.057 532.467 117.049 537.87 114 539Z" fill="#DF3A01"/>
<path d="M72 529C63.843 530.244 59.812 527.551 61 519C61.945 516.002 64.277 503.82 70.025 507.477C71.713 508.552 70.665 509.444 70.221 510.71C68.95 514.336 65.312 517.467 67.438 522.064C70.416 526.288 80.899 517.29 81.998 521.516C82.931 525.103 74.644 528.597 72 529Z" fill="#E63C00"/>
<path d="M154 536C153.645 535.771 149.239 537.6 145.707 536.785C144.254 536.449 139.812 533.091 139 532C137.261 529.664 133.782 519.176 137.51 518.008C142.225 516.531 141.775 530.321 148.547 531.049C154.482 531.687 151.645 521.192 155.485 522.005C158.548 522.654 157.105 534.092 154 536Z" fill="#E33E01"/>
<path d="M385 555C385.329 553.54 387.732 549.634 389.485 550.005C393.257 550.805 387.943 565.43 394.366 565.924C395.112 565.79 401.495 557.855 402 564C400.7 565.291 401.051 572.515 394.446 572.971C385.736 573.573 384.408 563.535 385 557C385.059 556.347 384.874 555.56 385 555Z" fill="#E23A00"/>
<path d="M303.875 590.868C297.18 595.053 290.363 577.315 296.576 573.027C303.288 572.416 307.692 588.482 303.875 590.868Z" fill="#DD3500"/>
<path d="M95.8672 556.145C97.3832 558.584 95.3232 570.886 92.0032 572.527C83.5862 576.686 84.4342 558.5 91.3042 555.715C92.5632 555.204 95.2962 555.226 95.8672 556.145Z" fill="#E43A01"/>
<path d="M283.514 574.005C286.905 573.31 285.825 580.623 286.232 582.268C287.034 585.508 291.531 591.471 285.443 592.049C277.176 592.834 279.453 574.837 283.514 574.005Z" fill="#E33A01"/>
<path d="M335 598C334.723 597.742 334.248 596.538 334 596C332.729 592.48 338.962 593.976 338.98 595.5L335 598Z" fill="#FD7B00"/>
<path d="M209.535 416.034C215.605 414.021 211.153 425.553 210.969 428.461C209.869 445.798 219.287 435.434 225.996 432.481C227.411 431.857 228.678 432.322 228.988 433.549C230.199 438.337 220.36 444.229 216.233 444.806C198.194 447.331 206.083 417.179 209.535 416.034Z" fill="#EA4001"/>
<path d="M186.5 446.02C190.359 445.977 184.699 460.272 187.932 462.571C191.955 465.433 202.153 455.999 203.003 460.521C203.527 463.311 197.562 467.859 195.032 468.527C177.859 473.064 177.619 455.345 186.5 446.02Z" fill="#ED4401"/>
<path d="M156.03 509.957C155.313 504.329 160.234 504.194 163.053 501.554C166.904 497.949 172.415 488.838 178.993 493.513C179.985 496.821 173.548 498.329 172.572 500.958C171.706 503.294 174.459 503.942 169.929 507.436C165.978 510.483 160.781 512.13 156.03 509.957Z" fill="#FA5301"/>
<path d="M228.995 446.005L229.005 456.995C232.078 457.896 233.055 451.053 234.5 451.02C241.05 456.83 233.152 467.544 224.984 463.511C220.047 461.075 221.364 444.963 228.995 446.005Z" fill="#E53900"/>
<path d="M240.668 421.148C246.52 419.57 242.549 434.738 240.577 437.071C232.522 446.603 232.092 423.46 240.668 421.148Z" fill="#E43A00"/>
<path d="M158.995 482.005C158.526 484.467 157.903 497.749 154.521 496.991C148.198 495.575 150.686 480.058 158.995 482.005Z" fill="#F54C01"/>
<path d="M435 432C444.08 442.696 446.075 458.56 448 472C447.133 477.02 448.083 484.357 447 490C444.629 502.348 435.326 517.155 424 523C378.931 546.258 335.331 497.355 344 452C343.577 451.704 343.173 451.391 342.842 451.014C340.452 448.304 353.868 424.596 357.579 425.448C358.069 425.56 358.538 425.767 359 426C379.822 409.312 417.432 411.307 435 432Z" fill="#01121B"/>
<path d="M364 554C353.832 557.672 344.503 545.161 343.989 536.001C332.717 548.823 322.083 543.491 324.002 526.499C324.405 522.926 325.483 518.423 330 519V534.5C330 536.113 333.394 536.237 334.989 535.496C339.993 533.172 342.471 520.837 346.489 522.006C349.519 522.887 348.504 544.598 357.974 547.602C364.851 549.784 362.617 537.299 366.485 538.005C368.961 538.457 369.422 543.95 369 546C368.179 547.717 365.835 553.337 364 554Z" fill="#DF3501"/>
<path d="M357 423L359 426C352.358 431.323 345.594 443.66 344 452C333.078 450.97 322.92 448.533 327.819 435.31C333.043 421.21 345.82 427.831 357 423Z" fill="#FDA30B"/>
<path d="M918 218C918.245 223.656 918.051 231.483 917 237C914.647 249.354 904.356 265.243 893 271C870.269 282.523 840.869 272.533 826 253C823.697 253.654 819.321 248.971 822 247C820.29 244.114 816.998 237.982 816 235C812.966 225.931 811.253 208.299 813 199C815.08 187.928 824.328 174.762 834 169C874.584 144.823 916.017 172.314 918 218Z" fill="#01121C"/>
<path d="M694 224C694.562 224.031 695.691 223.762 695.924 224.057C696.272 224.498 698.162 233.815 697 235L696.354 237.336C686.916 240.285 657.547 259.917 661.49 271.103C662.45 273.828 669.444 271.479 670.648 269.23C675.147 264.281 679.558 259.79 685.54 256.465C689.404 254.316 700.854 248.414 699.417 256.151C692.185 260.295 667.516 276.656 676.52 287.012C684.805 289.815 693.752 287.867 703.361 281.168C705.788 281.162 707.093 282.792 706.146 285.035C700.959 291.47 698.714 298.173 699.409 305.145L698 307C694.655 313.818 687.34 308.112 684 314C681.711 311.771 675.553 303.875 673.295 303.205C667.872 301.595 660.803 304.161 655.51 304.081C646.651 303.947 638.31 297.484 636 289C634.642 284.01 635.816 278.65 637.284 273.785C644.497 249.871 671.533 232.019 694 224Z" fill="#A52201"/>
<path d="M800 268C802.94 267.645 803.441 269.265 801 271C800.87 274.689 797.453 288.01 805.035 285.595C811.627 283.496 811.641 270.387 817.471 271.96C818.323 272.19 820.637 285.711 822 289L824.274 289.238C825.095 292.077 829.597 298.574 830.845 292.899L833 292C835.58 287.054 835.684 289.376 838 288C842.457 293.955 837.61 304.203 830.259 304.793C821.863 305.466 814.6 293.423 813.989 286.001C813.345 285.336 805.483 297.36 798 292C797.125 291.373 794.497 286.537 794.231 285.274C793.425 281.44 793.766 267.521 800 268Z" fill="#E23A01"/>
<path d="M536.514 348.004C540.532 347.156 538.429 359.8 539.448 363.052C542.057 371.38 552.648 367.432 553.071 359.482C553.172 357.6 551.111 348.392 557.048 353.448C565.185 360.379 555.583 374.434 546.541 375.054C533.682 375.935 530.31 367.156 532.24 355.74C532.549 353.908 534.788 348.368 536.514 348.004Z" fill="#E53A00"/>
<path d="M501.646 335.126C508.398 333.336 501.548 352.351 509.551 353.051C513.61 353.407 515.979 347.546 516.765 344.266C517.387 341.672 515.774 334.681 520.406 336.088C527.817 338.341 520.788 366.992 504.764 359.728C495.629 355.588 496.173 336.577 501.646 335.126Z" fill="#E53D01"/>
<path d="M771.664 326.103C777.354 324.28 783.527 337.187 779.918 342.418C777.577 345.811 775.074 342.583 772.698 343.152C771.247 343.499 769.871 346.227 767.278 346.807C751.515 350.33 756.031 321.653 764.073 327.427C766.495 329.166 762.966 340.944 767.485 339.995C770.636 339.333 767.035 327.586 771.664 326.103Z" fill="#E53A01"/>
<path d="M821 343C820.106 339.309 814.747 325.832 818.063 323.062C823.583 318.452 823.939 336.832 829.447 340.052C838.714 345.469 838.304 327.697 839.004 326.993C839.414 326.58 842.56 326.881 843.506 327.995C847.409 332.594 843.691 342.306 838.95 345.451C830.535 351.034 827.757 345.846 821 343Z" fill="#E33B00"/>
<path d="M595.995 297.997C597.385 299.352 590.727 318.952 601.289 315.813C606.684 314.209 606.525 302.474 611.492 302.935C618.324 303.57 610.526 320.535 604.056 322.552C590.517 326.773 586.694 313.859 589.475 302.975C590.099 300.532 593.749 295.807 595.995 297.997Z" fill="#DE3801"/>
<path d="M585.995 333.005C586.937 342.619 578.158 350.852 568.523 348.971C558.217 346.96 563.358 321.256 572.477 318.997C577.528 320.043 566.223 337.504 570.933 341.577C575.914 345.184 584.281 330.937 585.995 333.005Z" fill="#E33C01"/>
<path d="M785 310C775.835 314.297 769.838 307.627 769.975 298.548C770.037 294.417 772.333 283.1 777.995 284.004C779.46 288.65 773.938 302.255 779.71 303.859C786.001 305.608 786.59 295.071 789.025 292.526C791.735 289.694 792.843 291.619 793 295C793.229 299.915 789.642 307.824 785 310Z" fill="#E03B01"/>
<path d="M659.014 320.004C661.666 318.235 663.988 322.969 664.023 325.473C664.164 335.522 655.806 340.134 646.59 338.907C631.837 336.944 639.043 317 644.497 316.967C651.62 316.924 638.461 330.157 647.528 331.97C659.701 334.405 657.378 321.095 659.014 320.004Z" fill="#E03600"/>
<path d="M528.995 292.005C529.993 296.624 524.203 308.629 528.989 311.537C533.636 314.361 541.589 303.357 542.995 305.005C543.949 313.934 531.069 324.532 523.431 317.069C514.926 308.757 525.06 287.93 528.995 292.005Z" fill="#E03801"/>
<path d="M821 343C822.629 349.723 820.009 356.955 813.344 359.836C798.6 366.209 795.79 338.249 801.532 337.012C806.857 335.865 803.381 360.729 812.533 352.028C816.425 348.328 815.715 340.773 821 343Z" fill="#E94201"/>
<path d="M900 316C896.406 325.639 884.602 329.247 880 318C878.545 314.443 876.25 299.417 880.535 298.033C885.16 296.538 884.36 308.743 885.275 312.225C888.673 325.168 892.92 314.87 896.137 310.637C899.932 305.643 901.736 311.345 900 316Z" fill="#E73F01"/>
<path d="M581 286C575.337 288.107 569.868 286.51 566 282C562.852 278.329 558.817 263.416 565.347 265.131C569.498 266.221 567.684 284.107 578.749 279.242C580.761 278.358 586.075 271.26 588.544 274.953C591.308 279.087 584.284 284.778 581 286Z" fill="#E13A00"/>
<path d="M538 276C534.168 276.73 528.855 275.858 527 272C524.597 267.001 529.16 251.24 535.41 253.058C538.828 254.052 533.365 261.602 533.062 264.609C531.792 277.202 547.403 261.804 548.998 267.516C549.89 270.912 540.165 275.587 538 276Z" fill="#F14901"/>
<path d="M622 283C617.261 285.569 611.472 283.794 608 280C605.413 277.172 600.77 267.905 604.419 264.915C610.043 260.308 609.67 276.211 615.719 277.854C621.976 279.554 620.225 271.85 621.987 270.487C625.611 267.685 627.046 280.265 622 283Z" fill="#E84001"/>
<path d="M871 318C870.237 319.662 867.13 322.503 865.261 322.841C856.576 324.409 854.603 314.515 855 308C855.191 304.865 855.827 300.087 859.485 299.005C862.444 299.647 859.768 310.029 862.091 313.404C865.449 318.279 868.165 310.505 870.485 311.005C872.867 311.518 871.747 316.373 871 318Z" fill="#E43E01"/>
<path d="M554.703 303.164C562.548 300.9 559.543 321.292 551.532 320.053C544.645 318.987 549.413 304.691 554.703 303.164Z" fill="#DE3501"/>
<path d="M850.69 344.107C856.152 342.743 858.848 358.466 852.447 359.043C845.944 359.629 846.736 345.094 850.69 344.107Z" fill="#E33B00"/>
<path d="M800 268C800.154 265.923 801.478 258.187 802.49 256.99C803.419 255.891 806.562 255.576 806.996 255.996C808.289 257.251 806.692 271.77 801 271C801.038 269.928 799.97 268.401 800 268Z" fill="#FD7F00"/>
<path d="M833 292C832.587 292.792 833.307 294.731 831.603 296.085C826.75 299.944 823.365 292.292 822 289C824.274 287.52 833.45 288.293 833 292Z" fill="#FD7F00"/>
<path d="M822 247C823.077 248.817 824.725 251.325 826 253C826.298 255.858 825.439 255.443 823.498 254.005C820.867 252.055 815.389 248.569 822 247Z" fill="#FD7F00"/>
<path d="M700.995 178.005C703.83 180.897 692.14 196.068 681.494 189.005C673.522 183.716 676.687 166.289 682.515 160.005C687.112 159.059 683.119 170.777 682.969 173.461C682.59 180.294 683.014 184.707 691.292 182.79C694.76 181.987 696.802 177.252 700.995 178.005Z" fill="#F04401"/>
<path d="M674.995 205.005C674.103 215.166 653.931 220.054 652.063 208.444C650.991 201.775 653.349 194.349 658.5 190.02C663.445 195.049 653.954 203.793 660.457 208.076C664.322 210.622 670.328 203.992 674.995 205.005Z" fill="#F44D00"/>
<path d="M649.996 238.005C652.953 240.958 644.782 245.049 643.894 246.454C642.983 247.897 644.232 249.374 643.532 250.939C640.389 257.963 620.813 259.927 627.433 251.934C629.01 250.03 631.443 249.865 632.698 248.691C634.448 247.053 635.481 244.572 638.069 242.568C639.917 241.136 648.264 236.275 649.996 238.005Z" fill="#FD5901"/>
<path d="M702.01 204C704.286 203.572 704.957 198.367 706.513 198.003C710.611 197.043 710.875 211.389 701.537 211.074C692.66 210.775 693.015 195.954 699.519 192.008C703.408 191.169 701.665 201.811 702.01 204Z" fill="#EF4500"/>
<path d="M715.995 166.997C717.008 167.985 716.308 187.545 709.69 185.895C702.182 184.023 711.089 162.213 715.995 166.997Z" fill="#F04701"/>
<path d="M705 579C704.3 579.684 703.655 581.105 703 582C697.634 587.021 679.986 587.062 675.92 581.575C667.936 570.802 705.908 563.683 705 579Z" fill="#020E26"/>
<path d="M366.143 568.854C365.528 567.839 366.197 565.369 365.999 563.997C368.127 563.692 373.221 564.302 373.91 566.597C375.333 571.341 366.962 570.205 366.143 568.854Z" fill="#FD7000"/>
<path d="M339 316C338.032 316.879 336.923 318.87 336 320C330.989 323.75 309.961 322.745 311.127 314.731C312.567 304.834 339.553 303.02 339 316Z" fill="#020D26"/>
<path d="M229 558C222.934 553.483 226.788 543.733 229.833 538.333C230.712 536.776 236.633 529.67 235.99 529C228.709 534.028 208.239 545.936 202.133 534.375C197.364 525.343 211.567 515.169 217.512 510.012L227.995 503.01C221.226 503.271 213.728 507.84 208.522 512.022C205.427 514.507 200.28 521.533 197.058 522.549C193.034 523.817 188.186 523.591 187.908 518.5C187.266 506.763 214.792 488.265 225 485C232.714 482.533 242.954 479.777 246.471 489.029C251.195 501.455 250.804 509.214 264.678 516.822C269.99 519.736 275.764 519.942 280.995 522.515C281.451 524.679 271.468 531.836 269.49 533.99C261.623 542.558 255.022 560.364 241.521 561.079C238.264 561.251 231.568 559.912 229 558Z" fill="#FA7B03"/>
<path d="M809 62C808.97 63.786 807.705 64.684 807 66C801.638 70.638 786.14 71.447 781.928 65.578C773.195 53.411 809.213 49.535 809 62Z" fill="#020C25"/>
<path d="M697 235C719.378 227.898 715.283 235.82 720.524 250.976C725.439 265.187 738.985 271.525 753.01 273.51C752.941 276.38 744.663 281.625 742.478 283.978C733.063 294.118 726.243 315.085 709.646 313.933C705.407 313.639 699.839 310.984 698 307C694.171 298.707 701.163 289.878 705 283.01C704.032 282.154 694.46 287.964 692.261 288.761C667.116 297.873 668.586 274.877 684.522 264.022L698.995 254.01C692.226 254.271 684.728 258.84 679.522 263.022C676.428 265.507 671.279 272.535 668.058 273.549C657.075 277.009 657.868 267.623 662.164 260.664C667.962 251.27 686.406 238.362 697 235Z" fill="#FB7802"/>
<path d="M750.995 691.005C749.973 696.129 745.201 698.894 742.483 703.983C725.015 736.696 760.324 779.004 795.996 763.496C799.174 762.115 801.384 758.813 804.995 759.005C796.65 786.086 761.05 784.429 742.474 768.027C720.101 748.271 714.898 697.532 750.995 691.005Z" fill="#ECF5F8"/>
<path d="M787.707 696.215C805.596 692.097 808.732 717.074 793.232 718.816C778.975 720.418 774.929 699.156 787.707 696.215Z" fill="#EDEFEA"/>
<path d="M379.995 430.005C380.475 434.001 376.074 435.707 374.024 438.524C352.951 467.492 383.254 514.007 419.274 500.774C421.176 500.075 429.089 495.081 429.995 496.005C429.775 502.844 423.187 509.023 417.382 511.882C396.369 522.23 371.185 511.674 361.124 491.376C351.03 471.01 351.168 432.815 379.995 430.005Z" fill="#EDF5F8"/>
<path d="M415.743 434.211C427.435 431.947 434.361 447.434 424.937 454.437C410.008 465.531 398.671 437.517 415.743 434.211Z" fill="#EDECE0"/>
<path d="M899.995 243.005C896.14 258.363 880.206 264.255 865.517 262.984C821.985 259.217 809.758 186.387 844.964 176.458C855.644 173.446 844.914 183.185 843.172 185.672C823.649 213.555 851.29 258.37 886.441 248.941C891.368 247.62 895.045 243.793 899.995 243.005Z" fill="#EAF4F8"/>
<path d="M885.765 180.193C897.9 178.424 903.693 195.319 892.916 201.414C877.656 210.044 869.206 182.607 885.765 180.193Z" fill="#E9EDEA"/>
<path d="M699.948 578.939C698.696 580.809 682.922 583.155 682.962 578.482C683.016 572.123 704.017 572.861 699.948 578.939Z" fill="#456ACB"/>
<path d="M333.86 312.132C337.83 318.535 319.598 319.471 318.937 316.401C317.314 308.869 332.907 310.596 333.86 312.132Z" fill="#4268CF"/>
<path d="M789.276 60.2598C792.233 57.3338 804.022 56.6698 804.053 61.4878C804.083 66.0568 790.798 67.9288 788.45 63.0298C788.092 62.1868 788.704 60.8258 789.276 60.2598Z" fill="#4367CB"/>
</g>
<defs>
<clipPath id="clip0_576_726">
<rect width="1024" height="1024" fill="white"/>
</clipPath>
</defs>
</svg>
