<svg width="596" height="152" viewBox="0 0 596 152" fill="none" xmlns="http://www.w3.org/2000/svg">
<g clip-path="url(#clip0_3_2)">
<path d="M163.9 69.5179C160.057 75.3729 156.853 83.1454 154.281 89.7026C145.522 83.9502 137.047 79.7286 128.833 76.6039V117.983H107.26V70.5201C106.439 70.3544 105.626 70.2045 104.813 70.0624C89.3239 67.3401 74.5838 67.3401 59.0942 70.0624C57.5239 70.3386 55.9379 70.6463 54.3439 70.9856V117.983H32.7705V77.5113C25.2742 80.5256 17.5649 84.4868 9.62678 89.7026C6.19428 82.956 2.87225 76.3198 0 69.5179C11.3312 62.0769 22.2363 56.8927 32.7705 53.2471V0H54.3439V47.5815C54.92 47.4711 55.4881 47.3685 56.0562 47.2659C73.4081 44.2122 89.9235 44.1806 107.26 47.1633V0H128.833V52.4738C140.07 56.1509 151.74 61.5325 163.9 69.5179Z" fill="#FF6D63"/>
<path d="M250.92 102.225C250.162 103.306 249.215 104.214 248.063 104.916C246.927 105.626 245.862 105.981 244.875 105.981C243.794 105.981 242.871 105.508 242.098 104.585C241.34 103.661 240.961 102.336 240.961 100.592V65.1701C240.961 58.8654 239.383 53.2629 236.235 48.3706C233.063 43.4783 228.486 39.6355 222.442 36.8579C204.119 28.4384 180.147 32.4864 163.742 43.3521C161.556 44.804 159.418 46.2795 157.343 47.8893L168.429 62.5898C170.228 61.0117 171.948 59.4177 173.961 58.1C176.833 56.222 180.037 54.9358 183.224 53.6969C186.412 52.458 189.924 51.3691 193.404 50.6826C196.221 50.1303 199.093 49.8225 201.965 49.8225C205.334 49.8225 208.404 50.3118 211.182 51.2981C213.959 52.2687 216.09 53.6969 217.557 55.5355C219.017 57.3898 219.759 59.3941 219.759 61.5798C219.759 63.4184 219.104 64.9492 217.802 66.1486C216.484 67.348 214.811 68.0029 212.744 68.1055L194.792 70.0624C182.822 71.4907 173.755 74.6154 167.609 79.4604C161.469 84.3053 158.392 90.3655 158.392 97.6566C158.392 102.336 159.726 106.605 162.385 110.463C165.06 114.322 168.721 117.265 173.408 119.269C178.087 121.289 183.414 122.292 189.403 122.292C193.853 122.292 198.075 121.668 202.052 120.422C206.029 119.175 209.477 117.352 212.412 114.953C215.356 112.57 217.684 109.793 219.427 106.628H219.593L220.082 108.751C220.508 111.26 221.495 113.549 223.026 115.616C224.533 117.683 226.561 119.309 229.054 120.508C231.563 121.708 234.444 122.3 237.71 122.3C241.522 122.3 245.301 121.574 249.057 120.098C252.805 118.638 255.662 116.65 257.611 114.133L250.927 102.225H250.92ZM219.42 85.5757C219.42 89.4975 218.449 93.0168 216.476 96.1021C214.519 99.2031 211.829 101.649 208.396 103.456C204.979 105.248 201.089 106.131 196.733 106.131C191.936 106.131 187.998 105.192 184.905 103.291C181.804 101.389 180.242 98.7928 180.242 95.5418C180.242 92.4881 181.804 89.9236 184.905 87.872C187.99 85.8046 192.867 84.3921 199.503 83.6188L219.412 81.3384V85.5757H219.42Z" fill="#FF6D63"/>
<path d="M319.167 35.1851C322.923 37.4182 325.993 40.5982 328.391 44.733C330.782 48.8677 332.305 53.8153 332.96 59.5834L314.354 64.9729C314.03 59.9701 312.665 56.0563 310.274 53.2235C307.883 50.3986 304.727 48.9782 300.813 48.9782C297.436 48.9782 294.39 49.9567 291.676 51.9136C288.953 53.8705 286.941 56.6717 285.639 60.3173C284.337 63.9628 283.682 68.3422 283.682 73.4555V118.007H261.975V34.7748H279.603L282.372 48.1576H282.538C284.826 43.0443 288.062 39.0516 292.252 36.1636C296.442 33.2834 301.2 31.8394 306.534 31.8394C311.213 31.8394 315.427 32.952 319.183 35.1851H319.167Z" fill="#FF6D63"/>
<path d="M336.653 34.2461H354.936L358.037 48.2759H358.203C361.47 42.8391 365.549 38.6491 370.441 35.7059C375.342 32.7705 380.991 31.3028 387.415 31.3028C395.029 31.3028 401.744 33.2045 407.568 37.0157C413.383 40.827 418.015 46.0744 421.44 52.7658C424.864 59.4572 426.577 67.1586 426.577 75.8543C426.577 84.5499 424.888 92.0935 421.519 98.7849C418.149 105.476 413.549 110.724 407.726 114.535C401.902 118.346 395.187 120.248 387.572 120.248C381.26 120.248 375.657 118.804 370.765 115.924C365.865 113.044 361.785 108.877 358.526 103.44H358.361V151.748H336.653V34.2461ZM393.364 98.1379C396.899 95.9127 399.732 92.8116 401.847 88.8346C403.97 84.8655 405.027 80.5414 405.027 75.8621C405.027 71.1829 403.97 66.7009 401.847 62.724C399.724 58.7549 396.868 55.6538 393.277 53.4207C389.687 51.1876 385.71 50.075 381.362 50.075C376.683 50.075 372.548 51.1876 368.958 53.4207C365.368 55.6538 362.566 58.7786 360.554 62.8029C358.542 66.8272 357.532 71.1829 357.532 75.8621C357.532 80.5414 358.534 84.8655 360.554 88.8346C362.566 92.8037 365.368 95.9127 368.958 98.1379C372.548 100.371 376.683 101.484 381.362 101.484C386.042 101.484 389.821 100.371 393.356 98.1379H393.364Z" fill="#FF6D63"/>
<path d="M453.91 114.945C446.454 111.087 440.693 105.697 436.614 98.7849C432.534 91.8805 430.498 83.966 430.498 75.0415C430.498 66.117 432.376 58.8022 436.125 52.1108C439.873 45.4194 445.104 40.1957 451.788 36.4397C458.479 32.6837 466.173 30.8136 474.884 30.8136C483.596 30.8136 490.634 32.6363 496.994 36.2819C503.362 39.9274 508.365 44.9854 512.01 51.4559C515.656 57.9264 517.479 65.4068 517.479 73.8973C517.479 75.3098 517.423 76.7538 517.313 78.2215C517.203 79.6892 516.989 80.9675 516.658 82.0564H452.687C453.232 86.5226 454.778 90.3812 457.335 93.648C459.892 96.9148 463.072 99.4399 466.883 101.239C470.686 103.03 474.987 103.93 479.776 103.93C485.213 103.93 490.224 102.786 494.793 100.505C499.361 98.2168 502.786 95.2262 505.074 91.5254L519.112 100.663C517.258 104.577 514.322 108.065 510.298 111.11C506.274 114.156 501.539 116.523 496.103 118.212C490.658 119.901 485 120.745 479.129 120.745C469.771 120.745 461.367 118.812 453.918 114.953L453.91 114.945ZM495.124 67.8688C494.801 63.5209 493.735 59.8438 491.944 56.8532C490.153 53.8626 487.786 51.5743 484.842 49.9961C481.907 48.4179 478.53 47.6289 474.726 47.6289C470.923 47.6289 467.356 48.4732 464.366 50.1618C461.375 51.8504 458.842 54.2414 456.775 57.3424C454.707 60.4435 453.397 63.9549 452.861 67.8688H495.132H495.124Z" fill="#FF6D63"/>
<path d="M582.207 35.1062C585.963 37.3393 589.032 40.5193 591.431 44.6541C593.822 48.7888 595.345 53.7364 596 59.5045L577.393 64.894C577.07 59.8912 575.705 55.9773 573.314 53.1446C570.923 50.3196 567.767 48.8993 563.853 48.8993C560.476 48.8993 557.43 49.8778 554.715 51.8347C551.993 53.7916 549.981 56.5928 548.679 60.2384C547.377 63.8839 546.722 68.2633 546.722 73.3766V117.928H525.014V34.7038H542.642L545.412 48.0865H545.578C547.866 42.9733 551.101 38.9806 555.291 36.0925C559.481 33.2124 564.24 31.7684 569.574 31.7684C574.253 31.7684 578.467 32.881 582.223 35.1141L582.207 35.1062Z" fill="#FF6D63"/>
</g>
<defs>
<clipPath id="clip0_3_2">
<rect width="596" height="151.748" fill="white"/>
</clipPath>
</defs>
</svg>
