<svg width="1024" height="1024" viewBox="0 0 1024 1024" fill="none" xmlns="http://www.w3.org/2000/svg">
<g clip-path="url(#clip0_576_4)">
<g clip-path="url(#clip1_576_4)">
<path d="M375.567 843.847C368.042 844.918 360.951 845.24 353.785 842.438C347.884 840.131 342.036 836.583 338.314 831.328C328.996 818.175 338.973 805.548 347.499 795.49C348.361 794.473 349.371 794.075 350.349 794.113C351.067 793.861 351.861 793.75 352.75 793.854C357.575 794.417 357.816 797.704 357.739 801.164C359.071 803.434 359.8 806.281 360.412 808.489C363.495 819.618 366.377 829.642 376.56 836.251C379.236 837.988 379.379 843.304 375.567 843.847ZM233.128 773.494C232.666 774.258 232.007 775.007 231.265 775.755C230.048 777.29 228.685 778.667 227.276 780.05C226.861 780.457 226.415 780.879 225.974 781.319C225.959 781.44 225.961 781.555 225.935 781.68C225.488 783.82 224.446 785.645 223.319 787.448C223.183 787.746 223.012 788.011 222.816 788.25C222.512 788.729 222.208 789.209 221.912 789.696C219.87 793.061 217.891 796.543 216.132 800.066C212.959 806.426 208.04 813.455 207.674 820.707C207.583 822.511 206.564 823.692 205.275 824.276C204.19 825.337 202.58 825.955 201.125 825.634C200.971 825.6 200.816 825.556 200.662 825.518C200.171 825.588 199.648 825.574 199.1 825.45C193.924 824.282 188.303 822.508 184.435 818.677C183.906 818.154 183.42 817.577 182.965 816.965C181.263 815.539 179.826 813.817 178.862 811.585C177.534 808.513 177.47 805.308 178.195 802.228C177.792 790.073 188.499 782.947 198.55 778.086C204.495 775.21 210.365 772.158 216.349 769.369C219.894 767.716 226.124 763.176 230.361 764.091C234.768 765.042 235.105 770.231 233.128 773.494ZM957.494 673.033C933.949 615.508 878.29 573.554 816.079 568.003L817.224 560.136C911.518 556.949 957.541 452.851 900.47 378.081C881.735 353.536 849.038 335.411 817.595 337.01C773.69 339.243 732.355 360.968 708.708 399.077C679.227 446.588 681.634 521.599 736.908 548.709C740.555 550.498 753.827 554.398 755.121 555.483C757.275 557.287 754.166 571.504 752.895 572.783C752.342 573.339 740.444 576.229 737.851 577.233C719.826 584.217 693.297 600.351 702.934 623.698C709.171 638.808 727.193 639.381 741.112 637.005C740.184 650.397 734.656 665.147 736.115 678.502C738.007 695.808 761.019 701.05 775.135 697.533C797.907 691.859 793.787 666.293 798.116 648.506C798.401 647.333 797.361 646.689 799.576 647.011C820.225 658.113 844.729 674.897 847.057 700.516C849.32 725.417 836.092 739.196 813.303 745.716C789.136 752.63 778.809 750.55 755.344 743.266C743.679 739.646 683.553 714.675 680.377 705.264C679.62 703.021 679.742 699.648 678.853 696.789C673.413 679.293 663.91 667.359 650.68 654.973C646.494 651.054 627.926 637.518 627.182 633.481C624.868 620.921 627.167 600.56 629.456 587.793C633.006 567.993 645.181 553.95 645.058 533.607C645.025 528.126 642.012 519.078 642.228 514.567C642.408 510.785 647.525 499.329 648.87 494.215C669.095 417.336 642.611 288.526 612.656 215.013C581.315 138.101 537.837 96.7944 462.907 62.8234C346.06 9.84839 187.912 61.0504 103.865 151.986C99.1141 157.126 91.3801 169.141 87.0811 172.687C84.6851 174.664 80.3241 175.691 77.4971 178.607C71.608 184.68 73.9761 188.921 71.6401 194.747C69.2001 200.831 57.4911 215.398 53.2271 223.327C4.30205 314.306 4.43205 473.03 93.4861 540.396C97.4041 543.36 110.438 549.5 111.152 550.223C114.243 553.35 112.071 557.468 120.324 561.548C130.739 566.696 144.244 572.68 155.11 576.747C191.197 590.253 230.351 594.489 268.307 586.994C271.14 595.128 264.355 598.53 258.237 602.422C230.616 619.99 182.609 624.065 150.144 633.284C87.0441 651.202 7.76506 696.413 0.421068 769C-0.125929 774.407 -0.154921 785.62 0.421068 791C1.23906 798.632 6.28206 813.667 11.4211 819.495C12.9291 821.206 16.2921 822.735 16.9161 823.998C17.9391 826.071 18.0011 831.33 19.2291 834.685C22.9871 844.955 36.0381 857.366 45.7271 862.175C54.9491 866.753 64.2771 868.055 74.3901 869.01C70.9331 872.987 65.9501 877.758 61.7251 880.828C48.979 890.091 22.0091 895.338 29.927 915.981C34.6541 928.306 50.9921 935.533 63.19 937.705C94.1111 943.212 126.75 934.509 148.995 912.199C174.251 921.971 201.129 922.055 227.328 916.01C212.232 926.739 198.718 944.498 216.388 960.444C245.614 986.818 312.326 969.199 332.969 937.184C350.982 936.32 368.618 933.381 386.262 930.009C375.538 941.027 354.488 957.295 372.354 972.413C389.319 986.768 420.199 983.628 438.159 972.418C447.387 966.658 442.902 967.529 454.5 964.765C472.316 960.518 482.795 935.106 484.207 918.484C485.281 905.842 482.578 894.96 479.23 883.005C495.412 889.394 512.123 894.517 529.204 898L533.607 899.635C537.739 900.693 541.869 901.744 545.996 902.788C540.835 904.469 535.174 908.925 533.202 914C514.808 936.195 524.411 966.913 547.89 980.805C590.558 1006.05 672.434 994.54 690.148 942C719.442 964.684 760.82 949.185 773.866 916.263C775.464 912.231 779.101 900.299 779.101 896.5V874.5C788.848 869.01 799.277 875.199 809.604 875.984C823.017 877.002 838.924 873.977 850.373 866.801C855.436 863.629 861.207 855.887 864.831 854.265C869.332 852.251 878.122 852.946 884.064 851.506C894.522 848.974 908.697 841.328 915.556 833.011C917.903 830.165 923.5 818.892 924.292 818.25C925.052 817.634 930.933 816.157 933.346 814.809C948.468 806.361 959.512 786.629 961.01 769.484C961.496 763.916 960.176 756.987 961.251 751.725C961.808 749.003 964.734 745.304 965.799 742.274C973.2 721.218 965.702 693.086 957.494 673.033Z" fill="#020405"/>
<path d="M533.202 914C532.03 907.116 541.129 908.054 539.206 901.001C535.341 901.544 532.19 900.357 529.204 898C542.906 900.794 588.304 905.427 596.192 915.484C603.487 924.785 590.702 928.635 582.621 926.055C571.326 922.448 576.822 909.126 562.006 904.687C550.969 901.381 540.431 905.277 533.202 914Z" fill="#FCFCFC"/>
<path d="M638.159 420C638.471 443.055 637.166 464.948 630.881 487.219C629.296 492.832 623.815 503.608 623.49 508.631C623.138 514.06 627.321 524.387 627.198 531.445C626.916 547.712 612.328 573.691 609.446 593.775C603.116 637.879 619.457 709.44 659.15 735C660.173 735.507 661.012 735.365 661.747 734.272C668.939 739.453 670.973 738.783 667.849 732.263L662.421 720.73C662.18 718.764 663.31 718.193 665.148 719C692.99 735.292 721.798 751.24 753.112 760C758.028 762.012 753.068 777.184 748.114 772C746.954 770.777 745.726 769.556 744.429 768.336L727.014 762.563C720.653 758.662 714.025 755.807 707.131 754C704.508 753.52 704.656 750.239 705.131 748C698.548 752.455 692.717 757.863 687.637 764.226L685.14 764C683.6 764.995 681.558 765.012 679.013 764.052C666.498 765.551 654.956 759.721 646.523 750.69L647.155 748C644.268 746.966 643.526 743.8 644.929 738.501L644.24 737.187C633.923 746.766 614.128 739.582 616.373 724.896C619.42 717.646 621.18 710.285 613.065 706.096C590.901 703.346 588.02 688.26 585.989 668.575C583.977 635.906 585.232 603.478 589.753 571.29C588.985 570.905 584.594 583.155 584.327 584.289C579.014 606.874 578.495 627.188 577.956 650.247C578.179 660.45 570.672 671.999 566.033 656.559C560.32 636.008 556.09 615.056 553.344 593.702C551.265 605.275 551.401 617.171 553.752 629.39L552.194 633C553.105 640.222 553.765 647.887 555.193 655C555.314 657.77 554.916 658.717 552.138 659.168C555.273 660.878 554.99 665.644 551.195 665L548.971 665.113C524.689 640.213 532.135 718.037 554.025 704.175L556.193 705C558.546 704.055 559.411 705.826 558.898 708.13C558.172 711.397 544.761 724.634 541.199 727C543.668 730.937 534.397 734.53 531.011 735.344C516.475 738.84 512.789 728.613 509.202 716.77C502.154 693.499 500.8 667.63 502.809 643.287L504.214 641C504.071 639.53 503.441 638.283 502.376 637.236C503.284 628.695 507.559 575.851 503.426 573.738C499.301 594.528 496.698 615.629 495.619 637.04L493.219 640C485.948 691.434 469.646 741.426 506.213 787C507.501 789.608 506.476 792.47 503.138 795.586C507.81 799.988 508.848 804.012 506.252 807.658C508.603 815.46 502.979 824.915 495.218 819L495.609 816.441C512.616 810.065 483.78 777.941 477.392 774.779C472.7 773.518 467.969 774.37 463.198 777.334L461.232 776C457.401 774.75 460.975 771.301 463.704 770.02C462.947 767.615 462.123 765.274 461.232 763L461.245 760.739C471.56 754.079 462.233 717.297 455.584 711.818C441.997 700.622 433.272 728.987 436.111 738.76L434.243 740C431.67 738.982 430.595 736.212 431.017 731.69C420.28 730.209 415.691 722.979 417.25 710C421.31 691.764 426.36 673.995 431.244 656C437.131 632.388 441.534 611.085 441.232 586.69C441.156 580.606 434.884 562.087 432.003 577.165C430.786 593.367 430.01 609.686 429.676 626.121L425.247 643C420.188 666.839 403.917 713.983 392.26 735C379.677 741.573 374.722 736.472 367.271 727L366.507 724.9C374.163 716.684 382.955 689.64 363.949 691.564L362.273 690C359.326 688.291 360.932 677.143 362.165 674.295C363.609 670.962 368.166 665.563 371.269 669C372.866 669.608 373.658 671.192 373.646 673.753C391.806 706.271 401.476 637.557 395.285 635.978C392.721 635.323 386.311 645 385.104 647.151L382.264 648C380.922 647.356 380.441 646.036 380.823 644.04C376.662 643.888 374.477 642.541 374.268 640C379.2 625.248 382.536 606.526 383.264 591C378.043 560.306 374.813 570.224 371.96 593.606C365.618 622.036 356.574 650.147 341.281 675C326.57 693.683 312.375 705.608 293.023 719.221C283.443 725.96 264.326 739.832 254.317 744C247.096 746.245 245.452 743.877 242.855 737.561C241.757 734.891 240.053 729.94 242.322 728C240.986 724.13 241.528 721.51 243.947 720.141C247.148 719.253 256.359 715.13 248.915 714.225L248.32 712L250.217 710.244C264.169 711.035 277.918 703.252 286.688 692.733C306.473 669.003 256.304 683.309 248.333 686.461L246.32 685C244.709 683.167 244.612 680.245 245.321 678C272.017 665.633 302.382 645.651 314.466 617.674C318.448 608.456 318.793 606.812 318.291 597L316.195 595.337C315.556 586.175 314.495 576.611 309.672 568.597L310.294 566L308.555 561.83C309.253 539.206 328.433 536.693 346.279 538L349.718 537.894C369.016 549.994 394.374 553.582 415.887 545.562C459.283 529.385 462.79 473.889 461.346 434.175L463.231 431C465.355 431.454 466.178 433.753 465.699 437.897C470.508 434.824 472.799 441.808 473.307 445.739C473.327 445.894 471.14 444.063 474.227 445L476.525 447.333C482.768 496.064 509.197 557.664 568.955 544.147C609.454 534.987 615.287 494.492 618.9 459.318L621.166 457L622.502 433.406C623.887 426.744 631.57 412.911 638.159 420Z" fill="#FD7F00"/>
<path d="M450.236 785C451.579 785.044 453.062 785.501 454.685 786.371C454.361 792.284 455.877 796.827 459.232 800L461.718 800.647C467.38 812.025 480.629 822.022 493.624 817.291L495.217 819C501.897 817.831 503.169 821.093 504.894 811.368C505.087 810.278 504.081 808.771 504.243 807.549C504.452 805.982 506.142 804.917 506.055 803.659C505.9 801.434 501.2 797.657 501.199 795.482C501.198 793.844 505.971 789.583 506.213 787C541.041 830.407 599.639 832.642 643.157 863C658.115 879.895 672.284 904.578 658.801 926.879C644.666 942.128 644.338 950.199 657.818 951.091L659.15 953C651.8 960.139 649.525 961.651 640.158 966L639.05 964.069C643.065 946.399 614.76 962.725 633.342 966.113L635.16 968C628.295 970.61 623.153 972.801 615.552 973.884C590.173 977.499 537.554 970.03 542.283 934.586C543.097 928.481 548.387 918.708 555.256 919.43C559.775 950.593 620.574 949.358 616.076 915.583C613.417 895.62 580.274 888.392 564.189 885C555.433 882.864 556.691 873.579 558.269 866.516C557.065 869.483 552.389 880.103 549.521 880.904L543.198 881C520.639 876.343 506.715 874.954 485.222 865L483.051 862.753C488.283 850.225 494.872 838.158 502.816 826.554L491.737 842.737C484.731 851.143 475.404 860.557 464.23 853C447.91 841.807 438.601 833.157 428.245 816L427.547 811.389C428.891 804.79 442.197 790.364 447.444 785.245L450.236 785Z" fill="#FC6900"/>
<path d="M311.293 378L312.154 381.592C297.556 431.89 303.075 498.402 344.81 534.442L346.279 538C342.327 541.56 336.671 539.472 331.8 540.016C315.465 541.839 310.892 550.052 310.293 566L307.674 565.936C301.154 557.436 289.487 559.439 281.546 564.465L279.306 564C275.89 565.42 258.474 568.177 253.675 568.858C209.316 575.152 165.28 565.248 127.369 542C122.249 537.469 124.308 528.811 127.626 523.565C129.338 520.859 132.017 516.683 135.365 518L138.042 517.324C175.136 538.043 219.816 516.817 190.781 473.515L191.342 471C192.746 464.117 204.083 466.562 207.765 471.619C217.336 486.197 224.108 488.844 228.081 479.56C225.519 476.188 226.697 471.663 230.326 470C232.013 467.67 234.786 469.294 234.325 472C238.621 474.534 243.094 476.907 247.745 479.118L250.473 482.772C256.649 505.077 286.495 502.657 280.32 476.407L281.451 470.48C273.174 466.815 276.285 459.513 279.994 453.391C279.731 441.983 283.832 437.728 294.35 434.477C283.338 428.937 280.577 400.398 297.262 405.669L297.5 400.161C295.517 392.315 290.095 370.538 304.283 373.139C306.421 373.53 311.415 375.609 311.293 378Z" fill="#FC6A01"/>
<path d="M382.264 648L383.772 649.789C380.058 655.87 376.606 662.058 373.417 668.353L371.269 669C360.561 672.03 363.83 681.606 362.272 690C362.498 690.781 362.6 691.712 362.033 692.186C355.878 697.332 346.642 706.038 342.416 712.862C335.614 723.849 356.432 735.675 364.973 726.402L367.27 727C372.585 725.895 372.178 730.332 374.72 733.048C380.87 739.618 385.649 732.762 392.26 735C377.453 761.695 363.037 766.303 340.808 784.027C320.899 799.903 305.823 825.033 330.274 845.512C356.894 867.807 399.69 848.603 433.243 865L438.06 869.764C439.838 872.33 441.78 875.346 438.241 877L435.604 876.974C426.235 867.206 406.575 864.713 396.894 874.922C387.484 884.845 396.924 886.882 405.985 886.556L406.254 889L404.047 891.062L392.92 890.925C390.684 891.69 389.131 891.381 388.262 890C387.698 891.917 386.825 891.907 386.262 890C382.596 893.088 378.407 893.397 374.267 891L374.08 888.294C392.101 867.117 357.458 863.766 343.148 864.435C331.024 865.002 326.108 875.996 331.775 885.858L331.285 888C330.023 890.949 316.186 885.754 316.077 884.938L317.291 882L316.36 879.967C328.678 864.453 325.65 866.982 313.329 880.74L310.294 881C306.239 881.931 298.737 876.903 295.111 874.12C291.275 872.12 289.673 869.746 290.302 867C291.59 865.618 293.46 865.53 295.912 866.734C303.625 870.675 323.019 862.724 319.041 852.843C318.363 851.16 301.944 834.327 299.548 833.286C291.59 829.83 266.579 837.706 276.455 850.936L275.308 853C271.21 853.311 266.617 845.927 264.522 842.248C261.293 838.171 260.557 834.755 262.313 832C262.289 831.081 262.64 830.393 263.427 829.975C267.816 829.823 272.216 829.666 276.607 829.226C293.996 827.483 278.802 828.205 269.342 829.022C262.574 830.291 258.898 829.284 258.315 826C254.514 824.713 251.91 818.376 254.317 815L256.805 814.546C261.299 819.714 282.903 821.458 286.651 816.98C287.466 816.006 295.284 794.514 295.248 793.244C295.226 792.449 294.716 791.736 294.195 791.171C287.74 788.272 281.542 784.817 275.599 780.807C265.426 774.771 258.481 779.641 254.762 795.416L252.317 796C251.375 795.435 250.733 794.644 250.322 793.637C247.756 787.341 254.824 758.561 263.313 755C271.639 744.548 305.088 726.589 318.187 716.396C342.397 697.557 364.436 669.403 374.267 640C379.643 643.256 384.609 639.636 382.264 648Z" fill="#FD6D00"/>
<path d="M246.32 685L245.852 687.246C232.774 688.359 237.946 707.09 247.642 709.616L248.319 712C250.477 712.75 254.58 712.563 254.22 714.39C252.383 723.732 241.113 718.099 242.322 728L240.095 727.649L236.462 716.354C239.471 726.92 240.537 737.494 239.658 748.075L237.324 750C223.547 755.853 207.42 762.119 194.341 769C189.865 770.911 185.927 768.949 182.529 763.115C170.926 746.934 154.084 725.852 178.254 758.618C179.569 760.685 180.894 762.787 181.79 765.079C183.37 769.125 185.082 773.762 181.347 777C154.567 795.281 152.767 822.229 185.367 834.478C191.1 836.632 207.178 838.605 210.288 841.547C212.857 843.976 216.389 858.451 218.332 863C220.722 869.319 220.055 873.986 216.332 877L214.204 879.182C209.809 880.163 196.174 878.538 193.342 875C193.948 873.053 195.649 871.543 198.444 870.469C217.169 854.431 151.911 824.243 159.315 860.992C161.093 863.18 161.773 865.182 161.355 867C157.799 869 149.636 865.177 149.36 861L148.282 858.897C156.318 844.263 154.426 846.723 146.791 858.051L144.362 858L141.35 858.983C137.079 857.229 133.261 854.67 129.612 851.878C124.506 847.972 116.057 841.029 115.374 835L117.525 833.96C135.95 842.497 156.524 829.218 140.244 809.607C130.139 797.433 108.168 777.689 103.449 804.927L101.38 806C94.8931 801.07 95.7981 787.285 96.7731 779.331C98.1321 768.227 101.571 757.965 108.377 749C145.496 707.513 196.981 700.393 245.32 678C247.544 680.259 247.518 682.187 246.32 685Z" fill="#FD7300"/>
<path d="M931.038 700C937.024 696.688 950.836 699.44 943.117 708.373C942.275 711.294 948.438 719.073 946.942 712.604L949.031 711C949.059 711.214 949.937 712.072 950.074 713.414C950.693 719.503 950.358 738.507 942.292 739.847C939.637 740.288 928.824 736.62 935.014 743.523C940.707 749.873 940.948 745.289 942.033 756C940.406 763.798 932.367 771.457 926.328 776.603C903.308 796.222 894.659 785.101 880.52 764.075C883.766 772.268 887.264 780.366 891.016 788.367C895.781 800.593 876.524 807.656 867.468 810.974C852.954 816.293 842.312 818.636 834.687 802.2L823.575 780.357C825.539 790.667 827.86 800.952 830.538 811.212C831.9 821.666 830.861 822.399 821.493 826.571C818.342 827.974 810.137 830.859 808.089 828C806.787 829.642 805.69 830.098 803.927 830.607C792.538 833.897 766.655 832.357 756.11 826C753.72 822.994 747.008 815.807 744.115 813L742.726 810.023C742.298 805.794 751.512 777.374 753.777 775.716C754.497 775.189 755.166 774.819 756.11 775C752.905 769.31 762.558 763.613 768.105 764C794.158 768.969 834.222 760.28 853.098 740.528C854.879 738.665 860.852 729.035 861.566 729.018C862.249 729.002 865.213 734.905 873.579 734.028C879.498 733.408 881.165 728.884 884.057 728C885.708 724.581 893.618 723.355 896.052 726C898.875 726.719 898.875 729.053 896.052 733L896.843 735.137C870.223 758.509 906.335 773.978 916.665 745.954C919.776 737.514 916.361 731.752 908.998 727.191L909.047 725C903.561 723.877 902.903 719.178 903.818 714.164C904.22 711.959 906.784 705.095 909.047 705L911.292 705.211C915.858 721.336 930.357 718.56 929.132 701.573L931.038 700Z" fill="#FD7F00"/>
<path d="M684.14 790C683.691 792.953 683.341 790.448 683.483 790.426C687.204 789.849 686.672 800.275 680.142 798L678.23 799.364C672.356 796.864 665.435 795.152 661.109 801.094C650.805 815.247 670.95 827.886 682.614 832.035C702.913 839.256 712.101 822.563 695.642 809.281L696.135 807C691.121 801.981 693.676 799.093 700.322 800.184L702.133 799C706.867 801.74 709.787 803.959 714.128 807L713.385 808.815C725.79 823.126 739.749 841.862 745.935 862.694C746.115 863.3 745.999 864.004 745.858 864.747C745.711 865.517 745.432 866.262 745.115 867C744.919 869.938 743.129 869.668 742.116 867L739.806 866.46C735.467 850.798 708.45 833.436 702.47 856.441L700.133 857C701.697 859.77 698.089 864.292 695.135 864C696.043 867.226 686.84 872.922 684.14 871C679.116 864.651 670.853 858.071 664.057 853.591C658.053 849.635 648.06 845.961 643.157 842C628.767 834.916 639.262 816.626 644.992 806.703L636.455 821.428C632.851 827.009 628.134 830.431 621.25 829.764C611.403 828.811 576.465 808.689 572.893 799.581C572.824 791.083 576.519 783.032 583.979 775.429C569.437 792.152 563.412 792.154 547.488 777.695C539.113 770.089 521.01 752.505 530.167 741.091L546.659 726.813C544.08 728.735 542.26 728.798 541.199 727C545.278 721.596 549.642 716.872 553.529 711.318C554.566 709.838 558.838 708.78 556.193 705L555.371 702.52C556.204 690.724 554.387 678.918 549.918 667.1L551.195 665C551.761 664.25 553.07 661.182 551.607 660.984C550.451 660.827 547.31 661.821 548.206 659.515C549.342 656.593 554.095 657.794 555.193 655C559.514 676.526 567.492 704.102 578.764 722.92C604.375 765.678 642.695 771.324 684.14 790Z" fill="#FD7700"/>
<path d="M73.3913 251L73.9943 253.128C54.0243 270.357 74.2933 289.134 94.7633 288.21L96.3823 290L98.5323 291.573C94.0283 298.756 93.0603 305.004 95.0303 313.439C109.696 318.037 97.8113 326.568 87.6483 324.942C87.9483 329.42 90.1843 334.295 93.9153 336.924L94.3823 339L96.2163 340.32C93.6883 350.55 94.4443 359.911 98.4843 368.402C101.136 370.15 103.101 372.016 104.378 374L104.202 375.514C106.33 375.078 109.67 381.921 107.023 384.353C98.9323 392.048 102.31 394.963 112.223 396.257C116.814 397.22 120.553 402.198 114.714 403.665C108.864 402.21 106.234 401.914 106.399 408.716L104.378 410L102.1 410.809C89.7273 401.948 79.6113 426.149 82.3513 435.023C86.3223 447.882 127.264 443.258 106.789 425.357C104.836 422.398 101.884 417.388 105.378 415C107.989 411.473 114.738 416.498 117.546 418.785C125.449 425.22 125.907 430.37 125.988 440.281C127.374 446.054 131.578 445.427 138.598 438.4C144.685 434.205 156.408 443.757 151.359 449L149.494 450.858C140.514 450.534 131.109 452.598 123.98 458.311L121.371 458C92.5733 478.894 64.9863 461.252 48.4013 435C27.6033 367.384 34.0613 288.538 67.3933 226C80.7403 225.436 76.0813 243.235 73.3913 251Z" fill="#FD6607"/>
<path d="M350.277 55C353.543 57.011 357.208 57.011 361.272 55C366.019 55.011 372.146 54.149 376.266 56C372.856 57.195 371.622 59.051 372.563 61.566C367.758 65.19 361.168 65.481 355.527 63.933C355.266 65.013 354.392 65.497 353.276 66L351.618 67.57C334.248 64.038 330.763 76.426 337.69 90.176L336.283 92C334.31 94.24 331.099 95.588 326.65 96.044C323.519 97.953 320.732 98.606 318.29 98L315.78 98.399C304.274 87.762 295.318 105.3 290.871 114.188C286.867 122.191 283.931 128.222 292.968 134.523L293.3 137L293.974 139.112C288.801 143.621 288.729 145.725 290.047 152.387C289.981 155.154 289.666 159.015 286.303 158L283.906 158.327C274.952 145.527 265.014 143.384 252.575 153.602L250.318 153C241.31 161.271 232.851 170.046 224.939 179.327C221.945 181.775 219.95 182.921 216.332 181C215.933 184.222 206.996 184.103 205.337 182C199.348 183.471 193.411 185.126 187.528 186.965C183.615 184.187 179.889 181.199 176.349 178L174.835 176.276C175.697 171.445 172.733 167.904 165.941 165.653L165.353 163C160.132 158.461 173.151 148.909 177.348 152L179.959 152.249C192.149 169.203 231.905 147.459 206.714 131.216L207.336 129C199.055 118.7 218.899 122.221 223.329 126L225.597 125.694C232.03 139.253 264.276 126.697 263.054 116.862C262.575 113.01 244.773 92.253 238.563 93.156L237.324 91C234.788 90.181 234.286 87.469 235.818 82.865C233.855 81.15 233.024 79.528 233.325 78C272.458 62.983 308.125 55.805 350.277 55Z" fill="#FD9405"/>
<path d="M235.325 632C243.001 628.661 251.449 626.891 258.99 623.175C261.483 621.947 276.549 611.236 277.303 612.005C275.399 625.23 269.423 638.836 260.826 649.012C244.79 667.994 212.698 675.165 190.075 684.232C145.422 702.129 103.613 719.989 78.8707 763.981C63.6657 791.015 58.3897 822.945 74.3906 850.99C66.0056 850.928 58.3846 847.27 51.4007 843L51.9856 840.901C56.5506 840.138 53.9507 835.067 52.2266 832.488C47.0727 824.778 43.3277 822.947 35.4067 828C34.5167 826.547 33.0927 826.115 33.3767 823.537C33.6326 821.21 41.8866 815.622 34.8557 814.052C30.5877 813.099 31.1767 814.1 27.4106 811L28.9047 809.345C44.3366 815.819 41.0187 779.277 37.7237 773.535C33.6016 766.351 22.0636 765.134 20.6216 774.936L18.4137 776C17.8456 767.733 20.1436 759.829 22.4126 752C27.0887 755.457 51.9496 770.733 56.3116 769.086C59.3227 767.949 74.8967 742.595 72.0427 736.976L66.3947 727C62.1536 724.86 46.1326 706.994 58.8906 708.182C68.4896 716.063 78.5226 722.698 88.9896 728.088C100.115 724.002 122.504 710.842 111.191 697.057C105.669 690.781 89.4386 671.004 109.771 678.014C115.832 684.262 122.17 690.149 128.784 695.675C136.14 699.348 169.352 687.759 157.874 675.354C148.761 667.311 139.662 643.978 159.817 660.565C170.525 674.813 181.305 681.925 198.282 670.354C203.443 666.836 203.2 662.907 200.322 657.661L191.973 642.902L193.342 641C198.009 640.022 202.611 638.893 207.337 638C208.629 657.554 227.895 658.681 241.515 649.268C250.134 643.311 249.476 633.263 237.344 633.879L235.325 632Z" fill="#BE3901"/>
<path d="M949.031 711C948.624 715.616 949.603 721.032 949.033 725.518C948.856 726.911 948.507 728.398 947.047 726.996C946.053 726.042 946.203 719.965 945.58 717.953C944.473 714.379 939.899 712.59 941.237 707.762C941.638 706.314 944.25 704.411 943.595 702.987C942.05 699.627 934.289 701.832 931.038 700L929.682 699.805C925.242 677.147 909.376 680.503 911.174 703.333L909.047 705C908.332 712.305 903.373 713.982 906.332 721.234C906.933 722.709 908.266 723.663 909.047 725C907.729 726.36 905.76 727.481 903.14 728.361C900.896 731.454 898.534 733 896.053 733C897.218 730.74 895.699 728.076 896.053 726L894.378 724.184C910.747 683.18 875.903 644.784 841.988 625.276C809.302 606.475 774.31 599.993 738.276 609.409C732.734 610.216 717.62 611.638 721.125 603C743.859 579.28 799.033 578.01 829.285 584.295C890.927 597.102 940.758 648.133 949.031 711Z" fill="#FD8C02"/>
<path d="M376.267 56C392.34 55.677 411.81 59.323 427.461 63.285C433.586 64.835 440.904 66.731 446.238 70L445.952 71.314C433.464 70.563 433.269 72.937 445.366 78.437C461.61 86.382 477.068 95.691 491.739 106.365L493.219 110C497.73 115.299 487.525 115.297 483.253 115.014L469.563 113.895C455.412 117.127 442.337 117.947 427.732 115.907C419.959 115.346 409.435 117.76 407.281 126.154L405.255 127L402.88 127.325C394.406 116.401 379.572 105.177 369.578 120.659L367.271 121C360.711 121.692 354.622 120.978 349.003 118.858C346.262 112.58 336.647 117.242 333.487 121.161L331.286 121L329.13 119.702C326.579 112.445 322.435 105.791 316.698 99.742L318.291 98C323.09 94.378 330.395 92.614 336.283 92C339.252 91.532 341.057 94.531 339.282 97C340.536 99.406 341.572 101.097 344.28 102L346.016 100.634C352.373 105.636 378.105 97.369 374.141 88.184C368.644 80.317 361.103 73.82 353.318 68.238L353.276 66C353.012 59.184 358.534 63.078 361.768 62.996C364.789 62.919 368.229 61.3979 371.267 60.988L368.275 56.005C370.93 55.9559 373.612 56.053 376.267 56Z" fill="#FD9C07"/>
<path d="M733.12 436L734.371 439.562C717.517 532.311 828.054 554.44 876.305 485.618L880.06 484L882.1 484.779C881.434 493.389 884.295 498.718 890.682 500.764L891.055 503C860.493 544.979 806.015 550.12 758.851 534.758C714.33 520.258 701.705 475.778 711.129 433L713.741 432.23C718.993 435.269 724.958 435.781 730.839 434.467L733.12 436Z" fill="#0D2C65"/>
<path d="M433.243 865C450.507 873.437 463.394 888.569 464.276 908.45C464.792 920.077 461.367 938.416 451.167 945.43C442.981 951.061 443.431 944.161 439.918 945.089C439.013 945.328 433.466 952.675 431.177 954.434C422.178 961.348 408.906 964.005 397.723 963.036C393.67 962.685 381.824 960.467 385.38 954.64C387.916 950.485 400.23 943.709 404.767 938.012C414.281 926.066 411.957 914.137 396.258 911C392.244 910.762 388.282 910.364 384.371 909.808C382.778 908.308 386.436 892.09 388.262 890C388.951 889.941 390.223 889.103 391.708 888.994C396.491 888.641 401.459 889.253 406.254 889C409.623 884.915 419.039 888.46 422.996 891.584C441.291 911.745 448.4 899.747 437.428 879.338L438.241 877C439.235 871.69 433.792 869.708 433.243 865Z" fill="#ED5200"/>
<path d="M498.217 638C500.308 634.33 504.975 636.803 504.215 641C503.541 661.049 503.834 683.373 507.678 703.035C508.964 709.612 513.484 726.24 517.761 730.948C523.436 737.195 536.709 732.949 541.199 727C542.723 727.535 552.411 719.512 550.044 725.347C547.746 731.013 532.036 739.973 529.727 745.015C526.735 751.55 536.421 763.068 540.688 768.012C543.588 771.372 557.498 785.007 560.9 785.787C573.062 788.575 576.907 778.386 584.68 771.998C585.807 771.072 586.292 769.57 588.175 770.005C587.275 779.922 569.421 790.879 575.733 800.954C580.091 807.911 611.804 825.866 620.103 827.557C634.016 830.392 637.037 813.584 643.726 805.069C644.816 803.681 646.105 801.738 648.15 802.005C648.111 808.352 642.894 813.095 640.67 819.012C637.695 826.924 635.732 836.001 643.157 842C621.542 832.36 597.429 826.254 575.919 816.766C569.168 813.788 558.525 810.058 562.186 801.005C558.861 801.354 556.466 802.507 552.926 801.78C545.118 800.177 529.803 786.634 524.18 780.527C520.333 776.349 507.484 759.346 507.199 754.409C506.91 749.406 514.224 751.405 513.206 746.005C501.635 748.148 501.029 741.264 498.501 732.216C493.801 715.392 493.253 692.964 494.177 675.459C494.839 662.933 498.352 650.536 498.217 638Z" fill="#C13C01"/>
<path d="M233.325 78C241.628 82.703 235.531 84.695 237.323 91L235.919 92.927C215.232 92.205 218.39 109.875 224.271 123.602L223.329 126L206.345 124.001L207.336 129L204.848 129.307C185.147 105.772 164.554 125.72 178.435 149.953L177.348 152C173.259 153.476 164.466 157.739 165.353 163L162.711 163.708C136.936 145.834 130.566 160.786 137.535 186.579L136.365 189C136.646 191.556 137.935 203.409 136.488 204.984C135.337 206.237 126.839 207.961 126.369 205L124.418 203.936C124.185 197 116.971 190.858 110.088 193.361L108.376 192L106.441 193.167C102.21 190.886 98.8575 187.164 96.3815 182C132.914 134.573 176.957 99.63 233.325 78Z" fill="#FC8C02"/>
<path d="M446.238 70C465.732 71.666 496.528 88.767 512.525 100.185C546.644 124.538 567.281 154.734 585.181 192C586.301 194.552 587.031 197.196 587.18 200C589.619 204.049 593.07 212.911 590.179 217C592.668 222.23 593.771 239.86 584.622 238.602C582.279 238.28 579.537 234.645 582.182 233C579.361 232.107 577.441 229.939 576.422 226.495L572.234 216.899C563.823 192.007 553.749 168.934 534.367 151.125L534.202 148L530.188 146.594C524.619 141.771 514.461 131.623 509.765 126.037C508.815 124.907 508.472 123.419 508.212 122C506.752 123.295 506.207 122.715 507.213 121C500.406 118.993 495.741 115.327 493.219 110C487.336 105.573 481.836 101.102 475.534 97.192C469.136 93.222 435.481 76.419 433.721 73.019C431.521 68.769 443.552 69.77 446.238 70Z" fill="#FCEC15"/>
<path d="M942.034 756C943.19 767.412 940.645 778.826 934.062 788.524C927.422 798.307 919.327 803.851 907.055 800.004C909.772 827.342 874.09 841.603 852.082 832.997C851.319 839.23 847.134 845.854 842.013 849.466C840.493 850.538 839.076 850.456 838.077 851L836.454 849.39C837.778 839.338 830.761 835.92 815.403 839.137C811.959 840.406 809.188 840.361 807.09 839C801.633 839.136 802.91 829.168 808.089 828C812.585 827.272 827.508 823.888 828.868 819.296C831.14 811.63 818.629 781.086 822.089 777.005C824.143 776.576 824.409 778.022 825.276 779.306C830.292 786.735 838.415 811.455 847.627 812.939C856.658 814.395 887.344 802.919 889.887 794.28C891.681 788.187 875.787 766.911 878.07 758C885.322 764.442 893.86 785.195 905.443 784.918C919.141 784.591 934.587 766.148 942.034 756Z" fill="#C13B00"/>
<path d="M896.053 726C892.816 726.844 886.855 727.145 884.058 728C900.668 682.015 861.652 646.032 822.33 631.253C807.941 625.844 776.422 616.885 761.608 616.916C750.147 616.94 725.477 628.265 717.564 619.063C712.023 612.62 716.777 607.537 721.125 603C721.179 604.831 722.224 606.034 723.74 606.884C730.631 610.746 756.065 603.532 765.566 602.959C820.021 599.674 900.439 644.479 900.847 705.502C900.905 714.107 897.158 719.519 896.053 726Z" fill="#EE5001"/>
<path d="M552.194 633C550.776 621.755 549.255 611.017 550.158 599.463C550.262 598.128 551.27 587.807 554.182 590.004C556.135 591.476 561.093 631.772 562.485 638.204C563.409 642.471 566.93 657.94 569.139 660.545C574.783 667.2 575.946 650.761 576.174 647.49C577.697 625.597 575.491 609.044 581.467 586.785C581.881 585.24 588.652 562.964 592.172 567.005L587.138 619.459C586.418 636.482 585.825 677.963 593.355 692.323C600.861 706.638 613.095 699.204 618.996 708.671C624.479 717.469 617.599 721.127 618.105 728.484C618.541 734.832 627.073 739.785 632.768 739.92C638.058 740.046 642.41 734.015 645.155 735.453C649.169 737.556 644.755 743.19 647.155 748C649.73 751.871 641.45 757.296 638.159 755C637.394 753.726 636.28 751.018 635.184 750.473C633.307 749.538 625.561 749.36 621.627 748.038C585.246 735.816 567.148 666.442 558.415 633.281C556.968 629.538 554.82 631.63 552.194 633Z" fill="#BF3B01"/>
<path d="M193.342 641C199.071 655.337 215.53 666.795 192.331 675.489C169.464 684.058 167.888 668.751 153.367 657.491C149.732 654.673 148.644 657.661 149.843 660.927C151.877 666.47 165.543 677.004 161.852 684.977C159.134 690.85 138.281 699.503 132.134 698.813C122.502 697.731 114.835 682.909 107.75 679.134C105.188 677.77 100.642 676.952 101.796 681.063C103.973 688.824 118.274 696.078 116.32 708.438C115.328 714.719 95.344 730.349 88.906 730.074C81.557 729.76 66.631 715.219 59.935 710.962C58.704 710.18 57.989 709.692 56.404 710.005C53.819 712.701 64.307 724.453 66.394 727V728L63.669 728.355L54.289 720.519C45.993 715.275 39.513 728.738 38.352 735.5L36.407 737C34.02 738.247 26.891 741.916 28.41 737C29.854 733.888 30.691 732.058 32.408 729C35.467 726.665 38.465 723.665 41.405 720C41.16 719.291 41.014 718.617 41.211 718.065C43.315 712.161 62.995 695.743 69.061 691.992L72.392 692C79 690.328 74.094 697.599 70.896 700.212C66.647 715.268 84.651 719.917 95.062 711.837C107.269 702.365 107.352 690.528 93.187 683.308C87.518 685.279 84.918 684.843 85.386 682L84.461 681.037C86.501 678.229 88.809 675.884 91.384 674C94.648 672.734 101.245 672.323 102.171 671.789C102.836 671.407 103.439 668.249 105.669 666.698C123.859 654.051 170.992 645.685 193.342 641Z" fill="#FC7400"/>
<path d="M262.314 832C263.94 839.777 270.227 847.059 275.309 853L277.507 852.757C280.824 857.417 285.067 861.511 289.918 864.557L290.302 867C295.347 873.458 303.7 876.434 310.294 881C310.296 885.66 303.033 891.35 299.068 894.36C291.37 900.204 281.942 905.456 272.31 901C252.237 889.096 224.001 862.256 224.33 837C222.838 830.966 225.44 830.094 231.176 829.626C240.759 829.069 250.349 829.196 259.947 830.006L262.314 832Z" fill="#E64D00"/>
<path d="M121.372 458L121.495 460.794C107.085 478.28 119.1 503.36 135.083 515.368L135.366 518C127.464 524.515 124.624 531.87 127.37 542C86.6926 517.056 62.3016 480.19 48.4016 435C50.6656 434.91 51.0696 436.392 52.2176 437.682C65.9096 453.077 76.6966 467.477 99.7746 464.895C107.894 463.987 113.649 459.127 121.372 458Z" fill="#E65001"/>
<path d="M101.38 806L103.375 807.251C104.164 816.689 108.313 826.353 115.506 832.648L115.374 835C123.468 844.079 132.633 853.916 144.362 858C145.764 861.728 139.123 867.603 135.989 869.993C129.412 875.007 122.637 877.114 115.374 872C68.0648 834.653 69.3048 792.67 108.377 749C100.226 766.051 94.2148 787.673 101.38 806Z" fill="#E94E01"/>
<path d="M627.163 330C630.537 349.665 606.3 355.404 594.177 344L591.973 344.42C585.619 337.131 578.291 330.411 570.123 325.231L570.186 323C571.765 320.364 574.884 320.127 579.543 322.289C596.996 331.631 605.002 328.072 603.561 311.614C602.117 294.941 599.326 278.446 595.188 262.129C593.034 249.714 593.392 240.054 593.973 227.965C591.962 224.601 590.697 220.946 590.178 217C589.072 211.953 587.675 205.054 587.179 200C586.789 198.574 586.789 197.241 587.179 196C607.361 239.772 618.34 282.774 627.163 330Z" fill="#FD7002"/>
<path d="M417.25 710C420.168 713.937 419.005 722.011 421.32 725.429C422.803 727.619 430.322 729.609 433.151 730.082C432.754 733.872 433.554 736.667 434.243 740L436.513 741.155C437.325 752.684 447.455 763.885 459.477 761.54L461.232 763C465.446 762.609 463.613 763.096 464.223 765.463C464.653 767.133 466.273 770.851 466.248 771.484C466.217 772.255 463.812 772.048 462.655 772.928C461.233 774.009 461.561 775.563 461.232 776L461.844 778.552C456.948 784.503 457.226 790.949 460.429 797.656L459.233 800C452.731 800.446 455.12 791.868 453.572 788.191C452.635 785.965 449.539 788.239 450.236 785C448.928 783.58 449.246 782.786 450.34 781.554C442.579 789.455 432.925 796.463 421.748 798.651L419.249 797C406.202 762.832 409.574 744.477 417.25 710Z" fill="#FD7400"/>
<path d="M695.135 864L697.907 865.17C703.145 885.79 739.901 919.126 743.115 879C741.45 879.773 740.445 869.5 740.554 868.686L742.116 867H745.114C746.163 867.607 747.328 868.309 747.845 869.463C754.283 883.833 752.648 913.318 742.116 926C732.329 933.578 718.397 938.801 707.103 930.527C694.855 921.554 698.257 903.714 694.393 890.242C692.464 883.514 688.461 876.461 684.14 871L695.135 864Z" fill="#F45800"/>
<path d="M317.291 882C316.702 884.646 318.674 883.902 320.205 884.533C324.17 886.169 327.582 886.747 331.285 888L334.019 886.803C346.533 891.962 358.877 891.057 371.935 889.208L374.268 891C378.26 890.641 382.265 890.387 386.263 890C387.31 892.973 385.315 901.408 383.977 905.284C383.709 908.588 382.472 910.494 380.265 911C373.347 911.825 364.055 915.471 356.483 916.708C333.454 920.47 318.302 919.298 296.3 912C292.149 909.857 295.006 904.827 296.931 901.618C299.771 896.884 310.573 885.582 314.966 881.684L317.291 882Z" fill="#EA5101"/>
<path d="M418.249 826C417.983 827.537 417.362 828.696 415.842 828.47C405.385 823.996 398.866 824.833 396.284 830.981L394.259 832C378.454 818.672 364.938 797.808 368.198 776.429C381.029 767.235 389.694 754.572 398.762 742.005C396.648 765.388 399.233 788.292 409.079 809.673C411.45 814.82 415.064 821.355 418.249 826Z" fill="#B83600"/>
<path d="M161.355 867L164.238 866.031C172.89 869.688 182.066 871.556 191.349 872.711L193.342 875C200.985 876.026 208.481 877.902 216.332 877C218.787 883.137 213.376 895.295 209.383 900.719L206.336 902C177.718 903.878 158.125 899.81 133.367 885C131.589 882.49 132.307 879.342 135.519 875.554L146.815 861.217L149.36 861C153.143 863.595 157.154 865.217 161.355 867Z" fill="#EC5200"/>
<path d="M96.3819 182C102.8 182.606 100.959 190.871 108.377 192L109.196 194.001C103.495 199.137 90.5479 219.389 93.6899 226.349C96.5459 228.983 98.1099 231.533 98.3809 234C102.717 241.053 108.059 247.605 114.406 253.657C117.874 259.2 117.493 271.914 110.376 273C111.023 275.837 109.024 277.837 104.379 279C105.242 279.27 105.225 279.605 104.379 280C101.743 280.273 98.2319 274.402 97.0909 271.932C95.5849 268.669 94.9089 267.198 94.4629 263.443C96.6169 244.969 90.1039 242.489 75.5469 251.921L73.3909 251C70.7399 244.9 77.9529 234.902 72.4449 229.451C70.8919 227.914 68.2829 228.184 67.3939 226C76.4879 208.937 84.6869 197.183 96.3819 182Z" fill="#FC7607"/>
<path d="M310.294 566C316.393 574.016 317.799 587.39 318.291 597C312.017 599.119 310.387 607.964 307.101 613.306C299.959 624.913 290.081 634.792 279.317 643C283.125 633.603 287.978 625.665 290.437 615.635C294.282 599.956 297.784 571.211 279.307 564C279.514 563.914 280.612 562.083 282.223 561.448C293.158 557.139 302.24 555.415 310.294 566Z" fill="#E04900"/>
<path d="M635.16 380L634.124 383.969C626.453 390.027 621.841 397.46 620.289 406.269L618.167 408L615.439 404.938C612.061 383.922 605.082 364.131 593.511 346.504L594.177 344C609.912 350.549 624.711 349.825 627.163 330C630.386 347.251 633.254 362.374 635.16 380Z" fill="#D74400"/>
<path d="M251.318 919C287.718 914.613 292.163 952.72 252.329 952.064C246.679 949.869 241.677 949.514 237.324 951C229.834 948.047 222.873 944.919 226.102 935.265C229.154 926.139 243.272 921.817 251.318 919Z" fill="#FD7600"/>
<path d="M263.313 755C254.29 766.326 252.215 782.045 252.318 796C254.336 798.272 255.131 801.636 254.7 806.09C255.889 809.792 255.761 812.762 254.317 815C255.289 818.831 256.833 822.368 258.315 826C254.222 829.218 243.825 826.716 238.734 824.854C233.241 822.845 226.416 819.523 224.329 814C227.301 789.292 242.941 768.521 263.313 755Z" fill="#D94401"/>
<path d="M714.128 807C725.733 815.131 734.397 821.974 742.932 833.685C761.677 859.407 770.595 903.949 742.116 926L747.621 910.007C751.098 895.174 749.1 881.356 745.115 867C741.462 853.838 736.157 842.406 728.531 831.091C724.367 824.914 715.096 816.07 712.805 809.819C712.114 807.932 711.102 806.587 714.128 807Z" fill="#FD8501"/>
<path d="M659.15 953C650.879 953.719 645.061 951.861 646.132 942.479C646.766 936.925 655.062 929.962 657.977 924.326C663.993 912.691 663.387 900.412 658.008 888.642L643.157 863C674.738 885.032 690.482 922.568 659.15 953Z" fill="#FDD315"/>
<path d="M908.048 468L906.019 466.915C905.3 460.322 898.381 457.381 892.382 457.851L891.055 456L889.699 452.453C893.31 431.263 890.071 408.99 878.261 390.806L878.06 387C879.488 384.07 888.341 384.908 891.055 386C909.061 410.32 915.307 437.977 908.048 468Z" fill="#174385"/>
<path d="M755.111 394L754.71 397.541C746.056 408.144 739.56 420.49 735.794 433.657L733.12 436C724.842 438.045 718.29 437.548 711.129 433C715.313 414.007 723.085 400.203 736.119 386C742.311 381.047 759.051 384.694 755.111 394Z" fill="#3F6B9B"/>
<path d="M68.3933 920C63.3463 919.631 43.4204 912.778 47.5353 906.121C48.1513 905.124 65.8083 899.204 69.2694 897.376C74.1933 894.776 82.6394 888.992 86.3863 885C91.6114 881.352 100.266 889.965 102.184 895.163C108.623 912.613 82.7934 923.923 68.3933 920Z" fill="#FD7200"/>
<path d="M707.13 754C707.75 754.5 708.364 755.242 708.09 755.877C704.41 764.422 703.074 768.249 711.4 775.38C721.546 784.071 740.412 788.842 745.892 772.75L748.113 772C749.939 771.868 751.275 771.093 751.893 769.278C752.46 767.612 753.922 761.871 753.111 760C757.507 761.23 763.871 763.192 768.105 764L759.049 769.436C758.129 771.182 756.862 773.245 756.11 775C755.414 776.116 754.395 776.864 753.051 777.242C748.854 786.615 743.955 795.582 738.356 804.143L735.118 805C722.12 794.684 702.504 784.356 687.138 778L685.274 776.155C684.623 769.023 699.344 751.833 705.131 748C707.125 749.611 707.278 751.535 707.13 754Z" fill="#FD6F00"/>
<path d="M891.055 386C887.22 388.492 882.25 386.786 878.06 387L875.628 387.107C867.313 377.653 856.684 369.759 844.854 365.301L844.074 363C820.055 355.904 791.111 354.672 768.998 367.043C765.83 368.39 761.11 370.298 760.109 366C804.879 338.176 858.894 342.561 891.055 386Z" fill="#3E6D9F"/>
<path d="M844.074 363L840.646 364.261C810.413 358.336 779.54 371.384 758.602 393.15L755.111 394C752.76 384.075 744.272 385.97 736.118 386C743.504 377.951 750.775 371.8 760.109 366C765.459 368.532 771.828 362.543 777.321 360.72C797.789 353.926 824.547 353.479 844.074 363Z" fill="#174B8F"/>
<path d="M237.324 951C240.472 944.243 245.485 949.623 251.778 950.031C260.603 950.604 273.829 947.953 277.835 938.983C283.887 925.435 260.884 919.109 251.318 919C256.381 917.228 264.504 913.317 269.729 914.04C273.549 914.568 281.998 919.855 286.318 921.486C294.592 924.611 303.241 926.8 311.274 930.5C293.607 949.83 262.498 960.927 237.324 951Z" fill="#DB4601"/>
<path d="M66.3943 727C70.3773 731.86 75.5353 733.923 74.3483 742.422C73.9303 745.411 60.4353 769.508 58.4073 770.502C53.4833 772.916 45.9183 767.761 41.3833 765.521C36.8013 763.259 27.9593 758.706 24.2543 755.636C22.8053 754.436 21.7733 754.879 22.4123 752C24.1973 745.842 25.8373 742.543 28.4103 737L28.9543 737.979C31.6913 737.208 33.6763 734.826 36.4063 737L38.5683 737.19C48.5113 754.792 71.2713 752.161 65.1473 729.961L66.3943 728V727Z" fill="#FD7201"/>
<path d="M808.089 828C805.89 831.83 804.489 834.964 807.089 839L806.632 841.364C799.33 844.584 801.813 850.986 807.22 854.678L807.089 857C799.168 855.817 794.215 854.868 790.596 847.02C789.432 852.546 777.459 858.452 773.262 855.831C772.548 855.385 767.439 843.253 765.914 840.692C763.347 836.38 759.161 829.836 756.11 826C760.972 826.43 765.946 828.31 770.726 828.878C782.176 830.238 796.705 829.842 808.089 828Z" fill="#CE4100"/>
<path d="M68.3934 920C77.8914 920.695 89.5524 917.518 96.4164 910.535C106.753 900.019 98.6474 887.731 86.3864 885C87.9414 883.343 94.1454 873.037 94.8794 873.017C105.327 882.216 117.094 889.636 128.884 896.978C132.297 899.89 129.058 901.881 126.834 903.965C116.593 913.566 96.6924 919.803 82.8744 920.987C78.6994 921.345 72.3024 921.6 68.3934 920Z" fill="#D54400"/>
<path d="M27.4103 811C19.7903 804.73 17.1603 785.302 18.4143 776C20.6613 759.32 38.9183 765.656 41.1753 776.729C42.3833 782.652 42.6183 801.03 40.4803 806.575C38.2423 812.381 32.7043 812.621 27.4103 811Z" fill="#FD6E00"/>
<path d="M780.1 661C778.177 670.869 778.066 683.315 764.611 683.076C759.056 682.977 753.119 680.869 751.588 675.033C749.859 668.442 754.581 647.77 756.11 640C759.084 638.102 762.538 639.152 766.475 643.15L779.652 658.177L780.1 661Z" fill="#0C255A"/>
<path d="M908.048 468C904.63 482.135 899.483 491.424 891.055 503C886.198 501.386 882.281 499.854 881.292 494.267C880.954 492.355 880.06 485.588 880.06 484C879.593 483.915 879.149 483.796 878.782 483.558C877.576 482.775 887.399 459.764 888.736 456.985L891.055 456C898.879 454.762 908.24 459.21 908.048 468Z" fill="#4772A0"/>
<path d="M431.244 656C431.88 645.834 436.252 636.279 435.237 626.004C431.293 621.917 427.095 641.815 425.246 643C429.645 622.27 427.779 603.816 429.203 583.459C430.925 558.855 441.756 570.126 443.223 586.516C445.512 612.092 437.671 632.32 431.244 656Z" fill="#DF4602"/>
<path d="M235.325 632C240.788 631.57 246.901 631.715 248.89 637.954C253.053 651.011 225.067 662.126 214.293 654.541C210.941 652.181 201.242 641.408 207.337 638C215.981 636.367 227.022 632.654 235.325 632Z" fill="#FD7600"/>
<path d="M867.345 727.72C863.412 723.796 865.435 705.001 865.049 698.517C864.627 691.426 858.567 682.299 870.529 682.958C890.995 684.084 887.486 729.223 873.49 729.997C872.051 730.076 868.308 728.681 867.345 727.72Z" fill="#FCC101"/>
<path d="M383.264 591C382.364 588.89 379.789 586.518 377.778 589.015C376.601 590.476 372.994 611.537 371.767 615.998C365.471 638.878 355.811 656.549 341.281 675C344.843 664.009 350.87 653.998 355.023 643.247C360.993 627.796 366.526 609.425 369.998 593.228C370.614 590.353 372.723 560.201 380.717 572.051C381.995 573.945 384.287 585.117 384.325 587.618C384.356 589.602 383.274 590.779 383.264 591Z" fill="#DF4201"/>
<path d="M638.159 420C633.151 418.443 629.296 422.714 627.285 426.622C622.398 436.121 622.271 446.912 621.166 457L619.112 454.103C619.108 439.597 618.114 425.133 616.129 410.711L618.167 408C618.72 394.437 626.666 389.107 635.16 380C636.621 393.504 637.972 406.205 638.159 420Z" fill="#FA6002"/>
<path d="M780.811 548.21C796.486 544.677 806.667 554.792 798.301 569.708C796.065 573.695 791.955 574.66 787.638 575.041C784.219 575.342 772.006 575.907 770.6 573.005C767.642 566.9 773.426 549.875 780.811 548.21Z" fill="#17488D"/>
<path d="M838.076 851C827.262 856.89 819.51 858.854 807.089 857C798.913 851.808 796.5 843.057 807.089 839C812.765 836.825 827.528 835.31 833.097 837.481C839.591 840.012 839.874 845.037 838.076 851Z" fill="#FD7300"/>
<path d="M504.214 641C505.622 639.06 499.956 638.068 498.216 638C496.035 637.914 494.807 638.687 493.219 640C495.814 621.642 496.422 587.694 501.75 572.004C503.588 566.59 505.487 572.926 505.95 575.764C509.46 597.318 504.93 619.704 504.214 641Z" fill="#D74402"/>
<path d="M418.249 826C423.159 833.16 429.703 839.338 435.242 845.99C418.188 846.211 407.099 842.828 394.259 832C394.136 824.229 400.41 823.328 406.764 823.999C410.826 824.428 414.54 827.688 418.249 826Z" fill="#F85F00"/>
<path d="M780.1 661C771.165 654.538 768.092 642.501 756.11 640C756.344 638.811 755.896 637.236 756.323 635.758C759.127 626.064 781.984 628.274 783.928 634.705C784.684 637.205 780.926 656.761 780.1 661Z" fill="#3C6695"/>
<path d="M258.315 826C258.64 826.028 259.871 826.989 261.695 827.073C271.307 827.518 280.713 825.633 290.297 826.005C290.622 827.596 289.885 828.108 288.681 828.879C285.035 831.212 267.501 831.913 262.313 832C249.582 832.215 236.819 829.289 224.433 833.113C224.103 834.386 224.346 835.706 224.329 837C222.879 831.416 222.833 823.212 223.256 817.381C223.388 815.567 224.276 814.44 224.329 814C227.409 814.331 228.568 817.307 230.99 818.835C240.498 824.833 247.672 825.07 258.315 826Z" fill="#B33401"/>
<path d="M310.294 881C315.055 876.225 319.723 870.153 324.786 865.998C325.914 865.073 326.398 863.57 328.281 864.005C330.339 866.336 319.281 879.489 317.291 882C312.329 888.262 300.414 898.874 297.424 904.62C296.128 907.109 296.112 909.296 296.3 912C286.526 908.758 281.195 906.269 272.31 901C289.988 902.484 299.263 892.063 310.294 881Z" fill="#BB3701"/>
<path d="M685.139 764C685.837 769.55 679.891 774.977 674.144 773C666.562 770.03 644.077 764.71 639.663 758.967C638.562 757.535 638.674 755.86 638.158 755C640.925 753.425 646.634 750.948 647.155 748C649.86 753.424 663.614 761.367 669.643 762.002C675.059 762.573 680.103 760.734 685.139 764Z" fill="#E34801"/>
<path d="M841.08 653.005C853.591 649.948 867.238 660.104 872.899 670.654C876.088 676.596 874.041 681.241 866.8 679.783C860.387 678.492 850.63 665.812 846.099 660.473C845.348 659.588 840.345 653.636 841.08 653.005Z" fill="#FBC301"/>
<path d="M665.148 719C663.146 719.594 665.144 721.999 665.636 723.014C668.22 728.342 671.736 733.864 671.141 740C669.536 741.612 660.964 736.168 659.151 735C662.469 735.564 661.177 732.809 660.39 731.26C658.237 727.02 652.518 721.571 649.523 717.132C646.073 712.018 643.157 706.391 640.159 701.01L665.148 719Z" fill="#EB4D00"/>
<path d="M419.249 797C428.396 795.932 434.938 791.646 442.156 786.416C444.954 784.389 450.172 778.266 452.883 777.147C458.696 774.745 451.005 784.04 450.236 785C442.395 794.793 431.116 803.188 428.245 816C424.121 809.167 422.027 804.275 419.249 797Z" fill="#C83E01"/>
<path d="M218.332 901L216.428 898.125C216.612 894.425 219.076 873.677 220.865 872.515L223.33 873C228.297 881.578 235.373 888.645 241.317 896.485C240.857 898.552 221.641 900.581 218.332 901Z" fill="#E14700"/>
<path d="M464.23 853C475.856 857.13 483.266 849.633 490.19 841.47C493.231 837.885 499.271 826.728 501.653 824.938C502.553 824.262 504.575 823.428 505.209 824.006C508.274 826.802 482.291 857.863 485.221 865C476.381 860.906 472.221 858.48 464.23 853Z" fill="#CA3D01"/>
<path d="M149.36 861C144.467 868.732 135.432 875.838 133.367 885C126.233 880.733 121.741 877.027 115.374 872C129.265 876.176 136.708 867.746 144.362 858C146.166 855.703 152.871 844.589 154.843 845.005C156.282 845.309 156.187 846.796 155.945 848.056C155.641 849.64 150.557 859.109 149.36 861Z" fill="#B73602"/>
<path d="M644.156 674C653.329 683.211 659.901 690.248 662.148 703.99C661.086 704.883 652.001 697.248 650.627 696.027C645.027 691.049 643.207 687.573 639.158 682C636.406 678.929 640.304 670.449 644.156 674Z" fill="#F47900"/>
<path d="M85.3864 682L85.2344 684.176L74.8094 692.625L72.3914 692C60.0964 701.221 51.0744 707.25 41.4044 720C37.7794 724.248 36.4464 724.581 37.4064 721C48.6494 704.342 72.5014 681.322 91.3844 674L92.3664 674.495L85.3864 682Z" fill="#FBD41B"/>
<path d="M51.4003 843C44.7273 838.921 39.5723 834.796 35.4073 828C36.5063 823.715 41.6013 822.194 45.4593 823.449C51.0803 825.279 63.5353 841.743 51.4003 843Z" fill="#FC7001"/>
<path d="M735.119 805C742.782 795.892 746.695 784.275 752.617 774.005L756.11 775C753.156 781.894 748.443 793.769 746.405 800.791C745.199 804.947 745.218 808.904 744.115 813C742.068 811.014 737.28 806.715 735.119 805Z" fill="#B93802"/>
<path d="M194.342 769C189.937 771.317 185.467 774.188 181.347 777C184.129 762.25 167.075 751.108 163.126 739.719C162.687 738.453 162.091 735.909 163.855 736.02C165.952 736.152 182.584 760.485 185.834 764.011C188.086 766.453 190.461 769.765 194.342 769Z" fill="#C83F01"/>
<path d="M242.322 728C244.523 734.347 244.578 745.286 254.317 744C248.933 746.242 242.974 747.6 237.324 750C240.486 736.212 234.715 722.599 233.331 709.005C235.283 708.622 235.728 709.912 236.528 711.296C238.538 714.768 240.789 723.58 242.322 728Z" fill="#D04101"/>
<path d="M223.33 873C221.524 874.044 221.603 875.74 221.34 877.511C220.187 885.284 218.399 893.171 218.332 901C214.003 901.548 210.792 901.708 206.337 902C211.604 894.095 214.372 886.21 216.333 877C217.304 872.436 218.382 867.72 218.332 863C219.65 866.086 221.645 870.09 223.33 873Z" fill="#BF3702"/>
<path d="M705.131 748C700.113 758.221 687.505 765.723 687.138 778C682.896 776.245 678.436 774.681 674.144 773C680.342 772.407 681.738 767.69 685.139 764C689.197 759.598 697.87 749.231 703.141 747.389C704.99 746.743 704.443 747.444 705.131 748Z" fill="#B93701"/>
<path d="M844.078 648.996C843.74 649.348 835.823 649.181 834.358 648.221L809.089 632.01C815.396 631.066 841.034 640.708 843.566 645.008C844.086 645.891 844.403 648.658 844.078 648.996Z" fill="#F9C102"/>
<path d="M564.189 885C557.244 883.535 550.172 882.44 543.198 881C554.621 882.686 559.578 850.278 563.689 850.02C565.887 851.588 564.951 851.852 564.394 853.694C561.624 862.844 554.294 878.266 564.189 885Z" fill="#C63A01"/>
<path d="M640.158 966C638.428 966.803 636.918 967.332 635.16 968C629.146 968.682 622.883 966.302 625.926 959.256C630.488 948.688 647.766 955.597 640.158 966Z" fill="#FCCE12"/>
<path d="M684.14 790C691.129 793.149 695.401 795.104 702.133 799C703.206 803.875 698.933 801.552 695.133 802.004L696.135 807C695.828 807.365 695.503 807.694 695.112 807.896C694.382 808.271 682.263 801.581 680.69 800.455L680.142 798C681.096 796.717 683.648 795.839 684.061 794.322C684.825 791.512 679.636 789.642 684.14 790Z" fill="#FD8501"/>
<path d="M644.156 674C641.238 673.585 640.164 679.468 639.158 682C638.84 681.562 637.478 681.076 636.742 679.964C632.522 673.584 628.592 666.657 627.173 659.001C633.727 663.087 638.804 668.626 644.156 674Z" fill="#C03601"/>
<path d="M388.262 890C388.414 896.894 385.155 902.962 386.258 910.005C390.083 909.363 392.974 910.344 396.259 911C391.149 911.425 385.242 910.406 380.265 911L386.263 890C386.919 889.937 387.604 890.056 388.262 890Z" fill="#B63501"/>
<path d="M41.4044 720C39.4684 722.552 36.6374 732.215 32.4084 729C34.1984 725.811 35.3924 723.984 37.4064 721L37.8974 721.98L41.4044 720Z" fill="#FCA40B"/>
<path d="M361.273 55C358.628 57.98 350.66 60.361 350.278 55C353.93 54.93 357.619 54.991 361.273 55Z" fill="#FD9C07"/>
<path d="M587.18 196C587.267 197.319 587.052 198.689 587.18 200L585.181 192C585.826 193.344 586.523 194.575 587.18 196Z" fill="#FD8508"/>
<path d="M590.179 217C592.047 225.523 592.578 221.343 594.681 223.97C597.832 227.909 594.84 241.784 595.197 247.487C596.523 268.657 608.39 299.669 604.933 320.26C601.489 340.771 580.946 320.611 570.187 323C566.133 323.311 561.799 322.48 557.184 320.508C483.751 308.909 467.799 384.464 475.904 441.958L474.227 445L472.745 446.983C471.636 446.181 469.285 437.022 467.244 439.003C466.405 439.817 466.936 445.424 464.241 446L463.231 431L461.122 428.551C459.15 389.234 447.65 331.382 402.523 321.524C364.342 313.184 327.813 342.013 314.14 376.164L311.294 378C306.881 377.321 301.04 371.724 298.418 376.626C293.1 386.569 301.843 397.684 299.138 406.339C297.558 411.394 293.248 402.31 289.534 408.734C285.443 415.81 287.553 424.093 292.28 430.242C293.584 431.939 299.525 433.974 294.61 436.812C292.378 438.1 289.646 437.91 286.797 439.993C280.779 444.393 283.241 447.681 282.085 453.279C281.232 457.405 276.351 460.663 278.819 465.986C279.725 467.939 282.77 468.628 283.105 469.196C284.153 470.976 282.38 474.356 282.315 476.513C282.147 482.154 283.483 489.754 280.31 494.503C276.029 500.911 263.854 500.447 257.619 497.197C250.673 493.574 251.043 482.619 244.024 478.797C240.631 476.95 233.791 477.443 234.325 472L235.421 470.079C250.519 467.482 254.142 457.846 245.492 445.304C224.512 414.886 210.891 452.424 230.484 467.779L230.327 470C230.939 472.13 228.607 474.276 228.5 475.673C228.379 477.255 230.665 477.704 229.927 480.995C229.097 484.697 226.617 486.932 222.848 487.095C209.835 487.658 208.041 461.121 191.343 471L188.68 470.978C179.066 461.11 166.391 453.892 152.843 451.212L151.36 449C151.733 444.789 146.602 439.386 142.691 439.258C138.49 439.12 135.603 444.484 132.428 445.549C121.742 449.132 124.199 436.368 123.416 430.455C122.537 423.808 111.987 415.834 105.379 415C102.269 414.94 101.748 411.766 104.379 410C104.407 399.851 107.281 399.895 116.374 401.99C114.102 396.607 108.809 398.801 104.463 396.415C94.2325 390.798 105.904 385.14 106.211 381.334C106.357 379.523 99.8546 373.539 104.379 374L105.843 372.188C112.737 374.026 139.793 360.186 137.446 353.284C129.564 345.76 123.007 337.252 117.774 327.761C108.49 318.192 96.4366 326.027 96.5176 338.19L94.3826 339C89.5476 339.132 83.3336 325.084 86.5186 323.124C87.5696 322.477 103.68 323.99 98.9256 316.954C98.0116 315.601 94.7256 315.852 93.6096 314.773C91.8976 313.117 91.9866 301.362 92.5926 298.708C93.3176 295.528 97.4486 294.024 96.3816 290C96.9046 287.979 98.5886 286.162 101.434 284.55C101.782 281.676 102.764 280.159 104.379 280C104.481 279.702 104.28 279.301 104.379 279C108.767 277.931 110.766 275.931 110.377 273C115.558 266.254 116.237 258.696 110.885 251.991C106.93 247.036 95.7166 240.826 98.3806 234L99.6906 232.227C104.88 231.537 109.181 228.531 112.592 223.208L115.374 223C117.949 221.744 122.628 221.054 125.37 222L127.083 223.879C126.234 231.71 128.01 239.831 132.115 246.569L131.368 249C132.911 263.818 136.576 266.818 142.363 258C142.682 255.172 148.514 255.335 149.36 258C150.709 259.336 151.621 261.418 152.096 264.245C157.712 269.888 163.013 275.757 167.545 282.273C169.853 286.188 169.801 290.644 167.388 295.638L169.158 301.425C169.36 305.191 168.977 312.783 166.353 315L165.96 317.37C150.753 326.175 152.993 362.517 173.282 362.224C181.856 362.1 212.18 349.449 198.478 338.23L189.996 329.53L190.344 327C190.175 323.728 197.036 322.392 199.955 322.109C211.962 320.944 218.65 328.078 220.443 339.625L221.886 342.352C237.708 352.369 236.035 366.375 215.569 359.686C210.226 359.183 210.919 362.009 217.648 368.164C219.174 370.177 220.077 371.908 217.333 373L215.815 374.907C200.659 374.854 193.129 407.948 202.681 416.357C212.702 425.179 247.596 413.057 242.028 401.099L230.772 387.414L231.327 385C232.148 383.518 233.701 383.122 235.987 383.812C237.852 377.015 245.574 375.148 251.794 374.87L253.318 373L255.331 371.727C266.466 376.306 299.582 356.606 282.026 345.442L268.861 335.6C267.617 334.743 267.739 333.413 268.312 332C264.634 329.144 266.151 321.266 267.327 316.854C268.421 312.751 270.791 305.192 275.309 305L277.789 304.469C286.452 313.931 313.921 301.321 319.855 294.16C319.855 294.16 320.667 290.107 322.289 282L322.932 279.769C328.642 279.29 333.323 277.326 336.976 273.875L339.282 274L341.43 274.042C348.299 287.864 365.189 278.299 373.064 270.53L375.267 271C376.81 270.542 378.606 271.17 380.655 272.885C383.322 271.33 382.193 269.368 377.267 267C374.475 266.779 374.643 262.688 377.267 262C380.143 259.032 385.798 258.06 389.657 260.328C402.621 272.044 417.802 266.831 429.623 256.093C433.858 255.319 437.988 257.306 442.012 262.055C449.461 257.452 455.855 257.369 461.196 261.806C470.828 273.331 478.188 274.299 483.275 264.71C485.99 262.364 489.339 262.471 492.305 264.351C500.773 274.158 510.511 275.241 499.29 261.352C495.351 248.15 509.209 252.494 516.816 255.047C518.83 248.262 522.239 245.85 527.042 247.811C533.5 254.744 534.315 249.1 534.474 242.295C540.086 223.074 569.917 230.055 561.701 250.678C559.921 254.78 567.305 257.489 567.329 253.339C563.458 237.311 566.817 230.923 577.405 234.174C579.166 230.996 580.758 230.605 582.182 233C582.841 234.092 583.127 236.452 585.871 236.869C590.494 237.57 590.538 220.054 590.179 217Z" fill="#FD8508"/>
<path d="M570.187 323C576.618 326.197 589.846 338.17 594.177 344C600.29 352.229 607.94 368.646 611.206 378.464C614.412 388.102 615.892 398.149 618.167 408C617.749 418.264 620.577 429.242 621.156 439.51C621.483 445.309 620.943 451.202 621.166 457C617.007 494.955 612.206 538.01 566.415 546.727C505.773 558.27 479.806 493.464 474.226 445C470.58 413.323 470.877 366.17 492.249 340.53C510.273 318.906 544.529 310.246 570.187 323Z" fill="#010405"/>
<path d="M463.231 431C464.502 463.372 463.267 504.635 441.21 530.47C418.075 557.569 374.183 557.484 346.279 538C302.07 507.132 294.033 425.103 311.294 378C324.427 342.16 361.669 311.697 401.483 319.273C449.579 328.426 461.613 389.806 463.231 431Z" fill="#020405"/>
<path d="M495.218 819C492.578 819.462 489.821 820.677 486.886 820.611C474.909 820.341 463.724 810.683 459.233 800C454.854 789.585 454.374 785.106 461.232 776C468.156 773.098 473.309 769.688 480.556 774.168C483.244 775.83 498.558 795.53 500.623 799.093C505.551 807.596 503.721 814.295 495.218 819Z" fill="#FDC70F"/>
<path d="M461.232 763C453.035 766.697 442.19 759.768 438.034 752.707C435.718 748.772 435.145 744.365 434.243 740C432.936 730.307 435.47 709.327 447.718 707.976C457.114 706.939 460.166 713.17 462.739 720.992C466.048 731.045 473.404 757.511 461.232 763Z" fill="#FDCA0E"/>
<path d="M248.319 712C240.483 709.277 237.081 705.211 236.317 696.505C235.528 687.511 239.218 687.293 246.32 685C254.864 682.242 272.163 677.753 280.81 677.014C292.342 676.028 296.202 682.226 289.734 691.932C281.857 703.75 262.825 714.521 248.319 712Z" fill="#FDCE12"/>
<path d="M476.949 564.157C480.88 563.542 485.09 569.082 486.419 572.302C492.759 587.677 487.321 609.732 479.587 623.862C477.264 628.105 469.09 642.609 463.784 634.946C460.386 630.039 464.581 613.961 465.218 607.488C466.201 597.502 465.948 572.225 473.71 565.991C474.606 565.271 475.831 564.332 476.949 564.157Z" fill="#FDCD10"/>
<path d="M367.27 727C355.629 738.579 336.148 726.729 339.529 713.741C340.148 711.365 356.497 693.39 359.245 691.431C360.578 690.482 360.866 690.481 362.272 690C366.318 688.615 369.015 688.619 372.615 691.153C382.768 698.297 374.479 719.829 367.27 727Z" fill="#FDC00D"/>
<path d="M535.904 578.109C538.335 577.472 540.417 580.509 541.401 582.297C546.417 591.413 546.626 625.401 545.205 636.508C542.644 656.522 531.897 637.46 529.501 628.203C527.121 619.008 524.273 581.156 535.904 578.109Z" fill="#FDCD0E"/>
<path d="M551.195 665C552.489 667.527 554.106 674.602 554.903 677.791C556.542 684.359 560.58 699.764 556.193 705C555.771 705.504 552.909 707.354 552.247 707.547C534.293 712.778 528.811 674.265 533.705 663.003C537.753 653.687 547.428 657.646 551.195 665Z" fill="#FDC90D"/>
<path d="M748.114 772C747.71 775.742 741.794 783.438 738.172 784.555C725.138 788.573 700.913 776.936 703.19 761.572C703.432 759.937 705.976 754.829 707.131 754C712.162 750.388 721.86 758.231 727.155 760.467C731.161 762.16 746.531 765.969 747.627 768.016C748.252 769.184 748.253 770.711 748.114 772Z" fill="#FDD615"/>
<path d="M371.269 669C372.048 662.606 380.536 654.164 382.264 648C396.705 623.377 401.694 634.209 397.966 657.208C397.014 663.085 392.703 681.938 386.555 683.794C377.929 686.398 370.251 677.353 371.269 669Z" fill="#FDB009"/>
<path d="M462.975 645.141C466.704 644.428 471.322 648.789 472.456 652.272C475.372 661.227 471.49 685.947 463.195 691.456C458.112 694.832 451.717 690.998 450.007 685.73C447.219 677.135 453.155 647.019 462.975 645.141Z" fill="#FDB40A"/>
<path d="M407.975 568.149C412.802 566.847 414.536 573.462 415.546 577.204C419.084 590.306 416.833 607.646 411.994 620.243C407.947 630.778 400.435 638.008 399.28 621.487C398.666 612.707 400.297 584.996 402.552 576.797C403.247 574.274 405.297 568.871 407.975 568.149Z" fill="#FDD212"/>
<path d="M333.033 634.222C341.601 631.99 338.932 643.968 337.585 648.802C334.751 658.972 322.328 679.945 309.314 674.477C307.845 673.86 304.906 670.001 304.511 668.293C302.56 659.845 307.663 654.717 313.278 649.486C315.754 647.179 331.026 634.745 333.033 634.222Z" fill="#FDCD11"/>
<path d="M342.292 633.996C339.649 627.291 342.18 620.048 342.322 613.541C342.536 603.699 340.62 586.498 344.772 577.994C348.294 570.78 352.38 578.633 354.033 582.743C358.942 594.947 357.539 610.685 352.457 622.681C351.458 625.038 345.893 636.434 342.292 633.996Z" fill="#FDC80F"/>
<path d="M516.936 818.191C521.839 817.105 529.006 821.303 533.997 822.705C539.316 824.198 560.741 828.389 563.156 830.534C568.575 835.345 562.24 849.061 557.142 852.45C544.965 860.545 508.182 848.975 508.192 832.5C508.194 828.5 512.868 819.092 516.936 818.191Z" fill="#FDC50E"/>
<path d="M575.933 843.171C580.089 842.354 611.305 849.695 615.519 852.15C621.382 855.566 622.758 861.663 619.033 867.366C611.888 878.304 581.701 868.483 574.198 860.488C569.995 856.009 569.451 844.445 575.933 843.171Z" fill="#FDAC0A"/>
<path d="M151.359 449C164.606 450.383 182.898 460.758 191.343 471C201.648 483.5 207.632 506.905 193.817 518.976C179.207 531.742 150.581 528.109 135.366 518C117.255 505.969 103.482 475.92 121.371 458C128.465 450.894 141.604 447.982 151.359 449Z" fill="#020304"/>
<path d="M234.325 472C233.595 471.909 231.288 470.504 230.327 470C218.124 463.598 212.498 431.977 230.826 431.98C240.295 431.981 253.185 449.493 252.304 458.411C251.557 465.959 241.68 472.913 234.325 472Z" fill="#CC4400"/>
<path d="M219.065 521.179C220.314 520.921 221.351 520.809 222.607 521.171C224.951 521.849 236.384 540.274 236.36 543.518C236.31 550.271 226.569 554.801 220.726 554.89C212.141 555.021 193.359 547.252 198.099 536.258C200.514 530.658 206.716 531.131 210.705 528.87C214.144 526.922 214.821 522.054 219.065 521.179Z" fill="#E65301"/>
<path d="M318.014 732.228C324.488 730.902 329.478 733.618 334.295 737.488C341.671 743.415 344.695 749.62 337.322 757.54C334.764 760.288 316.894 774.112 313.631 775.839C301.059 782.49 284.205 770.073 287.776 756.968C289.681 749.98 310.956 733.673 318.014 732.228Z" fill="#FDC20F"/>
<path d="M254.317 815C252.461 807.689 252.373 803.503 252.318 796C255.433 789.421 257.892 776.566 266.827 775.939C274.686 775.388 287.162 787.173 295.265 789.532C300.387 793.737 294.241 801.081 292.54 805.739C289.779 813.303 291.284 819.935 281.805 820.999C272.631 822.03 261.214 821.751 254.317 815Z" fill="#FDC60F"/>
<path d="M374.268 891C353.627 892.855 351.628 894.882 331.286 888C323.705 882.869 328.505 867.585 334.739 863.954C339.984 860.898 357.983 863.156 364.498 864.274C381.288 867.155 387.029 878.176 374.268 891Z" fill="#FDC40C"/>
<path d="M290.302 867C285.518 864.873 277.915 857.534 275.308 853C271.592 846.536 270.76 840.375 277.376 835.569C281.974 832.229 294.158 829.967 299.59 831.214C305.047 832.467 316.126 847.832 320.767 852.012C322.84 868.724 302.894 872.599 290.302 867Z" fill="#FDBF0F"/>
<path d="M406.254 889C406.011 888.967 405.129 888.109 403.836 887.958C399.079 887.402 393.097 890.029 391.445 883.23C390.387 878.877 396.222 871.506 400.247 869.491C411.98 863.615 429.937 866.325 438.241 877C442.341 882.272 449.031 901.214 440.55 903.801C431.76 906.481 425.93 894.289 417.936 890.813C413.486 888.878 410.455 889.566 406.254 889Z" fill="#FDAB0B"/>
<path d="M115.374 835C107.539 829.961 101.05 815.137 101.38 806C101.695 797.261 106.924 787.955 116.768 789.067C123.919 789.875 142.54 807.335 145.915 813.946C156.292 834.274 130.623 844.808 115.374 835Z" fill="#FDC310"/>
<path d="M213.159 705.242C219.797 705.074 223.621 709.918 226.201 715.628C234.573 734.162 215.019 731.446 203.331 734.493C193.738 736.994 181.256 746.719 173.355 736.495C157.459 715.922 199.691 705.584 213.159 705.242Z" fill="#FDCF0F"/>
<path d="M139.069 734.212C148.266 732.068 153.154 738.216 157.777 745.08C160.489 749.106 165.59 756.858 163.232 761.355C162.614 762.534 153.025 774.948 151.897 776.038C142.102 785.506 123.989 776.725 122.461 764.412C121.285 754.939 129.216 736.509 139.069 734.212Z" fill="#FDCB0E"/>
<path d="M193.342 875C180.556 873.283 173.367 872.098 161.355 867C151.644 859.111 157.688 842.466 169.118 841.186C177.363 840.263 198.277 848.986 201.846 856.993C205.897 866.077 202.667 872.514 193.342 875Z" fill="#FDC211"/>
<path d="M859.775 744.215C872.768 741.198 876.046 753.66 872.534 763.97C867.48 778.804 839.416 794.081 828.65 777.931C818.303 762.408 835.705 760.902 845.383 754.809C848.894 752.598 856.824 744.9 859.775 744.215Z" fill="#FDD010"/>
<path d="M807.919 769.22C814.615 768.9 815.634 777.038 815.008 782.402C812.879 800.631 780.769 800.303 769.169 792.436C761.755 787.408 758.375 776.812 766.835 771.162C774.677 771.82 782.748 772.559 790.637 772.041C796.185 771.677 802.719 769.469 807.919 769.22Z" fill="#FDD211"/>
<path d="M909.047 725C910.468 725.345 915.92 730.01 917.037 731.508C928.074 746.307 903.257 773.028 889.007 759.548C885.6 756.326 884.152 751.478 885.517 746.953C886.124 744.943 894.112 735.165 896.052 733C899.373 729.295 903.086 723.552 909.047 725Z" fill="#FDBE0E"/>
<path d="M931.038 700C931.723 708.076 929.574 720.014 918.985 717.587C912.838 716.178 911.151 710.051 909.047 705C909.922 696.061 907.394 680.088 922.52 683.031C927.775 684.053 930.643 695.344 931.038 700Z" fill="#DB4402"/>
<path d="M605.895 763.194C612.958 761.633 622.28 770.086 628.484 773.178C638.936 778.387 659.464 780.942 646.154 797.499C630.416 817.076 586.908 789.848 599.326 768.652C600.486 766.671 603.642 763.692 605.895 763.194Z" fill="#FDCC0E"/>
<path d="M680.141 798C683.595 799.489 693.369 804.834 696.134 807C697.13 807.779 702.813 813.944 703.563 815.068C710.287 825.143 703.438 836.115 691.741 835.897C677.351 835.628 647.45 818.398 658.698 801.048C664.225 792.524 672.273 794.607 680.141 798Z" fill="#FDCD0F"/>
<path d="M742.116 867C744.309 873.67 743.009 873.535 743.116 879C743.709 885.658 737.409 890.64 731.083 890.874C719.696 891.294 704.325 868.489 699.278 859.323L700.133 857C701.648 853.954 699.722 850.971 704.782 847.151C719.845 835.78 737.432 852.756 742.116 867Z" fill="#FDD112"/>
<path d="M559.908 716.211C564.101 715.255 566.019 716.122 569.207 718.479C573.216 721.442 589.312 742.65 590.493 747.177C594.934 764.198 575.209 762.413 566.15 753.538C559.732 747.251 546.249 719.324 559.908 716.211Z" fill="#FDCB0D"/>
<path d="M743.116 879C743.119 879.152 744.213 880.201 744.158 881.433C742.874 910.298 719.325 900.271 706.619 885.012C701.206 878.514 698.758 871.435 695.136 864C695.799 861.771 699.432 858.411 700.134 857C708.724 869.741 729.139 906.293 743.116 879Z" fill="#BC3801"/>
<path d="M104.379 374C89.4497 371.145 92.9017 349.596 94.3827 339C95.3517 332.072 96.7737 323.967 105.106 322.232C119.935 319.142 120.782 330.96 127.37 339.5C134.789 349.119 148.163 352.341 131.893 364.026C125.202 368.831 112.732 375.597 104.379 374Z" fill="#B03200"/>
<path d="M104.379 280C103.792 281.725 104.735 283.44 102.86 285.983C101.876 287.319 97.8956 289.734 96.3816 290C83.9366 292.187 66.1356 283.317 63.6006 270.258C62.3816 263.981 68.7486 254.866 73.3916 251C74.9036 249.741 82.3206 245.601 84.1096 245.231C101.26 241.677 94.7756 256.094 96.8236 266.058C97.9016 271.301 102.376 275.138 104.379 280Z" fill="#C33B00"/>
<path d="M63.1032 368.213C65.2922 367.711 68.5552 367.79 70.8072 368.093C75.0792 368.668 93.4192 380.077 95.2492 383.626C100.251 393.326 87.6142 400.804 80.4092 404.521C73.0412 408.322 66.0532 411.767 59.3592 404.538C53.4552 398.163 52.2132 370.712 63.1032 368.213Z" fill="#C83E00"/>
<path d="M69.1013 302.214C76.4633 300.514 84.0733 305.955 84.2173 313.472C84.3083 318.266 74.4813 344.506 71.3873 348.495C70.0963 350.159 67.7793 352.307 65.6863 352.786C54.7113 355.3 47.7303 348.763 49.6413 337.736C49.9553 335.928 60.7423 310.173 61.9733 308.077C63.0923 306.17 66.9523 302.71 69.1013 302.214Z" fill="#C73D00"/>
<path d="M104.379 410C104.374 411.752 105.076 413.327 105.379 415C105.874 417.739 105.595 418.991 106.983 421.899C109.673 427.538 116.427 429.228 113.929 437.052C110.554 447.619 82.4735 446.211 80.4115 435.479C78.0235 423.049 89.3455 398.143 104.379 410Z" fill="#C93E00"/>
<path d="M408.254 130C408.526 128.737 409.691 127.855 411.75 127.354C408.297 113.439 427.167 119.17 428.926 128.577C437.84 129.47 438.365 132.238 438.656 140.352C448.083 141.642 449.159 147.917 441.001 152.698C438.705 155.057 449.809 167.572 448.328 151.941C452.744 141.364 464.309 155.528 456.359 160.634L456.872 161.788C464.956 164.072 467.576 167.962 464.732 173.457C469.612 172.075 473.746 172.349 477.135 174.279C482.296 180 487.674 184.436 488.138 173.774C495.125 170.843 495.641 169.609 497.419 162.437C505.505 159.883 509.684 157.019 499.304 153.189C492.109 144.473 508.836 137.666 515.736 145.296C519.297 150.198 530.617 158.718 531.815 148.308L534.202 148C545.02 159.761 551.488 165.609 559.364 180.328C568.341 197.103 572.795 217.432 582.182 233C579.733 232.467 579.555 235.797 578.479 236.055C574.902 236.913 571.328 232.399 568.302 237.644C565.75 242.068 575.14 260.599 562.883 256.802C556.46 254.813 561.51 246.011 561.177 242.595C560.004 230.581 539.608 229.094 536.424 242.723C535.659 246.001 537.247 251.556 532.479 252.852C528.089 254.046 527.588 248.61 523.758 248.949C519.503 249.326 520.38 255.942 517.539 256.873C513.074 258.337 507.232 251.475 501.885 254.925C495.053 259.333 511.187 267.774 505.286 272.565C498.451 278.115 494.592 264.846 487.698 264.921C482.154 264.981 481.25 275.208 473.964 273.848C468.048 272.745 459.053 259.184 451.958 260.186C449.263 260.567 445.412 264.388 441.765 264.013C439.067 263.736 435.469 257.321 431.738 257.359C430.213 257.375 422.92 264.031 420.151 265.402C413.759 268.569 406.496 270.037 399.444 268.315C394.484 267.104 390.157 262.015 386.543 261.198C381.829 260.134 380.816 263.686 377.267 262L375.025 261.721C370.111 255.521 364.79 249.669 359.064 244.164C347.829 236.409 339.733 264.442 341.054 272.221L339.282 274C335.653 280.198 328.37 280.33 322.289 282L320.428 282.901C313.393 275.735 306.695 268.219 300.332 260.355C269.461 243.197 260.573 281.537 275.938 302.797L275.309 305C269.007 313.912 267.535 321.152 268.312 332L266.417 333.27C239.358 324.736 241.512 357.11 253.554 370.809L253.318 373L255.317 376.99C250.638 376.453 243.193 377.439 239.772 380.949C236.469 384.336 239.65 387.162 231.327 385L229.073 385.416C226.281 380.547 222.626 377.123 218.106 375.143L217.333 373C217.985 367.817 207.013 364.27 210.769 358.928C214.036 354.282 228.191 363.672 230.132 357.292C232.431 349.735 222.912 347.766 219.874 342.958C216.071 336.941 218.963 331.281 210.667 326.168C203.755 321.907 197.347 324.497 190.344 327L188.072 327.489C182.713 318.702 176.149 315.005 168.38 316.398L166.354 315C165.368 310.982 167.587 306.117 167.326 302.614C167.152 300.274 165.276 298.206 165.401 295.583C165.558 292.299 168.163 290.288 167.162 285.726C166.709 283.66 159.269 274.898 157.33 272.527C153.311 267.61 147.604 265.782 149.361 258L150.637 255.735C157.527 254.671 176.544 244.124 171.486 235.608C165.659 225.797 144.052 203.254 132.275 216.333C130.165 219.384 127.865 221.273 125.37 222C122.289 223.963 118.785 225.009 115.375 223L114.557 221.903C118.141 217.064 121.32 211.867 124.092 206.312L126.37 205L135.228 203.865C135.639 198.783 133.124 193.75 136.366 189L138.656 188.986C148.802 201.324 165.847 186.46 173.906 178.321L176.349 178C182.542 177 184.635 184.488 187.893 185.018C193.437 185.919 199.812 179.867 205.338 182L204.885 184.261C193.043 187.933 173.619 196.755 188.056 210.541C202.963 224.777 217.255 203.185 219.037 189.21C219.037 189.21 218.136 186.473 216.333 181C225.218 179.769 227.552 172.352 232.305 167.479C234.698 165.027 238.551 162.189 241.35 159.528C244.145 156.871 245.024 152.501 250.319 153L251.385 154.967C245.05 166.549 251.272 197.458 267.634 196.037C274.981 195.399 303.191 185.111 298.035 175.23C293.792 170.474 289.713 165.619 285.799 160.663L286.304 158C290.031 153.331 286.484 147.151 287.464 143.727C287.587 143.299 292.882 137.15 293.301 137C292.898 133.318 302.976 134.185 304.297 137L306.66 137.322C307.946 143.345 312.229 145.399 319.508 143.485L320.29 146L321.286 148.227C314.161 162.96 328.905 196.319 346.383 177.418C347.82 176.463 349.138 176.036 350.476 177.238C363.792 198.515 375.853 169.529 356.773 168.218C352.394 166.047 346.325 152.83 345.501 148.352L346.28 146C346.671 143.439 349.661 142.311 355.25 142.615L361.34 137.601C357.333 132.663 361.742 125.663 366.271 130L368.306 131.291C370.098 161.071 396.177 156.257 409.342 137.543C408.447 134.777 408.083 132.262 408.254 130Z" fill="#FD9113"/>
<path d="M286.304 158C287.512 159.321 288.462 161.437 289.793 163.014C295.963 170.327 307.738 176.606 295.231 186.431C288.334 191.849 272.591 199.309 263.875 197.932C248.621 195.523 242.471 163.167 250.319 153C251.818 151.057 260.787 146.071 263.299 145.494C274.81 142.851 279.582 150.648 286.304 158Z" fill="#F96400"/>
<path d="M237.324 90.9999C243.458 91.4559 247.691 94.7889 251.83 98.9879C254.206 101.398 264.772 114.221 265.016 116.63C265.915 125.503 246.948 133.739 239.772 134.03C233.953 134.267 226.564 130.759 223.33 126C220.71 122.147 217.545 109.325 217.71 104.659C218.091 93.8269 227.714 90.2859 237.324 90.9999Z" fill="#E45A00"/>
<path d="M207.336 129C214.714 136.557 223.529 143.041 212.245 152.411C201.588 161.259 186.261 165.754 177.348 152C170.285 141.1 168.009 119.347 184.93 117.093C195.443 115.693 200.604 122.105 207.336 129Z" fill="#F76601"/>
<path d="M318.291 98C318.488 98.195 318.515 99.701 319.253 100.499C324.43 106.099 330.748 112.843 331.286 121C334.835 124.162 330.485 128.402 327.405 130.71C325.355 132.246 307.874 138.948 306.077 138.683C305.281 138.566 304.733 137.742 304.297 137C301.419 137.404 295.302 136.283 293.301 137C286.58 133.533 284.151 128.201 285.373 120.56C285.713 118.438 296.012 101.455 297.867 99.068C303.946 91.244 311.296 91.103 318.291 98Z" fill="#F46701"/>
<path d="M165.353 163C171.249 166.659 179.997 168.706 176.348 178C174.117 183.685 157.457 194.332 151.412 195.564C145.852 196.696 139.072 194.413 136.365 189C133.54 183.35 131.766 164.967 134.494 159.629C140.96 146.977 157.574 158.172 165.353 163Z" fill="#D14B00"/>
<path d="M353.276 66C357.434 67.485 375.206 83.825 376.072 87.724C378.754 99.789 357.874 105.119 348.848 103.916C346.515 103.605 345.905 102.713 344.28 102C341.628 101.283 340.402 99.341 339.282 97C338.403 95.47 336.847 93.342 336.283 92C333.9 86.333 330.506 77.318 333.414 71.628C336.857 64.889 346.752 63.671 353.276 66Z" fill="#F66600"/>
<path d="M216.332 181C229.333 187.223 212.105 213.174 204.058 216.22C189.037 221.906 172.716 201.049 186.403 190.558C188.778 188.738 202.191 182.93 205.337 182C209.669 180.719 212.547 181.524 216.332 181Z" fill="#E25800"/>
<path d="M281.041 74.2437C305.91 70.5707 293.297 106.336 282.733 106.992C277.132 107.34 261.65 92.9807 261.329 87.4227C260.924 80.4257 275.4 75.0767 281.041 74.2437Z" fill="#FD7401"/>
<path d="M849.82 602.232C859.793 600.671 879.677 611.115 884.46 620.099C890.491 631.429 882.862 641.029 870.236 637.327C867.185 636.433 848.178 624.507 845.55 622.024C838.001 614.892 838.265 604.04 849.82 602.232Z" fill="#FCD833"/>
<path d="M895.807 639.219C908.642 637.14 926.676 665.597 912.79 671.24C895.878 678.112 878.178 642.075 895.807 639.219Z" fill="#CE3E01"/>
<path d="M785.799 585.201C789.812 584.024 810.147 584.736 814.094 586.492C822.422 590.195 823.478 603.099 815.645 604.056C809.175 604.846 785.443 601.412 783.31 594.297C782.497 591.584 782.526 586.161 785.799 585.201Z" fill="#FDD51E"/>
<path d="M507.213 121L505.279 122.509C503.238 121.9 497.706 120.882 497.435 123.904C496.918 129.645 506.656 124.294 508.213 122C518.057 130.53 525.625 138.675 534.202 148C532.259 151 533.952 154.992 528.856 154.947C519.514 154.864 520.386 151.891 515.244 147.466C510.999 143.812 503.566 141.639 500.169 147.456C496.542 153.665 506.493 151.308 507.244 156.558C508.231 163.454 499.987 162.089 498.671 163.955C497.759 165.249 498.49 168.45 496.7 170.982C494.723 173.779 490.483 173.713 489.674 174.95C487.916 177.639 491.999 182.495 483.772 181.963C478.919 181.65 477.075 173.494 470.878 174.252C468.911 174.492 465.138 177.894 462.671 174.024C461.077 171.525 464.837 169.794 464.232 167.525C463.76 165.756 456.612 166.439 454.698 161.963C453.295 158.681 457.356 158.363 457.326 156.542C457.271 153.249 453.127 147.327 450.707 150.972C449.266 153.142 451.867 160.511 446.53 161.888C443.957 162.551 438.228 156.105 438.452 153.659C438.752 150.38 442.875 149.755 443.764 148.021C446.939 141.823 439.034 143.925 437.139 141.603C435.219 139.248 437.121 135.325 435.759 132.983C434.43 130.698 429.602 131.59 427.655 130.093C425.844 128.701 426.301 125.372 424.551 123.934C423.245 122.862 413.978 120.255 413.257 121.005C413.602 126.183 415.788 130.416 408.254 130C405.748 131.49 403.789 129.595 405.255 127C405.062 120.052 413.939 115.145 420.01 114.26C429.898 112.818 442.03 116.006 452.727 114.991C457.579 114.531 462.555 112.314 467.693 111.964C475.385 111.441 483.244 114.036 490.504 112.738C492.177 112.439 493.704 112.182 493.219 110C498.055 113.64 502.601 117.056 507.213 121Z" fill="#FDA117"/>
<path d="M405.255 127C406.187 128.066 407.831 129.444 408.254 130C410.737 133.267 412.683 136.462 410.303 140.557C407.435 145.49 391.636 154.887 385.775 155.092C372.364 155.561 366.348 141.458 366.271 130C362.895 129.486 363.817 121.084 367.271 121C369.663 114.419 376.911 110.551 383.632 111.087C391.841 111.741 400.02 121.017 405.255 127Z" fill="#FC7803"/>
<path d="M331.285 121C333.703 116.015 341.493 113.408 346.784 113.891C348.995 114.093 348.433 116.557 351.018 117.759C354.701 119.473 359.845 118.852 363.821 118.996C365.743 119.065 367.828 117.982 367.27 121C366.403 123.385 366.253 127.385 366.271 130C357.336 131.58 363.876 135.057 363.356 138.368C363.289 138.795 357.206 143.84 356.83 144.056C353.343 146.056 349.66 143.967 346.279 146L343.842 146.213C338.26 140.173 328.195 139.46 322.722 146.059L320.29 146C317.543 144.154 314.929 146.329 311.886 145.992C306.672 145.414 306.28 140.851 304.296 137C308.212 136.45 323.283 131.059 326.625 128.838C331.309 125.725 329.722 124.223 331.285 121Z" fill="#FDA415"/>
<path d="M403.959 71.2113C418.597 66.8773 438.693 95.7913 424.578 104.832C405.352 117.147 389.03 75.6313 403.959 71.2113Z" fill="#F76901"/>
<path d="M344.28 102C343.509 101.662 342.187 102.381 340.776 101.021C339.602 99.888 339.818 97.933 339.282 97L344.28 102Z" fill="#FD9405"/>
<path d="M844.074 363C854.608 365.675 871.689 378.22 878.06 387C892.252 406.557 895.945 432.618 891.055 456C889.711 462.426 880.059 482.492 880.059 484C867.887 500.298 852.568 514.302 833.341 521.763C772.029 545.555 717.609 500.503 733.12 436C736.686 421.169 744.956 405.439 755.111 394C776.432 369.981 811.952 354.844 844.074 363Z" fill="#030406"/>
<path d="M126.37 205C126.191 206.961 125.149 209.583 124.21 211.343C122.943 213.715 117.387 220.637 115.375 223C111.411 227.655 105.448 235.88 98.3815 234C97.1435 233.671 92.3235 228.644 91.8315 227.056C89.4055 219.226 97.7565 205.025 102.557 198.677C103.285 197.714 107.958 192.245 108.377 192C116.16 187.449 127.224 195.664 126.37 205Z" fill="#C94001"/>
<path d="M507.213 121C507.567 121.303 507.857 121.692 508.213 122C508.658 124.594 507.56 124.908 505.973 126.258C495.275 135.348 488.453 114.922 507.213 121Z" fill="#FD9113"/>
<path d="M72.3918 692C75.3598 689.774 82.7798 682.448 85.3868 682C85.4708 681.985 86.1028 682.848 86.7198 682.72C93.0398 681.406 93.9848 679.496 99.7748 685.105C110.207 695.21 106.79 705.094 96.2938 713.412C83.6718 723.416 64.0228 715.316 68.8438 699.942C69.7778 696.962 76.5858 693.886 72.3918 692Z" fill="#FDAA08"/>
<path d="M66.3942 728C73.2612 740.453 62.4702 756.741 47.8752 749.027C45.0012 747.508 36.8462 739.983 36.4062 737C35.5522 731.2 42.9352 718.186 49.1592 717.167C55.1572 716.185 61.9842 724.686 66.3942 728Z" fill="#FCA40B"/>
<path d="M134.121 658.264C141.029 657.331 149.613 659.814 148.391 668.444C147.389 675.521 121.103 682.913 115.39 680.48C112.204 679.123 106.062 671.152 109.367 667.485C111.304 665.338 130.503 658.753 134.121 658.264Z" fill="#FCD81D"/>
<path d="M159.453 653.098C160.298 651.901 185.524 645.78 187.859 645.913C190.982 646.09 194.083 649.481 193.947 652.518C193.569 660.986 157.228 670.364 159.453 653.098Z" fill="#FCA209"/>
<path d="M104.379 279C105.222 276.439 109.109 274.651 110.377 273C114.996 277.947 109.274 279.672 104.379 279Z" fill="#FD9113"/>
<path d="M322.289 282C324.086 285.101 323.716 291.794 321.742 294.952C319.192 299.034 298.618 308.894 293.566 309.763C287.084 310.878 280.236 309.496 275.308 305C267.286 297.68 263.963 272.61 269.482 263.671C272.079 259.465 280.018 254.762 284.889 254.09C301.15 251.847 307.125 265.416 315.78 276.012C317.118 277.651 321.824 281.197 322.289 282Z" fill="#FC6700"/>
<path d="M190.343 327C203.531 340.947 213.536 345.937 191.014 358.171C183.943 362.013 178.302 365.056 169.825 364.019C150.797 361.693 148.446 322.094 166.353 315C178.501 310.187 183.696 319.97 190.343 327Z" fill="#D74F00"/>
<path d="M138.091 375.23C150.312 372.655 153.527 382.172 159.844 389.012C165.421 395.05 174.85 400.095 172.14 409.296C170.77 413.944 149.868 424.273 144.78 424.912C117.667 428.317 117.024 379.668 138.091 375.23Z" fill="#D24A00"/>
<path d="M217.332 373C224.138 373.691 227.46 380.51 231.326 385C233.451 387.467 243.636 399.06 244.073 400.741C246.661 410.69 238.435 413.908 231 417.174C202.468 429.706 188.87 414.927 200.315 386.477C203.442 378.705 207.702 372.022 217.332 373Z" fill="#D95000"/>
<path d="M149.36 258C147.964 258.183 143.521 258.284 142.363 258C139.354 261.076 130.651 252.941 131.367 249C126.234 242.103 123.676 230.414 125.37 222C125.831 219.711 130.904 214.51 133.028 213.161C141.444 207.813 148.498 210.344 155.834 216.024C158.126 217.799 172.217 232.695 173.219 234.624C179.084 245.921 158.077 256.856 149.36 258Z" fill="#CE4700"/>
<path d="M268.311 332C275.582 341.702 299.804 347.593 284.775 361.97C277.323 369.099 263.59 378.355 253.317 373C244.822 368.571 241.043 345.737 244.586 337.766C248.168 329.71 261.179 327.908 268.311 332Z" fill="#DD5400"/>
<path d="M130.095 269.233C142.318 266.715 145.226 279.682 151.381 287.478C156.304 293.714 167.294 298.931 155.691 306.833C149.172 311.272 135.92 317.07 128.105 315.755C106.551 312.128 115.443 272.252 130.095 269.233Z" fill="#BC3900"/>
<path d="M377.266 262C377.457 262.919 377.443 266.047 377.266 267C380.075 268.307 378.203 271.675 375.267 271C370.046 277.749 355.116 285.721 346.534 282.245C344.517 281.428 339.698 276.03 339.282 274C337.314 264.405 345.76 233.468 360.226 242.547C361.155 243.131 374.25 257.087 375.271 258.52C375.967 259.498 377.031 260.866 377.266 262Z" fill="#F66703"/>
<path d="M179.055 423.215C183.264 422.245 187.811 422.994 191.284 425.56C196.072 432.542 215.221 450.919 201.711 457.873C188.114 464.873 169.142 441.695 171.541 430.726C172.137 428.003 176.346 423.839 179.055 423.215Z" fill="#CE4400"/>
<path d="M142.363 258C144.442 264.465 136.561 266.272 132.779 263.08C131.255 261.794 129.204 251.19 131.368 249C133.139 251.38 139.823 257.377 142.363 258Z" fill="#FD9113"/>
<path d="M375.267 271C375.71 270.427 377.152 267.611 377.266 267C389.126 265.062 383.583 282.299 375.267 271Z" fill="#FD9113"/>
<path d="M501.215 350C509.083 339.244 517.688 332.338 531.152 329.449C585.977 317.688 609.467 382.241 607.177 426.005C572.2 426.502 537.283 427.381 502.215 427C501.032 426.135 499.944 425.108 499.367 423.735C497.212 418.609 495.973 407.601 495.325 401.633C493.417 384.077 494.502 366.265 501.215 350Z" fill="#FB6800"/>
<path d="M537.2 438L536.996 440.415C531.651 443.876 530.012 450.492 530.145 456.532L528.204 458C524.713 458.097 517.638 461.895 515.8 465.084C511.039 473.347 522.144 483.163 523.021 490.764C523.688 496.547 516.604 505.93 522.119 510.587C526.198 514.032 539.987 510.305 545.706 510.01C561.68 509.186 576.886 512.494 592.172 516.495C577.1 536.808 548.821 539.518 527.535 527.169C509.487 516.697 500.386 497.287 494.72 477.998C492.989 472.108 485.943 444.016 488.358 440.142C504.256 436.437 520.947 438.343 537.2 438Z" fill="#FDCD05"/>
<path d="M608.171 438L608.914 452.112C610.039 458.695 603.724 462.833 598.175 460C594.878 459.968 591.288 457.67 587.194 459.518C582.715 461.541 582.511 471.523 577.035 473.351C572.189 474.968 550.638 477.618 545.673 477.02C533.767 475.586 539.448 457.686 528.204 458C527.73 450.162 529.86 441.736 537.2 438C558.664 437.547 583.596 435.244 604.761 436.941C606.386 437.072 606.839 436.669 608.171 438Z" fill="#FDEB1D"/>
<path d="M502.215 427C499.364 426.969 488.525 427.559 487.153 426.569C482.356 401.017 485.595 371.354 501.215 350C500.85 358.012 498.17 365.565 497.229 373.512C495.011 392.243 497.729 408.909 502.215 427Z" fill="#D94501"/>
<path d="M608.171 438C609.796 439.625 609.398 454.092 609.218 457.548C608.478 471.775 605.315 486.447 601.162 499.998C585.62 487.232 613.228 470.904 598.175 460C600.134 460.019 607.272 456.98 607.96 455.797C609.278 453.531 607.434 441.595 608.171 438Z" fill="#F9D40A"/>
<path d="M336.283 358C347.421 342.451 361.59 330.575 381.728 328.964C433.85 324.795 450.473 378.944 451.273 421.543C451.295 422.703 450.604 427.811 449.627 428.064C415.432 429.231 381.453 432.338 347.278 432L333.764 432.548C330.791 432.182 329.717 411.697 329.527 407.273C328.836 391.181 329.519 372.661 336.283 358Z" fill="#FB6800"/>
<path d="M358.274 444L359.909 445.892C358.077 450.625 357.865 454.995 359.274 459L358.888 461.105C351.827 463.261 345.192 465.344 348.406 473.973C352.619 481.544 354.855 489.259 355.116 497.12C349.72 507.741 351.559 512.466 360.632 511.294C380.973 507.83 401.003 508.679 420.932 513.553C431.978 515.653 433.711 509.606 430.848 500.334L432.244 498L432.546 495.272C437.241 490.596 441.536 485.541 445.433 480.11L448.237 480C443.515 503.684 432.907 529.667 407.275 536.521C355.146 550.461 320.522 500.034 318.249 453.542C318.058 449.636 317.426 446.213 322.012 445.223C334.049 444.48 346.257 444.682 358.274 444Z" fill="#FDCB03"/>
<path d="M448.237 480C442.68 485.821 438.977 493.325 432.244 498C431.777 498.109 431.317 498.179 430.878 498.111C423.989 497.043 430.183 478.724 433.136 474.521C438.922 465.051 425.399 457.098 419.405 464.781C417.227 470.017 414.043 473.917 409.854 476.481C408.744 476.941 388.5 479.58 386.068 479.766C371.536 480.88 368.698 477.619 364.449 463.38C362.389 461.913 360.663 460.453 359.274 459C355.906 459.113 356.431 459.656 356.245 456.521C355.991 452.247 357.447 448.097 358.274 444C377.598 442.904 397.272 441.427 416.709 439.959C425.156 442.206 443.675 436.875 450.596 439.139C453.185 439.986 452.321 448.01 452.225 450.49C451.865 459.791 450.057 470.872 448.237 480Z" fill="#FDED1D"/>
<path d="M336.283 358C330.793 382.627 329.621 407.077 334.334 431.946C338.634 432.093 342.976 431.957 347.278 432C337.421 434.298 326.42 432.371 316.286 433.005C316.087 412.162 319.082 388.488 328.408 369.622C330.556 365.276 333.514 361.866 336.283 358Z" fill="#DC4801"/>
<path d="M153.358 460C152.863 461.572 151.49 462.476 149.24 462.712C136.111 472.429 185.907 513.65 180.712 480.169L182.346 478C201.947 502.291 182.658 522.515 155.561 515.297C138.139 510.656 122.353 493.762 125.609 474.74C127.631 462.927 142.624 456.328 153.358 460Z" fill="#CB3E00"/>
<path d="M153.358 460C164.31 460.226 175.754 469.831 182.346 478C188.269 507.262 160.203 492.769 150.361 479.498C145.399 472.808 140.813 459.742 153.358 460Z" fill="#FD9033"/>
<path d="M232.06 209.242C239.283 208.028 243.91 210.285 249.648 214.17C254.02 217.13 265.413 228.147 266.853 232.953C270.176 244.048 260.048 254.272 250.309 257.488C221.259 267.081 202.358 214.234 232.06 209.242Z" fill="#FB6600"/>
<path d="M185.071 244.234C198.085 241.542 200.155 250.623 206.824 258.012C213.909 265.861 227.407 272.977 214.658 282.825C210.612 285.95 197.65 292.227 192.758 292.91C162.7 297.108 167.356 247.898 185.071 244.234Z" fill="#C43E00"/>
<path d="M346.279 146C350.592 151.563 350.826 158.556 354.275 163.501C357.834 168.605 361.069 165.863 364.677 168.094C369.508 171.083 370.084 183.615 364.022 186.243C356.255 189.61 353.048 182.797 348.671 178.043C341.476 184.658 334.341 189.237 326.24 180.548C318.718 172.48 313.817 155.777 320.29 146C326.286 136.944 339.622 137.414 346.279 146Z" fill="#F16302"/>
<path d="M320.012 203.23C329.769 201.196 335.685 207.379 336.02 216.766C336.391 227.121 319.634 244 309.333 244.541C296.096 245.237 278.003 227.699 286.278 214.474C291.085 206.791 303.362 209.219 310.57 207.776C313.531 207.183 317.013 203.855 320.012 203.23Z" fill="#F36202"/>
<path d="M233.089 279.198C251.272 276.63 257.895 326.261 234.855 326.828C222.811 327.125 198.867 304.58 210.301 292.466C213.16 289.437 229.206 279.746 233.089 279.198Z" fill="#F36201"/>
<path d="M372.973 193.211C374.609 192.724 377.008 192.783 378.708 193.057C383.486 193.83 398.157 209.276 398.341 214.533C398.71 225.091 369.678 242.535 361.399 226.373C357.875 219.493 366.15 195.241 372.973 193.211Z" fill="#F16302"/>
<path d="M456.935 126.104C460.124 125.271 464.855 131.282 459.528 132.838C454.606 134.276 452.952 127.145 456.935 126.104Z" fill="#FD9113"/>
<path d="M771.104 393C773.098 391.361 774.412 392.672 775.047 396.935C775.063 393.802 786.211 393.891 788.183 394.819C791.185 396.232 792.851 398.367 790.096 401L790.68 402.25C759.834 435.577 773.883 458.418 807.501 420.046L810.088 420C812.684 416.961 814.848 420.43 815.831 423.242C819.559 423.86 824.474 426.31 821.083 430L821.367 432.497C817.173 435.767 800.975 458.824 810.043 461.03C820.583 463.595 839.016 444.614 842.823 435.239L845.074 435C845.638 429.093 856.025 438.463 856.91 440.58L857.355 446.061C864.377 444.267 866.95 444.704 869.931 451.688C875.059 454.178 877.768 457.282 878.06 461C875.5 468.874 874.004 473.141 869.064 480L867.934 479.737C842.147 511.645 793.932 510.864 759.115 495.923C756.018 495.818 753.351 495.177 751.112 494C728.899 461.429 743.654 417.709 771.104 393Z" fill="#82C1D7"/>
<path d="M878.06 461C875.64 457.134 870.908 455.488 868.495 453.069C866.995 451.564 866.193 448.164 865.077 447.45C862.663 445.904 858.445 449.337 856 447.572C854.16 446.244 855.816 442.003 854.593 439.976C853.895 438.819 851.644 438.692 850.679 437.847C848.944 436.328 848.257 433.047 845.074 435C844.296 434.606 843.497 433.963 843.6 433.169C844.797 423.944 844.493 418.493 833.429 423.762C829.812 425.485 826.564 427.929 823.526 430.499L821.083 430C820.669 425.027 815.135 425.594 814.252 424.78C813.956 424.506 813.498 420.411 810.088 420L809.818 416.993C825.749 395.568 812.641 385.619 792.938 401.288L790.096 401C789.564 393.332 782.569 398.089 777.107 396.005C776.275 398.137 779.329 400.163 779.108 401.474C778.874 402.867 774.879 403.576 774.147 402.962C773.592 402.497 773.459 394.356 771.104 393C830.149 339.851 902.917 384.536 878.06 461Z" fill="#8FD5E9"/>
<path d="M869.064 480C842.892 516.341 780.57 537.194 751.113 494C758.402 491.436 765.214 496.788 771.895 498.709C799.52 506.649 832.391 506.7 856.397 488.828C860.189 486.004 862.938 481.842 866.756 479.19C868.374 478.067 869.434 476.968 869.064 480Z" fill="#9AD9EC"/>
<path d="M546.694 335.57C560.992 335.395 583.756 350.717 578.735 367.054C573.424 384.335 537.104 361.043 534.416 349.293C532.26 339.867 537.901 335.678 546.694 335.57Z" fill="#FDA839"/>
<path d="M391.028 336.254C403.433 334.734 424.495 348.287 425.291 361.468C426.07 374.362 416.781 376.135 406.275 372.479C398.919 369.918 382.411 356.684 380.677 349.057C379.022 341.775 384.189 337.092 391.028 336.254Z" fill="#FDA738"/>
<path d="M432.244 498C440.581 524.678 417.674 514.088 402.628 512.128C395.567 511.208 387.888 510.676 380.775 511.01C374.125 511.321 358.87 514.936 353.299 512.477C346.416 509.439 352.576 500.565 353.21 496.44C354.95 485.123 339.567 471.616 348.329 463.552C349.717 462.275 357.571 459.11 359.274 459C369.438 458.342 366.509 470.636 372.206 475.562C379.829 482.154 398.979 473.667 408.546 474.793C417.482 472.835 415.228 453.078 431.939 461.804C443.218 467.693 429.906 481.746 429.477 489.761C429.289 493.27 431.373 495.214 432.244 498Z" fill="#010406"/>
</g>
</g>
<defs>
<clipPath id="clip0_576_4">
<rect width="1024" height="1024" fill="white"/>
</clipPath>
<clipPath id="clip1_576_4">
<rect width="1024" height="1024" fill="white"/>
</clipPath>
</defs>
</svg>
