<svg width="1024" height="1024" viewBox="0 0 1024 1024" fill="none" xmlns="http://www.w3.org/2000/svg">
<g clip-path="url(#clip0_576_411)">
<path d="M39 595C45.249 598.621 50.852 606.982 53 614C57.227 614.411 61.461 620.874 61 625C65.177 631.012 69.562 636.921 74.155 642.726C74.292 646.791 69.652 647.017 67 645C64.79 645.452 62.654 644.481 60.593 642.089C92.362 711.538 164.066 766.131 238.371 784.319L242 787L246.438 785.908C262.412 787.154 278.572 787.424 294.916 786.717C299.145 786.786 302.708 787.798 300.34 792.368C297.179 798.47 217.653 803.374 208.429 801.015C182.482 794.581 173.283 808.727 161.014 828.568C154.857 838.524 135.374 875.429 135.929 885.171C136.983 903.668 176.535 926.466 194.509 919.882C214.758 895.478 235.078 870.594 255.47 845.232C264.562 841.188 258.368 854.301 254.518 858.184C242.278 871.521 232.482 886.571 224.079 902.449C211.4 926.406 214.368 930.667 240.525 938.276C252.565 941.779 300.557 952.399 310.331 946.393C320.806 933.723 330.802 920.606 340.319 907.044C342.118 906.603 342.975 907.918 343.545 909.62C338.709 919.761 334.276 930.089 330.246 940.606C329.543 942.953 328.111 948.431 329.515 950.5C334.459 957.786 391.626 963.635 400.74 963.879C408.282 964.081 421.667 964.311 427.818 959.903C432.11 954.417 435.646 948.268 438.426 941.456C439.942 939.43 441.485 939.526 442 942C442.765 942.099 443.805 942.266 444 942.88C444.655 944.938 444.798 957.81 442 958.5C446.173 961.785 448.791 963.428 454.16 965.112C473.044 971.035 508.032 971.152 527.633 969.166C540.856 967.826 550.477 966.022 550.604 950.937L552.594 930.541C555.473 921.222 561.447 932.99 562.466 937.858L567.376 954.337C570.082 963.941 576.348 965.376 585.644 966.01C598.148 966.863 609.993 965.937 622.439 964.691C631.28 963.806 672.239 958.619 678.446 953.698C682.926 950.147 683.21 944.021 683.038 938.607C682.929 925.604 690.87 939.355 693.352 944.596C695.973 948.948 699.965 950.723 704.833 951.499C721.26 954.118 769.334 944.695 785.043 939.291C791.819 937.435 792.974 936.068 792.077 929.242C790.439 916.784 784.329 903.61 778.876 892.409L779 890C775.849 889.529 778.562 886.539 779.692 886.825C785.807 888.375 801.337 910.324 804.404 918.563L814 931L816.082 929.866C830.362 933.511 851.985 924.389 864.656 917.28C891.918 901.985 892.231 891.671 884.753 863.221C877.407 835.276 865.188 791.631 827.947 798.662L825 797C822.01 797.825 821.01 797.158 822 795L825.397 792.444C838.116 790.274 850.532 786.584 862.45 781.649C864.47 781.149 865.277 781.882 865 784C879.921 798.692 888.477 820.617 895.271 840.229C900.219 854.511 911.734 886.661 909.916 900.415C908.026 914.712 892.456 923.494 880.677 929.177C861.151 938.596 839.719 944.319 818.372 947.872C803.691 950.316 791.8 954.763 777.184 957.684C761.431 960.831 742.482 963.633 726.495 964.995C715.338 965.945 701.88 964.726 691.585 966.085C686.107 966.808 678.442 970.261 672.022 971.522C644.799 976.867 608.091 981.271 580.51 979.99C574.436 979.708 566.436 977.479 560.503 977.982C554.999 978.447 547.468 981.09 541.357 981.857C513.501 985.352 483.431 984.436 455.792 979.708C450.61 978.821 441.397 975.236 437.429 975.061C433.684 974.895 427.63 976.901 423.542 977.042C393.22 978.091 359.293 974.071 330.002 966.498C326.092 965.487 320.82 962.579 317.438 962.062C311.194 961.107 303.101 962.483 296.51 961.99C272.943 960.226 240.72 954.297 218.753 945.747C214.194 943.973 204.138 937.851 201.291 937.209C197.394 936.33 192.562 937.451 188.516 936.984C167.512 934.56 121.444 916.489 118.088 892.413C116.334 879.833 120.635 877.945 124.879 868.379C131.647 853.127 137.138 837.169 144.831 822.331C152.5 807.54 162.167 794.124 173 781.533C130.813 751.232 91.277 714.62 62.184 671.316C54.959 660.563 39.677 636.09 37.454 624.046C36.758 620.278 37.589 616.191 36.557 612.943C35.8 610.564 26.413 597.332 24 593C26.22 586.027 35.818 590.028 39 595Z" fill="#CB923C"/>
<path d="M481 33L482.188 35.015C480.684 39.446 481.475 44.209 484.56 49.304L483 51L479.75 50.96C452.923 33.093 416.181 36.663 387.042 46.917L384 46C383.006 47.742 381.006 48.742 378 49L377.236 51.702C368.988 55.97 361.616 61.608 358.562 70.726L356 72L356.974 75.716C352.98 96.039 353.165 116.641 357.53 137.524L356 141C368.068 199.026 383.441 256.356 403.618 312.148L404 317C400.566 320.358 394.205 321.37 390 319L386.33 313.815C372.349 274.423 359.7 234.61 348.384 194.376C339.384 165.508 329.334 136.725 314.049 110.563L313 105C310.242 104.372 307.96 101.976 306.154 97.812C303.607 95.506 302.556 93.235 303 91L301.167 90.873C280.68 69.926 251.554 78.233 229.175 91.519L226 91C224.446 90.545 223.749 89.211 223.91 87C213.625 91.866 203.943 98.311 194.864 106.336C189.068 107.727 185.716 110.783 184.809 115.506C182.594 120.255 173.422 123.108 173 117C194.553 87.362 254.703 52.158 291.757 63.743C294.947 64.741 301.796 68.929 303.504 68.925C305.448 68.921 320.226 62.492 324.989 61.489C331.831 60.048 337.024 60.855 343 60L344.612 61.628C341.335 71.38 339.202 80.164 339.897 90.667C341.705 79.768 344.015 68.234 347 58C348.524 56.444 350.486 52.158 352.487 49.988C378.831 21.414 447.501 17.071 481 33Z" fill="#DAA954"/>
<path d="M701 66L701.743 68.36C688.945 77.562 678.533 87.6861 673.288 103.086C675.717 97.9601 678.447 93.0031 681.479 88.2141C684.947 84.791 696.575 81.289 700 85L699.645 88.147C683.148 107.869 674.604 135.894 668.955 161.015C658.581 213.339 647.033 265.367 634.312 317.098C638.698 316.279 640.594 317.246 640 320C633.143 322.514 622.293 321.695 616 318L615.151 315.357C630.214 264.095 643.592 207.151 649.154 153.82C652.018 126.369 656.882 76.731 631.603 58.789C610.112 43.536 559.477 33.1841 546.033 62.8491C536.997 82.7871 534.56 106.944 533.038 128.508L531 130C524.6 136.58 521.155 123.296 520.697 117.77L517.476 93.875C514.378 76.6971 509.879 60.102 499.372 45.97L500 43C501.333 42.987 502.667 42.999 504 43C510.66 42.182 517.355 42.058 524 43C526.722 43.287 529.302 43.501 532 44C534.879 45.628 534.343 48.916 530.394 53.863L528.788 59.179L535.366 45.428L538 45C552.898 23.415 609.694 31.862 630.378 42.122C635.714 44.768 650.433 57.416 651.705 57.795C654.673 58.677 658.99 57.619 662.378 58.122C675.799 60.114 686.993 64.907 701 66Z" fill="#DBAA56"/>
<path d="M5.00004 404C7.97404 403.851 10.542 404.597 12.703 406.238L14 419C15.316 421.7 15.649 425.033 15 429C16.667 431.257 17.184 436.461 16 439L17.314 440.967C22.431 470.699 34.464 498.49 51.233 523.467L52 528C54.151 529.465 56.309 531.017 57.909 533.095C79.324 560.899 98.739 585.023 124.256 609.55C150.681 634.948 179.26 658.055 209.01 679.461C253.321 711.345 297.697 735.737 345.196 761.835C346.297 762.44 347.281 763.265 348.251 764.129C349.238 765.007 350.132 765.989 351 767C353.995 767.682 351.749 774.84 349.926 775.425C347.846 776.092 311.747 766.477 310 760C308.632 759.903 307.273 759.764 305.944 759.482C304.618 759.2 303.318 758.916 302.179 758.336C240.261 726.814 182.243 685.82 130.387 639.662C129.434 638.814 128.7 637.709 127.956 636.578C127.211 635.447 126.588 634.235 126 633C89.122 595.59 53.14 558.355 26.534 512.073C23.719 507.177 21.14 502.043 18.859 496.974C19.296 501.818 18.343 505.494 16 508L17.832 512.617C16.808 540.085 24.152 566.644 38.372 590.09L39 595C32.262 591.887 31.74 589.783 24 593C2.34704 554.133 -6.02496 502.633 5.72004 459.22C6.42704 456.609 8.80604 453.643 8.95704 451.455C9.38104 445.302 4.50704 428.654 4.01004 420.49C3.65404 414.631 4.56204 409.398 5.00004 404Z" fill="#D19B46"/>
<path d="M226 91L225.067 93.846C187.275 116.721 168.457 139.164 177.753 184.902C185.743 224.216 205.588 263.033 224 298C228.387 300.715 230.497 304.858 230 310C254.13 353.542 278.74 396.787 303.83 439.736L306 446L303.914 446.957C299.99 444.392 295.503 445.99 292.151 448.785L290 448C286.148 443.674 282.657 439.075 279.529 434.202C246.749 377.488 217.35 319.796 188.481 262.071C175.12 235.356 161.529 205.26 157.047 175.911L159 174C156.076 170.33 155.963 162.652 158.674 159.2L159 156C155.91 152.798 156.412 146.637 160 144C162.119 132.205 166.272 126.252 173 117C177.635 119.646 180.805 118.443 183.426 113.93C184.441 112.181 184.565 109.009 185.22 108.226C185.793 107.54 190.223 106.799 192.161 105.659C200.705 100.636 210.459 90.289 219.766 86.273C225.224 83.918 226.445 84.962 226 91Z" fill="#D49F4A"/>
<path d="M63 273C68.59 268.848 67.106 278.795 65.95 282.604C65.796 326.467 83.339 368.881 107.553 404.835C113.088 413.054 118.916 420.511 128 424L131.055 426.195C152.156 455.859 173.534 485.623 195.786 514.448L197 518C193.039 521.696 197.209 529.128 199.746 532.939C205.658 541.818 213 549.664 220.457 557.332C242.678 578.411 263.602 600.169 283.459 623.75L285 628C284.862 628.922 284.398 629.544 283.544 629.806C206.566 567.766 148.646 487.619 96.106 404.469C84.998 386.889 76.231 369.234 67.801 351.117C61.928 336.774 53.673 339.646 43.815 348.255C29.589 360.677 18.664 381.471 16.495 400.61L15 402C14.744 407.236 14.773 412.541 15.086 417.913L14 419C13.973 418.785 13.174 418.21 13.074 417.411C12.474 412.574 14.007 403.335 6.007 407.521L5 404C6.836 381.365 14.587 357.927 30.476 340.976C35.207 335.928 49.85 323.597 51.777 317.277C53.131 312.836 52.391 306.117 53.117 301.617C54.969 290.138 58.209 283.219 63 273Z" fill="#DBA953"/>
<path d="M911 218C916.901 223.42 921.741 225.341 926.829 232.671C930.234 237.574 936.326 254.876 937.229 255.77C938.116 256.648 942.207 257.416 944.042 258.461C962.485 268.969 973.848 289.395 980.459 309.041C982.887 316.257 984.181 327.933 986.766 333.734C989.411 339.667 998.347 346.892 1002.48 357.018C1012.52 381.607 1020.35 398.762 1021.99 426.51C1023.67 454.989 1016.81 511.225 997 533C997.555 538.408 988.404 538.456 986 535L986.281 530.198C1005.43 493.068 1016.94 450.461 1008.97 408.752L1010 404L1007.58 402.474C1005.51 394.669 1002.95 386.066 996.798 380.641C994.957 385.388 992.858 390.013 990.501 394.516L988 394L986.226 392.671C988.194 380.091 989.541 367.121 989.271 354.301C989.21 351.431 989.134 348.477 988.646 345.654C987.557 339.356 981.323 333.453 983.001 343.563L981 345C979.848 343.954 979.181 341.954 979 339L976.491 336.335C973.698 319.473 968.811 302.904 959.063 288.672L959 285L952.83 279.844C935.94 259.753 921.321 265.216 918.37 290.171L916 291C913.142 289.536 913.467 288.729 916 287L914.538 282.62C917.567 261.062 916.807 239.832 909.478 219.918L911 218Z" fill="#D9A54F"/>
<path d="M997 533C1003.32 560.581 993.462 589.845 978.416 612.916C975.614 617.211 965.534 628.421 964.49 631.043C964.161 631.87 965.08 641.965 964.724 645.223C962.531 665.284 941.503 698.827 930 716C926.337 720.222 921.337 721.222 915 719L914.962 715.347C930.55 695.829 940.793 674.485 945.688 651.314C932.592 662.5 918.695 672.395 904 681C903.091 686.616 892.513 693.185 887 693C880.153 692.676 886.997 683.315 890.788 680.842C901.227 673.376 910.964 665.095 920 656C919.04 651.585 926.669 644.516 931 645C940.371 634.641 949.342 623.973 957.913 612.994L961 612L961.235 608.313C969.549 595.125 977.719 581.424 980.516 565.854L983 563C984.871 555.859 983.062 550.747 980.645 544.781L982 542C979.609 540.302 983.146 534.419 986 535C990.804 534.535 993.647 536.686 997 533Z" fill="#CD953E"/>
<path d="M500 43C503.195 48.989 507.413 53.9899 510.18 60.3199C514.546 70.304 517.715 84.0289 519.684 94.8159C520.883 101.39 522.561 125.268 525.938 128.562C527.498 130.084 528.941 130.218 531 130L532.948 134.381C534.276 159.586 534.45 188.703 530.572 213.568C530.115 216.498 527.506 229.623 526.386 229.907C523.262 230.698 521.813 230.102 521.485 226.347C517.034 195.286 513.816 164.216 511.832 133.138C508.314 105.528 503.965 74.971 483.742 54.354L483 51C480.992 44.159 476.695 40.409 481 33C486.887 35.799 492.432 41.795 496.044 43.5379C498.266 44.61 499.217 43.0079 500 43Z" fill="#D5A14C"/>
<path d="M865 784C864.905 784.045 863.783 783.198 862.937 783.558C850.338 788.932 835.584 793.052 822 795C821.014 798.104 816.481 798.216 815 796C814.194 798.76 811.013 797.231 809 796C808.427 796.886 807.7 797.685 806.676 798.023C801.749 799.648 775.451 796.404 768.632 795.443C766.175 795.096 750.771 792.428 750.353 790.429C749.741 787.5 749.972 786.018 753.412 785.983C814.502 789.829 870.494 767.243 910.565 721.03L915 719C921.331 714.88 924.515 721.221 930 716C916.155 736.671 887.525 773.364 865 784Z" fill="#C38835"/>
<path d="M72 246C72.859 240.036 80.083 235.9 79 244C74.805 270.047 73.345 296.761 80.083 322.594L80 330L83.528 334.718C94.773 365.136 109.46 393.882 127.59 420.957L128 424C123.182 426.362 116.541 419.437 113.586 415.914C86.185 383.249 62.438 325.232 63.959 282.459C64.038 280.24 67.136 272.554 63 273C68.181 261.951 69.16 257.892 72 246Z" fill="#CC933F"/>
<path d="M808 106C810.849 110.13 814.222 114.666 816.178 119.322C817.404 122.24 818.969 130.374 819.908 131.592C820.656 132.56 832.626 138.11 836.038 141.462C838.747 144.124 844.206 154.134 845.696 155.057C847.455 156.147 851.004 156.218 853.276 157.225C875.184 166.93 886.07 182.082 899 201C896.301 202.935 895.564 203.926 895.984 207.539L894 209L892.491 208.969C879.494 187.645 855.671 161.825 828.42 166.32L826 165L824.432 163.377C826.672 158.722 820.122 161.669 819.336 164.797C817.833 166.31 815.392 166.993 814.319 164.867C814.878 158.864 814.772 152.909 814 147L811.851 144.126C811.696 134.105 809.143 124.743 805.283 115.752C803.769 112.345 802.516 102.994 808 106Z" fill="#DCAB56"/>
<path d="M795 91C796.487 94.625 798.215 98.164 800.185 101.615C802.102 106.323 801.01 116.348 795 115L792.017 113.43C787.415 104.829 781.759 96.853 776 89C773.183 90.314 768.405 85.93 769 83C750.278 67.358 721.352 70.906 702.891 85.122L700 85C695.724 85.439 687.388 86.064 684.014 88.514C680.664 90.947 675.907 103.941 672.981 107.992C670.345 108.636 670.742 106.78 670.976 104.483C671.66 97.787 681.986 82.278 686.961 77.461C691.065 73.49 697.745 70.946 701 66C711.532 66.822 711.503 65.309 720.965 63.465C753.056 57.21 772.797 70.254 795 91Z" fill="#D6A24C"/>
<path d="M159 174L155.935 175.105C144.559 172.105 132.914 172.736 121 177L119.708 180.099C100.212 193.18 89.018 215.526 83.521 237.804L81 240C80.607 241.808 79.94 243.142 79 244C79.849 241.114 75.92 241.656 74.674 241.962C73.332 242.291 73.278 245.329 73.041 246.544L72 246C80.82 209.063 95.848 163.316 141 160L143.013 157.933C149.799 159.299 155.128 158.654 159 156C159.057 161.747 159.019 168.228 159 174Z" fill="#DBA951"/>
<path d="M808 106C805.806 106.699 805.856 108.46 806.025 110.38C806.426 114.942 810.496 122.642 811.702 127.798C813.188 134.149 813.712 140.492 814 147C814.759 152.56 814.889 158.16 814.39 163.8C816.458 165.516 816.088 168.326 813.552 169.301L812.323 177.68C807.091 179.876 799.379 182.503 801 174C798.201 172.652 798.885 163.721 802 163C803 156.098 802.913 148.93 802 142C799.649 138.334 798.246 133.892 797.789 128.674C795.612 123.888 794.683 119.33 795 115C799.058 110.785 799.894 108.954 798.506 102.986C797.548 98.863 792.487 95.097 795 91C800.6 96.233 803.616 99.643 808 106Z" fill="#C88E3A"/>
<path d="M899 201C902.82 206.588 906.148 213.543 911 218L916.551 236.949C919.224 253.485 918.2 270.465 916 287C912.627 294.16 909.663 285.353 909.413 281.04C907.389 279.217 906.636 277.995 907 275C904.117 274.086 905.048 267.838 908 267.5C907.222 267.287 906.082 266.97 906 266.346C905.699 264.052 905.575 247.591 906 245.942L908 244.5L905.916 243.25C903.351 231.94 898.604 220.896 893.397 210.543L894 209C893.994 204.581 893.342 199.696 899 201Z" fill="#CB923E"/>
<path d="M347 58C348.332 59.697 347.855 61.128 347.579 63.002C346.297 71.693 343.136 80.199 342.012 89.512C341.2 96.242 340.947 103.216 340.99 110C339.071 109.651 339.34 107.912 338.956 106.544C336.508 97.819 338.819 86.596 337.964 77.464L343 60C344.369 59.804 346.059 58.961 347 58Z" fill="#C88E3A"/>
<path d="M538 45C535.563 48.53 530.74 58.882 529.547 63.047C527.764 69.269 528.501 74.809 527.01 80.51C525.618 85.84 523.197 85.205 523.463 80.016C523.824 72.999 525.93 60.34 528.274 53.774C529.505 50.328 533.239 47.207 532 44C533.989 44.368 535.892 45.257 538 45Z" fill="#C6903C"/>
<path d="M524 43C517.345 42.996 510.655 43.006 504 43C508.54 41.499 515.779 41.577 520.619 41.927C522.408 42.056 523.621 42.96 524 43Z" fill="#D5A14C"/>
<path d="M310 760C314.282 762.101 320.425 765.173 324.74 766.76C333.007 769.801 341.507 769.892 349.479 774.02L351 767L353.317 766.671C363.177 771.931 373.329 775.945 383.771 778.712L384 781C389.16 779.149 397.23 790.382 387 787L384.062 789.056C363.103 788.31 342.301 790.811 321.655 796.557L308.871 798.641C321.786 804.218 335.027 809.008 348.594 813.012C353.821 814.149 374.496 824.384 362.967 829.742C358.815 831.672 336.871 829.555 331.103 828.762C314.254 825.843 297.367 823.405 280.442 821.448C280.779 833.896 277.215 843.48 269.959 853.796C259.717 869.021 249.421 884.161 239.071 899.216C238.644 901.46 240.893 903.177 242.604 904.221C252.52 910.272 301.168 919.428 311.915 914.291C317.583 911.582 332.082 893.958 336.299 888.225C343.775 878.059 351.051 867.436 358.025 856.734C360.963 852.587 375.982 832.624 382.316 835.381C388.694 838.156 383.276 854.295 381.473 859.66C375.372 877.816 367.158 893.452 357.916 910.039C350.54 922.289 354.901 923.824 366.522 926.487C378.944 929.333 412.122 932.88 422.357 926C428.92 921.588 433.49 912.131 436.743 905.005C442.926 888.521 449.266 872.127 455.762 855.822C466.95 833.797 472.165 849.498 469.981 865.644C467.414 881.874 463.846 897.913 459.275 913.763C456.163 928.953 457.219 932.697 472.131 934.79C486.586 936.818 518.26 937.764 530.93 931.321C536.854 928.309 538.754 915.316 539.132 909.061C539.969 895.222 540.665 881.424 540.766 867.544C539.873 853.012 548.341 829.601 556.415 856.056C560.95 875.538 564.82 895.115 568.025 914.789C571.098 928.135 572.649 931.034 587.471 932.077C598.562 932.858 651.961 928.375 658.547 922.024C661.367 919.306 660.289 906.928 659.583 903.21C657.07 889.99 654.12 876.927 650.967 863.838C647.281 853.005 646.645 819.269 661.313 844.007C669.194 862.96 676.833 882.139 684.233 901.544C692.71 919.892 698.131 920.365 716.689 918.216C729.454 916.739 743.103 914.536 755.539 911.358C769.042 907.908 771.885 905.71 765.523 891.713L767 890C767.683 886.309 778.801 885.818 779 890C781.23 891.208 782.176 894.138 783.17 896.33C786.706 904.121 797.999 930.726 793.078 937.578C788.953 943.323 735.034 951.913 725.377 952.877C716.537 953.759 702.807 955.703 695.504 949.996C691.108 946.561 689.268 940.73 686.232 936.306C683.094 931.733 684.966 936.983 685.03 938.466C685.953 959.838 673.46 958.033 656.023 961.523C636.457 965.44 591.666 972.174 573.763 965.737C562.646 961.739 563.502 935.975 555.01 928C553.468 936.802 553.602 946.708 551.905 955.405C550.109 964.611 549.112 966.031 540.218 968.718C522.18 974.167 489.605 972.164 470.51 969.99C464.346 969.289 442 966.887 442 958.5V942C439.642 941.514 440.393 942.302 439.757 943.29C435.682 949.615 433.709 960.395 425.823 963.323C409.381 969.43 369.573 963.462 351.809 959.691C346.341 958.53 329.644 955.989 327.527 950.98C323.844 942.266 339.03 917.137 341.99 908C336.627 913.833 315.547 946.941 310.261 948.761C301.134 951.904 286.239 949.239 276.666 947.834C263.249 945.864 226.36 939.258 217.498 930.002C209.652 921.805 221.275 903.395 225.828 895.328C229.715 888.439 235.031 879.436 239.586 873.086C246.041 864.09 255.269 856.886 258.995 846.005C256.918 845.552 256.722 847.076 255.777 848.277C239.782 868.584 223.272 888.447 206.488 907.988C197.519 918.431 199.354 924.885 182.608 922.893C166.727 921.003 133.688 902.955 133.924 884.504C134.036 875.707 144.756 855.362 149.141 846.641C156.274 832.456 172.236 799.939 189.497 797.997C196.412 797.219 203.105 798.954 209.459 799.041C232.351 799.355 256.692 799.552 279.231 795.731C281.757 795.303 298.274 791.7 298.997 790.986C300.445 789.558 298.903 789.174 297.518 788.998C283.908 787.269 266.628 790.009 252.458 789.042C248.878 788.797 245.437 787.565 242 787C243.58 779.667 253.886 778.915 259.666 783.098L262 782C263.433 780.647 265.438 780.702 268.014 782.167C262.244 777.912 223.035 757.116 220.515 759.377C221.022 760.635 220.254 761.332 219 762C216.044 763.95 208.798 759.453 209 756C209.976 753.68 208.941 751.776 205.896 750.286L206 748C205.004 745.568 206.337 744.901 210 746L215.39 746.587C242.191 761.455 269.745 767.822 299.677 770.231C308.388 770.932 316.66 771.261 308.083 761.66L310 760Z" fill="#DFB15C"/>
<path d="M126 633C178.911 681.318 245.498 728.36 310 760C309.46 764.638 315.887 765.277 313.527 770.005C311.953 773.157 296.558 772.182 292.629 771.871C262.752 769.511 236.04 760.05 210 746C207.972 746.085 205.94 745.849 204.151 744.839C173.247 727.402 143.676 705.925 118.195 682.489L112 679C110.233 680.582 105.899 677.097 104.427 675.599C89.1679 660.079 76.0139 645.648 62.8119 628.054C62.1059 627.113 61.5339 626.071 60.9999 625C58.0169 621.391 55.7099 617.478 52.9999 614C50.4579 609.399 50.1239 605.399 51.9999 602C54.2549 602.765 56.3099 603.89 58.1589 605.386C86.2599 633.824 115.471 663.062 149.159 682.863L51.2069 560.212L51.9999 558C56.3029 558.913 60.0319 561.448 63.1849 565.606C83.3929 588.648 104.378 610.988 126 633Z" fill="#F5D28B"/>
<path d="M904 681L947.995 647.005C947.026 674.675 929.099 696.726 915 719C885.45 753.439 844.21 780.25 798.365 785.865C782.778 787.774 766.672 787.668 751.005 788.01C751.434 789.644 755.103 790.541 756.555 790.946C770.561 794.845 794.283 796.235 809 796C812.657 798.063 814.657 798.063 815 796C816.556 795.865 820.008 795.286 822 795L825 797L825.1 799.083C820.729 799.941 817.914 802.206 816.656 805.876C806.745 811.201 795.526 813.576 783 813L779.511 815.216C768.319 816.377 756.752 818.301 746.634 823.329C754.054 829.054 760.041 836.307 765.836 843.596L766 847C769.887 852.988 773.135 859.097 775.745 865.325L786 874C790.84 875.261 795.73 882.053 796 887L798.907 892.563C808.59 899.508 810.77 906.607 805.446 913.862C808.906 919.05 812.348 924.259 815.772 929.49L814 931C807.977 927.246 801.048 914.237 796.391 908.109C791.102 901.151 785.596 894.237 779.495 888.005L779 890C774.671 888.604 771.323 889.428 767 890L763.979 887.86C753.988 869.788 742.808 848.754 739.645 828.596C737.914 824.947 734.421 824.147 729.164 826.196C713.081 830.247 696.904 833.804 680.634 836.869C676.29 837.637 664.087 839.437 664.877 833.365C666.393 821.699 726.375 800.204 735.308 797.099L735.015 796.245C722.13 794.793 709.791 792.045 698 788C694.023 784.32 700.541 782.667 703.937 782.148C699.839 774.917 712.094 771.782 710 779C710.851 779.675 710.955 780.558 710.391 780.474C707.163 779.99 742.499 787.507 744.243 787.119C744.773 787.001 745.498 786.678 746 786C744.99 784.852 745.131 784.37 746.048 783.418C746.165 783.297 744.772 786.001 744 786C740.713 787.588 731.672 785.494 730 782C730.061 780.728 730.865 779.894 732.411 779.498C731.329 771.826 735.093 766.951 743.261 767.853C743.548 763.819 745.284 762.336 749 761C748.958 758.015 753.238 756.547 755 759C759.482 756.598 764.05 754.282 769 753C769.573 752.176 770.174 751.379 770.87 750.676C771.544 749.996 772.231 749.358 773.029 748.931C790.228 739.742 807.258 730.455 824.352 721.071C825.144 720.636 826.065 720.428 827.015 720.248C827.991 720.063 828.992 720.012 830 720C831.815 720.664 831.817 722.56 830.004 725.689L831 728L828.729 731.838C808.198 745.091 787.305 757.663 766.049 769.555C763.026 772.608 760.01 774.09 757 774C757.457 776.395 757.838 777.701 760 779L762.871 777.425C776.659 777.813 790.373 775.858 804.014 771.559L807 773C809.923 772.478 812.59 771.478 815 770L817.748 766.964C856.564 753.949 892.008 738.206 914.833 702.647C917.111 699.099 931.81 671.804 917.828 677.683L906.335 682.694C905.139 683.232 904.475 682.271 904 681Z" fill="#DEB05B"/>
<path d="M814 931C813.329 924.238 804.877 921.504 803.473 914.078C803.048 911.831 806.459 908.575 806.84 906.247C807.885 899.865 794.523 895.104 796 887L798.48 886.814C805.315 895.992 809.379 898.543 820.793 895.984C828.862 894.175 853.51 886.024 857.27 879.085C861.692 870.924 842.289 833.327 838.235 825.96C832.949 816.354 830.198 814.856 819.387 814.437C807.941 813.993 796.456 814.444 785.028 814.915L783 813C787.273 810.875 792.521 812.493 797.26 811.761C800.911 811.196 814.332 806.547 816.059 803.55C817.008 801.904 816.904 799.232 817.068 799.072C817.412 798.735 820.03 799.149 821.266 798.767C822.548 798.37 824.246 797.101 825 797C850.63 793.58 861.865 801.69 872.879 823.621C879.803 837.406 892.313 875.859 890.984 890.492C889.293 909.121 863.024 921.426 847.518 927.017C838.207 930.374 822.841 936.511 814 931Z" fill="#DFB15C"/>
<path d="M67 645L70.53 646.57C112.776 685.977 157.208 722.757 206.568 753.007L209 756C212.583 758.108 215.06 759.918 219 762L222.343 761.505C234.532 768.3 247.119 774.217 260.106 779.258L262 782C262.734 788.891 256.316 782.607 254.273 782.165C250.316 781.31 245.181 784.673 242 787C184.746 777.592 118.464 730.455 83.603 684.897C74.96 673.601 60.367 650.937 57.019 637.476C56.882 636.925 56.729 635.85 57.495 636.005C60.343 639.317 63.907 641.983 67 645Z" fill="#E4B763"/>
<path d="M112 679C114.116 678.072 115.207 680.186 115.36 682.152C117.55 683.182 119.707 684.618 121.491 686.251C137.543 700.942 151.196 711.606 170.165 724.043C181.239 731.303 192.642 738.094 204.044 744.778C205.175 745.487 205.712 746.729 206 748C209.409 749.968 214.967 754.702 209 756C159.096 726.637 108.494 685.472 66.9999 645L72.0049 643.996C74.4819 641.676 60.6859 628.824 60.9999 625C74.3559 641.157 89.2319 657.607 103.953 672.547C106.187 674.814 110.107 676.766 112 679Z" fill="#D4A04B"/>
<path d="M23.9999 516C24.1799 518.598 25.1529 521.403 26.9209 524.414C25.7009 534.704 25.3089 544.508 31.9999 553L33.7689 554.487C35.8309 570.803 42.2959 585.847 53.1659 599.617C53.7899 600.524 52.9219 601.273 51.9999 602C53.3629 605.986 53.0279 609.89 52.9999 614C48.0109 607.598 43.3429 602.022 38.9999 595C21.6809 566.995 14.3819 541.068 15.9999 508C19.7879 503.463 26.8719 512.32 23.9999 516Z" fill="#ECC373"/>
<path d="M303 91C304.151 95.726 298.996 93.875 296.345 91.729L288.274 84.81C296.367 93.494 302.886 103.273 307.83 114.147C306.114 110.166 307.991 102.076 313 105C342.579 152.07 356.542 219.85 374.288 273.212C379.377 288.515 385.484 303.506 390 319L388.334 321.268C358.542 322.573 341.444 340.163 349.769 369.963L348 372C353.409 393.176 362.047 411.823 373.377 430.421L373 434C374.61 434.312 375.666 435.258 376.599 436.532C380.426 441.76 401.783 483.546 400.993 487.339C400.52 489.612 400.202 490.397 397.563 490.956C407.167 503.206 416.071 516.246 423.513 530.382C424.018 531.341 424.299 532.422 424.548 533.529C424.803 534.663 424.921 535.827 425 537C424.917 543.49 419.628 551.717 414 555C411.319 553.532 408.593 551.992 406.458 549.768C372.31 514.207 339.931 465.471 313.682 423.537C280.64 370.751 252.492 316.429 231.535 258.329C221.177 229.613 202.495 169.409 215.665 141.106C226.269 118.317 261.752 109.52 281.635 124.559L277.342 119.021C272.993 79.578 233.745 90.023 210.185 107.936C174.563 135.021 172.934 160.314 185.379 202.259C195.198 234.406 209.947 264.833 224.662 294.8L224 298C222.294 297.363 221.908 295.757 221.147 294.356C201.606 258.378 164.618 183.54 176.061 143.561C182.098 122.466 207.398 101.492 226 91C252.507 76.049 279.052 66.574 303 91Z" fill="#F5D48E"/>
<path d="M483 51C516.598 79.547 514.303 153.112 519.004 194.496C520.313 206.016 521.789 217.621 524.013 228.992C525.452 229.232 525.403 227.227 525.689 226.199C534.448 194.603 530.419 162.004 531 130C531.344 111.061 537.577 62.2961 552.527 50.027C572.103 33.962 625.062 44.376 640.829 64.671C663.503 93.858 649.9 166.993 643.685 202.185C638.075 233.953 631.12 267.098 622.716 298.216C620.974 304.664 619.292 312.351 616 318C611.02 320.593 604.538 320.253 600 317L600.026 310.607C606.294 277.814 612.523 244.97 618.339 212.053C624.675 176.199 634.137 114.513 627.951 79.911C621.418 43.368 571.035 40.592 564.099 76.611C571.729 150.977 571.052 225.8 568.315 300.436C568.226 302.87 567.868 305.296 567.482 307.727C567.094 310.168 566.567 312.587 566 315C564.243 315.514 562.477 315.987 560.686 316.313C558.902 316.638 557.134 316.946 555.372 316.937C528.832 316.796 502.198 316.388 475.662 315.86C472.04 315.788 468.491 314.902 465 314L465.658 311.926L478.837 310.629C475.911 237.099 472.293 164.473 467.984 92.751C464.175 61.3311 452.682 37.147 416.808 50.76L415 49C410.599 50.97 405.809 50.662 400.629 48.073L392.052 52.107L390 51C389.527 50.749 389.053 50.5291 388.565 50.454C386.218 50.093 364.8 66.029 365.208 70.951C362.784 74.133 357.293 76.981 356 72C360.097 59.377 367.089 54.954 378 49C381.345 48.712 383.345 47.712 384 46C411.154 34.443 459.101 30.694 483 51Z" fill="#F4D18A"/>
<path d="M465 314C498.722 313.332 532.416 314.952 566 315C566.564 313.087 567.436 313.086 568 315L582 316C588.075 313.5 594.236 313.852 600 317C605.293 317.36 610.727 317.572 616 318C623.613 318.617 632.146 319.276 640 320C644.029 316.64 653.492 320.377 658.321 322.488C672.077 328.504 679.882 338.402 681.018 353.54C681.402 358.647 680.802 368.969 677 372C674.098 385.588 665.832 396.618 657.304 407.232C638.784 427.56 619.544 447.212 599.585 466.189C580.304 485.833 577.827 488.377 589.99 514.131L600.881 533.779L601 538C606.202 541.113 609.827 546.963 610 553C613.604 553.242 617.485 558.601 616 562C622.196 566.436 626.788 573.459 628 581C638.644 592.146 647.508 605.587 653 620C656.295 620.14 657.355 622.019 656 625C660.508 626.45 664.647 632.258 664 637C668.601 638.866 671.548 644.031 671 649C674.736 650.158 681.734 661.225 682.648 664.904C682.914 665.972 682.461 667.056 682 668L684.978 669.508C692.216 683.805 697.654 697.97 694 714C695.703 716.39 696.356 718.885 693 720C691.826 725.636 688.048 733.995 682 734C676.731 739.662 652.08 748.121 646.056 746.037C645.337 745.788 644.662 745.412 644 745C636.732 748.246 628.764 749.828 620.097 749.747C568.211 752.327 515.979 754.078 464.097 753.93C439.63 753.859 415.399 753.652 391.137 750.003C390.073 749.843 389.05 749.359 388.007 748.849C386.955 748.334 385.968 747.686 385 747C383.648 746.615 382.851 746.926 382.506 748.58C380.572 749.386 345.649 740.391 344 734C340.066 735.553 336.398 730.141 334.33 726.964C324.671 712.129 331.667 690.42 338.451 675.717L341 675C339.873 672.846 340.602 671.394 343 671C342.445 665.142 347.735 656.686 353 654C358.285 638.791 367.986 623.744 379 612C380.375 603.816 386.319 594.917 393 590C393.7 583.373 397.411 577.608 403 574C402.247 569.503 405.694 564.374 410 563C408.044 560.752 410.867 554.176 414 555C417.479 549.087 421.503 543.253 425 537L424.748 533.388C431.546 522.988 437.043 511.988 441.239 500.387L444 498C442.955 496.146 442.934 493.771 443.937 490.877C441.153 483.011 436.254 476.094 429.242 470.125L430 468C428.078 467.293 426.094 466.519 424.568 465.11C412.062 453.559 398.805 440.567 387.003 428.289C371.409 412.065 354.617 393.723 348 372C346.363 357.584 342.418 346.24 353.027 333.527C362.593 322.064 376.315 321.066 390 319C394.612 318.304 399.367 317.47 404 317C419.54 311.281 437.716 312.536 454 314C456.926 311.004 462.034 311.118 465 314Z" fill="#452A14"/>
<path d="M415 49L414.407 51.717C403.388 59.139 398.054 72.497 400.393 85.552C420.466 158.355 435.594 235.464 446.669 311.956C450.425 311.266 452.868 311.947 454 314C437.898 314.449 420.329 315.345 404 317C382.691 259.958 364.461 201.495 356 141C358.199 139.11 359.88 140.865 361.042 146.268C366.854 175.479 366.595 152.355 364.923 139.541C365.876 116.909 367.856 92.565 375.475 70.997C377.805 64.399 382.64 51.084 390 51C391.093 50.192 399.411 46.129 400.478 46.104C404.245 46.018 407.942 49.674 415 49Z" fill="#F7D58E"/>
<path d="M356 72C363.419 75.555 365.821 64.081 370.991 59.491C373.054 57.659 384.656 50.225 386.959 49.455C388.875 48.815 390.453 48.05 390 51C372.262 64.11 367.177 118.909 366.922 139.516C366.875 143.302 370.276 161.829 365.486 162.996C360.248 164.271 360.651 142.795 356 141C352.885 118.729 348.796 94.195 356 72Z" fill="#EDC578"/>
<path d="M313 105C303.076 109.346 315.797 120.449 313.99 128C313.113 129.207 300.333 104.046 299.226 102.274C294.673 94.9879 289.246 86.9939 282.005 82.4949C289.913 79.5819 293.266 87.6519 298.634 90.8629C299.849 91.5899 302.13 92.9499 303 90.9999C308.163 96.2659 309.419 99.3019 313 105Z" fill="#EBC375"/>
<path d="M384 46L384.99 46.51C385.433 49.135 380.409 49.004 378 49C380.566 47.6 381.148 47.214 384 46Z" fill="#F7D58E"/>
<path d="M769 83L765.527 83.25C714.816 55.192 691.614 122.421 681.035 160.102C671.501 194.062 664.575 228.804 658.012 263.443C667.474 232.204 679.165 201.394 691.247 171.433C701.121 146.947 736.817 75.618 762.272 126.001C770.146 141.588 770.214 159.522 769.149 177.171C766.011 229.183 749.394 280.73 730.435 327.632C749.132 289.273 767.209 251.685 780.65 211.074C793.014 173.72 798.785 126.032 775.36 92.254L776 89C783.648 96.15 790.62 105.488 795 115C798.876 123.418 801.386 132.694 802 142C802.924 148.945 802.983 156.056 802 163C801.654 166.362 801.508 170.95 801 174C800.578 175.726 801.011 177.273 802.195 178.66C797.337 203.161 788.404 226.659 778.897 249.75C748.501 323.577 709.442 396.323 670.9 467.423C669.867 469.329 668.565 471.093 667.244 472.861C665.916 474.639 664.474 476.332 663 478C647.321 503.799 630.432 528.855 612.331 553.167L610 553C607.005 547.977 603.905 543.104 601 538C600.627 534.081 600.139 530.189 599.536 526.325L638.065 453.357C655.329 427.996 668.307 400.877 677 372C677.911 364.795 679.618 359.147 678.877 351.623C676.884 331.383 658.437 321.699 640 320C638.488 317.361 631.634 320.893 632.039 317.557C648.456 263.697 654.589 206.753 669.078 152.578C674.667 131.685 683.906 99.897 700 85C717.179 69.099 752.072 64.705 769 83Z" fill="#F4D38C"/>
<path d="M285 628L289.015 628.903C294.829 632.833 303.236 639.086 306 645C317.823 652.275 328.999 661.319 338.772 671.199L341 675C332.418 692.914 323.838 720.393 344 734C351.248 741.602 359.261 748.23 367.848 754.277L368 757L385.584 770.613C390.667 773.576 390.081 782.894 384 781C380.859 779.395 375.149 778.967 372.003 777.496C365.212 774.321 357.814 770.405 351 767C242.807 712.937 119.895 629.232 52 528C50.059 523.9 50.392 521.567 53 521C54.793 521.97 56.674 522.993 57.959 524.616C82.071 555.078 103.859 580.578 132.786 607.02C184.287 654.094 242.891 695.018 304.185 726.77C237.894 683.384 180.16 631.016 128.324 571.287C104.236 543.531 69.765 499.987 58.971 465.161C50.982 439.384 55.891 423.869 67.542 401.696C75.096 387.991 63.074 351.239 44.112 359.814C18.998 371.169 16.336 412.509 19.651 436.552L18 439C17.681 441.656 16.761 441.541 16 439C15.481 435.407 15.422 432.43 15 429C15.005 419.979 15.005 410.979 15 402C16.746 385.283 21.565 372.634 31.589 359.089C37.62 350.94 52.503 333.241 63.5 340.999C68.021 344.188 78.623 369.975 82.479 377.021C108.933 425.372 153.149 487.398 187.604 530.896C216.684 567.61 246.761 594.309 280.982 625.522C282.219 626.65 283.041 628.024 285 628Z" fill="#F5D38C"/>
<path d="M126 633C116.113 623.971 106.338 615.174 96.974 605.526C81.922 590.02 68.209 571.681 52 558C49.472 559.626 47.67 557.591 49 555C38.92 543.312 30.586 530.312 24 516C22.024 513.133 21.881 508.25 16 508C16.356 500.72 17.812 494.287 16.01 487C17.204 485.4 20.706 496.458 21.143 497.357C47.382 551.2 84.07 586.083 123.519 628.985C124.654 630.219 126.022 631.041 126 633Z" fill="#E1B25F"/>
<path d="M18 439L20.486 441.563C26.302 468.574 38.245 494.171 53.004 517.418L53 521L52 528C31.828 497.923 21.249 475.366 16 439H18Z" fill="#EDC577"/>
<path d="M15.0001 429C14.6111 425.838 14.4141 422.279 14.0001 419C14.2831 414.222 13.6141 409.16 13.9601 404.421C14.0551 403.11 14.9781 402.214 15.0001 402C16.3081 410.895 16.7161 420.163 15.0001 429Z" fill="#EDC577"/>
<path d="M159 174C158.924 197.1 185.322 251.022 196.149 273.351C224.931 332.713 256.268 391.417 290 448C297.53 454.421 303.637 466.326 306 476C307.273 478.5 306.257 478.63 303.806 478.518C299.029 478.3 284.251 458.264 280.897 453.68C270.675 439.712 261.28 424.97 251.95 409.959C282.876 482.068 323.497 554.307 379.167 609.752L379 612C370.378 625.973 361.318 639.866 353 654L348.895 653.658C292.893 620.995 242.627 573.834 199.861 524.492C199.128 523.646 198.649 522.567 198.161 521.459C197.673 520.351 197.317 519.184 197 518C173.078 489.308 148.632 455.212 128 424C108.675 394.766 89.8139 363.894 79.9999 330C78.8379 324.897 79.8379 322.563 82.9999 323L86.4189 327.225C97.9079 363.071 121.355 391.719 145.532 419.724C182.824 462.918 221.791 505.605 262.308 545.958C210.301 484.18 161.788 416.927 129.001 343.719C118.104 319.387 106.816 293.823 105.923 266.942C105.546 255.597 115.991 229.094 128.746 227.983C141.678 226.857 164.626 253.742 171.686 264.286L152.118 219.982C150.256 211.936 148.737 203.803 147.56 195.583C143.528 180.293 136.371 178.438 121.805 179.218L121 177C133.671 169.889 145.204 169.221 159 174Z" fill="#F5D38D"/>
<path d="M224 298C206.453 262.039 168.877 188.28 177.472 148.972C184.958 114.739 248.355 67.18 274.412 102.088C280.096 109.703 277.253 111.608 279.197 118.303C279.899 120.721 285.603 123.447 283.995 127.995C283.088 129.032 277.593 123.904 276.255 123.245C254.452 112.498 221.912 123.39 215.291 147.791C206.076 181.749 229.152 248.304 242.25 281.25C267.137 343.852 301.948 404.162 339.779 459.721C362.415 492.966 386.476 525.654 414 555C412.709 557.195 411.647 560.244 410 563C408.783 564.608 407.841 565.043 406.36 563.656C379.858 539.836 357.79 511.432 336.906 482.507C296.352 426.339 261.204 369.339 230 310C228.022 306.011 225.955 302.006 224 298Z" fill="#FCE9B9"/>
<path d="M306 446C307.698 445.037 309.116 445.629 310.256 447.774C337.19 490.022 366.797 535.705 403.358 571.577L403 574C399.72 579.392 396.286 584.653 393 590C388.408 588.622 385.151 585.281 382.1 581.742C355.96 551.086 327.702 517.047 307.574 482.157C306.502 480.298 306.226 478.103 306 476C300.232 466.933 295.424 457.099 290 448C294.648 443.781 300.69 441.757 306 446Z" fill="#CF9845"/>
<path d="M410 563C407.764 566.742 405.24 570.318 403 574L391.486 563.014C369.195 537.28 348.945 509.908 329.585 481.915C324.74 474.909 310.649 449.715 306 446C279.458 401.331 253.098 356.574 230 310L281.585 397.915C319.014 451.642 357.308 516.322 405.985 560.519C407.226 561.646 408.024 563.022 410 563Z" fill="#F4D28C"/>
<path d="M197 518C231.623 559.527 276.814 601.677 320.067 633.433C330.137 640.826 342.641 646.835 353 654C349.716 659.581 345.94 665.261 343 671L339.535 669.898C328.477 660.68 317.298 652.381 306 645C299.092 639.195 291.678 634.186 285 628C274.474 618.249 266.215 606.84 256.514 595.986C242.111 579.871 200.934 545.164 194.468 527.033C193.438 524.144 191.561 516.853 197 518Z" fill="#CE9642"/>
<path d="M959 285L956.72 286.043C935.794 271.704 926.555 286.882 923.4 307.602C911.913 338.101 898.766 367.906 883.957 397.017C893.67 386.414 902.914 375.366 911.69 363.873C915.338 359.55 931.249 342.373 935.592 341.425C952.401 337.756 952.712 374.309 952.169 383.807C949.217 435.423 906.766 498.616 873.144 536.856C817.927 599.658 758.749 656.475 697.84 713.673C698.09 714.87 699.209 714.618 701.198 712.919L718.834 699.876L721 701L722.29 702.968C722.534 706.934 720.939 717.06 718 720C708.79 733.226 696.604 745.347 683 754C677.369 757.516 676.987 747.502 680.247 744.019C686.739 736.925 690.46 729.267 693 720C693.327 718.032 693.732 715.947 694 714L694.922 700.975L712.525 682.614C720.237 670.602 728.874 658.966 738.435 647.706C739.188 646.529 723.216 655.039 722.847 655.902C718.714 658.005 710.106 662.144 710.265 654.747C726.041 634.023 741.011 612.702 754.777 590.823C751.65 594.385 748.447 597.885 745.04 601.18C743.716 602.461 732.018 613.72 731.584 608.639C731.539 608.108 731.735 607.557 732 607C730.702 605.535 731.285 604.99 733 606C734.828 602.961 736.943 599.942 740 598L741.843 593.494C785.216 536.318 822.925 474.524 858.858 413.104C880.726 375.723 902.964 335.189 913.596 293.281L916 291C918.605 283.668 919.789 267.721 929.555 266.06C943.174 263.743 952.191 275.134 959 285Z" fill="#F4D38C"/>
<path d="M1010 404C1020.23 448.298 1007.17 495.825 986 535C985.131 536.608 982.809 541.19 982 542C981.162 545.547 978.736 548.755 974.723 551.623C970.812 554.208 966.673 568.238 972.442 560.963C974.965 555.374 978.236 550.9 982.255 547.54C984.387 548.414 983.657 560.551 983 563C980.462 581.387 971.099 596.867 961 612C958.739 612.261 957.426 610.233 957.059 605.916C949.524 619.8 940.838 632.828 931 645C927.151 648.5 923.101 651.75 920 656C895.529 678.566 867.415 699.587 838.89 716.852C837.578 717.647 836.117 718.2 834.628 718.727C833.124 719.26 831.569 719.65 830 720C810.956 731.563 789.23 743.823 769 753C764.063 754.279 759.475 756.61 755 759C753.07 759.635 750.876 760.482 749 761C743.712 766.638 717.385 769.664 711.971 765.271C702.628 757.689 709.473 749.526 716 743C717.272 740.579 718.621 738.134 720.571 736.189C768.27 688.626 815.924 640.866 860.565 590.417C876.603 572.256 892.502 553.934 907.39 534.808C928.875 507.204 944.905 481.145 962.563 451.228C963.974 448.837 965.966 446.867 968 445C969.339 442.45 972.824 442.982 973 446L973.61 449.423C967.04 462.703 960.544 475.965 955.284 489.823C954.567 491.711 949.656 508.131 953.781 507.676C962.584 506.705 984.048 484.986 985.61 476.263C984.121 467.408 992.613 468.811 993.917 476.014C1004.77 455.973 1011.83 430.838 1004 408.405L1005 406C1003.95 403.188 1008.48 401.597 1010 404Z" fill="#F5D28C"/>
<path d="M959 285C971.556 303.194 975.214 317.499 979 339C987.096 393.556 959.807 444.25 929.325 487.486C875.206 564.25 803.277 633.104 731.303 694.812C729.81 696.092 728.1 697.127 726.372 698.164C724.639 699.205 722.83 700.121 721 701C717.337 702.296 698.472 719.558 696.005 716.995L696.215 712.715C756.234 653.289 821.28 597.369 874.975 531.475C910.286 488.141 960.582 417.629 948.535 358.965C947.377 353.323 944.623 341.7 936.738 343.153C932.557 343.923 916.237 361.742 912.486 365.986C902.305 377.505 894.312 391.16 882.495 400.995L882.065 396.565C895.291 366.545 911.42 338.362 921.495 306.995C923.711 300.095 923.501 293.751 927.754 287.254C937.047 273.056 946.685 278.355 959 285Z" fill="#FBE8B7"/>
<path d="M907 275C906.883 277.894 909.944 277.416 911.244 280.26C912.479 282.963 911.434 290.368 916 287C915.831 288.271 916.185 289.741 916 291C910.598 327.68 871.636 395.17 852.172 428.672C819.218 485.395 780.59 546.596 740 598C736.955 599.944 734.838 602.959 733 606C732.711 606.36 732.293 606.636 732 607C731.312 608.68 730.586 610.34 729.73 611.93C728.878 613.51 728.019 615.067 726.922 616.427C714.829 631.407 702.491 646.297 690.097 661.027C688.97 662.368 687.649 663.547 686.297 664.711C684.933 665.886 683.479 666.958 682 668C679.007 662.014 674.471 654.938 671 649L671.464 646.901C748.852 565.983 811.062 470.93 865.305 373.487C881.861 343.745 897.091 311.27 904.458 278.062L907 275Z" fill="#D49F4A"/>
<path d="M981 345C981.89 345.244 981.868 345.58 981 346L982 357C982.502 357.773 982.966 358.561 983.297 359.402C985.998 366.265 978.054 407.783 973.066 413.225C972.457 413.89 971.743 414.458 971 415C971.188 415.955 971.336 416.911 971.339 417.867C971.367 426.693 953.293 456.515 947.562 465.807C936.59 483.599 923.969 501.097 910.922 517.412C855.737 586.42 793.437 650.401 729.199 711.977C727.562 713.546 725.705 714.891 723.83 716.234C721.951 717.58 719.988 718.807 718 720C720.903 713.354 717.601 707.523 721 701C781.096 649.757 839.28 596.208 889.976 535.476C936.566 479.664 985.651 416.539 979 339C979.245 340.388 980.827 343.706 981 345Z" fill="#F3D087"/>
<path d="M988 394L989.497 396.472C987.684 404.034 985.302 411.47 982.61 418.762L980 420C977.142 424.401 969.053 420.489 971 415C977.845 396.599 981.853 376.666 982 357L981 346C980.962 345.671 981.044 345.327 981 345C981.21 342.839 979.807 335.811 983.316 336.14C984.444 336.246 988.22 338.496 988.908 339.592C993.715 347.259 990.124 383.945 988 394Z" fill="#CC9542"/>
<path d="M1010 404L1005 406L1002.66 406.006C998.309 398.941 993.749 406.268 990.969 410.999C985.718 422.007 980.487 433.075 975.277 444.204L973 446L968 445C968.409 438.259 973.046 429.072 976.667 422.863C977.421 421.571 978.74 420.741 980 420C982.906 412.502 986.343 401.844 988 394C991.565 392.584 993.64 377.212 997.434 378.039C1004.58 384.739 1007.84 394.668 1010 404Z" fill="#EEC77D"/>
<path d="M815 770C812.67 771.474 810.003 772.474 807 773C791.056 776.042 776.202 781.988 760 779C756.188 777.797 755.188 776.131 757 774C768.898 763.208 795.954 750.606 810.915 741.415C817.749 737.217 824.206 732.223 831 728C831.706 726.956 832.442 725.94 833.283 725.019C834.109 724.115 834.935 723.244 835.914 722.622C850.472 713.367 865.305 704.222 880.059 695.282C881.063 694.673 882.19 694.262 883.342 693.883C884.53 693.492 885.759 693.228 887 693C892.711 689.064 898.91 685.862 904 681C908.853 681.402 922.083 670.114 925.505 676.995C927.44 680.885 922.707 691.306 920.857 695.357C901.717 737.272 856.145 756.252 815 770Z" fill="#E7BD6D"/>
<path d="M887 693C868.55 705.715 849.893 716.255 831 728L827.004 727.994L830 720C861.453 700.901 891.015 678.573 920 656C909.394 670.535 905.334 671.193 892.498 681.998C889.943 684.149 883.868 689.364 887 693Z" fill="#D7A34F"/>
<path d="M983 563C982.926 559.174 983.107 555.319 983 551.486C982.973 550.503 983.541 548.113 981.995 549.49C978.887 552.955 975.927 559.852 973.455 562.955C960.627 579.059 948.881 597.273 934.514 613.014C923.48 625.104 905.088 642.514 892.502 653.002C891.377 653.939 890.883 655.425 889.005 654.995L897.455 642.955C914.107 626.268 931.097 609.699 946.514 592.014C951.696 586.07 956.962 575.441 961.461 570.965C963.312 569.125 965.873 568.647 966.742 567.754C969.068 565.367 966.641 560.925 968.585 557.121C972.483 549.493 976.829 547.176 982 542C983.667 548.212 984.62 554.054 984.041 560.579C983.923 561.91 983.036 562.74 983 563Z" fill="#E9C072"/>
<path d="M961 612C950.773 627.324 944.105 633.083 931 645L956.493 602.992C957.383 601.868 957.644 601.732 958.513 602.986C960.313 605.581 959.113 609.633 961 612Z" fill="#E5B864"/>
<path d="M815 796L815.99 796.505C817.218 801.057 810.514 799.025 809 796C810.972 795.969 813.056 796.169 815 796Z" fill="#DFB15C"/>
<path d="M83 323C81.493 325.181 79.761 327.158 80 330C71.471 300.543 71.602 273.928 79 244C79.261 242.943 80.36 241.033 81 240L82.17 244.539C77.927 268.949 77.733 294.262 83.792 318.383L83 323Z" fill="#EBC070"/>
<path d="M894 209C898.292 215.998 908 236.908 908 244.5V267.5C908 268.176 907.203 273.662 907 275C901.601 310.533 875.789 358.983 858.172 390.672C807.532 481.762 746.572 568.862 676.026 645.521C674.633 647.035 673.25 648.856 671 649C668.691 645.05 666.391 640.881 664 637C666.224 633.282 668.557 629.6 671.466 626.374C710.82 582.728 747.802 541.246 782.384 493.417C813.257 450.717 844.061 403.626 867.346 356.986C885.996 319.63 905.906 273.582 897.472 231.246C893.746 212.544 878.296 189.526 862.26 179.525C835.063 162.564 824.93 190.732 821.913 213.038C808.989 244.743 795.242 276.065 780.672 307.004C777.254 314.269 778.333 314.806 783.908 308.617C795.589 292.59 806.35 275.903 816.191 258.557C824.163 246.814 849.374 210.343 864.71 228.34C892.344 260.767 864.641 328.218 848.62 361.634C822.888 415.308 785.933 465.311 749.674 513.247L673.037 610.307C669.86 614.329 662.379 621.961 658.44 625.358L656 625C654.953 623.339 654.015 621.608 653 620C654.157 617.284 655.409 614.56 657.283 612.256C687.706 574.865 716.8 537.42 742.328 496.922C723.482 515.206 704.191 533.304 684.454 551.217C681.91 553.499 669.997 563.919 669.459 556.763C681.901 524.132 693.359 489.98 703.117 455.674C708.58 443.184 712.541 430.96 715 419L717.548 410.677C742.682 355.582 767.291 301.153 791.373 247.39C799.277 228.379 806.904 209.037 810.551 188.826L813 186L815.498 171.459C815.863 170.332 817.03 169.846 819 170C816.611 167.495 823.912 162.367 826 165C852.185 155.531 881.98 189.4 894 209Z" fill="#F5D48D"/>
<path d="M814 147C816.451 149.332 814.061 163.087 815.004 164.004C818.614 164.939 817.81 162.35 819.445 160.984C822.047 158.812 824.713 158.786 827.995 159.005L826 165C824.538 165.529 820.167 168.751 819 170C817.42 170.817 816.22 171.633 815.403 172.447L813 186C808.256 221.203 780.758 275.513 765.687 309.187C749.287 345.834 732.562 382.918 715 419C715.439 422.001 714.581 426.369 711 426C710.74 427.928 710.374 429.812 709.64 431.539C703.051 447.036 695.667 462.423 686 476C685.426 478.226 684.812 480.438 684.058 482.601C683.305 484.761 682.539 486.903 681.503 488.901C668.157 514.629 654.038 539.625 639.293 563.865C636.412 570.543 632.647 576.255 628 581C624.068 574.732 619.909 568.418 616 562C617.43 557.028 620.092 552.383 623.987 548.066C623.987 548.066 636.991 524.711 663 478C696.74 414.487 730.73 353.734 760.177 287.677C775.2 253.975 794.992 210.111 801 174C800.249 180.432 808.114 176.995 811.572 176.072C814.371 166.479 814.442 156.999 814 147Z" fill="#D39E4A"/>
<path d="M769 83C771.559 84.599 773.803 86.946 776 89C779.467 96.509 784.507 103.225 787.482 111.018C798.233 139.185 792.397 176.605 784.498 204.998C772.117 249.493 749.434 291.381 729.981 332.992C729.16 332.957 728.123 333.432 727.995 332.496C727.098 325.932 736.169 308.522 738.766 301.266C754.675 256.803 770.528 197.809 767.039 150.461C765.881 134.756 754.619 103.174 733.658 112.157C717.877 118.92 697.308 162.104 690.531 178.031C678.165 207.098 668.635 238.068 658.505 268.005L655.005 270.995C657.423 252.84 661.386 234.726 665.311 216.811C671.688 187.708 678.573 156.506 689.25 128.75C702.528 94.235 727.772 57.242 769 83Z" fill="#FCE8B7"/>
<path d="M121 177C125.888 178.285 129.284 176.301 134.816 177.687C152.486 182.114 149.592 204.362 153.547 217.953C155.657 225.207 174.503 262.934 173.998 265.471C173.802 266.456 172.294 267.364 170.979 266.523C170.287 266.082 162.912 255.543 161.026 253.474C155.114 246.986 138.187 229.571 129.523 229.928C117.99 230.403 109.096 253.829 108.121 263.622C104.988 295.09 137.425 358.076 152.828 386.672C186.353 448.913 229.366 504.739 275.486 558.014C276.716 559.435 285.192 566.631 283.99 568C268.543 555.729 254.934 541.42 240.974 527.526C217.242 503.908 197.581 480.894 175.514 455.986C139.616 415.465 98.983 376.815 83 323C75.339 297.206 75.678 266.281 81 240C85.695 216.812 99.88 188.853 121 177Z" fill="#FCE8B6"/>
<path d="M802 163C801.669 156.068 802.456 148.905 802 142C803.47 146.892 803.47 154.462 803.073 159.618C802.936 161.398 802.037 162.645 802 163Z" fill="#D39E4A"/>
<path d="M693 720C692.113 725.338 692.747 728.017 690.193 733.693C687.997 738.573 680.739 744.961 680.2 748.72C680.019 749.983 680.342 754.851 683 754L683.194 756.589C674.528 766.277 664.856 774.696 654.177 781.846C657.648 781.269 659.922 781.987 661 784C671.902 782.23 683.107 782.715 694.615 785.455L698 788C711.719 790.074 725.819 792.491 739.48 795.035C741.104 795.338 741.22 794.354 741.002 796.989C727.82 802.36 714.038 806.776 701.015 812.515C689.178 817.732 673.352 824.303 666.001 834.989C667.13 836.086 678.12 835.168 680.384 834.885C698.112 832.669 716.897 825.808 734.786 823.224C743.582 823.68 741.611 831.882 743.299 838.201C747.948 855.613 760.458 873.018 767 890C769.997 897.78 774.671 906.135 765.005 910.505C755.7 914.713 716.996 921.031 706.454 921.038C700.001 921.042 693.024 919.826 689.168 914.332C678.109 898.571 670.687 869.401 662.485 851.015C656.621 837.871 649.062 827.067 651.129 851.371C652.613 868.831 660.181 888.119 661.982 906.515C662.451 911.302 663.261 920.358 659.471 923.971C655.631 927.633 621.487 932.356 614.49 932.99C604.088 933.933 581.433 936.276 573.073 930.427C568.591 927.291 567.638 922.07 566.465 917.035C563.839 905.764 556.21 852.309 550.498 847.004C544.714 841.632 543.238 860.32 543.01 863.51C541.882 879.32 542.998 895.534 540.858 911.358C539.978 917.867 538.668 928.711 532.95 932.45C522.237 939.457 485.6 938.774 472.617 936.883C460.266 935.084 454.467 933.616 456.257 919.756C458.505 902.348 466.68 883.754 467.987 865.487C468.714 855.335 468.801 835.719 458.459 854.959C448.592 873.313 440.524 913.396 425.033 926.533C415.483 934.631 386.784 931.748 374.642 929.858C369.247 929.019 351.708 927.063 352.011 919.619C352.242 913.951 368.375 887.309 371.857 879.357C373.684 875.186 375.47 870.799 377.017 866.517C382.415 851.579 391.894 820.716 367.486 847.986C357.468 859.178 350.371 872.938 341.414 884.914C336.888 890.964 317.828 914.481 311.96 916.46C303.081 919.455 282.556 916.326 272.791 914.709C265.875 913.564 257.443 911.802 250.785 909.715C246.201 908.278 235.862 905.032 237.146 898.738C237.843 895.317 256.38 871.156 260.021 865.521C264.734 858.225 275.961 841.813 277.558 834.058C278.586 829.062 277.049 823.874 279.135 819.138C297.438 820.217 315.227 825.311 333.509 826.991C339.5 827.542 357.754 829.342 362.348 827.849C368.335 825.903 360.391 820.804 358.017 819.483C343.283 811.281 321.271 808.152 306.755 799.745C305.653 799.107 304.275 798.37 304 797.01C322.967 795.643 342.95 788.822 361.622 787.122C369.803 786.377 378.704 787.287 387 787C390.869 787.122 394.741 787.063 398.617 786.821L399.5 788C399.714 787.222 400.02 786.113 400.666 786C403.4 785.52 419.25 785.557 422.042 786L423.5 788L424.104 785.917C427.761 785.877 430.726 784.905 433 783L434.408 781.927C474.973 786.905 486.934 783.36 442.595 772.187L423.68 765.379C422.514 763.579 421.775 762.151 423.757 761.09C457.88 763.284 492.091 765.032 526.389 766.334C552.923 764.777 579.389 762.652 605.788 759.958C608.585 760.088 609.459 762.938 607.328 764.659L578.794 777.249C564.988 783.105 568.07 784.998 588.039 782.929L589 784L592.581 781.371C623.636 775.642 653.041 761.03 675.426 738.642L682 734C685.819 729.42 690.447 726.276 693 720Z" fill="#F3D087"/>
<path d="M274.997 818.007C277.361 820.551 260.772 828.382 259.069 829.569C240.07 842.813 224.903 864.487 207.526 880.027C204.043 883.141 195.756 890.905 191.478 891.077C187.865 891.223 162.938 879.93 161.495 877.008C159.131 872.221 165.081 864.248 167.585 860.085C173.165 850.81 180.789 839.441 187.186 830.686C189.324 827.758 196.415 817.695 199.027 816.527C205.18 813.775 241.612 814.542 250.541 814.959C253.835 815.113 273.978 816.91 274.997 818.007Z" fill="#F4D187"/>
<path d="M431 782C432.595 781.707 433.262 782.041 433 783C433.064 784.15 433.11 785.885 432.069 786.557C431.704 786.792 424.024 788 423.5 788H399.5C398.832 788 396.915 789.071 394.568 789.039C392.622 789.013 388.695 788.147 387 787C388.154 786.96 390.396 787.497 390.995 786.505C388.909 785.622 385.385 781.708 384 781C392.344 774.992 381.888 771.055 377.994 767.506C374.434 764.262 372.071 760.477 368 757L373.337 757.589C390.268 766.6 407.978 774.206 426.611 778.889L431 782Z" fill="#ECC475"/>
<path d="M210 746L206 748C183.514 735.018 150.529 715.232 131.074 698.426C124.212 692.499 122.558 688.349 113.956 683.48C113.484 683.214 113.195 680.411 112 679C113.883 677.62 114.619 677.915 116.512 678.949C121.793 681.834 131.697 692.395 137.542 696.958C159.763 714.305 185.235 732.638 210 746Z" fill="#E4B763"/>
<path d="M219 762L218 757.005C220.454 756.715 222.389 757.035 224.722 757.78C230.403 759.593 262.281 775.62 267.334 779.166C268.909 780.272 271.204 781.743 270.995 783.995C267.19 785.004 264.902 782.922 262 782C248.595 777.74 231.582 768.648 219 762Z" fill="#D4A04B"/>
<path d="M49 555C49.453 555.324 50.893 557.066 52 558L153.017 684.489C153.371 686.56 152.205 686.221 150.694 685.813C145.637 684.45 124.857 669.112 119.527 664.973C95.65 646.43 73.2281 623.466 52 602C50.476 597.544 44.441 590.489 41.829 585.671C37.555 577.788 30.005 561.78 32 553C29.157 551.158 31.53 548.459 34.061 547.328C38.912 545.16 47.033 550.387 49 555Z" fill="#FCE9B6"/>
<path d="M783 813C794.878 812.488 815.249 811.624 826.523 812.977C832.439 813.687 834.715 817.251 837.81 821.69C844.693 831.563 851.078 846.076 855.017 857.483C857.136 863.616 861.93 874.423 858.868 880.373C855.066 887.762 825.567 897.607 817.244 898.738C805.571 900.324 802.903 894.907 796 887C792.416 882.895 789.331 878.306 786 874C777.54 866.599 770.873 857.599 766 847C758.81 838.038 751.771 828.894 742.02 822.5C754.828 817.139 769.041 813.601 783 813Z" fill="#F4D187"/>
<path d="M749 761C745.197 762.737 745.344 769.623 744.996 770.006C744.681 770.353 739.539 768.454 736.034 771.536C731.607 775.428 738.266 781.96 730 782C725.121 785.013 714.944 781.335 710 779C709.805 778.951 708.997 776.322 706.515 777.004C704.091 777.67 704.976 781.36 706.981 782.502C704.838 785.654 698.228 783.279 698 788C685.683 786.138 673.468 783.831 661 784C660.161 781.217 662.137 780.237 666.93 781.06C667.719 777.371 670.335 774.689 674.779 773.013C686.693 760.681 698.322 750.064 713.582 742.44L716 743C714.151 749.995 707.457 751.322 710.196 760.311C713.161 770.043 742.036 762.921 749 761Z" fill="#DFB15C"/>
<path d="M730 782C735.658 783.102 738.931 784.37 744 786C744.181 783.361 745.068 783.566 746 786C745.811 786.197 746.61 787.759 745.408 788.048C738.07 789.813 719.065 783.598 711.395 781.089C710.166 780.687 707.239 781.541 710 779C715.858 780.473 723.904 780.813 730 782Z" fill="#CB933F"/>
<path d="M786 874C783.864 873.22 774.609 867.452 773.937 866.313C772.871 864.507 773.286 861.871 772.526 859.97C770.862 855.81 765.03 852.524 766 847C773.004 855.73 779.162 865.161 786 874Z" fill="#DFB15C"/>
<path d="M769 753C763.844 755.339 760.48 757.198 755 759C758.542 756.029 764.389 753.176 769 753Z" fill="#DFB15C"/>
<path d="M744 786C741.84 780.381 750.992 779.171 748.941 783.446C748.573 784.213 746.845 785.121 746 786C745.377 785.89 744.507 786.163 744 786Z" fill="#DFB15C"/>
<path d="M760 779C755.078 778.092 750.976 779.464 757 774L760 779Z" fill="#DFB15C"/>
<path d="M815 770C813.347 773.679 809.748 772.476 807 773C809.16 771.091 812.379 770.876 815 770Z" fill="#DFB15C"/>
<path d="M49.0001 555C45.3181 552.365 34.0731 543.877 32.0001 553C26.7301 553.355 24.7961 542.467 24.2561 538.244C23.5621 532.814 25.1141 528.716 24.9321 524.576C24.7831 521.157 19.8941 517.796 24.0001 516C31.8331 527.368 39.3951 538.946 47.0771 550.427C48.0761 551.919 49.4461 552.753 49.0001 555Z" fill="#F6D591"/>
<path d="M422 478L424.87 478.057C430.212 484.709 436.309 490.461 443.162 495.313L444 498C439.989 513.156 432.412 523.744 425 537C419.642 527.658 414.257 518.133 408.422 509.078C403.559 501.533 393.173 489.487 389.763 482.737C389.183 481.589 388.122 477.821 390.488 479.007C392.358 479.943 395.767 487.574 398.505 488.995C399.516 488.883 398.992 487.445 398.787 486.715C394.963 473.068 380.058 447.574 373 434C375.087 431.24 378.118 431.714 382.093 435.419C395.854 447.716 408.942 460.753 421.357 474.531L422 478Z" fill="#E5BB6A"/>
<path d="M430 468L430.796 469.166C427.942 471.989 425.01 474.934 422 478C410.784 466.975 390.879 444.029 379.505 435.999C377.351 434.478 375.746 433.659 373 434C360.62 410.19 351.157 399.804 348 372C355.701 387.461 365.211 400.973 376.486 414.014C393.099 433.229 412.944 449.312 430 468Z" fill="#DFB05E"/>
<path d="M600 317C594.04 316.594 587.969 316.242 582 316L568 315C567.333 314.998 566.667 315.001 566 315C566.234 302.833 566.532 290.63 566.959 278.459C569.318 211.23 568.861 143.613 562.113 76.603C565.203 54.704 582.064 47.736 602.506 49.994C614.427 51.311 624.113 61.611 628.039 72.461C636.43 95.656 628.314 155.147 624.857 181.357C618.849 226.904 609.78 272.197 600 317Z" fill="#FBE9BB"/>
<path d="M415 49.0001C420.106 48.5131 424.711 45.418 430.463 44.967C475.344 41.445 470.086 103.689 472.011 133.489C475.168 182.378 477.667 231.433 480.041 280.459C480.555 291.069 480.205 301.81 481.018 312.424L465 314C461.345 314.072 457.653 313.898 454 314L445.049 313.947C435.83 256.77 426.543 199.416 413.511 142.989C409.43 125.321 400.064 100.029 398.085 83.423C396.456 69.759 403.151 55.8341 415 49.0001Z" fill="#FCE9BB"/>
<path d="M490.794 324.294C530.773 323.834 577.798 324.81 617.372 330.127C636.929 332.755 664.735 335.623 660.549 362.052C655.911 391.333 597.134 436.443 577.027 460.527C562.256 478.219 560.961 484.571 569.231 506.269C589.999 560.756 636.795 612.432 663.52 664.979C670.346 678.4 683.671 705.848 671.039 718.539C657.484 732.157 598.508 732.654 578.51 734.01C518.747 738.062 433.488 744.67 375.989 728.51C339.706 718.313 346.944 698.036 360.821 670.321C383.643 624.741 417.327 581.024 442.171 535.671C448.019 524.994 463.465 496.412 463.687 485.329C463.84 477.682 451.665 462.783 446.514 456.986C424.897 432.659 396.135 411.828 377.185 385.315C356.075 355.78 359.153 337.392 396.816 330.316C425.371 324.951 461.463 324.632 490.794 324.294Z" fill="#AD5A10"/>
<path d="M664 637C661.519 632.974 658.558 629.058 656 625L671.514 609.014C726.746 538.578 787.952 466.774 832.171 388.671C852.941 351.986 890.022 275.456 867.167 235.333C860.159 223.032 853.024 222.521 842.53 231.03C816.431 252.19 805.31 286.396 785.423 309.923C782.565 313.303 778.144 315.81 775.01 319C779.728 298.636 790.86 280.63 799.176 261.676C805.917 246.312 814.529 228.964 819.745 213.245C823.821 200.962 823.385 185.001 834.504 177.004C858.573 159.693 887.513 198.383 895.485 218.015C917.527 272.293 874.484 350.83 847.172 397.672C796.433 484.691 734.155 564.927 664 637Z" fill="#FBE8B8"/>
<path d="M715 419L716.59 423.029C704.488 453.545 696.978 485.878 686.271 516.771C682.415 527.897 678.071 537.659 674.536 549.036C673.562 552.174 672.103 554.945 671.005 557.995C671.588 558.603 679.99 552.37 681.012 551.512C699.567 535.941 718.372 516.134 737.014 499.514C739.598 497.211 747.651 487.808 749.514 487.009C750.74 486.483 751.394 487.236 750.989 488.484C745.757 494.443 741.975 501.531 737.413 507.913C724.641 525.779 712.623 544.892 699.391 562.891C684.897 582.604 669.507 601.97 653 620C644.773 606.966 636.198 594.07 628 581C636.325 563.234 647.587 546.839 657.172 529.672C667.03 512.015 676.665 493.927 686 476C689.128 473.9 691.154 470.547 692.079 465.939C700.019 453.896 707.19 439.854 711 426C712.35 423.254 714.008 421.039 715 419Z" fill="#ECC375"/>
<path d="M379 612C377.63 611.256 376.504 610.194 375.486 609.023C362.108 593.646 342.888 573.908 331.589 557.911C301.44 515.224 275.94 469.546 254.824 421.676C253.581 418.858 245.986 402.282 247.005 401.005C249.556 400.432 248.753 401.689 249.591 402.88C256.507 412.708 262.326 423.411 269.184 433.316C277.043 444.667 291.11 466.134 301.096 474.403C301.86 475.036 305.204 478.156 306 476C315.078 490.271 325.425 505.454 335.184 519.316C352.62 544.084 371.324 568.842 393 590C388.454 597.396 383.446 604.794 379 612Z" fill="#EBC374"/>
<path d="M644 745C646.6 744.786 647.007 745.61 645.672 747.775C628.558 760.585 609.709 771.075 589.123 779.244C590.474 781.358 590.433 782.943 589 784C585.067 784.608 580.669 786.016 576.661 785.927C573.804 785.865 566.449 785.356 568.494 780.998C570.027 777.732 599.787 766.385 605.753 763.239C608.133 761.984 607.747 761.926 605.481 761.961C584.589 762.286 561.046 767.211 539.548 768.048C501.828 769.516 468.379 765.06 431.49 763.01C428.668 762.853 425.819 763.067 423.005 763.01L443.214 770.286C448.413 771.938 471.596 776.997 472.878 781.645C473.936 785.484 467.298 785.795 464.535 786.036C454.972 786.869 442.45 784.958 433 783C432.09 782.812 431.376 782.085 431 782C430.79 779.796 432.024 779.177 433.95 778.673L447.039 778.848C427.109 772.333 407.866 764.397 389.309 755.041C385.403 752.497 377.062 746.73 385 747C426.637 754.144 471.443 751.705 513.459 750.959C555.588 750.21 602.472 751.06 644 745Z" fill="#E1B360"/>
<path d="M677 372C672.706 405.945 655.402 425.899 639.819 454.319C626.657 478.322 614.097 502.751 601.384 527.004C600.595 528.888 602.906 529.9 602.976 531.491C603.054 533.283 600.426 535.652 601 538C594.376 526.362 581.853 506.136 580.255 493.237C579.207 484.777 587.073 477.095 592.486 470.986C621.066 438.736 659.169 412.885 677 372Z" fill="#E2B461"/>
<path d="M732 607C732.563 609.012 735.085 607.078 735.944 606.441C744.822 599.866 756.745 585.967 763.436 576.936C765.587 574.033 766.157 569.588 769.99 568C770.01 570.155 768.463 572.113 767.419 573.919C759.339 587.894 748.87 603.831 739.812 617.312C731.013 630.406 721.618 643.015 712.011 655.516C710.968 658.183 715.644 656.648 716.811 656.31C725.828 653.703 732.793 644.376 742.993 645.494C736.137 654.603 728.573 663.068 721.586 672.086C719.585 674.667 718.269 678.45 715.978 681.478C710.157 689.168 701.999 696.299 695.247 703.228C695.48 707.015 694.465 710.627 694 714C695.646 697.648 689.127 682.254 682 668C698.209 647.338 715.539 627.473 732 607Z" fill="#EDC576"/>
<path d="M385 747C381.838 746.721 382.939 747.622 384.529 748.971C402.076 763.87 428.529 767.806 448.968 777.532C454.331 782.909 436.783 780.438 435.057 780.511C433.506 780.576 432.508 781.797 431 782C407.97 776.766 388.633 768.191 368 757C359.704 749.913 348.473 744.514 344 734C352.466 739.713 374.646 745.223 385 747Z" fill="#CC933E"/>
<path d="M682 734C659.748 760.691 623.742 778.628 589 784C588.863 780.227 583.04 781.547 588.061 777.561C605.987 768.221 626.268 761.453 642.01 748.512C642.388 748.2 645.967 745.477 644 745C656.862 743.123 670.32 739.649 682 734Z" fill="#CA923D"/>
<path d="M616 562C614.229 559.093 611.833 556.073 610 553L663 478C648.013 506.213 636.743 537.375 616 562Z" fill="#E3B564"/>
<path d="M444 498C434.998 493.732 428.988 484.87 422 478C420.856 471.969 427.35 471.92 430 468C434.873 473.34 446.216 483.881 445.932 491.331C445.84 493.754 444.539 495.962 444 498Z" fill="#D9A854"/>
<path d="M343 671C342.321 672.325 341.643 673.657 341 675C329.632 664.674 317.753 654.877 306 645C307.884 643.405 311.703 647.04 313.315 648.183C323.434 655.358 333.397 663.148 343 671Z" fill="#E0B261"/>
<path d="M582 316C577.518 315.818 571.826 316.978 568 315C572.415 315.012 578.23 314.148 582 316Z" fill="#F4D18A"/>
<path d="M18 439C14.25 415.936 16.426 378.537 35.988 362.488C53.43 348.179 66.195 362.614 70.547 379.954C76.39 403.235 59.617 414.228 57.28 433.78C52.753 471.652 87.401 516.11 109.604 544.896C166.597 618.792 236.85 680.691 314.991 731.514C315.373 734.033 313.31 733.015 311.97 732.531C306.325 730.492 297.038 725.196 291.323 722.177C208.934 678.66 105.78 598.114 53 521C38.335 499.573 22.168 464.633 18 439Z" fill="#FBE8B7"/>
<path d="M198.01 495L272.004 575.5C273.614 576.324 272.251 577.844 271.481 578.002C269.652 578.376 267.902 576.984 266.504 575.995C250.645 564.77 236.9 544.932 224.028 530.472L198.01 495Z" fill="#E8BE6D"/>
<path d="M980 420C976.68 428.566 972.102 436.796 968 445C931.429 518.15 873.277 579.299 819.026 639.526C784.109 672.283 751.711 711.385 716 743C709.119 749.091 706.238 748.349 700.065 752.565C692.91 757.451 682.687 768.571 676.052 774.552C674.33 776.104 670.875 777.07 669.913 778.42C668.759 780.041 669.174 782.735 668.96 782.958C668.259 783.69 662.265 781.789 661 784C657.691 784.045 653.694 783.59 650.559 784.061C647.032 784.591 643.986 787.037 639.499 787.036C637.116 787.035 637.651 784.418 638.002 784.021C638.409 783.561 648.091 782.19 650.012 781.512C660.698 777.742 674.427 762.147 683 754C694.778 742.808 706.294 731.27 718 720C778.467 661.782 839.477 601.304 892.975 536.475C921.908 501.416 955.08 457.801 971 415C971.525 418.764 976.436 420.528 980 420Z" fill="#D5A04C"/>
<path d="M740 598C737.744 600.857 735.011 603.491 733 606C734.112 603.038 736.701 598.448 740 598Z" fill="#EDC576"/>
<path d="M853 634C857.502 629.87 860.059 631.538 860.672 639.006L866.711 642.394C872.732 653.605 884.323 638.92 886.969 632.089C883.976 615.529 903.841 607.333 917.118 609.911L916 613C906.151 624.384 896.275 636.007 886 647C882.11 648.995 879.353 652.414 877 656C853.848 680.192 830.156 704.233 801.521 722.021C789.783 729.313 771.57 739.949 757.452 738.048C746.015 736.507 760.72 726.771 763.526 724.026C793.691 694.536 823.228 663.93 853 634Z" fill="#FBE7B4"/>
<path d="M916 613C916.534 610.021 914.571 610.915 912.648 611.12C903.81 612.065 897.262 614.108 890.94 620.465C887.832 623.589 889.828 629.134 888.763 633.266C887.343 638.773 875.681 651.132 870.027 648.512C868.623 647.861 867.062 645.087 865.512 643.988C860.815 640.659 856.712 642.037 857.995 633L853 634C878.975 607.887 904.692 577.805 931.986 553.486C939.335 546.938 978.502 512.845 966.761 545.261C959.373 565.66 930.656 596.059 916 613Z" fill="#FBE3AA"/>
<path d="M1005 406C1012.4 418.912 1008.95 445.656 1003.76 459.263C1002.45 462.717 996.262 476.83 994.484 478.986C992.021 481.975 992.279 475.024 991.005 473.495C990.491 472.879 987.503 471.52 987.004 472.006C989.758 478.237 983.471 485.318 979.512 490.012C968.959 502.522 941.308 526.929 952.967 490.467C957.308 476.891 966.803 459.47 973 446C977.278 436.7 980.933 426.928 985.289 417.789C988.715 410.598 997.05 392.135 1005 406Z" fill="#FCE9B7"/>
<path d="M886 647C883.065 650.14 879.923 652.945 877 656C878.508 652.109 881.547 647.451 886 647Z" fill="#FBE3AA"/>
<path d="M982 357C979.875 354.283 981.405 349.498 981 346C982.807 348.617 982.026 353.57 982 357Z" fill="#D9A54F"/>
<path d="M819 170C814.27 175.063 815.504 180.066 813 186C813.716 180.684 813.369 174.443 814.005 169.002L819 170Z" fill="#DCAB56"/>
<path d="M686 476C694.56 459.562 702.818 442.64 711 426C713.011 427.057 711.697 429.242 711.21 430.703C708.747 438.093 702.476 452.418 698.771 459.271C697.275 462.037 694.25 463.46 692.8 466.3C690.568 470.671 692.576 477.184 686 476Z" fill="#F5D48D"/>
<path d="M483.794 339.294C522.33 338.637 565.267 338.763 603.488 343.012C615.467 344.343 643.001 346.888 638.525 364.033C633.889 381.796 588.493 420.158 574.485 435.985C565.537 446.097 549.142 466.14 548.943 479.529C548.834 486.92 547.375 494.427 547.963 501.535C549.001 514.083 557.816 530.527 563.828 541.671C587.933 586.348 627.734 634.236 646.857 679.642C650.621 688.579 656.776 703.45 644.714 709.214C639.469 711.721 623.741 714.063 617.377 714.877C557.066 722.597 455.975 729.677 397.988 715.511C377.431 710.489 366.316 706.888 376.824 683.324C380.437 675.219 386.637 665.57 391.192 657.692C412.032 621.65 436.108 586.066 456.171 549.671C468.082 528.063 481.715 501.112 477.754 475.736C473.843 450.684 418.671 404.969 401.025 383.474C386.742 366.076 375.029 350.995 405.797 344.297C430.857 338.843 458.306 339.729 483.794 339.294Z" fill="#8E460D"/>
<path d="M631 360C631.058 360.168 631.85 360.326 631.797 361.274C631.504 366.592 624.373 375.21 620.975 379.475C600.665 404.97 545.181 447.987 542.009 479.509C538.058 518.783 561.388 549.995 580.583 581.917C595.809 607.237 639.796 666.922 644.547 691.949C645.514 697.044 645.933 701.58 640.922 704.422C635.444 707.529 617.535 709.228 610.49 709.99C551.379 716.391 484.572 720.12 425.504 713.996C414.012 712.804 394.579 710.813 385 705C382.29 703.865 383.432 700.273 384.72 698.077C394.077 687.948 402.393 677.037 409.668 665.345L412 665L416.11 656.241C443.105 619.104 468.08 580.106 490.361 540.441C495.606 531.104 510.553 500.651 507.996 490.952C502.691 484.508 502.391 480.36 507.097 478.509C513.537 469.687 482.245 426.579 474 419L469.856 417.091C456.911 401.788 443.323 387.452 429.093 374.084C427.086 371.701 421.151 364.003 422.683 361.272C423.737 359.394 435.157 357.431 438.079 357.171C501.927 351.482 565.254 350.702 628.006 358.115L631 360Z" fill="#CFAA59"/>
<path d="M474 419L495.409 443.091C500.743 452.536 511.763 467.978 509.018 479.295C508.734 480.466 505.305 480.979 505.164 482.485C505.043 483.787 509.452 487.308 509.953 490.565C512.073 504.354 494.902 536.666 487.798 549.298C476.44 569.492 462.672 591.012 450.021 610.521C437.987 629.08 425.468 647.463 412 665L410.423 663.418C413.522 652.958 402.519 662.037 402.289 668.532C400.316 672.663 392.031 674.174 392 669C393.468 666.293 395.486 663.668 397 661C398.799 660.621 400.24 658.734 399 657C405.867 645.1 414.195 633.608 421 622C428.699 621.884 429.104 617.678 429.5 610.919L432 603C432.598 601.977 433.103 600.536 434 599C437.572 598.798 439.239 596.131 439 591C455.431 562.746 487.647 513.194 485.036 480.464C484.486 473.574 481.288 465.982 478 460C478.015 455.41 474.618 451.517 471 449C470.748 448.649 470.276 448.376 470 448C470.161 445.485 468.947 442.892 466.357 440.22C460.996 423.947 490.476 439.924 482.038 449.85C502.504 458.342 479.04 427.166 475.09 423.613L474 419Z" fill="#E0BA62"/>
<path d="M529 344L539 345C540.666 345.01 542.333 344.994 544 345C547.378 345.312 550.711 345.646 554 346L565 347C567.662 347.014 570.338 346.985 573 347L583 348C593.829 348.317 607.35 349.232 617.842 351.658C623.365 352.935 628.94 353.996 631 360C619.156 360.744 607.264 357.879 595.49 357.01C542.576 353.105 492.129 353.565 439.516 359.016C434.401 359.546 429.045 360.993 424.004 362.011C428.702 374.241 440.26 381.327 448.65 390.35C456.984 399.313 466.368 409.514 474 419C478.014 423.989 481.979 429.445 485.978 434.522C489.204 438.615 492.721 445.064 492.025 450.44C491.208 456.755 483.892 451.44 479.996 451.996C479.072 448.66 482.853 445.982 481.538 443.033C479.827 441.975 472.257 435 471.483 434.922C462.916 434.058 470.339 442.552 471.454 445.047C472.312 446.967 472.897 448.422 470 448C451.95 423.48 426.839 404.401 407.486 381.014C402.794 375.344 389.797 361.359 395.974 354.472C401.399 348.423 435 346.343 444 346C449.96 345.05 456.034 345.137 462 346H468C471.204 346.777 474.537 346.777 478 346C495.415 343.934 511.481 343.902 529 344Z" fill="#E2BC62"/>
<path d="M392 669C402.299 674.043 401.289 661.762 404.43 658.93C406.282 657.26 411.06 657.078 413.486 655.985C414.838 655.949 412.395 664.009 412 665C409.762 670.612 403.183 678.796 399.392 683.892C396.37 687.953 387.661 696.718 386.11 699.646C384.863 701.998 385.796 703.084 385 705C384.48 704.684 383.326 704.853 382.473 704.066C374.528 696.726 387.862 676.631 392 669Z" fill="#E1BC64"/>
<path d="M432 603C431.543 607.486 431.739 618.075 429.06 621.296C427.991 622.582 421.784 625.487 421 622C424.623 615.819 428.334 609.27 432 603Z" fill="#E1BC64"/>
<path d="M434 599C435.587 596.284 437.568 593.463 439 591C439.102 593.713 440.829 596.395 439.57 599.063C438.65 600.356 434.8 600.709 434 599Z" fill="#E1BC64"/>
<path d="M471 449C474.615 448.72 481.46 456.977 478 460C476.464 457.206 472.887 451.625 471 449Z" fill="#E2BC62"/>
<path d="M462 346C456.033 346 449.956 345.773 444 346C449.079 344.318 456.993 344.325 462 346Z" fill="#AD5A10"/>
<path d="M399 657C403.262 656.632 400.646 660.925 397.487 661.975L397 661C397.732 659.709 398.26 658.281 399 657Z" fill="#E1BC64"/>
<path d="M555 346H554C550.86 345.978 546.304 346.832 544 345C547.455 345.012 552.365 344.165 555 346Z" fill="#AD5A10"/>
<path d="M565 347C561.541 346.982 556.638 347.84 554 346C554.333 346.002 554.667 345.997 555 346C558.145 346.031 562.692 345.161 565 347Z" fill="#CFAA59"/>
<path d="M539 345C535.862 344.981 531.302 345.829 529 344C532.137 344.018 536.7 343.172 539 345Z" fill="#AD5A10"/>
<path d="M478 346C475.427 346.305 470.648 348.727 468 346H478Z" fill="#AD5A10"/>
<path d="M583 348C579.826 347.907 575.335 348.885 573 347C576.137 347.018 580.699 346.171 583 348Z" fill="#CFAA59"/>
<path d="M420 645.99C422.704 644.642 427.483 633.636 429.485 634.005C432.404 634.544 428.56 639.765 428.001 640.502C426.358 642.668 422.974 646.394 420 645.99Z" fill="#E1BC64"/>
</g>
<defs>
<clipPath id="clip0_576_411">
<rect width="1024" height="1024" fill="white"/>
</clipPath>
</defs>
</svg>
